<svg xmlns="http://www.w3.org/2000/svg" viewBox="0 0 211.6 166"><defs><style>.cls-5{fill:#222}</style><clipPath id="clip-path" transform="translate(-.4)"><path fill="none" d="M0 0h212v166H0z"/></clipPath></defs><g id="レイヤー_2" data-name="レイヤー 2"><g id="icon_pc"><g clip-path="url(#clip-path)" id="icon_pc-2" data-name="icon_pc"><path d="M14 26h112a10 10 0 0 1 10 10v72H4V36a10 10 0 0 1 10-10z" transform="translate(-.4)" fill="#fff"/><path d="M15 106h108a13 13 0 0 1 0 26H15a13 13 0 0 1 0-26z" transform="translate(-.4)" fill="#ddd"/><path class="cls-5" d="M120.2 139h-31v18H98a4.5 4.5 0 0 1 0 9H44.8a4.5 4.5 0 0 1 0-9h8.9v-18H18A17.9 17.9 0 0 1 .4 121V40a17.9 17.9 0 0 1 17.8-18h102A17.9 17.9 0 0 1 138 40v81a17.9 17.9 0 0 1-17.8 18zm-40 18v-18H62.6v18zm49-117a9 9 0 0 0-9-9h-102a9 9 0 0 0-9 9v63h120zm0 72H9.1v9a9 9 0 0 0 9 9h102a9 9 0 0 0 9-9z" transform="translate(-.4)"/><path d="M196 84h-87.7L80 88.2 90 56V16a12 12 0 0 1 12-12h94a12 12 0 0 1 12 12v56a12 12 0 0 1-12 12z" transform="translate(-.4)" fill="#7ed0d0"/><path class="cls-5" d="M74.3 93L86 55.4V16a16 16 0 0 1 16-16h94a16 16 0 0 1 16 16v56a16 16 0 0 1-16 16h-87.4zM102 8a8 8 0 0 0-8 8v40.6l-8.3 26.7 22.6-3.3H196a8 8 0 0 0 8-8V16a8 8 0 0 0-8-8z" transform="translate(-.4)"/><path class="cls-5" d="M178 54a8 8 0 1 1 8-8 8 8 0 0 1-8 8zm-28 0a8 8 0 1 1 8-8 8 8 0 0 1-8 8zm-28 0a8 8 0 1 1 8-8 8 8 0 0 1-8 8z" transform="translate(-.4)"/></g></g></g></svg>