<svg xmlns="http://www.w3.org/2000/svg" viewBox="0 0 189.9 165.9"><defs><style>.cls-5{fill:#222}</style><clipPath id="clip-path"><path fill="none" d="M0 0h190v166H0z"/></clipPath></defs><g id="レイヤー_2" data-name="レイヤー 2"><g id="icon_smt"><g clip-path="url(#clip-path)" id="icon_smt-2" data-name="icon_smt"><path d="M134 24h32a20 20 0 0 1 20 20v98a20 20 0 0 1-20 20h-32a20 20 0 0 1-20-20V44a20 20 0 0 1 20-20z" fill="#ddd"/><path d="M114 44h70v74h-70z" fill="#fff"/><path class="cls-5" d="M172.2 166h-44.4a17.9 17.9 0 0 1-17.8-18V40a17.9 17.9 0 0 1 17.8-18h44.4a17.9 17.9 0 0 1 17.7 18v108a17.9 17.9 0 0 1-17.8 18zM181 40a9 9 0 0 0-8.9-9h-44.3a9 9 0 0 0-9 9v4.5H181zm0 13.5h-62.1V112H181zm0 67.5h-62.1v27a9 9 0 0 0 8.9 9H172a9 9 0 0 0 9-9zm-31 27a9 9 0 1 1 8.8-9 9 9 0 0 1-8.8 9z"/><path d="M132 88.2L103.7 84H16A12 12 0 0 1 4 72V16A12 12 0 0 1 16 4h94a12 12 0 0 1 12 12v40z" fill="#f88a3a"/><path class="cls-5" d="M137.7 93l-34.3-5H16A16 16 0 0 1 0 72V16A16 16 0 0 1 16 0h94a16 16 0 0 1 16 16v39.4zM16 8a8 8 0 0 0-8 8v56a8 8 0 0 0 8 8h88l22.3 3.3-8.3-26.7V16a8 8 0 0 0-8-8z"/><path class="cls-5" d="M92 54a8 8 0 1 1 8-8 8 8 0 0 1-8 8zm-28 0a8 8 0 1 1 8-8 8 8 0 0 1-8 8zm-28 0a8 8 0 1 1 8-8 8 8 0 0 1-8 8z"/></g></g></g></svg>