<svg xmlns="http://www.w3.org/2000/svg" viewBox="0 0 200 200"><defs><style>.cls-3{fill:#222}.cls-4{fill:#e57d31}.cls-5{fill:#7ed0d0}</style></defs><g id="レイヤー_2" data-name="レイヤー 2"><g id="img_step02"><g id="img_step02-2" data-name="img_step02"><path fill="#fff" d="M43.3 43.3h115.9v79.4H43.3z"/><path fill="#eee" d="M43.3 109.1h115.9v13.6H43.3z"/><path class="cls-3" d="M162.6 124.7H41V51.1a9.6 9.6 0 0 1 9.6-9.6H153a9.6 9.6 0 0 1 9.6 9.6zm-117-4.5H158V51a5 5 0 0 0-5-5H50.6a5 5 0 0 0-5 5z"/><path class="cls-3" d="M163.6 125.7H40V51.1a10.6 10.6 0 0 1 10.6-10.6H153a10.6 10.6 0 0 1 10.6 10.6zm-117-6.5H157V51a4 4 0 0 0-4-4H50.6a4 4 0 0 0-4 4z"/><path class="cls-3" d="M43.3 107.3h117v4.5h-117z"/><path class="cls-3" d="M161.3 112.9h-119v-6.6h119zm-33 30.4h-53v-6.6h53z"/><path class="cls-3" d="M114.6 142.3H89v-22.1h25.7zm-21.1-4.6H110v-13H93.5z"/><path class="cls-3" d="M115.6 143.3H88v-24.1h27.7zm-21.1-6.6H109v-11H94.5z"/><path class="cls-4" d="M74.7 85.5h-4.5v-8.7h2.3a6.4 6.4 0 1 0-6.5-6.5h-4.5a11 11 0 1 1 13.2 10.8z"/><path class="cls-4" d="M74.7 86.5h-4.5a1 1 0 0 1-1-1v-8.7a1 1 0 0 1 1-1h2.3a5.4 5.4 0 1 0-5.5-5.5 1 1 0 0 1-1 1h-4.5a1 1 0 0 1-1-1 12 12 0 1 1 15.2 11.5v3.7a1 1 0 0 1-1 1zm-4.5 3.7h4.5v5.1h-4.5z"/><path class="cls-4" d="M74.7 96.3h-4.5a1 1 0 0 1-1-1v-5.1a1 1 0 0 1 1-1h4.5a1 1 0 0 1 1 1v5a1 1 0 0 1-1 1zm-3.5-2h2.5v-3.1h-2.5z"/><path class="cls-3" d="M131.7 59.4h11v4.5h-11z"/><path class="cls-3" d="M142.8 65h-11a1 1 0 0 1-1-1v-4.6a1 1 0 0 1 1-1h11a1 1 0 0 1 1 1v4.5a1 1 0 0 1-1 1zm-47.7-5.6H123v4.5H95.1z"/><path class="cls-3" d="M123 65H95.1a1 1 0 0 1-1-1v-4.6a1 1 0 0 1 1-1H123a1 1 0 0 1 1 1v4.5a1 1 0 0 1-1 1z"/><path class="cls-5" d="M142.8 75.3h-30.4a1 1 0 0 1-1-1v-4.5a1 1 0 0 1 1-1h30.3a1 1 0 0 1 1 1v4.5a1 1 0 0 1-1 1z"/><path class="cls-4" d="M95.1 69.8h12.4v4.5H95.1z"/><path class="cls-4" d="M107.5 75.3H95.1a1 1 0 0 1-1-1v-4.5a1 1 0 0 1 1-1h12.4a1 1 0 0 1 1 1v4.5a1 1 0 0 1-1 1z"/><path class="cls-3" d="M142.8 85.7h-16.4a1 1 0 0 1-1-1V80a1 1 0 0 1 1-1h16.4a1 1 0 0 1 1 1v4.6a1 1 0 0 1-1 1zm-47.7-5.6h22.4v4.5H95.1z"/><path class="cls-3" d="M117.5 85.7H95.2a1 1 0 0 1-1-1V80a1 1 0 0 1 1-1h22.5a1 1 0 0 1 1 1v4.6a1 1 0 0 1-1 1z"/><path class="cls-4" d="M134.6 90.5h8.2V95h-8.2z"/><path class="cls-4" d="M142.8 96h-8.2a1 1 0 0 1-1-1v-4.5a1 1 0 0 1 1-1h8.2a1 1 0 0 1 1 1V95a1 1 0 0 1-1 1z"/><path class="cls-5" d="M95.1 90.5h29.6V95H95.1z"/><path class="cls-5" d="M124.7 96H95.1a1 1 0 0 1-1-1v-4.5a1 1 0 0 1 1-1h29.6a1 1 0 0 1 1 1V95a1 1 0 0 1-1 1z"/><path fill="none" d="M0 0h200v200H0z"/></g></g></g></svg>