<svg xmlns="http://www.w3.org/2000/svg" viewBox="0 0 200 200"><defs><style>.cls-1{fill:#7ed0d0}.cls-2{fill:#222}.cls-3{fill:#e57d31}.cls-4{fill:none}.cls-5,.cls-6{fill-rule:evenodd}.cls-6{fill:#f3ca3e}</style></defs><g id="レイヤー_2" data-name="レイヤー 2"><g id="img_step03"><g id="img_step03-2" data-name="img_step03"><path class="cls-1" d="M42 46.6a2.7 2.7 0 0 1 0-5.4 6.5 6.5 0 0 0 6.5-6.4 2.7 2.7 0 1 1 5.3 0A11.8 11.8 0 0 1 42 46.5"/><path class="cls-1" d="M60.3 46.6a11.8 11.8 0 0 1-11.8-11.9 2.7 2.7 0 1 1 5.3 0 6.5 6.5 0 0 0 6.5 6.5 2.7 2.7 0 0 1 0 5.4"/><path class="cls-1" d="M51.2 55.7a2.7 2.7 0 0 1-2.7-2.7 6.5 6.5 0 0 0-6.5-6.4 2.7 2.7 0 0 1 0-5.4A11.8 11.8 0 0 1 53.8 53a2.7 2.7 0 0 1-2.6 2.7"/><path class="cls-1" d="M51.2 55.7a2.7 2.7 0 0 1-2.7-2.7 11.8 11.8 0 0 1 11.8-11.8 2.7 2.7 0 0 1 0 5.4 6.5 6.5 0 0 0-6.5 6.4 2.7 2.7 0 0 1-2.6 2.7M159.5 134.4a2.7 2.7 0 0 1 0-5.3 6.5 6.5 0 0 0 6.5-6.5 2.7 2.7 0 0 1 5.3 0 11.8 11.8 0 0 1-11.8 11.8"/><path class="cls-1" d="M177.8 134.4a11.8 11.8 0 0 1-11.8-11.8 2.7 2.7 0 0 1 5.3 0 6.5 6.5 0 0 0 6.5 6.5 2.7 2.7 0 0 1 0 5.3"/><path class="cls-1" d="M168.6 143.5a2.7 2.7 0 0 1-2.6-2.6 6.5 6.5 0 0 0-6.5-6.5 2.7 2.7 0 1 1 0-5.3 11.8 11.8 0 0 1 11.8 11.8 2.7 2.7 0 0 1-2.7 2.6"/><path class="cls-1" d="M168.6 143.5a2.7 2.7 0 0 1-2.6-2.6 11.8 11.8 0 0 1 11.8-11.8 2.7 2.7 0 0 1 0 5.3 6.5 6.5 0 0 0-6.5 6.5 2.7 2.7 0 0 1-2.7 2.6"/><path class="cls-2" d="M148.8 156a6.2 6.2 0 1 1 6.1-6.2 6.2 6.2 0 0 1-6.1 6.2m0-7a.8.8 0 1 0 .8.8.8.8 0 0 0-.8-.8"/><path class="cls-3" d="M163 72a6.2 6.2 0 1 1 6.2-6.2A6.2 6.2 0 0 1 163 72m0-7a.8.8 0 1 0 .8.8.8.8 0 0 0-.8-.8M38.2 156.6a2.7 2.7 0 0 1-2.6-2.7v-6a2.7 2.7 0 1 1 5.3 0v6a2.7 2.7 0 0 1-2.7 2.7"/><path class="cls-3" d="M41.3 153.5h-6.1a2.7 2.7 0 0 1 0-5.3h6a2.7 2.7 0 1 1 0 5.3"/><path class="cls-2" d="M29.1 68.8a2.7 2.7 0 0 1-2.7-2.7V60a2.7 2.7 0 1 1 5.4 0v6a2.7 2.7 0 0 1-2.7 2.7"/><path class="cls-2" d="M32.1 65.7h-6a2.7 2.7 0 1 1 0-5.3h6a2.7 2.7 0 1 1 0 5.3M31.9 91a2.6 2.6 0 0 1-.7 0l-8.9-2.4a2.7 2.7 0 0 1 1.3-5.2l9 2.4a2.7 2.7 0 0 1-.7 5.2M30.5 98.9h-.3l-9.1-.9a2.7 2.7 0 0 1 .5-5.3l9.2.9a2.7 2.7 0 0 1-.3 5.3M24.2 132.2a2.7 2.7 0 0 1-.6-5.3l8.8-2.3a2.7 2.7 0 0 1 1.4 5.1l-8.9 2.4a2.3 2.3 0 0 1-.7 0M56.4 174.1A2.7 2.7 0 0 1 54 170l5-7.7a2.7 2.7 0 1 1 4.5 3l-5 7.6a2.7 2.7 0 0 1-2.2 1.2M135.3 171.2a2.7 2.7 0 0 1-2.5-1.6l-3.6-8.5a2.7 2.7 0 1 1 5-2l3.5 8.4a2.7 2.7 0 0 1-1.4 3.5 2.6 2.6 0 0 1-1 .2M178.6 109.4h-.3l-9.1-1a2.7 2.7 0 0 1 .6-5.3l9.1 1a2.7 2.7 0 0 1-.3 5.3M169.4 96.7a2.7 2.7 0 0 1-.3-5.3l9.2-1a2.7 2.7 0 0 1 .6 5.2l-9.2 1.1h-.3M142.4 49.2a2.7 2.7 0 0 1-2.1-4.3l5.5-7.3a2.7 2.7 0 1 1 4.3 3.1l-5.5 7.4a2.7 2.7 0 0 1-2.2 1M134.2 40.6a2.7 2.7 0 0 1-1.2-.3 2.7 2.7 0 0 1-1.2-3.5l4-8.3a2.7 2.7 0 0 1 4.8 2.3l-4 8.3a2.7 2.7 0 0 1-2.4 1.5M80 39.7a2.7 2.7 0 0 1-2.6-2.2l-1.7-9a2.7 2.7 0 1 1 5.2-1l1.7 9a2.7 2.7 0 0 1-2.1 3.2 2.7 2.7 0 0 1-.5 0"/><path class="cls-4" d="M15 17h170v167H15z"/><g id="pelican"><path class="cls-5" d="M99.5 128.5c.6 3 2.3 11.4 2.1 11.7-1.1 1.8-5.3 3.9-3 4s15.5-2.2 11.2-3a13.6 13.6 0 0 1-5-2l-2-11.5zM86.3 133.7c.6 3 2.3 11.4 2.2 11.6-1.2 1.9-5.4 4-3 4.2s15.4-2.3 11.1-3.1a13.8 13.8 0 0 1-5-2.1l-2-11.4z"/><path class="cls-6" d="M105.8 72.5a21.4 21.4 0 0 0 5.2 2.3c9.3 2.8 23.5 6.1 28.4 6.7-4.3 5-2.4 21.8-11.7 20.8-4.7-.5-9-6-14.3-13.8a71.2 71.2 0 0 1-6.5-13c-.8-2-.4-1.5-1-3z"/><path d="M105.8 72.5a21.4 21.4 0 0 0 5.2 2.3c9.3 2.8 23.5 6.1 28.4 6.7-4.2 5-2.5 20.9-11 20.9a7.3 7.3 0 0 1-.7 0c-4.7-.6-9-6-14.3-13.9a71.2 71.2 0 0 1-6.5-13c-.8-2-.4-1.4-1-3m0-4.3a4.3 4.3 0 0 0-2.9 1c-1.4 1.3-.4 5.6-.3 5.7l.7 2c2 4.7 3.5 9.7 6.5 14 4.1 6.2 6.3 8.7 7.8 10.3a22.2 22.2 0 0 0 4.3 3.5 12.5 12.5 0 0 0 5.2 2 11 11 0 0 0 1.3 0 9.4 9.4 0 0 0 5.8-2 11.9 11.9 0 0 0 3.5-4.2 39.4 39.4 0 0 0 2.8-9.3l1-4.7a6.8 6.8 0 0 1 1-2.2 4.5 4.5 0 0 0 .8-4.5 4.3 4.3 0 0 0-3.5-2.7c-4.7-.6-18.7-3.8-27.6-6.6a17.4 17.4 0 0 1-4.2-1.8 4.3 4.3 0 0 0-2.2-.6z"/><path class="cls-6" d="M103 65.2c12.3-1 34.2 0 37.8 3.2-5.9-.7-26.9 1.7-37.5 3.2 0 0 .9-4.6-.3-6.4z"/><path d="M113.3 64.8c11.5 0 24.8 1.2 27.5 3.6a23.8 23.8 0 0 0-2.8-.1c-7.5 0-23 1.8-32.6 3-.8.1-.8-6.2 0-6.3l7.8-.2m0-4.2c-3.8 0-7.4.2-10.5.4-.7 0 1.5 4 1.7 7.9.2 3.5-1.7 7-1 7a5 5 0 0 0 .5 0 339 339 0 0 1 34.1-3.4 18.8 18.8 0 0 1 2.3 0 4.2 4.2 0 0 0 .5 0 4.1 4.1 0 0 0 3.8-2.4 4.2 4.2 0 0 0-1-4.9c-1.4-1.2-4-2.7-12.8-3.7a159.8 159.8 0 0 0-17.6-.9z"/><path d="M102.3 66.1c1.4-5.5-8.1-7.4-11.5-3.7-3.5 4-4.6 13 .5 19.4 2.7 3.5 12.2 12.7 12.6 17.3S90 96.6 77.7 104c-11 6.5-16.6 16.6-16 25.2 34.2 16.9 64-17 52.7-31.8-3.7-4.8-15-19.8-12.1-31.3z" fill="#fff" fill-rule="evenodd"/><path d="M96 60.5c3.5 0 7.2 2 6.3 5.6-3 11.5 8.4 26.5 12 31.3 9.2 11.9-8.5 36.4-33.8 36.4a42.4 42.4 0 0 1-18.8-4.6c-.6-8.7 5-18.8 16-25.3a28.2 28.2 0 0 1 14.6-3.5c3.5 0 6.5.3 8.5.3s3.2-.3 3-1.6c-.3-4.6-9.8-13.8-12.6-17.3-5-6.5-4-15.5-.4-19.4a6.9 6.9 0 0 1 5-1.9m0-4.4a12.6 12.6 0 0 0-4.2.7 9.7 9.7 0 0 0-4 2.7 18 18 0 0 0-4 11.5 21 21 0 0 0 4.3 13.5l3.3 3.7c1.8 2.1 4 4.5 5.7 6.8l.9 1.2a77 77 0 0 0-5.4-.2 39 39 0 0 0-8 .7 28.8 28.8 0 0 0-8.9 3.4 40.4 40.4 0 0 0-13.8 13.3 31.2 31.2 0 0 0-3.5 7.9 24.6 24.6 0 0 0-.9 8.1 4.4 4.4 0 0 0 2.5 3.7 46.7 46.7 0 0 0 20.7 5 43.5 43.5 0 0 0 23.6-7 40 40 0 0 0 14.5-15.9 24.1 24.1 0 0 0 2.5-10.5 16.5 16.5 0 0 0-3.3-10.1 81.2 81.2 0 0 1-8.1-12.4 35.4 35.4 0 0 1-3.1-8 14.8 14.8 0 0 1-.2-7 8.1 8.1 0 0 0-1.3-7.2 9.9 9.9 0 0 0-4.3-3.1 13.3 13.3 0 0 0-4.9-1z"/><path class="cls-5" d="M97.3 67a2.3 2.3 0 1 1-2.2 2.2 2.3 2.3 0 0 1 2.3-2.3z"/></g><path class="cls-4" d="M0 0h200v200H0z"/></g></g></g></svg>