<svg xmlns="http://www.w3.org/2000/svg" viewBox="0 0 200 200"><defs><style>.cls-1{fill:#fff}.cls-2{fill:#222}.cls-3{fill:#7ed0d0}</style></defs><g id="レイヤー_2" data-name="レイヤー 2"><g id="img_step01"><g id="img_step01-2" data-name="img_step01"><rect class="cls-1" x="7" y="46" width="146" height="36.8" rx="3" ry="3"/><path class="cls-2" d="M150 46a3 3 0 0 1 3 3v30.8a3 3 0 0 1-3 3H10a3 3 0 0 1-3-3V49a3 3 0 0 1 3-3h140m0-4H10a7 7 0 0 0-7 7v30.8a7 7 0 0 0 7 7h140a7 7 0 0 0 7-7V49a7 7 0 0 0-7-7z"/><rect class="cls-1" x="7" y="100" width="146" height="36.8" rx="3" ry="3"/><path class="cls-2" d="M150 100a3 3 0 0 1 3 3v30.8a3 3 0 0 1-3 3H10a3 3 0 0 1-3-3V103a3 3 0 0 1 3-3h140m0-4H10a7 7 0 0 0-7 7v30.8a7 7 0 0 0 7 7h140a7 7 0 0 0 7-7V103a7 7 0 0 0-7-7z"/><path class="cls-3" d="M193 56a3 3 0 0 0-4.2 0L177 66.8l-3.9-3.8a3 3 0 1 0-4.2 4.2l5.8 5.8a3.3 3.3 0 0 0 4.4 0L193 60.2a3 3 0 0 0 0-4.2z"/><path class="cls-2" d="M190.9 55.1a3 3 0 0 1 2.1 5.1L179.2 73a3 3 0 0 1-2.1.9h-.2a3 3 0 0 1-2.1-.9l-5.8-5.8a3 3 0 1 1 4.2-4.2l3.9 3.8L188.8 56a3 3 0 0 1 2-.9m0-4a7 7 0 0 0-4.8 2l-8.8 8.2-1.1-1.1a7 7 0 0 0-10 9.9l5.8 5.8a7 7 0 0 0 5 2h.2a7 7 0 0 0 4.9-2L195.7 63h.1a7 7 0 0 0-5-12z"/><path class="cls-3" d="M193 110a3 3 0 0 0-4.2 0L177 120.8l-3.9-3.8a3 3 0 1 0-4.2 4.2l5.8 5.8a3.3 3.3 0 0 0 4.4 0l13.8-12.8a3 3 0 0 0 0-4.2z"/><path class="cls-2" d="M190.9 109.1a3 3 0 0 1 2.1 5.1L179.2 127a3 3 0 0 1-2.1.9h-.2a3 3 0 0 1-2.1-.9l-5.8-5.8a3 3 0 1 1 4.2-4.2l3.9 3.8 11.7-10.8a3 3 0 0 1 2-.9m0-4a7 7 0 0 0-4.8 2l-8.8 8.2-1.1-1.1a7 7 0 0 0-10 9.9l5.8 5.8a7 7 0 0 0 5 2h.2a7 7 0 0 0 4.9-2l13.7-12.8h.1a7 7 0 0 0-5-12zM17.8 54.8H21l3.2 9c.5 1.1.8 2.3 1.2 3.5h.1l1.2-3.5 3.2-9H33v17.7h-2.6v-8.7c0-1.6.2-3.9.4-5.5h-.1l-1.4 4-3.1 8.5h-1.7l-3.1-8.4-1.4-4.1H20l.3 5.5v8.7h-2.5zM36.3 69c0-2.8 2.4-4.3 7.9-4.9 0-1.5-.6-2.9-2.6-2.9a7.3 7.3 0 0 0-3.8 1.4l-1-2a10.1 10.1 0 0 1 5.3-1.6c3.3 0 4.8 2 4.8 5.6v7.9h-2.2l-.3-1.5a6.6 6.6 0 0 1-4.2 1.8 3.6 3.6 0 0 1-4-3.8zm7.9 0v-3.2c-4 .5-5.3 1.5-5.3 3 0 1.3 1 1.9 2 1.9a4.6 4.6 0 0 0 3.3-1.6zM50 55.2a1.8 1.8 0 0 1 3.5 0 1.8 1.8 0 0 1-3.5 0zm.4 4.1H53v13.2h-2.8zM56.8 69.4v-16h2.7v16.1c0 .8.3 1 .7 1a1.9 1.9 0 0 0 .4 0l.4 2.1a4.5 4.5 0 0 1-1.5.2c-2 0-2.8-1.3-2.8-3.4zM17.8 109.8h5.4c4 0 6.7 1.4 6.7 5.4s-2.8 5.6-6.6 5.6h-2.7v6.7h-2.8zm5.2 8.8c2.8 0 4.2-1.1 4.2-3.4s-1.5-3.1-4.3-3.1h-2.3v6.5zM31.9 124c0-2.8 2.4-4.3 7.9-4.9 0-1.5-.6-2.9-2.6-2.9a7.3 7.3 0 0 0-3.8 1.4l-1-2a10.1 10.1 0 0 1 5.3-1.6c3.3 0 4.8 2 4.8 5.6v8h-2.2L40 126a6.6 6.6 0 0 1-4.2 1.8 3.6 3.6 0 0 1-4-3.8zm7.9 0V121c-4 .4-5.3 1.4-5.3 3 0 1.3 1 1.8 2.1 1.8a4.6 4.6 0 0 0 3.2-1.6zM44.6 126l1.3-1.8a5.8 5.8 0 0 0 3.7 1.5c1.6 0 2.3-.7 2.3-1.7 0-1.2-1.5-1.8-2.9-2.3-1.8-.7-3.8-1.6-3.8-3.9S47 114 50 114a7 7 0 0 1 4.3 1.6l-1.3 1.7a5 5 0 0 0-3-1.2c-1.4 0-2 .7-2 1.6 0 1.2 1.3 1.6 2.7 2.1 1.9.7 4 1.5 4 4 0 2.2-1.8 4-5 4a8.2 8.2 0 0 1-5-1.8zM55.6 126l1.3-1.8a5.8 5.8 0 0 0 3.7 1.5c1.6 0 2.4-.7 2.4-1.7 0-1.2-1.5-1.8-3-2.3-1.7-.7-3.7-1.6-3.7-3.9S58 114 61 114a7 7 0 0 1 4.3 1.6l-1.3 1.6a5 5 0 0 0-3-1.1c-1.4 0-2.1.7-2.1 1.6 0 1.1 1.4 1.6 2.8 2.1 1.9.7 3.9 1.5 3.9 4 0 2.2-1.8 4-5 4a8.2 8.2 0 0 1-5-1.8zM66.6 114.3h2.8l1.7 7.2.8 3.7h.1l.9-3.8 1.8-7.1h2.6l1.9 7.2c.3 1.2.5 2.5.9 3.7l.8-3.8 1.7-7.1h2.6l-3.4 13.2h-3.3l-1.7-6.5-.9-3.8-1 3.8-1.5 6.5h-3.2zM86.5 121c0-4.5 3-7 6.2-7s6.2 2.5 6.2 7-3 6.8-6.2 6.8-6.2-2.5-6.2-6.9zm9.6 0c0-2.9-1.3-4.8-3.4-4.8s-3.4 2-3.4 4.7 1.3 4.7 3.4 4.7 3.4-1.9 3.4-4.7zM101.7 114.3h2.2l.3 2.4a4.6 4.6 0 0 1 3.8-2.7 3.3 3.3 0 0 1 1.5.3l-.5 2.4a4 4 0 0 0-1.3-.2c-1.1 0-2.4.7-3.3 2.8v8.2h-2.7zM110.1 121c0-4.4 2.7-7 5.7-7a5.1 5.1 0 0 1 3.5 1.4V108.3h2.7v19.2h-2.3l-.2-1.5a5.5 5.5 0 0 1-4 1.8c-3.2 0-5.4-2.5-5.4-6.9zm9.1 3v-6.5a4.1 4.1 0 0 0-2.9-1.2c-1.8 0-3.3 1.7-3.3 4.6s1.2 4.6 3.2 4.6a3.9 3.9 0 0 0 3-1.6z"/><path fill="none" d="M0 0h200v200H0z"/></g></g></g></svg>