<svg xmlns="http://www.w3.org/2000/svg" xmlns:xlink="http://www.w3.org/1999/xlink" viewBox="0 0 880 600"><defs><style>.cls-1,.cls-4{fill:#fff;}.cls-1,.cls-10,.cls-11,.cls-16,.cls-17,.cls-20,.cls-23,.cls-3,.cls-7{fill-rule:evenodd;}.cls-2,.cls-3{fill:none;}.cls-5{fill:#eee;}.cls-23,.cls-24,.cls-25,.cls-6,.cls-7{fill:#222;}.cls-8{fill:#fdd94b;}.cls-9{mask:url(#mask);}.cls-10{fill:#f3ca3e;}.cls-12{fill:#e77f7f;}.cls-13{fill:#e6c20a;}.cls-14{fill:#82d05e;}.cls-15,.cls-17{fill:#333;}.cls-16,.cls-29{fill:#fa8c3d;}.cls-16{fill-opacity:0.4;}.cls-18{fill:#fdd94a;}.cls-19{clip-path:url(#clip-path);}.cls-20,.cls-21{fill:#ddd;}.cls-22{fill:#8edfd8;}.cls-23,.cls-24,.cls-25{stroke:#222;}.cls-23,.cls-25{stroke-miterlimit:10;}.cls-23{stroke-width:1.5px;}.cls-24{stroke-linecap:round;stroke-linejoin:round;}.cls-26{fill:#e5e5e5;}.cls-27{fill:#c4b52e;}.cls-28{fill:#8977d3;}</style><mask id="mask" x="475.97" y="179.98" width="79.3" height="79.3" maskUnits="userSpaceOnUse"><g id="mask0"><path class="cls-1" d="M553.86,214.76c-1.64,8.81-8.77,26.15-21.87,15.44-2.94-2.2-4.51-4.13-7.65-8.19-4.29,8.71-29.89,16.37-35.19,12.54-2.72-2-3.47-3.87-1.19-5.28a31.19,31.19,0,1,1,50.9-36.05C550.58,193.22,558.68,188.94,553.86,214.76Z"/></g></mask><clipPath id="clip-path"><path class="cls-2" d="M242.05,321.65a18.59,18.59,0,1,0-18.85-18.59A18.73,18.73,0,0,0,242.05,321.65Z"/></clipPath></defs><title>img_firstview (2)</title><g id="レイヤー_2" data-name="レイヤー 2"><g id="img_firstview"><g id="img_firstview-2" data-name="img_firstview"><path class="cls-3" d="M880,600H0V0H880Z"/><g id="PC"><path class="cls-4" d="M321.84,129.29a11.56,11.56,0,0,0-11.55,11.55v299a11.56,11.56,0,0,0,11.55,11.56H700.29a11.56,11.56,0,0,0,11.55-11.56v-299a11.56,11.56,0,0,0-11.55-11.55Z"/><path class="cls-5" d="M310.29,140.84a11.55,11.55,0,0,1,11.55-11.55H700.29a11.55,11.55,0,0,1,11.55,11.55v17.34H310.29Z"/><path class="cls-6" d="M700.29,457.69H321.84A17.86,17.86,0,0,1,304,439.84v-299A17.86,17.86,0,0,1,321.84,123H700.29a17.86,17.86,0,0,1,17.84,17.84v299A17.86,17.86,0,0,1,700.29,457.69ZM321.84,129.8a11,11,0,0,0-11,11v299a11.06,11.06,0,0,0,11,11.05H700.29a11.06,11.06,0,0,0,11-11.05v-299a11,11,0,0,0-11-11Z"/><g id="log"><path class="cls-7" d="M395.74,262l1.12-.61c.42-.23,1.06-.6,2.11-1.22l2.12-1.24,1-.61,4.62,3.64-2.09,5.71a19.25,19.25,0,0,0,3.24,3.2h0a19.12,19.12,0,0,0,3.76,2.33l5.18-3.32,4.61,3.63-2.18,6.95-1.22.07A21.22,21.22,0,0,1,403.7,276,20.76,20.76,0,0,1,396,263.23Z"/><rect class="cls-8" x="396.45" y="285.29" width="239.78" height="18.78" rx="2.89"/><g id="date"><path d="M451.1,264.52a6.33,6.33,0,0,1-1.21,3.66,26.42,26.42,0,0,1-4.65,4.63s0,.05,0,.06,0,0,0,0H450a1.11,1.11,0,0,1,.81.35,1,1,0,0,1,.34.79,1.08,1.08,0,0,1-.34.8,1.11,1.11,0,0,1-.81.35h-7.42a1.11,1.11,0,0,1-.81-.35,1.14,1.14,0,0,1-.32-.8,2.21,2.21,0,0,1,.87-1.84,30.43,30.43,0,0,0,4.69-4.35,5,5,0,0,0,1.19-3c0-1.49-.8-2.24-2.4-2.24a8.51,8.51,0,0,0-3,.69.77.77,0,0,1-.72-.06.7.7,0,0,1-.33-.61v-.34a1.73,1.73,0,0,1,.28-.95,1.43,1.43,0,0,1,.79-.59,12.56,12.56,0,0,1,3.38-.49,5.28,5.28,0,0,1,3.64,1.14A4,4,0,0,1,451.1,264.52Z"/><path d="M461.29,263.63a2.44,2.44,0,0,0-4.21,0,13.1,13.1,0,0,0,0,8.33,2.43,2.43,0,0,0,4.21,0,12.92,12.92,0,0,0,0-8.33Zm2.14,9.95a5,5,0,0,1-4.24,1.8,5.1,5.1,0,0,1-4.27-1.8q-1.4-1.8-1.4-5.78t1.4-5.79a5.1,5.1,0,0,1,4.27-1.8,5,5,0,0,1,4.24,1.8q1.43,1.8,1.42,5.79T463.43,273.58Z"/><path d="M468.64,265.86a.55.55,0,0,1-.6.06.54.54,0,0,1-.31-.51v-.81a2.25,2.25,0,0,1,.91-1.84l2.17-1.66a3.35,3.35,0,0,1,2.06-.68h.61a1,1,0,0,1,.78.34,1.11,1.11,0,0,1,.35.81V274a1.09,1.09,0,0,1-.35.8,1,1,0,0,1-.78.35h-.61a1.11,1.11,0,0,1-.81-.35,1.08,1.08,0,0,1-.34-.8v-10.5l0,0,0,0Z"/><path d="M485,262.38a2.76,2.76,0,0,0-2.05.75,2.89,2.89,0,0,0-.72,2.1,3.32,3.32,0,0,0,.72,2.3,2.67,2.67,0,0,0,2.05.79,2.49,2.49,0,0,0,2-.83,3.23,3.23,0,0,0,.75-2.26,2.79,2.79,0,0,0-.77-2.06A2.62,2.62,0,0,0,485,262.38Zm-.61,7.94a4.91,4.91,0,0,1-3.64-1.31,5.17,5.17,0,0,1-1.3-3.74,4.71,4.71,0,0,1,1.5-3.68,5.75,5.75,0,0,1,4.05-1.38,5.12,5.12,0,0,1,4.08,1.62,7.06,7.06,0,0,1,1.44,4.85c0,3-.55,5.19-1.64,6.6a5.71,5.71,0,0,1-4.79,2.1,12.65,12.65,0,0,1-2.09-.18,1.35,1.35,0,0,1-.81-.47,1.44,1.44,0,0,1-.32-.91.79.79,0,0,1,.32-.66A.89.89,0,0,1,482,273a9.74,9.74,0,0,0,2,.23,3.41,3.41,0,0,0,2.59-1,4.26,4.26,0,0,0,1-2.92v0l0,0A4.58,4.58,0,0,1,484.39,270.32Z"/><path d="M493,276a.72.72,0,0,1-.63-.35.73.73,0,0,1,0-.7l6.07-13.47a1.77,1.77,0,0,1,.66-.75,1.69,1.69,0,0,1,.95-.3h.27a.66.66,0,0,1,.62.34.65.65,0,0,1,0,.71l-6.06,13.47a1.88,1.88,0,0,1-1.62,1.05Z"/><path d="M513.07,264.52a6.33,6.33,0,0,1-1.21,3.66,26.42,26.42,0,0,1-4.65,4.63s0,.05,0,.06,0,0,0,0H512a1.11,1.11,0,0,1,.81.35,1,1,0,0,1,.34.79,1.08,1.08,0,0,1-.34.8,1.11,1.11,0,0,1-.81.35h-7.42a1.11,1.11,0,0,1-.81-.35,1.14,1.14,0,0,1-.32-.8,2.21,2.21,0,0,1,.87-1.84,30.43,30.43,0,0,0,4.69-4.35,5,5,0,0,0,1.19-3c0-1.49-.8-2.24-2.4-2.24a8.51,8.51,0,0,0-3,.69.79.79,0,0,1-.73-.06.71.71,0,0,1-.32-.61v-.34a1.73,1.73,0,0,1,.28-.95,1.43,1.43,0,0,1,.79-.59,12.61,12.61,0,0,1,3.38-.49,5.28,5.28,0,0,1,3.64,1.14A4,4,0,0,1,513.07,264.52Z"/><path d="M516.16,276a.72.72,0,0,1-.63-.35.76.76,0,0,1,0-.7l6.07-13.47a1.79,1.79,0,0,1,.67-.75,1.67,1.67,0,0,1,.95-.3h.26a.69.69,0,0,1,.63.34.67.67,0,0,1,0,.71L518,274.94a1.6,1.6,0,0,1-.65.74,1.62,1.62,0,0,1-1,.31Z"/><path d="M527.91,265.86a.56.56,0,0,1-.61.06.54.54,0,0,1-.3-.51v-.81a2.22,2.22,0,0,1,.91-1.84l2.16-1.66a3.4,3.4,0,0,1,2.06-.68h.61a1,1,0,0,1,.79.34,1.1,1.1,0,0,1,.34.81V274a1.08,1.08,0,0,1-.34.8,1.05,1.05,0,0,1-.79.35h-.61A1.18,1.18,0,0,1,531,274v-10.5l0,0,0,0Z"/><path d="M543.92,268.48c-1.7.56-2.55,1.39-2.55,2.51a2.07,2.07,0,0,0,.81,1.7,3.38,3.38,0,0,0,2.14.63,3.21,3.21,0,0,0,2.1-.63,2.08,2.08,0,0,0,.79-1.7,1.9,1.9,0,0,0-.64-1.47,5.75,5.75,0,0,0-2.31-1A.5.5,0,0,0,543.92,268.48Zm.4-6.2a2.92,2.92,0,0,0-1.84.52,1.72,1.72,0,0,0-.65,1.4c0,1,.8,1.7,2.39,2.16a.56.56,0,0,0,.32,0c1.54-.48,2.31-1.21,2.31-2.16a1.68,1.68,0,0,0-.67-1.4A2.92,2.92,0,0,0,544.32,262.28Zm4.17,12a8.14,8.14,0,0,1-8.34,0,3.72,3.72,0,0,1-1.49-3.1,3.21,3.21,0,0,1,.73-2,5.21,5.21,0,0,1,2.16-1.56s0,0,0,0l0,0a4.72,4.72,0,0,1-1.82-1.51,3.57,3.57,0,0,1-.63-2,3.17,3.17,0,0,1,1.38-2.67,7.6,7.6,0,0,1,7.64,0,3.17,3.17,0,0,1,1.38,2.67c0,1.41-.84,2.49-2.51,3.26,0,0,0,0,0,0a0,0,0,0,0,0,0q3,1.14,3,3.9A3.72,3.72,0,0,1,548.49,274.23Z"/><path d="M559.52,265.86a.55.55,0,0,1-.6.06.55.55,0,0,1-.31-.51v-.81a2.25,2.25,0,0,1,.91-1.84l2.17-1.66a3.37,3.37,0,0,1,2.06-.68h.61a1,1,0,0,1,.79.34,1.1,1.1,0,0,1,.34.81V274a1.08,1.08,0,0,1-.34.8,1.05,1.05,0,0,1-.79.35h-.61a1.11,1.11,0,0,1-.81-.35,1.08,1.08,0,0,1-.34-.8v-10.5l0,0,0,0Z"/><path d="M580.79,264.52a6.33,6.33,0,0,1-1.21,3.66,27.15,27.15,0,0,1-4.65,4.63s0,.05,0,.06,0,0,0,0h4.77a1.11,1.11,0,0,1,.81.35,1,1,0,0,1,.34.79,1.08,1.08,0,0,1-.34.8,1.11,1.11,0,0,1-.81.35h-7.42a1.11,1.11,0,0,1-.81-.35,1.1,1.1,0,0,1-.32-.8,2.23,2.23,0,0,1,.86-1.84,30.15,30.15,0,0,0,4.7-4.35,5.06,5.06,0,0,0,1.19-3c0-1.49-.8-2.24-2.41-2.24a8.46,8.46,0,0,0-3,.69.79.79,0,0,1-.73-.06.71.71,0,0,1-.32-.61v-.34a1.66,1.66,0,0,1,.28-.95,1.39,1.39,0,0,1,.79-.59,12.56,12.56,0,0,1,3.38-.49,5.29,5.29,0,0,1,3.64,1.14A4,4,0,0,1,580.79,264.52Z"/><path d="M586.16,267.43a1.16,1.16,0,0,1-1.15-1.15v-1.15a1,1,0,0,1,.34-.79,1.1,1.1,0,0,1,.81-.34h.93a1.1,1.1,0,0,1,.81.34,1,1,0,0,1,.35.79v1.15a1.18,1.18,0,0,1-1.16,1.15Zm0,7.75a1.11,1.11,0,0,1-.81-.35,1.08,1.08,0,0,1-.34-.8v-1.14a1.16,1.16,0,0,1,1.15-1.15h.93a1.18,1.18,0,0,1,1.16,1.15V274a1.09,1.09,0,0,1-.35.8,1.11,1.11,0,0,1-.81.35Z"/><path d="M593.63,262.7a1.13,1.13,0,0,1-.81-.32,1.11,1.11,0,0,1,0-1.62,1.07,1.07,0,0,1,.81-.34h7.17a1,1,0,0,1,.79.34,1.11,1.11,0,0,1,.35.81,2.44,2.44,0,0,1-.85,1.9l-3.28,3,0,0s0,0,0,0h.32a3.7,3.7,0,0,1,4,4,4.58,4.58,0,0,1-1.42,3.6,5.92,5.92,0,0,1-4,1.25,12.47,12.47,0,0,1-3-.36,1.34,1.34,0,0,1-.79-.55,1.55,1.55,0,0,1-.31-1v-.22a.72.72,0,0,1,.33-.63.84.84,0,0,1,.75-.12,9.46,9.46,0,0,0,2.91.55,3,3,0,0,0,2.06-.65,2.37,2.37,0,0,0,.73-1.88,1.73,1.73,0,0,0-.83-1.62,5.77,5.77,0,0,0-2.87-.51h-.22a1,1,0,0,1-.71-.3,1,1,0,0,1-.29-.71,2.22,2.22,0,0,1,.73-1.68l3.3-3,0,0a0,0,0,0,0,0,0Z"/><path d="M606.7,269.86a0,0,0,0,1,0,0v0a0,0,0,0,0,0,0h3.86c.11,0,.17-.06.17-.18v-5.6s0,0,0,0h0Zm-1.53,2.28a1.08,1.08,0,0,1-.79-.32,1.06,1.06,0,0,1-.33-.79,3.36,3.36,0,0,1,.65-2l5.38-7.66a2.07,2.07,0,0,1,1.8-.93h.44a1.18,1.18,0,0,1,1.16,1.15v8.17c0,.12,0,.18.16.18h1a1.09,1.09,0,0,1,1.11,1.11,1.09,1.09,0,0,1-.32.79,1.06,1.06,0,0,1-.79.32h-1c-.11,0-.16.07-.16.19V274a1.09,1.09,0,0,1-.35.8,1.11,1.11,0,0,1-.81.35h-.44a1.11,1.11,0,0,1-.81-.35,1.08,1.08,0,0,1-.34-.8v-1.7c0-.12-.06-.19-.17-.19Z"/></g></g><g id="log-2" data-name="log"><path class="cls-7" d="M395.74,319.76l1.12-.61c.42-.23,1.06-.6,2.11-1.22l2.12-1.24,1-.61,4.62,3.64-2.09,5.71a19.25,19.25,0,0,0,3.24,3.2h0a19.12,19.12,0,0,0,3.76,2.33l5.18-3.33,4.61,3.64-2.18,7-1.22.07a21.22,21.22,0,0,1-14.36-4.51A20.78,20.78,0,0,1,396,321Z"/><rect class="cls-8" x="396.45" y="343.07" width="239.78" height="18.78" rx="2.89"/><g id="date-2" data-name="date"><path d="M451.61,321.76a6.33,6.33,0,0,1-1.21,3.66,27.15,27.15,0,0,1-4.65,4.63s0,.05,0,.06,0,0,0,0h4.77a1.1,1.1,0,0,1,.81.34,1,1,0,0,1,.34.79,1.18,1.18,0,0,1-1.15,1.16h-7.42a1.11,1.11,0,0,1-.81-.35,1.13,1.13,0,0,1-.33-.81,2.23,2.23,0,0,1,.87-1.84,29.55,29.55,0,0,0,4.69-4.34,5,5,0,0,0,1.2-3c0-1.49-.8-2.24-2.41-2.24a8.65,8.65,0,0,0-3,.68.73.73,0,0,1-.73-.06.67.67,0,0,1-.32-.6v-.35a1.68,1.68,0,0,1,.28-1,1.42,1.42,0,0,1,.79-.58,12.12,12.12,0,0,1,3.38-.49,5.34,5.34,0,0,1,3.64,1.13A4,4,0,0,1,451.61,321.76Z"/><path d="M461.79,320.87a2.43,2.43,0,0,0-4.2,0,12.92,12.92,0,0,0,0,8.33,2.43,2.43,0,0,0,4.2,0,12.92,12.92,0,0,0,0-8.33Zm2.15,9.95a5,5,0,0,1-4.25,1.8,5.11,5.11,0,0,1-4.27-1.8Q454,329,454,325t1.39-5.78a5.11,5.11,0,0,1,4.27-1.8,5,5,0,0,1,4.25,1.8q1.41,1.8,1.41,5.78T463.94,330.82Z"/><path d="M469.15,323.09a.53.53,0,0,1-.61.06.52.52,0,0,1-.3-.5v-.81a2.21,2.21,0,0,1,.91-1.84l2.16-1.66a3.35,3.35,0,0,1,2.07-.69h.6a1,1,0,0,1,.79.35,1.1,1.1,0,0,1,.34.81v12.45a1.1,1.1,0,0,1-.34.81,1,1,0,0,1-.79.35h-.6a1.1,1.1,0,0,1-.81-.35,1.11,1.11,0,0,1-.35-.81V320.77l0,0,0,0Z"/><path d="M485.5,319.62a2.75,2.75,0,0,0-2,.74,2.88,2.88,0,0,0-.73,2.11,3.31,3.31,0,0,0,.73,2.3,2.67,2.67,0,0,0,2,.79,2.49,2.49,0,0,0,2-.83,3.25,3.25,0,0,0,.75-2.26,2.78,2.78,0,0,0-.77-2.07A2.62,2.62,0,0,0,485.5,319.62Zm-.61,7.94a5,5,0,0,1-3.64-1.31,5.17,5.17,0,0,1-1.29-3.74,4.71,4.71,0,0,1,1.5-3.68,5.71,5.71,0,0,1,4-1.38,5.15,5.15,0,0,1,4.09,1.62,7.1,7.1,0,0,1,1.43,4.85c0,3-.54,5.19-1.64,6.59a5.69,5.69,0,0,1-4.79,2.11,12.53,12.53,0,0,1-2.08-.18,1.32,1.32,0,0,1-.81-.47,1.39,1.39,0,0,1-.32-.91.79.79,0,0,1,.32-.67.88.88,0,0,1,.77-.16,9.71,9.71,0,0,0,2,.22,3.42,3.42,0,0,0,2.59-1,4.21,4.21,0,0,0,1-2.91v0l0,0A4.61,4.61,0,0,1,484.89,327.56Z"/><path d="M493.5,333.22a.68.68,0,0,1-.62-.34.75.75,0,0,1-.05-.71l6.07-13.46a1.68,1.68,0,0,1,.67-.75,1.61,1.61,0,0,1,.95-.31h.26a.68.68,0,0,1,.63.35.67.67,0,0,1,0,.71l-6.07,13.46a1.66,1.66,0,0,1-.64.75,1.72,1.72,0,0,1-1,.3Z"/><path d="M513.58,321.76a6.33,6.33,0,0,1-1.21,3.66,27.15,27.15,0,0,1-4.65,4.63l-.05.06s0,0,0,0h4.77a1.1,1.1,0,0,1,.81.34,1,1,0,0,1,.34.79,1.18,1.18,0,0,1-1.15,1.16h-7.42a1.11,1.11,0,0,1-.81-.35,1.13,1.13,0,0,1-.33-.81,2.23,2.23,0,0,1,.87-1.84,29.55,29.55,0,0,0,4.69-4.34,5,5,0,0,0,1.2-3c0-1.49-.8-2.24-2.41-2.24a8.65,8.65,0,0,0-3,.68.73.73,0,0,1-.73-.06.69.69,0,0,1-.32-.6v-.35a1.68,1.68,0,0,1,.28-1,1.42,1.42,0,0,1,.79-.58,12.17,12.17,0,0,1,3.38-.49,5.34,5.34,0,0,1,3.64,1.13A4,4,0,0,1,513.58,321.76Z"/><path d="M516.67,333.22a.71.71,0,0,1-.63-.34.75.75,0,0,1,0-.71l6.07-13.46a1.66,1.66,0,0,1,.66-.75,1.63,1.63,0,0,1,.95-.31H524a.67.67,0,0,1,.62.35.65.65,0,0,1,0,.71l-6.06,13.46a1.68,1.68,0,0,1-.65.75,1.71,1.71,0,0,1-1,.3Z"/><path d="M528.41,323.09a.56.56,0,0,1-.91-.44v-.81a2.23,2.23,0,0,1,.91-1.84l2.17-1.66a3.3,3.3,0,0,1,2.06-.69h.61a1,1,0,0,1,.78.35,1.11,1.11,0,0,1,.35.81v12.45a1.11,1.11,0,0,1-.35.81,1,1,0,0,1-.78.35h-.61a1.18,1.18,0,0,1-1.15-1.16V320.77l0,0,0,0Z"/><path d="M544.42,325.72c-1.7.55-2.55,1.39-2.55,2.51a2.07,2.07,0,0,0,.81,1.7,3.41,3.41,0,0,0,2.15.63,3.21,3.21,0,0,0,2.1-.63,2.08,2.08,0,0,0,.79-1.7,1.93,1.93,0,0,0-.65-1.48,5.84,5.84,0,0,0-2.3-1A.52.52,0,0,0,544.42,325.72Zm.41-6.21A2.88,2.88,0,0,0,543,320a1.71,1.71,0,0,0-.65,1.4c0,1,.79,1.7,2.39,2.16a.84.84,0,0,0,.32,0c1.54-.49,2.3-1.21,2.3-2.16a1.69,1.69,0,0,0-.66-1.4A3,3,0,0,0,544.83,319.51Zm4.16,12a8.12,8.12,0,0,1-8.33,0,3.71,3.71,0,0,1-1.5-3.1,3.27,3.27,0,0,1,.73-2,5.23,5.23,0,0,1,2.17-1.56,0,0,0,0,0,0,0,0,0,0,0,0,0,0,4.67,4.67,0,0,1-1.82-1.52,3.56,3.56,0,0,1-.63-2,3.19,3.19,0,0,1,1.37-2.67,7.62,7.62,0,0,1,7.65,0,3.16,3.16,0,0,1,1.37,2.67c0,1.4-.83,2.49-2.5,3.26,0,0,0,0,0,0s0,0,0,0a4,4,0,0,1,3,3.9A3.71,3.71,0,0,1,549,331.47Z"/><path d="M560,323.09a.53.53,0,0,1-.61.06.52.52,0,0,1-.3-.5v-.81A2.21,2.21,0,0,1,560,320l2.16-1.66a3.35,3.35,0,0,1,2.07-.69h.6a1,1,0,0,1,.79.35,1.11,1.11,0,0,1,.35.81v12.45a1.11,1.11,0,0,1-.35.81,1,1,0,0,1-.79.35h-.6a1.2,1.2,0,0,1-1.16-1.16V320.77l0,0,0,0Z"/><path d="M578.55,320.87a2.44,2.44,0,0,0-4.21,0,12.92,12.92,0,0,0,0,8.33,2.44,2.44,0,0,0,4.21,0,13.1,13.1,0,0,0,0-8.33Zm2.14,9.95a5.93,5.93,0,0,1-8.51,0q-1.39-1.8-1.4-5.79t1.4-5.78a5.93,5.93,0,0,1,8.51,0c.94,1.2,1.42,3.13,1.42,5.78S581.63,329.62,580.69,330.82Z"/><path d="M586.67,324.67a1.16,1.16,0,0,1-1.15-1.15v-1.15a1,1,0,0,1,.34-.79,1.11,1.11,0,0,1,.81-.35h.93a1.11,1.11,0,0,1,.81.35,1,1,0,0,1,.34.79v1.15a1.16,1.16,0,0,1-1.15,1.15Zm0,7.75a1.18,1.18,0,0,1-1.15-1.16v-1.13a1.16,1.16,0,0,1,1.15-1.15h.93a1.16,1.16,0,0,1,1.15,1.15v1.13a1.18,1.18,0,0,1-1.15,1.16Z"/><path d="M594.31,332.31a1.48,1.48,0,0,1-.81-.52,1.6,1.6,0,0,1-.3-1v-.2a.78.78,0,0,1,.32-.65.8.8,0,0,1,.73-.12,9.09,9.09,0,0,0,2.61.46c2.14,0,3.22-1,3.22-2.91a2.1,2.1,0,0,0-2.33-2.41,3,3,0,0,0-1.15.23,6.73,6.73,0,0,1-2.08.6h-.15a1,1,0,0,1-.79-.34,1.11,1.11,0,0,1-.3-.81l.3-5.88A1.23,1.23,0,0,1,594,318a1.13,1.13,0,0,1,.83-.35h6.31a1.05,1.05,0,0,1,.79.35,1.13,1.13,0,0,1,0,1.62,1.1,1.1,0,0,1-.79.32h-4.71c-.13,0-.19.06-.19.18l-.16,3.22a0,0,0,0,0,0,0h0l0,0a4.92,4.92,0,0,1,2.19-.49,4.18,4.18,0,0,1,4.59,4.57c0,3.46-2,5.2-5.93,5.2A10.94,10.94,0,0,1,594.31,332.31Z"/><path d="M610.83,324.51a2.58,2.58,0,0,0-2,.79,2.9,2.9,0,0,0-.75,2.1,3.25,3.25,0,0,0,.75,2.25,2.63,2.63,0,0,0,2,.8,2.66,2.66,0,0,0,2-.76,3.21,3.21,0,0,0,.75-2.29,2.9,2.9,0,0,0-.75-2.12A2.66,2.66,0,0,0,610.83,324.51Zm0,8.11q-5.52,0-5.52-6.68,0-4.24,1.65-6.37a5.75,5.75,0,0,1,4.78-2.12,11.88,11.88,0,0,1,1.9.16,1.26,1.26,0,0,1,.79.49,1.44,1.44,0,0,1,.32.91.79.79,0,0,1-.34.67.9.9,0,0,1-.75.14,7.52,7.52,0,0,0-1.84-.2,3.26,3.26,0,0,0-2.47,1,4.82,4.82,0,0,0-1.15,2.89v0l0,0a4.6,4.6,0,0,1,3.19-1,4.9,4.9,0,0,1,3.62,1.29,4.72,4.72,0,0,1,1.32,3.56,5,5,0,0,1-1.5,3.86A5.69,5.69,0,0,1,610.83,332.62Z"/></g></g><g id="log-3" data-name="log"><path class="cls-7" d="M395.74,377.54l1.12-.61c.42-.23,1.06-.61,2.11-1.22l2.12-1.25,1-.6,4.62,3.63-2.09,5.72a19.25,19.25,0,0,0,3.24,3.2h0a18.63,18.63,0,0,0,3.76,2.32l5.18-3.32,4.61,3.63L419.28,396l-1.22.07a21.16,21.16,0,0,1-14.36-4.5A20.81,20.81,0,0,1,396,378.78Z"/><rect class="cls-8" x="396.45" y="400.85" width="239.78" height="18.78" rx="2.89"/><g id="date-3" data-name="date"><path d="M451.61,379.54a6.38,6.38,0,0,1-1.21,3.66,27.15,27.15,0,0,1-4.65,4.63.07.07,0,0,0,0,.06s0,0,0,0h4.77a1.1,1.1,0,0,1,.81.34,1,1,0,0,1,.34.79,1.16,1.16,0,0,1-1.15,1.15h-7.42a1.1,1.1,0,0,1-.81-.34,1.13,1.13,0,0,1-.33-.81,2.23,2.23,0,0,1,.87-1.84,29,29,0,0,0,4.69-4.35,5,5,0,0,0,1.2-3c0-1.5-.8-2.24-2.41-2.24a8.42,8.42,0,0,0-3,.68.73.73,0,0,1-.73-.06.68.68,0,0,1-.32-.6v-.35a1.66,1.66,0,0,1,.28-.95,1.44,1.44,0,0,1,.79-.59,12.48,12.48,0,0,1,3.38-.48,5.34,5.34,0,0,1,3.64,1.13A4,4,0,0,1,451.61,379.54Z"/><path d="M461.79,378.65a2.42,2.42,0,0,0-4.2,0,12.92,12.92,0,0,0,0,8.33,2.43,2.43,0,0,0,4.2,0,12.92,12.92,0,0,0,0-8.33Zm2.15,10a5,5,0,0,1-4.25,1.8,5.11,5.11,0,0,1-4.27-1.8q-1.4-1.8-1.39-5.79t1.39-5.78a5.11,5.11,0,0,1,4.27-1.8,5,5,0,0,1,4.25,1.8q1.41,1.8,1.41,5.78T463.94,388.6Z"/><path d="M469.15,380.87a.53.53,0,0,1-.61.06.54.54,0,0,1-.3-.5v-.81a2.21,2.21,0,0,1,.91-1.84l2.16-1.66a3.35,3.35,0,0,1,2.07-.69h.6a1,1,0,0,1,.79.35,1.07,1.07,0,0,1,.34.8V389a1.1,1.1,0,0,1-.34.81,1,1,0,0,1-.79.34h-.6a1.09,1.09,0,0,1-.81-.34,1.11,1.11,0,0,1-.35-.81V378.55l0,0,0,0Z"/><path d="M485.5,377.39a2.76,2.76,0,0,0-2,.75,2.87,2.87,0,0,0-.73,2.1,3.32,3.32,0,0,0,.73,2.31,2.67,2.67,0,0,0,2,.79,2.49,2.49,0,0,0,2-.83,3.25,3.25,0,0,0,.75-2.27,2.75,2.75,0,0,0-.77-2.06A2.63,2.63,0,0,0,485.5,377.39Zm-.61,7.95a5,5,0,0,1-3.64-1.31,5.17,5.17,0,0,1-1.29-3.75,4.72,4.72,0,0,1,1.5-3.68,5.75,5.75,0,0,1,4-1.37,5.15,5.15,0,0,1,4.09,1.62A7.1,7.1,0,0,1,491,381.7c0,3-.54,5.19-1.64,6.59a5.71,5.71,0,0,1-4.79,2.11,11.58,11.58,0,0,1-2.08-.19,1.31,1.31,0,0,1-.81-.46,1.39,1.39,0,0,1-.32-.91.78.78,0,0,1,.32-.67.88.88,0,0,1,.77-.16,9.71,9.71,0,0,0,2,.22,3.42,3.42,0,0,0,2.59-1,4.21,4.21,0,0,0,1-2.91v0l0,0A4.61,4.61,0,0,1,484.89,385.34Z"/><path d="M493.5,391a.68.68,0,0,1-.62-.34.75.75,0,0,1-.05-.71l6.07-13.47a1.79,1.79,0,0,1,.67-.75,1.67,1.67,0,0,1,.95-.3h.26a.68.68,0,0,1,.63.35.66.66,0,0,1,0,.7L495.38,390a1.66,1.66,0,0,1-.64.75,1.72,1.72,0,0,1-1,.3Z"/><path d="M513.58,379.54a6.38,6.38,0,0,1-1.21,3.66,27.15,27.15,0,0,1-4.65,4.63s-.05,0-.05.06,0,0,0,0h4.77a1.1,1.1,0,0,1,.81.34,1,1,0,0,1,.34.79,1.16,1.16,0,0,1-1.15,1.15h-7.42a1.1,1.1,0,0,1-.81-.34,1.13,1.13,0,0,1-.33-.81,2.23,2.23,0,0,1,.87-1.84,29,29,0,0,0,4.69-4.35,5,5,0,0,0,1.2-3c0-1.5-.8-2.24-2.41-2.24a8.42,8.42,0,0,0-3,.68.73.73,0,0,1-.73-.06.71.71,0,0,1-.32-.6v-.35a1.66,1.66,0,0,1,.28-.95,1.44,1.44,0,0,1,.79-.59,12.54,12.54,0,0,1,3.38-.48,5.34,5.34,0,0,1,3.64,1.13A4,4,0,0,1,513.58,379.54Z"/><path d="M516.67,391a.71.71,0,0,1-.63-.34.75.75,0,0,1,0-.71l6.07-13.47a1.77,1.77,0,0,1,.66-.75,1.69,1.69,0,0,1,.95-.3H524a.67.67,0,0,1,.62.35.64.64,0,0,1,0,.7L518.55,390a1.68,1.68,0,0,1-.65.75,1.71,1.71,0,0,1-1,.3Z"/><path d="M528.41,380.87a.51.51,0,0,1-.6.06.53.53,0,0,1-.31-.5v-.81a2.23,2.23,0,0,1,.91-1.84l2.17-1.66a3.3,3.3,0,0,1,2.06-.69h.61a1,1,0,0,1,.78.35,1.08,1.08,0,0,1,.35.8V389a1.11,1.11,0,0,1-.35.81,1,1,0,0,1-.78.34h-.61a1.16,1.16,0,0,1-1.15-1.15V378.55l0,0,0,0Z"/><path d="M544.42,383.5c-1.7.55-2.55,1.39-2.55,2.51a2.08,2.08,0,0,0,.81,1.7,3.47,3.47,0,0,0,2.15.62,3.26,3.26,0,0,0,2.1-.62,2.1,2.1,0,0,0,.79-1.7,1.91,1.91,0,0,0-.65-1.48,5.84,5.84,0,0,0-2.3-1A.52.52,0,0,0,544.42,383.5Zm.41-6.21a2.88,2.88,0,0,0-1.84.53,1.7,1.7,0,0,0-.65,1.39c0,1,.79,1.71,2.39,2.17a.84.84,0,0,0,.32,0c1.54-.49,2.3-1.21,2.3-2.17a1.68,1.68,0,0,0-.66-1.39A3,3,0,0,0,544.83,377.29ZM549,389.24a8.06,8.06,0,0,1-8.33,0,3.7,3.7,0,0,1-1.5-3.09,3.27,3.27,0,0,1,.73-2,5.14,5.14,0,0,1,2.17-1.56,0,0,0,0,0,0,0s0,0,0,0a4.67,4.67,0,0,1-1.82-1.52,3.56,3.56,0,0,1-.63-2,3.16,3.16,0,0,1,1.37-2.67,7.62,7.62,0,0,1,7.65,0,3.14,3.14,0,0,1,1.37,2.67c0,1.4-.83,2.49-2.5,3.26,0,0,0,0,0,0s0,0,0,0a4,4,0,0,1,3,3.9A3.7,3.7,0,0,1,549,389.24Z"/><path d="M563.45,377.39a2.74,2.74,0,0,0-2,.75,2.87,2.87,0,0,0-.73,2.1,3.32,3.32,0,0,0,.73,2.31,2.65,2.65,0,0,0,2,.79,2.52,2.52,0,0,0,2-.83,3.25,3.25,0,0,0,.75-2.27,2.79,2.79,0,0,0-.77-2.06A2.64,2.64,0,0,0,563.45,377.39Zm-.61,7.95A5,5,0,0,1,559.2,384a5.17,5.17,0,0,1-1.29-3.75,4.75,4.75,0,0,1,1.49-3.68,5.79,5.79,0,0,1,4.05-1.37,5.12,5.12,0,0,1,4.08,1.62A7,7,0,0,1,569,381.7q0,4.49-1.64,6.59a5.71,5.71,0,0,1-4.79,2.11,11.5,11.5,0,0,1-2.08-.19,1.28,1.28,0,0,1-.81-.46,1.4,1.4,0,0,1-.33-.91.79.79,0,0,1,.33-.67.87.87,0,0,1,.76-.16,9.87,9.87,0,0,0,2.05.22,3.44,3.44,0,0,0,2.59-1,4.26,4.26,0,0,0,1-2.91v0l0,0A4.63,4.63,0,0,1,562.84,385.34Z"/><path d="M573.73,382.45a1.2,1.2,0,0,1-1.15-1.15v-1.16a1.05,1.05,0,0,1,.35-.79,1.07,1.07,0,0,1,.8-.34h.93a1.1,1.1,0,0,1,.81.34,1.05,1.05,0,0,1,.35.79v1.16a1.08,1.08,0,0,1-.35.8,1.11,1.11,0,0,1-.81.35Zm0,7.74a1.07,1.07,0,0,1-.8-.34,1.11,1.11,0,0,1-.35-.81v-1.13a1.11,1.11,0,0,1,.35-.81,1.07,1.07,0,0,1,.8-.34h.93a1.18,1.18,0,0,1,1.16,1.15V389a1.18,1.18,0,0,1-1.16,1.15Z"/><path d="M581.42,380.87a.53.53,0,0,1-.61.06.54.54,0,0,1-.3-.5v-.81a2.21,2.21,0,0,1,.91-1.84l2.16-1.66a3.34,3.34,0,0,1,2.06-.69h.61a1.05,1.05,0,0,1,.79.35,1.07,1.07,0,0,1,.34.8V389a1.1,1.1,0,0,1-.34.81,1,1,0,0,1-.79.34h-.61a1.07,1.07,0,0,1-.8-.34,1.11,1.11,0,0,1-.35-.81V378.55l0,0,0,0Z"/><path d="M594,377.72a1.13,1.13,0,0,1-.81-.33,1.1,1.1,0,0,1-.34-.81,1.07,1.07,0,0,1,.34-.8,1.11,1.11,0,0,1,.81-.35h7.75a1.11,1.11,0,0,1,.8.35,1.08,1.08,0,0,1,.35.8,4.13,4.13,0,0,1-.61,2.15,55.16,55.16,0,0,0-4.57,10.37,1.5,1.5,0,0,1-.59.79,1.48,1.48,0,0,1-.91.3h-.7a.76.76,0,0,1-.67-.34.77.77,0,0,1-.1-.75,58.21,58.21,0,0,1,5.44-11.3v0s0,0,0,0Z"/></g></g><g id="mark"><g class="cls-9"><path class="cls-10" d="M518.56,202.89a18.32,18.32,0,0,0,4.55,1.94c8.14,2.49,20.6,5.28,24.89,5.76-3.73,4.39-2.09,18.79-10.26,17.89-4.1-.44-7.91-5.17-12.54-11.86a60.22,60.22,0,0,1-5.71-11.24C518.78,203.71,519.12,204.23,518.56,202.89Z"/><path d="M518.56,202.89a18.32,18.32,0,0,0,4.55,1.94c8.14,2.49,20.6,5.28,24.89,5.76-3.62,4.24-2.16,17.93-9.55,17.93a4.47,4.47,0,0,1-.71,0c-4.1-.44-7.91-5.17-12.54-11.86a60.22,60.22,0,0,1-5.71-11.24C518.78,203.71,519.12,204.23,518.56,202.89Zm0-3.75a3.68,3.68,0,0,0-2.5.93c-1.23,1.07-.3,5.76.11,6.77a63.05,63.05,0,0,0,5.9,11.94,59.72,59.72,0,0,0,6.9,8.77,19.94,19.94,0,0,0,3.77,3,11.73,11.73,0,0,0,4.59,1.64,10.54,10.54,0,0,0,1.12.08,8.15,8.15,0,0,0,5.11-1.68,10.21,10.21,0,0,0,3-3.68,33.21,33.21,0,0,0,2.46-8c.34-1.45.64-2.87,1-4a6.39,6.39,0,0,1,.86-1.93,3.75,3.75,0,0,0,.63-3.83,3.79,3.79,0,0,0-3.06-2.38,196,196,0,0,1-24.22-5.66,14.69,14.69,0,0,1-3.66-1.56h0A4.69,4.69,0,0,0,518.56,199.14Z"/><path class="cls-10" d="M516.13,196.61c10.71-.82,29.93,0,33.14,2.75-5.15-.63-23.58,1.52-32.88,2.79C516.28,202.15,517.14,198.13,516.13,196.61Z"/><path d="M525.09,196.31c10.15,0,21.76,1,24.18,3.05a20.61,20.61,0,0,0-2.46-.11c-6.72,0-20.64,1.6-29,2.71-.48.08-.41-5.43.27-5.47C520.16,196.38,522.59,196.31,525.09,196.31Zm0-3.61c-3.36,0-6.57.11-9.22.3-.45,0,1.42,1.93,1.38,3.87-.07,3.75-.52,8.85-.37,8.81,10.15-1.37,23.85-2.86,29.93-2.86,1.08,0,1.72,0,2,.07s.3,0,.45,0a3.61,3.61,0,0,0,3.32-2.16,3.55,3.55,0,0,0-.93-4.16c-1.19-1-3.51-2.31-11.16-3.17C536.06,193,530.58,192.7,525.09,192.7Z"/><path d="M509.86,192.59c3.18,0,6.38,1.78,5.56,4.83-2.57,9.86,7.36,22.73,10.64,26.86,8,10.19-7.54,31.25-29.67,31.25a37.85,37.85,0,0,1-16.53-3.95c-.49-7.4,4.51-16.1,14.07-21.65a25,25,0,0,1,12.87-3.05c3,0,5.6.3,7.43.3s2.8-.3,2.69-1.45c-.38-3.94-8.66-11.83-11.12-14.88-4.41-5.54-3.44-13.28-.38-16.59A5.91,5.91,0,0,1,509.86,192.59Zm0-3.76a11.74,11.74,0,0,0-3.77.63,8.54,8.54,0,0,0-3.5,2.27,15.28,15.28,0,0,0-3.62,9.93,17.85,17.85,0,0,0,3.8,11.57c.67.86,1.72,2,2.88,3.24,1.64,1.78,3.5,3.83,5,5.76.3.38.56.75.79,1.05-1.42-.08-3-.19-4.74-.19a34.48,34.48,0,0,0-7.06.67,25.38,25.38,0,0,0-7.72,2.9A35,35,0,0,0,479.86,238a26.85,26.85,0,0,0-3.06,6.77,21,21,0,0,0-.79,7,3.8,3.8,0,0,0,2.13,3.16,41.74,41.74,0,0,0,18.21,4.31,38.83,38.83,0,0,0,20.68-6,34.51,34.51,0,0,0,12.69-13.61,20.87,20.87,0,0,0,2.24-9,14.27,14.27,0,0,0-3-8.7,66,66,0,0,1-7.09-10.68,29.65,29.65,0,0,1-2.69-6.92,12.64,12.64,0,0,1-.15-6,6.86,6.86,0,0,0-1.19-6.06,9,9,0,0,0-3.77-2.71A12.19,12.19,0,0,0,509.86,188.83Z"/><path class="cls-11" d="M511.13,198.09a1.94,1.94,0,1,1-1.94,1.94A1.93,1.93,0,0,1,511.13,198.09Z"/></g><path d="M487.73,234a1.83,1.83,0,0,1-1.45-.67,35,35,0,0,1-8.44-23.1,34.86,34.86,0,0,1,10.56-24.66,36.06,36.06,0,0,1,11.24-7.4,34.28,34.28,0,0,1,13.69-2.6,35.13,35.13,0,0,1,26.84,12.83,1.93,1.93,0,0,1-.26,2.71,2,2,0,0,1-2.73-.26,31.16,31.16,0,0,0-23.88-11.42H513a31.16,31.16,0,0,0-23.77,51.41,1.9,1.9,0,0,1-.23,2.72A2.25,2.25,0,0,1,487.73,234Z"/></g><circle class="cls-12" cx="331.23" cy="144.46" r="7.94"/><circle class="cls-13" cx="352.9" cy="144.46" r="7.94"/><circle class="cls-14" cx="374.56" cy="144.46" r="7.94"/></g><g id="phone"><path class="cls-4" d="M233.45,236.12a19.57,19.57,0,0,0-19.58,19.52V497.83a19.57,19.57,0,0,0,19.58,19.52H361.21a19.57,19.57,0,0,0,19.58-19.52V255.64a19.57,19.57,0,0,0-19.58-19.52Z"/><path class="cls-6" d="M361.21,520.55H233.45a22.77,22.77,0,0,1-22.77-22.72V255.64a22.76,22.76,0,0,1,22.77-22.71H361.21A22.77,22.77,0,0,1,384,255.64V497.83A22.77,22.77,0,0,1,361.21,520.55ZM233.45,239.32a16.37,16.37,0,0,0-16.38,16.32V497.83a16.38,16.38,0,0,0,16.38,16.33H361.21a16.38,16.38,0,0,0,16.38-16.33V255.64a16.37,16.37,0,0,0-16.38-16.32Z"/><path class="cls-15" d="M364.78,487.25H213.5c-.65,0-1.12-.32-1.12-.77v-5.59c0-.45.47-.77,1.12-.77H364.78c.65,0,1.12.32,1.12.77v5.59C365.9,486.93,365.43,487.25,364.78,487.25Z"/><path class="cls-15" d="M312,504.81H290.52a1.11,1.11,0,0,1-1.15-1.15v-8.31a1.11,1.11,0,0,1,1.15-1.15H312a1.11,1.11,0,0,1,1.15,1.15v8.31A1.11,1.11,0,0,1,312,504.81Z"/><path class="cls-15" d="M307.49,259.08h-28a1.11,1.11,0,0,1-1.15-1.15v-8.31a1.11,1.11,0,0,1,1.15-1.15h28a1.11,1.11,0,0,1,1.16,1.15v8.31A1.11,1.11,0,0,1,307.49,259.08Z"/><path class="cls-15" d="M322.36,259.08H312.29a1.11,1.11,0,0,1-1.15-1.15v-8.31a1.11,1.11,0,0,1,1.15-1.15h10.07a1.11,1.11,0,0,1,1.15,1.15v8.31A1.1,1.1,0,0,1,322.36,259.08Z"/><path class="cls-6" d="M207.11,237.37a3.28,3.28,0,0,1-2.44-1.09l-15-16.7a3.27,3.27,0,1,1,4.87-4.37l15,16.7a3.28,3.28,0,0,1-2.43,5.46Z"/><path class="cls-6" d="M223.67,227.07a3.27,3.27,0,0,1-3.2-2.59l-4.67-22a3.29,3.29,0,0,1,.46-2.46,3.25,3.25,0,0,1,2.07-1.41h0a3.28,3.28,0,0,1,3.88,2.52l4.66,22a3.26,3.26,0,0,1-2.52,3.87A3.21,3.21,0,0,1,223.67,227.07Z"/><path class="cls-6" d="M195.73,252.09a3.29,3.29,0,0,1-1-.17L173.35,245a3.27,3.27,0,1,1,2-6.22l21.37,6.95a3.25,3.25,0,0,1,1.91,1.63,3.28,3.28,0,0,1-2.93,4.76Z"/><path class="cls-16" d="M276.64,284.73a5.78,5.78,0,0,0-5.78,5.78v6.86l-5.68,4.26a1.44,1.44,0,0,0,0,2.31l5.68,4.27v97.86a5.78,5.78,0,0,0,5.78,5.78h86.67a5.78,5.78,0,0,0,5.78-5.78V290.51a5.78,5.78,0,0,0-5.78-5.78Z"/><path class="cls-17" d="M283.86,332.4a2.89,2.89,0,0,1,2.89-2.89h67.89a2.89,2.89,0,1,1,0,5.78H286.75A2.89,2.89,0,0,1,283.86,332.4Z"/><path class="cls-17" d="M283.86,345.4a2.89,2.89,0,0,1,2.89-2.89h67.89a2.89,2.89,0,0,1,0,5.78H286.75A2.89,2.89,0,0,1,283.86,345.4Z"/><path class="cls-17" d="M283.86,361.29a2.89,2.89,0,0,1,2.89-2.89h67.89a2.89,2.89,0,0,1,0,5.78H286.75A2.89,2.89,0,0,1,283.86,361.29Z"/><path class="cls-17" d="M283.86,377.18a2.89,2.89,0,0,1,2.89-2.89h39a2.89,2.89,0,0,1,0,5.78h-39A2.9,2.9,0,0,1,283.86,377.18Z"/><path class="cls-6" d="M289.77,303.19a11.35,11.35,0,0,1,.66,2.15h-3.31l.9-.26a10.19,10.19,0,0,0-1-2c1.47-.07,3-.18,4.43-.31Zm-4.3,3.94h11.18v2h2v-3.76H296.2c.4-.64.85-1.35,1.25-2.08l-2.2-.52a20.07,20.07,0,0,1-1.13,2.6h-3l1.29-.31a9.61,9.61,0,0,0-.78-2.23c2.3-.21,4.54-.49,6.41-.84l-1.39-1.66a97,97,0,0,1-12.93,1.18,6.74,6.74,0,0,1,.47,1.75c.83,0,1.72-.05,2.58-.11l-1.54.44a10.71,10.71,0,0,1,.81,1.78h-2.47v3.76h1.92Zm8,3.22a8.39,8.39,0,0,1-2.36,2,10,10,0,0,1-2.63-2Zm1.72-2-.39.08H286v1.89h.82l-.58.25a12.19,12.19,0,0,0,2.74,2.72,23.9,23.9,0,0,1-5.89,1.26,7.39,7.39,0,0,1,1.21,1.82,22.89,22.89,0,0,0,6.75-1.85,20.75,20.75,0,0,0,6.62,1.82,9.7,9.7,0,0,1,1.26-1.93,23.67,23.67,0,0,1-5.74-1.18,10.15,10.15,0,0,0,3.33-4Z"/><path class="cls-6" d="M302.65,304.55h4.71v3.6h2v-3.6h4.77v2.15h1.91v-3.52h-6.68v-.66h5.41V301H302v1.53h5.35v.66h-6.53v3.52h1.82ZM310,308h3.78v-1.13H310Zm0-2.84v1.1h3.38v-1.1Zm-3.29,0h-3.42v1.1h3.42ZM303,308h3.75v-1.13H303Zm1.39,4.78V312h2.88v.74Zm2.88-2.75v.76h-2.88V310Zm5.11.76h-3.14V310h3.14Zm-3.14,2V312h3.14v.74Zm1.25,2.19c-1.06,0-1.25-.11-1.25-.75v-.05h5.19v-5.53h-12v6.29h2v-.76h2.88v.05c0,1.82.66,2.32,3,2.32h3.64c1.89,0,2.44-.57,2.69-2.65a5.12,5.12,0,0,1-1.72-.66c-.12,1.48-.28,1.74-1.14,1.74Z"/><path class="cls-6" d="M325.68,301.11l-2.25-.05a9.3,9.3,0,0,1,0,1c0,.3-.06.61-.1.94h-.69a25.15,25.15,0,0,1-3.19-.24l0,2c.81,0,2.17.1,3.07.1h.55c-.07.71-.12,1.44-.15,2.18-2.43,1.15-4.27,3.47-4.27,5.71a2.24,2.24,0,0,0,2.34,2.51,6.28,6.28,0,0,0,2.69-.69c.07.24.16.48.22.71l2-.61c-.14-.42-.28-.85-.4-1.28a13.29,13.29,0,0,0,3.64-5.27,2.58,2.58,0,0,1,1.8,2.43c0,1.69-1.35,3.39-4.7,3.76l1.15,1.82c4.26-.64,5.7-3,5.7-5.48a4.48,4.48,0,0,0-3.34-4.25c.1-.33.24-.69.31-.88l-2.12-.5a7.88,7.88,0,0,1-.15,1h-.31a11.91,11.91,0,0,0-2.59.31c0-.52.07-1.06.12-1.58a46.85,46.85,0,0,0,6.16-.61l0-2a30.78,30.78,0,0,1-5.89.77c.05-.35.12-.66.17-1S325.58,301.46,325.68,301.11Zm-5,11.24a4.5,4.5,0,0,1,2.16-3.19,25,25,0,0,0,.37,3.46,3.68,3.68,0,0,1-1.73.58C321,313.2,320.71,312.9,320.71,312.35Zm4.12-4v-.05a8.73,8.73,0,0,1,2.4-.39,10.42,10.42,0,0,1-2.19,3.31A18,18,0,0,1,324.83,308.31Z"/><path class="cls-6" d="M340.68,301.15,338.3,301a14.56,14.56,0,0,1-.14,1.82,46.27,46.27,0,0,0-.48,5.55,20.45,20.45,0,0,0,.22,2.9l2.13-.14a8.9,8.9,0,0,1-.08-1.84c.08-2.29,1.87-5.36,3.92-5.36,1.45,0,2.35,1.49,2.35,4.16,0,4.2-2.72,5.46-6.57,6.05l1.32,2c4.59-.83,7.59-3.17,7.59-8.07,0-3.82-1.87-6.17-4.28-6.17a5.34,5.34,0,0,0-4.3,2.8A28,28,0,0,1,340.68,301.15Z"/><g id="phone-2" data-name="phone"><path class="cls-6" d="M288.19,396.09c1.46,0,2.41-1.3,2.41-3.89s-1-3.83-2.41-3.83-2.41,1.26-2.41,3.83S286.73,396.09,288.19,396.09Zm0-.92c-.76,0-1.29-.81-1.29-3s.53-2.91,1.29-2.91,1.29.78,1.29,2.91S289,395.17,288.19,395.17Z"/><path class="cls-6" d="M294,396.09c1.45,0,2.4-1.3,2.4-3.89s-.95-3.83-2.4-3.83-2.41,1.26-2.41,3.83S292.5,396.09,294,396.09Zm0-.92c-.76,0-1.3-.81-1.3-3s.54-2.91,1.3-2.91,1.29.78,1.29,2.91S294.71,395.17,294,395.17Z"/><path class="cls-6" d="M299.72,396.09c1.46,0,2.41-1.3,2.41-3.89s-.95-3.83-2.41-3.83-2.4,1.26-2.4,3.83S298.27,396.09,299.72,396.09Zm0-.92c-.76,0-1.29-.81-1.29-3s.53-2.91,1.29-2.91,1.3.78,1.3,2.91S300.48,395.17,299.72,395.17Z"/><path class="cls-6" d="M303.08,393.53h2.67v-.86h-2.67Z"/><path class="cls-6" d="M307.09,396h4.25v-1h-1.46v-6.5H309a4.2,4.2,0,0,1-1.62.58v.74h1.34V395h-1.63Z"/><path class="cls-6" d="M312.43,396h4.81v-1h-1.86c-.37,0-.83,0-1.22.07,1.58-1.51,2.72-3,2.72-4.43a2.1,2.1,0,0,0-2.24-2.24,2.91,2.91,0,0,0-2.27,1.12l.66.64a2,2,0,0,1,1.47-.83,1.21,1.21,0,0,1,1.26,1.37c0,1.22-1.13,2.67-3.33,4.61Z"/><path class="cls-6" d="M320.46,396.09A2.23,2.23,0,0,0,323,394a1.89,1.89,0,0,0-1.54-1.86v0a1.8,1.8,0,0,0,1.29-1.75c0-1.22-.94-1.92-2.28-1.92a3.16,3.16,0,0,0-2.13.9l.61.73a2.18,2.18,0,0,1,1.48-.7,1,1,0,0,1,1.15,1.07c0,.75-.49,1.31-2,1.31v.86c1.68,0,2.21.53,2.21,1.35a1.26,1.26,0,0,1-1.42,1.25,2.43,2.43,0,0,1-1.76-.82l-.56.75A3.09,3.09,0,0,0,320.46,396.09Z"/><path class="cls-6" d="M324.9,393.05l1.46-2.24c.21-.38.42-.77.6-1.15h0c0,.41-.05,1-.05,1.44v1.95ZM327,396H328v-2H329v-.9H328V388.5h-1.35l-3,4.68V394H327Z"/><path class="cls-6" d="M329.76,393.53h2.67v-.86h-2.67Z"/><path class="cls-6" d="M335.61,396.09a2.46,2.46,0,0,0,2.51-2.58,2.14,2.14,0,0,0-2.27-2.37,2.07,2.07,0,0,0-1,.27l.17-1.91h2.76v-1H334l-.22,3.54.57.38a1.89,1.89,0,0,1,1.19-.43,1.39,1.39,0,0,1,1.42,1.56,1.46,1.46,0,0,1-1.48,1.59,2.39,2.39,0,0,1-1.74-.8l-.56.76A3.34,3.34,0,0,0,335.61,396.09Z"/><path class="cls-6" d="M341.69,392.15c.8,0,1.24.54,1.24,1.49s-.52,1.56-1.17,1.56-1.33-.7-1.45-2.18A1.76,1.76,0,0,1,341.69,392.15Zm.08,3.94a2.28,2.28,0,0,0,2.23-2.45c0-1.57-.84-2.33-2.1-2.33a2.23,2.23,0,0,0-1.61.85c0-2.12.84-2.84,1.79-2.84a1.61,1.61,0,0,1,1.16.56l.64-.71a2.54,2.54,0,0,0-1.86-.8c-1.47,0-2.82,1.15-2.82,4C339.2,394.9,340.36,396.09,341.77,396.09Z"/><path class="cls-6" d="M346.39,396h1.19c.12-2.92.39-4.56,2.14-6.74v-.72h-4.79v1h3.5A10.7,10.7,0,0,0,346.39,396Z"/><path class="cls-6" d="M353.09,396.09c1.44,0,2.41-.85,2.41-1.95a2.21,2.21,0,0,0-1.25-2v-.05a2.32,2.32,0,0,0,1-1.75,2.12,2.12,0,0,0-4.23-.05,2.09,2.09,0,0,0,1,1.74v.05a2.29,2.29,0,0,0-1.33,2A2.16,2.16,0,0,0,353.09,396.09Zm.49-4.27c-.83-.32-1.54-.7-1.54-1.51a1,1,0,0,1,1.06-1.08,1.11,1.11,0,0,1,1.15,1.21A1.9,1.9,0,0,1,353.58,391.82Zm-.47,3.43A1.3,1.3,0,0,1,351.7,394a1.88,1.88,0,0,1,.87-1.55c1,.41,1.83.76,1.83,1.67A1.15,1.15,0,0,1,353.11,395.25Z"/></g><path class="cls-18" d="M242.05,321.49A18.59,18.59,0,1,0,223.2,302.9,18.72,18.72,0,0,0,242.05,321.49Z"/><g class="cls-19"><path class="cls-10" d="M237.93,299.48a9.48,9.48,0,0,0,2.26,1,110.74,110.74,0,0,0,12.4,2.9c-1.85,2.17-1,9.36-5.11,8.92-2-.22-3.93-2.59-6.26-5.93a28.77,28.77,0,0,1-2.85-5.6C238,299.89,238.18,300.15,237.93,299.48Z"/><path d="M237.93,299.48a9.48,9.48,0,0,0,2.26,1,110.74,110.74,0,0,0,12.4,2.9c-1.82,2.11-1.08,8.92-4.76,8.92a1.38,1.38,0,0,1-.35,0c-2-.22-3.93-2.59-6.26-5.93a28.84,28.84,0,0,1-2.85-5.61A12.91,12.91,0,0,1,237.93,299.48Zm0-1.85a1.84,1.84,0,0,0-1.25.47c-.61.53-.16,2.39-.13,2.46s.13.37.32.88a29.8,29.8,0,0,0,2.81,6,32,32,0,0,0,3.42,4.38,8.9,8.9,0,0,0,1.89,1.55,6,6,0,0,0,2.3.82,3.45,3.45,0,0,0,.54,0,4.25,4.25,0,0,0,2.56-.82,5.22,5.22,0,0,0,1.5-1.83,15.79,15.79,0,0,0,1.21-4c.16-.72.32-1.42.48-2a2.87,2.87,0,0,1,.45-1,1.84,1.84,0,0,0,.32-1.89,2,2,0,0,0-1.53-1.2,106.33,106.33,0,0,1-12.08-2.8,6.34,6.34,0,0,1-1.82-.79A1.54,1.54,0,0,0,237.93,297.63Z"/><path class="cls-10" d="M236.71,296.37c5.34-.41,14.92,0,16.52,1.35-2.59-.31-11.76.76-16.39,1.39C236.78,299.11,237.19,297.12,236.71,296.37Z"/><path d="M241.15,296.21c5,0,10.87.47,12,1.51-.32,0-.74-.06-1.22-.06A142,142,0,0,0,237.7,299c-.32,0-.35-2.68,0-2.71C238.79,296.24,239.94,296.21,241.15,296.21Zm0-1.8c-1.69,0-3.26.06-4.6.16-.35,0,.61,1.73.74,3.4.09,1.48-.71,3-.48,3a.72.72,0,0,0,.25,0A149.57,149.57,0,0,1,252,299.48c.55,0,.87,0,1,0h.22a1.84,1.84,0,0,0,1.66-1.08,1.75,1.75,0,0,0-.48-2.07c-.57-.51-1.75-1.17-5.56-1.58A71.43,71.43,0,0,0,241.15,294.41Z"/><path class="cls-1" d="M236.36,296.78c.61-2.37-3.55-3.19-5-1.58s-2,5.48.2,8.25c1.21,1.52,5.36,5.46,5.52,7.41s-6.1-1-11.47,2.11a15.59,15.59,0,0,0-2.33,1.64v7.56h14.15c4.64-3.53,6.71-8.82,4.22-12C240,308.09,235.08,301.69,236.36,296.78Z"/><path d="M233.58,294.35c1.57,0,3.17.88,2.78,2.39-1.28,4.92,3.68,11.35,5.31,13.39,2.49,3.19.41,8.48-4.22,12h2.87a15.35,15.35,0,0,0,3.17-4.32,10.55,10.55,0,0,0,1.12-4.5,7,7,0,0,0-1.47-4.35,33.52,33.52,0,0,1-3.55-5.33,14.84,14.84,0,0,1-1.34-3.46,6.4,6.4,0,0,1-.07-3,3.38,3.38,0,0,0-.6-3,4.5,4.5,0,0,0-1.89-1.36,5.85,5.85,0,0,0-2.11-.37,5.34,5.34,0,0,0-1.88.31,4.33,4.33,0,0,0-1.76,1.14,7.55,7.55,0,0,0-1.79,4.94,8.89,8.89,0,0,0,1.92,5.77c.35.44.86,1,1.43,1.61.84.88,1.76,1.92,2.5,2.86a4.56,4.56,0,0,1,.38.54c-.7,0-1.5-.1-2.36-.1a15.62,15.62,0,0,0-3.52.35,12.67,12.67,0,0,0-3.83,1.45c-.48.28-.93.57-1.38.88v2.37a15.56,15.56,0,0,1,2.34-1.61,12.38,12.38,0,0,1,6.42-1.51c1.5,0,2.81.15,3.7.15s1.38-.15,1.35-.72c-.2-1.95-4.35-5.89-5.56-7.41-2.21-2.77-1.73-6.61-.19-8.28A3,3,0,0,1,233.58,294.35Z"/><path class="cls-11" d="M234.22,297.09a1,1,0,0,1,1,1,1,1,0,1,1-1.92,0A1,1,0,0,1,234.22,297.09Z"/></g></g><g id="work"><g id="list"><path class="cls-20" d="M62.59,361.73a3,3,0,0,0-4.17.59l-8,10.66-4.44-5.84a3,3,0,0,0-4.75,3.61l6.86,9a3,3,0,0,0,4.17.56,2.82,2.82,0,0,0,.83-1L63.18,365.9A3,3,0,0,0,62.59,361.73Z"/><path class="cls-20" d="M62.59,388.78a3,3,0,0,0-4.17.59l-8,10.65-4.44-5.83a3,3,0,0,0-4.75,3.6l6.86,9a3,3,0,0,0,4.17.57,3,3,0,0,0,.83-1l10.13-13.44A3,3,0,0,0,62.59,388.78Z"/><path class="cls-20" d="M62.59,415.82a3,3,0,0,0-4.17.59l-8,10.66-4.44-5.84a3,3,0,0,0-4.75,3.6l6.86,9a3,3,0,0,0,5-.4L63.18,420A3,3,0,0,0,62.59,415.82Z"/><path class="cls-20" d="M63.71,442.54a3,3,0,0,0-4.17.59l-8,10.66L47.05,448a3,3,0,1,0-4.74,3.6l6.85,9a3,3,0,0,0,4.18.57,3.07,3.07,0,0,0,.83-1L64.3,446.71A3,3,0,0,0,63.71,442.54Z"/><rect class="cls-21" x="79.35" y="421.27" width="105.06" height="7.52" rx="3.76"/><rect class="cls-21" x="79.35" y="447.58" width="105.06" height="7.52" rx="3.76"/><path class="cls-21" d="M83.11,366.77h97.54a3.76,3.76,0,0,1,3.76,3.76h0a3.76,3.76,0,0,1-3.76,3.76H83.11a3.76,3.76,0,0,1-3.76-3.76h0A3.76,3.76,0,0,1,83.11,366.77Z"/><path class="cls-21" d="M83.11,395h97.54a3.76,3.76,0,0,1,3.76,3.76h0a3.76,3.76,0,0,1-3.76,3.76H83.11a3.76,3.76,0,0,1-3.76-3.76h0A3.76,3.76,0,0,1,83.11,395Z"/></g><g id="kira"><path class="cls-21" d="M193.41,355.39c-1.65,0-3-1.72-3-3.86V343c0-2.14,1.32-3.85,3-3.85s3,1.71,3,3.85v8.72C196.38,353.67,195.06,355.39,193.41,355.39Z"/><path class="cls-21" d="M197.6,350.2h-8.52c-2.13,0-3.83-1.31-3.83-3s1.7-3,3.83-3h8.66c2.13,0,3.83,1.31,3.83,3S199.72,350.2,197.6,350.2Z"/></g><g id="kira-2" data-name="kira"><path class="cls-21" d="M26.7,489.6c-1.64,0-3-1.72-3-3.86v-8.57c0-2.15,1.32-3.86,3-3.86s3,1.71,3,3.86v8.71C29.67,487.88,28.35,489.6,26.7,489.6Z"/><path class="cls-21" d="M30.89,484.42H22.38c-2.13,0-3.84-1.32-3.84-3s1.71-3,3.84-3H31c2.13,0,3.83,1.32,3.83,3S33,484.42,30.89,484.42Z"/></g><g id="kira-3" data-name="kira"><path class="cls-21" d="M11.16,467c-1.65,0-3-1.71-3-3.85v-8.58c0-2.14,1.31-3.85,3-3.85s3,1.71,3,3.85v8.72C14.13,465.28,12.81,467,11.16,467Z"/><path class="cls-21" d="M15.35,461.81H6.84c-2.13,0-3.84-1.32-3.84-3s1.71-3,3.84-3h8.65c2.13,0,3.83,1.31,3.83,3S17.48,461.81,15.35,461.81Z"/></g><path id="youwork" class="cls-21" d="M88.48,499.84l-9-8.49a.9.9,0,0,1-.26-.9.93.93,0,0,1,.64-.71l1.29-.41a2.51,2.51,0,0,1,1.41,0,2.6,2.6,0,0,1,1.21.71l5.86,6.29s0,0,0,0,0,0,0,0l1.13-8.52a2.55,2.55,0,0,1,1.74-2.07l1.19-.37a.89.89,0,0,1,.92.2.87.87,0,0,1,.31.88l-2.38,12.13a.75.75,0,0,0,0,.47l1.93,6a1.54,1.54,0,0,1-.12,1.22,1.44,1.44,0,0,1-.9.79l-.86.28a1.6,1.6,0,0,1-1.23-.11,1.63,1.63,0,0,1-.77-.94l-1.93-6A.73.73,0,0,0,88.48,499.84Zm16.68-8.11a2.81,2.81,0,0,0-2.73-.38,2.9,2.9,0,0,0-2,1.9,6.52,6.52,0,0,0,.35,3.77,6.65,6.65,0,0,0,1.91,3.31,3,3,0,0,0,2.75.34,2.85,2.85,0,0,0,2-1.87,6.53,6.53,0,0,0-.33-3.81A6.38,6.38,0,0,0,105.16,491.73Zm5.48,8.06a6.86,6.86,0,0,1-4.41,3.49,7,7,0,0,1-5.63-.28,8,8,0,0,1-3.5-4.82,7.88,7.88,0,0,1,.07-5.92,7.92,7.92,0,0,1,10-3.21,7.86,7.86,0,0,1,3.51,4.78A7.94,7.94,0,0,1,110.64,499.79Zm9.57-1a4.44,4.44,0,0,1-3.86-.19q-1.5-1-2.49-4.1l-2.24-7a1.56,1.56,0,0,1,.12-1.23,1.51,1.51,0,0,1,.93-.8l.43-.14a1.65,1.65,0,0,1,2,1.05l2.12,6.62a5,5,0,0,0,1.34,2.45,2.08,2.08,0,0,0,2,.17,3,3,0,0,0,1.74-1.59,2.92,2.92,0,0,0,.32-2.33l-2.23-7a1.58,1.58,0,0,1,.11-1.22,1.56,1.56,0,0,1,.93-.8l.54-.17a1.41,1.41,0,0,1,1.2.12,1.53,1.53,0,0,1,.8.93l3.49,10.93a1.58,1.58,0,0,1-.11,1.22,1.49,1.49,0,0,1-.91.79l-.35.11a1.62,1.62,0,0,1-1.24-.08,1.77,1.77,0,0,1-.81-.95l-.09-.18s0,0,0,0,0,0-.05,0A5.9,5.9,0,0,1,120.21,498.81Zm-1.28,26.66-6.21-10.18a1.23,1.23,0,0,1,.68-1.84l.67-.22a1.87,1.87,0,0,1,1.32,0,1.82,1.82,0,0,1,1,.88l4.7,9s0,0,0,0,.05,0,0,0l-1.34-10a2,2,0,0,1,.3-1.28,1.83,1.83,0,0,1,1-.8l1.35-.43a1.82,1.82,0,0,1,1.32.05,1.86,1.86,0,0,1,1,.88l4.73,9s0,0,.06,0,0,0,0,0l-1.37-10a1.93,1.93,0,0,1,.3-1.28,1.79,1.79,0,0,1,1-.8l.57-.19a1.21,1.21,0,0,1,1.09.16,1.16,1.16,0,0,1,.54,1l.83,11.89a2.08,2.08,0,0,1-.35,1.3,1.94,1.94,0,0,1-1.06.78l-1.35.43a1.8,1.8,0,0,1-1.29-.06,2,2,0,0,1-1-.87l-4.7-8.67s0,0,0,0,0,0,0,0l1.2,9.79a1.92,1.92,0,0,1-1.33,2.08l-1.34.43a2,2,0,0,1-1.31,0A2,2,0,0,1,118.93,525.47Zm24.23-17.7a2.83,2.83,0,0,0-2.73-.38,2.9,2.9,0,0,0-2,1.9,6.52,6.52,0,0,0,.35,3.77,6.65,6.65,0,0,0,1.91,3.31,3,3,0,0,0,2.75.34,2.86,2.86,0,0,0,2-1.86,6.52,6.52,0,0,0-.33-3.81A6.37,6.37,0,0,0,143.16,507.77Zm5.48,8.06a6.86,6.86,0,0,1-4.4,3.49,7,7,0,0,1-5.64-.28,8,8,0,0,1-3.5-4.82,7.88,7.88,0,0,1,.07-5.92,6.93,6.93,0,0,1,4.42-3.52,6.84,6.84,0,0,1,5.62.31,9.35,9.35,0,0,1,3.43,10.74Zm6.63-.33a1.54,1.54,0,0,1-1.22-.12,1.56,1.56,0,0,1-.8-.93l-3.49-10.93a1.54,1.54,0,0,1,.11-1.22,1.56,1.56,0,0,1,.93-.8l.54-.17a1.54,1.54,0,0,1,1.22.11,1.56,1.56,0,0,1,.8.93l.36,1.13s0,0,0,0,.05,0,.05,0a6.16,6.16,0,0,1,1.48-2.41,7.64,7.64,0,0,1,2.5-1.74,1.17,1.17,0,0,1,1.09.06,1.44,1.44,0,0,1,.71.84,1.4,1.4,0,0,1-.09,1.1,1.66,1.66,0,0,1-.82.77q-4.65,1.89-3.22,6.37l1.53,4.79a1.58,1.58,0,0,1-.11,1.22,1.55,1.55,0,0,1-.94.8Zm12.2-3.22a1.58,1.58,0,0,1-1.22-.11,1.53,1.53,0,0,1-.8-.93L160,494.12a1.64,1.64,0,0,1,1-2l.54-.17a1.58,1.58,0,0,1,1.22.11,1.53,1.53,0,0,1,.8.93l3.31,10.37s0,0,0,0h0l2.62-5.91a3.36,3.36,0,0,1,2.17-1.94l1.13-.36a.63.63,0,0,1,.72.21.64.64,0,0,1,.12.76l-3.19,7a.28.28,0,0,0,.12.35l6.87,4.34a.65.65,0,0,1,.32.72.66.66,0,0,1-.49.6l-1.13.37a3.27,3.27,0,0,1-2.88-.39l-5.71-3.66s0,0,0,0,0,0,0,0l1.48,4.63a1.64,1.64,0,0,1-1,2Z"/><path class="cls-4" d="M226.49,455.37c6.9-.15,18.48,6.88,20.4,12.84s2.2,32.42,0,34.76-9.1,6.6-9.1,6.6L246,520.92l-12.72,4.4-6.83,8.16L219,525.25l-11.37-5.53,6.47-10.36s-8.6-1-9-13.13,0-23.91,0-23.91S204.32,455.79,226.49,455.37Z"/><path class="cls-22" d="M207.52,522.25c4-1.92,13.93,4.49,13.93,4.49l4.79,6.41,6.15-6.41s7.05-6.41,11.1-4.49c10.38,4.89,18.72,3.7,25,11.3,33.91,40.9,17.66,45.37,0,48-6.52,1.14-77.54,0-86,0-17.66-2.59-33.91-7.06,0-48C188.8,526,197.14,527.14,207.52,522.25Z"/><path class="cls-23" d="M287.53,556.87c-3.1-6.48-8.59-14.61-17.12-24.9-3.6-4.34-7.8-6.13-12.16-7.45-1.19-.36-2.36-.68-3.54-1A59.28,59.28,0,0,1,244.54,520a7.09,7.09,0,0,0-5.14-.26c-5.52,1.76-12.81,9.46-12.91,9.57-.11-.11-7.39-7.81-12.92-9.57a7.09,7.09,0,0,0-5.14.26,59.28,59.28,0,0,1-10.17,3.51c-1.18.32-2.35.64-3.53,1-4.37,1.32-8.57,3.11-12.17,7.45-8.53,10.29-14,18.42-17.12,24.9s-4,11.6-2.68,15.76,4.72,6.77,8.55,8.33a56,56,0,0,0,12.76,3,50.84,50.84,0,0,0,5.54.36c2.61.08,6,.13,9.83.15,6.73,0,31.12,0,30.82,0,8.46,0,16.54.07,23.27,0,3.86,0,7.22-.07,9.83-.15a50.65,50.65,0,0,0,5.54-.36,56,56,0,0,0,12.76-3c3.83-1.56,7.23-4.06,8.55-8.33S290.6,563.29,287.53,556.87Zm-61-12.34,3.64,13.59-3.64,2.65-3.65-2.65Zm59,26.63c-.71,2.29-2.57,3.94-5.7,5.23a52.3,52.3,0,0,1-11.64,2.67h-.07a46.06,46.06,0,0,1-4.86.3c-2.56.07-5.88.12-9.73.15-7.68.05-17.19,0-27,0h0c-9.8.07-19.31.1-27,0-3.85,0-7.17-.08-9.72-.15a46.12,46.12,0,0,1-4.87-.3h-.07a52.3,52.3,0,0,1-11.64-2.67c-3.13-1.29-5-2.94-5.69-5.23S167,565,169.9,559s8-13.71,16.46-23.87c2.71-3.26,5.83-4.67,9.8-5.88,1-.29,2-.57,3.1-.87a67.37,67.37,0,0,0,11.28-3.9h0a2.57,2.57,0,0,1,1.74,0c.93.25,10.3,6.86,11.86,9.88,0,1-2.95,9-2.95,9l-4,16.94,9.29,7.12v0l0,0v0l9.29-7.12-4-16.94s-3-8.06-2.95-9c1.56-3,10.94-9.63,11.86-9.88a2.57,2.57,0,0,1,1.74,0h0a67.37,67.37,0,0,0,11.28,3.9c1.1.3,2.13.58,3.1.87,4,1.21,7.09,2.62,9.8,5.88,8.42,10.16,13.61,17.92,16.46,23.87S286.23,568.77,285.49,571.16Z"/><path class="cls-24" d="M219.31,528.3a3.22,3.22,0,0,1-1.13-.21l-11.8-5a3,3,0,0,1-1.64-1.84,2.89,2.89,0,0,1,.43-2.41L213,507.73a2.93,2.93,0,0,1,4-.71,2.47,2.47,0,0,1,1.14,1.84,2.87,2.87,0,0,1-.5,2.13l-5.76,8.23,6.33,2.7,5.9-9.94a2.85,2.85,0,0,1,4.9,2.91L221.8,527A3,3,0,0,1,219.31,528.3Z"/><path class="cls-24" d="M233.46,528a2.43,2.43,0,0,1-2.14-1.21l-7.17-12.06a2.48,2.48,0,0,1,4.26-2.55l6.11,10.21,7-3-6-8.58a2.49,2.49,0,1,1,4.05-2.91l7.81,11.07a2.54,2.54,0,0,1,.36,2.13,2.51,2.51,0,0,1-1.42,1.63l-11.8,5A2.52,2.52,0,0,1,233.46,528Z"/><path class="cls-25" d="M226.49,516.24A13,13,0,0,1,221,515l-10.59-4.75a13.27,13.27,0,0,1-7.82-12.13V473.32a2.85,2.85,0,0,1,5.69,0v24.83a7.65,7.65,0,0,0,4.48,7l10.58,4.76a7.6,7.6,0,0,0,6.33,0l10.52-4.76a7.66,7.66,0,0,0,4.48-7V473.32a2.84,2.84,0,1,1,5.68,0v24.83a13.25,13.25,0,0,1-7.82,12.13L232,515A13.57,13.57,0,0,1,226.49,516.24Z"/><path class="cls-25" d="M213.84,479a16.53,16.53,0,0,1-8.1-1.84,7.52,7.52,0,0,1-4.05-6.67c-.07-8.09,11-17.88,24.8-17.88,18,0,24.45,16.17,24.66,16.88a2.87,2.87,0,0,1-.57,2.91,2.76,2.76,0,0,1-2.91.78c-.07,0-10.59-3.05-18.55,1.49A31.14,31.14,0,0,1,213.84,479Zm12.65-20.72c-10.59,0-19.19,7.38-19.19,12.21,0,.49.15,1.13,1.21,1.77,3.34,1.92,10.88,1.49,17.77-2.41,5.68-3.26,12.08-3.55,16.7-3.12A19.65,19.65,0,0,0,226.49,458.27Z"/><path class="cls-25" d="M245.18,483.46a1.19,1.19,0,0,1-.49-.07,11.16,11.16,0,0,1-8.82-11.07,2.53,2.53,0,0,1,5,.07,6.12,6.12,0,0,0,1.35,3.91,6.47,6.47,0,0,0,3.55,2.19,2.52,2.52,0,0,1,1.92,3A2.79,2.79,0,0,1,245.18,483.46Z"/><rect id="desk" class="cls-6" x="101.95" y="582.95" width="249.37" height="7.06" rx="2.5"/><g id="PC-2" data-name="PC"><path class="cls-26" d="M260.53,538.14H192.44a4.71,4.71,0,0,0-4.7,5.06l2.64,36.13a4.71,4.71,0,0,0,4.7,4.36h62.81a4.7,4.7,0,0,0,4.69-4.36l2.64-36.13A4.71,4.71,0,0,0,260.53,538.14Z"/><path class="cls-7" d="M185.4,543.37a7.06,7.06,0,0,1,7-7.58h68.09a7.06,7.06,0,0,1,7,7.58l-2.35-.17,2.35.17-2.64,36.13a7.06,7.06,0,0,1-7,6.55H195.08a7.06,7.06,0,0,1-7-6.55Zm7-2.87a2.35,2.35,0,0,0-2.35,2.53l2.64,36.13a2.35,2.35,0,0,0,2.35,2.18h62.81a2.35,2.35,0,0,0,2.34-2.18L262.87,543a2.35,2.35,0,0,0-2.34-2.53Z"/></g></g><g id="discus"><path class="cls-21" d="M855.62,148.86H725.06a2.36,2.36,0,1,1,0-4.72H855.75a2.35,2.35,0,0,1,2.37,2.36A2.57,2.57,0,0,1,855.62,148.86Z"/><path class="cls-21" d="M753.46,147.45a1.41,1.41,0,0,1-1.41,1.41H732.92a1.42,1.42,0,0,1-1.42-1.41V115.62a1.42,1.42,0,0,1,1.42-1.41h19.13a1.41,1.41,0,0,1,1.41,1.41Z"/><path class="cls-21" d="M816,147.45a1.41,1.41,0,0,1-1.41,1.41H794.32a1.42,1.42,0,0,1-1.42-1.41V86.61a1.42,1.42,0,0,1,1.42-1.41h20.31A1.41,1.41,0,0,1,816,86.61Z"/><path class="cls-21" d="M784.75,147.45a1.41,1.41,0,0,1-1.41,1.41H763a1.41,1.41,0,0,1-1.41-1.41V98.16A1.41,1.41,0,0,1,763,96.75h20.32a1.41,1.41,0,0,1,1.41,1.41Z"/><path class="cls-21" d="M848.52,147.45a1.41,1.41,0,0,1-1.41,1.41h-21.5a1.41,1.41,0,0,1-1.41-1.41V76.24a1.41,1.41,0,0,1,1.41-1.41h21.5a1.41,1.41,0,0,1,1.41,1.41Z"/><path class="cls-21" d="M827.71,22.77l-5,2.52L828.39,27,723,82.92a2.62,2.62,0,0,0-1.13,3.79,2.67,2.67,0,0,0,2.43,1.42,4.84,4.84,0,0,0,1.46-.31L830.52,32.21l-1.35,4.61L834,34.14l2.76-8.85Z"/><g id="kira-4" data-name="kira"><path class="cls-21" d="M866,34.29c-1.64,0-3-1.72-3-3.86V21.86c0-2.15,1.32-3.86,3-3.86s3,1.71,3,3.86v8.71C868.93,32.57,867.61,34.29,866,34.29Z"/><path class="cls-21" d="M870.15,29.11h-8.51c-2.13,0-3.84-1.32-3.84-3s1.71-3,3.84-3h8.65c2.13,0,3.83,1.32,3.83,3S872.28,29.11,870.15,29.11Z"/></g><g id="kira-5" data-name="kira"><path class="cls-21" d="M853.25,59.72c-1.65,0-3-1.72-3-3.86V47.29c0-2.15,1.32-3.86,3-3.86s3,1.71,3,3.86V56C856.21,58,854.9,59.72,853.25,59.72Z"/><path class="cls-21" d="M857.43,54.54h-8.51c-2.13,0-3.83-1.32-3.83-3s1.7-3,3.83-3h8.65c2.13,0,3.83,1.32,3.83,3S859.56,54.54,857.43,54.54Z"/></g><g id="kira-6" data-name="kira"><path class="cls-21" d="M696.43,110.58c-1.65,0-3-1.72-3-3.86V98.15c0-2.15,1.32-3.86,3-3.86s3,1.71,3,3.86v8.71C699.4,108.86,698.08,110.58,696.43,110.58Z"/><path class="cls-21" d="M700.61,105.4H692.1c-2.13,0-3.83-1.32-3.83-3s1.7-3,3.83-3h8.66c2.12,0,3.83,1.32,3.83,3S702.74,105.4,700.61,105.4Z"/></g><g id="text"><path id="youmeeting" class="cls-21" d="M749.59,180.25l-8.79-8.68a.89.89,0,0,1-.24-.91.9.9,0,0,1,.65-.69l1.3-.38a2.45,2.45,0,0,1,1.42,0,2.51,2.51,0,0,1,1.19.74l5.73,6.4s0,0,0,0,0,0,0,0l1.32-8.5a2.45,2.45,0,0,1,.59-1.26,2.54,2.54,0,0,1,1.19-.77l1.19-.35a.88.88,0,0,1,.92.23.87.87,0,0,1,.3.88L753.77,179a.87.87,0,0,0,0,.48l1.8,6.06a1.58,1.58,0,0,1-.14,1.22,1.48,1.48,0,0,1-.92.78l-.87.25a1.5,1.5,0,0,1-1.22-.14,1.58,1.58,0,0,1-.75-.95l-1.8-6.07A.89.89,0,0,0,749.59,180.25Zm16.84-7.76a2.78,2.78,0,0,0-2.72-.43,2.88,2.88,0,0,0-2.07,1.85,6.47,6.47,0,0,0,.26,3.78,6.68,6.68,0,0,0,1.85,3.34,2.9,2.9,0,0,0,2.74.4,2.86,2.86,0,0,0,2.06-1.82,6.55,6.55,0,0,0-.25-3.81A6.27,6.27,0,0,0,766.43,172.49Zm5.32,8.18a8,8,0,0,1-10.11,3,8,8,0,0,1-3.39-4.89,7.87,7.87,0,0,1,.19-5.92,6.91,6.91,0,0,1,4.49-3.42,6.83,6.83,0,0,1,5.61.43,7.77,7.77,0,0,1,3.42,4.85A7.93,7.93,0,0,1,771.75,180.67Zm9.59-.78a4.48,4.48,0,0,1-3.86-.27c-1-.67-1.79-2.06-2.41-4.15L773,168.42a1.51,1.51,0,0,1,.14-1.22,1.55,1.55,0,0,1,.94-.78l.44-.13a1.59,1.59,0,0,1,1.22.14,1.53,1.53,0,0,1,.78.95l2,6.67a5.08,5.08,0,0,0,1.3,2.47,2,2,0,0,0,2,.22,3,3,0,0,0,1.78-1.56,3,3,0,0,0,.37-2.32l-2.09-7.05a1.52,1.52,0,0,1,.14-1.21,1.58,1.58,0,0,1,1-.79l.54-.16a1.46,1.46,0,0,1,1.19.15,1.53,1.53,0,0,1,.78.95l3.26,11a1.51,1.51,0,0,1-.14,1.22,1.42,1.42,0,0,1-.92.77l-.35.1a1.62,1.62,0,0,1-1.24-.1,1.77,1.77,0,0,1-.79-1l-.08-.19s0,0,0,0,0,0,0,0A5.93,5.93,0,0,1,781.34,179.89Z"/><path class="cls-21" d="M786.69,187a1.55,1.55,0,0,0-.78-1,1.61,1.61,0,0,0-1.23-.14l-.54.16a1.55,1.55,0,0,0-.95.79,1.51,1.51,0,0,0-.14,1.22l1.8,6.12s0,0,0,0,0,0-.06,0a6,6,0,0,0-4.57-.48,5.19,5.19,0,0,0-3.53,3.13,8.8,8.8,0,0,0,.07,5.87,8.61,8.61,0,0,0,3.19,4.9,5.16,5.16,0,0,0,4.6.78,5.8,5.8,0,0,0,3.68-3.27s0,0,0,0,0,0,0,0l.08.18a1.66,1.66,0,0,0,.8,1,1.55,1.55,0,0,0,1.23.12l.3-.09a1.62,1.62,0,0,0,1.09-2Zm.08,16.88a3.29,3.29,0,0,1-1.95,1.49,2.77,2.77,0,0,1-2.63-.48,6.08,6.08,0,0,1-1.86-3.22c-.91-3.08-.33-4.93,1.76-5.54a3.3,3.3,0,0,1,2.45.19,2.64,2.64,0,0,1,1.49,1.66l1.09,3.7A2.63,2.63,0,0,1,786.77,203.84Z"/><path class="cls-21" d="M797,190.7a1.51,1.51,0,0,0-.78-.95,1.55,1.55,0,0,0-1.22-.15l-.71.21a1.58,1.58,0,0,0-1,.79,1.54,1.54,0,0,0-.14,1.22l3.26,11a1.64,1.64,0,0,0,2,1.09l.71-.21a1.51,1.51,0,0,0,.95-.78,1.52,1.52,0,0,0,.14-1.23Z"/><path class="cls-21" d="M794.15,186.61a1.55,1.55,0,0,0,1-.78,1.59,1.59,0,0,0,.14-1.22l0-.17a1.63,1.63,0,0,0-.78-.95,1.57,1.57,0,0,0-1.23-.14l-.71.21a1.56,1.56,0,0,0-1,.78,1.61,1.61,0,0,0-.14,1.23l.05.16a1.56,1.56,0,0,0,.78,1,1.52,1.52,0,0,0,1.23.14Z"/><path class="cls-21" d="M811.86,192.14a9.87,9.87,0,0,0-4.78-.42,3.49,3.49,0,0,1-1.78-.21,1.52,1.52,0,0,1-.78-.95c-.27-.91.41-1.6,2-2.08a13.6,13.6,0,0,1,3.32-.57,1.05,1.05,0,0,0,.87-.45,1,1,0,0,0,.17-1,1.87,1.87,0,0,0-.69-1,1.55,1.55,0,0,0-1.14-.3,20.61,20.61,0,0,0-3.66.72,7.42,7.42,0,0,0-4,2.38,3.77,3.77,0,0,0-.56,3.49,3.82,3.82,0,0,0,2.05,2.47,9.6,9.6,0,0,0,4.57.51,4.69,4.69,0,0,1,1.94.22,1.45,1.45,0,0,1,.81,1c.29,1-.39,1.71-2,2.19a12.67,12.67,0,0,1-3.49.5,1.12,1.12,0,0,0-.87.41.91.91,0,0,0-.19.91,1.94,1.94,0,0,0,.72,1,1.72,1.72,0,0,0,1.17.35,17,17,0,0,0,3.85-.66,7.44,7.44,0,0,0,4-2.35,3.75,3.75,0,0,0,.57-3.48A4.16,4.16,0,0,0,811.86,192.14Z"/><path class="cls-21" d="M827.43,192.33a1.08,1.08,0,0,0-1,.09,10.49,10.49,0,0,1-2.24.93,3.59,3.59,0,0,1-3.09-.24,5.67,5.67,0,0,1-1.93-3.25,6,6,0,0,1-.19-3.73,3.21,3.21,0,0,1,2.24-1.84,13.34,13.34,0,0,1,2.43-.48,1.19,1.19,0,0,0,.9-.5,1.06,1.06,0,0,0,.16-1,1.81,1.81,0,0,0-.74-1,1.65,1.65,0,0,0-1.2-.26,18.75,18.75,0,0,0-2.83.63,6.71,6.71,0,0,0-4.43,3.36,8,8,0,0,0-.15,6,7.87,7.87,0,0,0,3.44,4.94,7.25,7.25,0,0,0,5.74.33,17.38,17.38,0,0,0,2.65-1,1.68,1.68,0,0,0,.84-.9,1.81,1.81,0,0,0,.06-1.26A1.09,1.09,0,0,0,827.43,192.33Z"/><path class="cls-21" d="M839.82,177.47a1.57,1.57,0,0,0-.77-.95,1.52,1.52,0,0,0-1.21-.15l-.54.16a1.65,1.65,0,0,0-1.1,2l2.09,7.07a3,3,0,0,1-.36,2.32,3.07,3.07,0,0,1-1.8,1.57,2.06,2.06,0,0,1-2-.22,5,5,0,0,1-1.29-2.49l-2-6.68a1.51,1.51,0,0,0-.78-1,1.55,1.55,0,0,0-1.22-.15l-.44.13a1.58,1.58,0,0,0-1,.79,1.54,1.54,0,0,0-.14,1.22l2.09,7.07q.93,3.15,2.4,4.15a4.47,4.47,0,0,0,3.87.29,6,6,0,0,0,3.73-3.29.07.07,0,0,1,0,0s0,0,0,0l.09.18a1.63,1.63,0,0,0,.8,1,1.55,1.55,0,0,0,1.23.12l.35-.1a1.49,1.49,0,0,0,.94-.78,1.58,1.58,0,0,0,.13-1.22Z"/><path class="cls-21" d="M853.82,179.16a9.62,9.62,0,0,0-4.78-.42,3.47,3.47,0,0,1-1.78-.21,1.5,1.5,0,0,1-.79-.95c-.26-.91.42-1.6,2-2.08a13.07,13.07,0,0,1,3.32-.57,1.1,1.1,0,0,0,1-1.4,1.83,1.83,0,0,0-.7-1,1.51,1.51,0,0,0-1.13-.3,20.43,20.43,0,0,0-3.66.72,7.43,7.43,0,0,0-4,2.38,4.09,4.09,0,0,0,1.5,5.95,9.45,9.45,0,0,0,4.57.52,4.69,4.69,0,0,1,1.94.22,1.45,1.45,0,0,1,.81,1c.28,1-.4,1.72-2.05,2.2a13,13,0,0,1-3.48.5,1.1,1.1,0,0,0-.87.41.91.91,0,0,0-.19.91,2,2,0,0,0,.72,1,1.71,1.71,0,0,0,1.17.35,17,17,0,0,0,3.85-.66,7.44,7.44,0,0,0,4-2.35,3.73,3.73,0,0,0,.56-3.48A4.18,4.18,0,0,0,853.82,179.16Z"/><path class="cls-21" d="M869,177.76A4.16,4.16,0,0,0,866.9,175a9.61,9.61,0,0,0-4.78-.42,3.49,3.49,0,0,1-1.78-.21,1.52,1.52,0,0,1-.78-1c-.27-.91.41-1.6,2-2.08a13.6,13.6,0,0,1,3.32-.57,1.09,1.09,0,0,0,1-1.4,1.87,1.87,0,0,0-.69-1,1.55,1.55,0,0,0-1.14-.3,20.61,20.61,0,0,0-3.66.72,7.42,7.42,0,0,0-4,2.38,4.07,4.07,0,0,0,1.49,5.95,9.45,9.45,0,0,0,4.57.52,4.66,4.66,0,0,1,1.94.22,1.45,1.45,0,0,1,.81,1c.29,1-.39,1.71-2,2.19a13.06,13.06,0,0,1-3.49.5,1.13,1.13,0,0,0-.87.41.91.91,0,0,0-.19.91,2,2,0,0,0,.72,1,1.71,1.71,0,0,0,1.17.35,17,17,0,0,0,3.85-.66,7.44,7.44,0,0,0,3.95-2.35A3.75,3.75,0,0,0,869,177.76Z"/></g><path class="cls-4" d="M796.16,226.67c-3.28-1-7.66,3.35-12,6.15-.92-.41-2.17-3.38-2.84-4.72-1.92-3.83-4.31-1.44-2.87,1.44a22.91,22.91,0,0,1,1.92,5.74c.29,1.44-1.85,6.31-2.37,8.68l4.49,2.7c1.12-1.24,2.19-5.87,5.55-6.59C797.13,237.21,801,228.11,796.16,226.67Z"/><path class="cls-7" d="M784.92,232.29c.84-.56,1.67-1.17,2.49-1.77,3.22-2.34,6.29-4.59,8.75-3.85,4.8,1.44,1,10.53-8.14,13.4a5.09,5.09,0,0,0-3,2.14,19.69,19.69,0,0,0-1.55,2.69l-.19.39a6.62,6.62,0,0,1-.83,1.37L778,244c.2-.9.63-2.15,1.07-3.44a33.71,33.71,0,0,0,1.24-4.19,3,3,0,0,0,.06-1.05,24.56,24.56,0,0,0-1.16-4c-.22-.55-.47-1.12-.76-1.71h0c-1.44-2.87,1-5.27,2.87-1.44h0c.05.1.11.21.16.33l.26.53c0,.1.09.2.14.3l.34.7c.62,1.27,1.35,2.59,1.94,2.85C784.4,232.65,784.66,232.47,784.92,232.29Zm.78-6.87c.68-.49,1.38-1,2.09-1.43a18.78,18.78,0,0,1,4.11-2.05,9.49,9.49,0,0,1,5.74-.19,7.83,7.83,0,0,1,5.63,6.42,11.49,11.49,0,0,1-1.43,7.08A21.13,21.13,0,0,1,789.56,245l-.21.06a4.19,4.19,0,0,0-.53.74c-.24.42-.45.83-.72,1.37-.05.12-.11.24-.17.36-.17.32-.37.73-.6,1.12a9.13,9.13,0,0,1-1.05,1.47,5.12,5.12,0,0,1-6.47,1l-4.48-2.7a5.14,5.14,0,0,1-2.37-5.5,27.55,27.55,0,0,1,.77-2.67c.15-.43.3-.87.44-1.3v0l.41-1.22c.27-.82.47-1.47.59-1.94v0a16.68,16.68,0,0,0-1.35-3.85,8.9,8.9,0,0,1-1-4.75,6.82,6.82,0,0,1,2.71-4.94,6.21,6.21,0,0,1,6.8-.31A8.94,8.94,0,0,1,785.7,225.42Zm1.88,3.68h0Zm-11,1.08,0,0Z"/><path class="cls-4" d="M688.76,374.35c-4,9.57,2.26,17.24,5.28,14.27,3.3-3.24,1.68-6.35,2.16-10.82.43-3.9,3-6.08,1.59-7.95s-3.69-4.77-5.2-6.4l-5.2,2.67C687.61,367.74,690.5,371,688.76,374.35Z"/><path class="cls-6" d="M692.53,393.19a6.59,6.59,0,0,1-2.84-.66,10.14,10.14,0,0,1-4.4-4.52c-2.26-4.31-2.32-10-.15-15.17h0c0-.1.08-.19.13-.29.14-.26.22-.64-.14-1.6-.17-.44-.36-.84-.59-1.34l-.14-.28.41-.32-.45.21a8.81,8.81,0,0,1-.86-2.59,3.94,3.94,0,0,1,2.09-4l5.2-2.68a3.93,3.93,0,0,1,4.69.83c1.6,1.73,4,4.69,5.46,6.72,2.09,2.82.86,5.84.4,7l-.3.73a9.93,9.93,0,0,0-.93,3,17.21,17.21,0,0,0-.06,2.57l0,.54c0,.79.07,1.66,0,2.49a10.61,10.61,0,0,1-3.3,7.6,5.91,5.91,0,0,1-4.27,1.77ZM688,366.39a11.67,11.67,0,0,0,.55,1.28c.86,1.83,2,4.31.69,6.91-2.74,6.58-.46,12.08,1.95,13.71a1.91,1.91,0,0,0,2.53,0c2.14-2.09,2.06-4.12,2-6.68a23.73,23.73,0,0,1,.06-3.83,15,15,0,0,1,1.27-4.31c.68-1.61,1-2.49.41-3.29-1.32-1.78-3.43-4.44-4.91-6.08Z"/><path class="cls-6" d="M695.3,486.11c0-2.6,3.88-4.39,6.45-4a9.58,9.58,0,0,0,2.62,0c2.57-.36,6.45,1.43,6.45,4v2a2.37,2.37,0,0,1-.77,1.82,10.26,10.26,0,0,1-14,0,2.37,2.37,0,0,1-.77-1.82Z"/><path class="cls-6" d="M721.69,486.11c0-2.6,3.88-4.39,6.46-4a9.58,9.58,0,0,0,2.62,0c2.57-.36,6.45,1.43,6.45,4v2a2.34,2.34,0,0,1-.78,1.82,10.25,10.25,0,0,1-14,0,2.34,2.34,0,0,1-.78-1.82Z"/><path class="cls-27" d="M735.75,481.8l5.76-130.2H691.64l4.79,130.2h13.43l7.19-97.24,6.24,97.24Z"/><path class="cls-6" d="M735.75,484.42H723.29a2.63,2.63,0,0,1-2.62-2.45l-3.8-59.38-4.4,59.4a2.63,2.63,0,0,1-2.61,2.43H696.43a2.61,2.61,0,0,1-2.61-2.52L689,351.7a2.67,2.67,0,0,1,.73-1.92,2.63,2.63,0,0,1,1.89-.8H741.5a2.62,2.62,0,0,1,2.62,2.74l-5.75,130.2A2.61,2.61,0,0,1,735.75,484.42Zm-10-5.24h7.51l5.52-125H694.36l4.6,125h8.47l7-94.81a2.63,2.63,0,0,1,2.61-2.43h0a2.64,2.64,0,0,1,2.61,2.45Z"/><path class="cls-22" d="M754.45,274.05c3.84-3.35,22.54-33.5,22.54-33.5l8.15,4.78-18.22,37.82c-1,2.39-18.22,19.15-23,22.5,0,0-1.24,41.27-1.24,50.57-9,0-31.84.17-46.23.17v14.36H685.89C683,356.39,683,308,684.45,299.9s4.79-10.53,21.57-17.71c1.92-1,24.94,1,24.94,1a38.94,38.94,0,0,0,5.27,1.43C741.62,283.11,753.65,275.05,754.45,274.05Z"/><path class="cls-6" d="M696.43,373.62H685.89a2.88,2.88,0,0,1-2.82-2.31c-1.85-9.25-2.29-29.86-2.39-38.28-.09-7.32,0-14.68.11-20.72a119.75,119.75,0,0,1,.83-12.91,20,20,0,0,1,1.91-6,15.47,15.47,0,0,1,4.15-4.93c3.41-2.74,8.67-5.24,17.18-8.88a5.16,5.16,0,0,1,1.36-.37c.38-.05.82-.09,1.29-.11.84,0,1.94,0,3.27,0,2.23,0,5.12.17,8.6.38,3,.18,6,.39,8.17.55l2.64.21.25,0h0l1,.11.36.1.66.21c.41.13,1,.31,1.54.48s1.15.34,1.64.46l.31.07a54.83,54.83,0,0,0,9.55-4.95c1.71-1.06,3.43-2.17,4.83-3.15.63-.44,1.15-.81,1.52-1.1l.4-.31.25-.25a14.65,14.65,0,0,0,1.68-2c.81-1.06,1.82-2.45,3-4.14,2-2.89,4.54-6.69,7.52-11.29,2.68-4.13,5.19-8.1,6.83-10.7l2.16-3.45,1.2-1.93.08,0a2.91,2.91,0,0,1,3.42-.38l8.15,4.79a2.87,2.87,0,0,1,1.13,3.72l-18.2,37.77a6.06,6.06,0,0,1-.62,1.07c-.24.32-.52.69-.84,1.07-.6.72-1.39,1.62-2.37,2.67-1.8,1.93-4.17,4.33-6.84,6.93-3.84,3.74-9,8.54-12.12,11l-.15,5.21c-.12,4-.28,9.46-.43,15.2-.42,15.23-.62,24.88-.62,28.7a2.88,2.88,0,0,1-2.87,2.87c-4,0-10.63,0-18.08.07h-3c-7.53,0-15.57.08-22.28.08v11.5A2.87,2.87,0,0,1,696.43,373.62Zm-8.12-5.74h5.26V356.39a2.86,2.86,0,0,1,2.86-2.87c7.19,0,16.49,0,25.12-.09l4.06,0,14.2-.06c.07-5,.27-13.7.6-26,.16-5.75.31-11.2.43-15.21l.22-6.92a2.94,2.94,0,0,1,1.2-1.95A148.92,148.92,0,0,0,754.85,292c2.57-2.5,4.93-4.9,6.64-6.73.9-1,1.63-1.78,2.15-2.41.25-.31.44-.55.57-.74l.11-.16,17.09-35.47-3.47-2-1.51,2.41c-2.42,3.85-4.73,7.47-6.86,10.76-3,4.66-5.59,8.51-7.62,11.44-1.23,1.77-2.29,3.24-3.15,4.36a23.83,23.83,0,0,1-2.34,2.71,4.86,4.86,0,0,1-.42.39c-.18.16-.4.33-.63.51-.46.35-1.06.78-1.75,1.26-1.48,1-3.29,2.2-5.1,3.31-3.48,2.14-8.31,4.88-11.57,5.77a5.65,5.65,0,0,1-2.68-.21c-.6-.14-1.28-.34-1.9-.52l-1.64-.51-.51-.14-3.14-.24c-2.18-.17-5.1-.38-8.08-.56-3.47-.2-6.29-.33-8.36-.36-1.2,0-2.17,0-2.9,0a6.87,6.87,0,0,0-.75.07c-7.77,3.32-12.87,5.71-15.75,8a9.89,9.89,0,0,0-2.67,3.13,14.55,14.55,0,0,0-1.34,4.35,113.91,113.91,0,0,0-.74,12.06c-.16,6-.2,13.26-.11,20.5C686.6,348.3,687.29,361,688.31,367.88Z"/><path class="cls-6" d="M696.63,359.37a3.07,3.07,0,0,1-3.06-3.07V318.09a3.07,3.07,0,1,1,6.13,0V356.3A3.07,3.07,0,0,1,696.63,359.37Z"/><path class="cls-7" d="M727.12,277.66h-16.3v-4.24h16.3Z"/><path class="cls-4" d="M719,239.51c4.56-.1,12.23,4.56,13.5,8.51s1.46,21.5,0,23.06a43.88,43.88,0,0,1-6,4.37l5.46,7.53-8.42,2.91-9.46,0-7.53-3.67,4.28-6.87s-5.69-.66-5.93-8.7,0-15.86,0-15.86S704.29,239.79,719,239.51Z"/><path class="cls-6" d="M716.46,288.4c-1,0-1.76,0-2.25,0a2.64,2.64,0,0,1-.93-.17l-7.82-3.35a2.38,2.38,0,0,1-1-3.57l5.18-7.34a2.45,2.45,0,0,1,3.32-.6,2.14,2.14,0,0,1,1,1.59,2.37,2.37,0,0,1-.42,1.74l-3.46,5,3.53,1.51h11.77l.11.07a3.39,3.39,0,0,1,1.42,3.05c-.1.52-.49,1.43-2.06,1.69A61.36,61.36,0,0,1,716.46,288.4Z"/><path class="cls-6" d="M725.3,288l-1.65,0h-.37a1.49,1.49,0,0,1-1.45-.71c-1-.37-1.12-1-1.07-1.34.18-1.19,2.56-2.36,3.4-2.48l4-1.7-3.64-5.19A2.15,2.15,0,0,1,728,274l5.18,7.34a2.2,2.2,0,0,1,.31,1.85,2.17,2.17,0,0,1-1.24,1.4l-5.82,3.27A3,3,0,0,1,725.3,288Z"/><path class="cls-6" d="M711.55,278.09l-3.43-1.72a9.3,9.3,0,0,1-5.46-8.49V251.41a2.38,2.38,0,0,1,4.76,0v16.47a4.61,4.61,0,0,0,2.67,4.15l2.52,1.19.72.72Z"/><path class="cls-6" d="M726,278l-1.34-4.22,3.19-1.75a4.6,4.6,0,0,0,2.66-4.15V251.41a2.39,2.39,0,0,1,4.77,0v16.47a9.32,9.32,0,0,1-5.47,8.5Z"/><path class="cls-6" d="M721.59,273.63c-.82,0-1.73,0-2.68-.09a33.23,33.23,0,0,1-5.63-.7,16.15,16.15,0,0,1-5.32-3.08,15.89,15.89,0,0,1-2.55-2.59,8,8,0,0,1-1.71-3.67,66.42,66.42,0,0,1-1-10.12,16.78,16.78,0,0,1,9-16.09c3-1.56,7.06-1.48,9.24-1.29a23,23,0,0,1,4.49.8,10.3,10.3,0,0,1,3.76,1.82l.44.37a15.41,15.41,0,0,1,3.8,4.15c1.53,2.6,2.16,5.93,1.94,10.18a36.75,36.75,0,0,1-1.5,11,9.2,9.2,0,0,1-1.61,3.09,20.5,20.5,0,0,1-2.26,2.5,22.27,22.27,0,0,1-2.49,2.05,8.59,8.59,0,0,1-2.69,1.36,11.84,11.84,0,0,1-2.78.29Zm-2.86-32.42a11,11,0,0,0-4.7.83,11.39,11.39,0,0,0-6.24,10.87l0,.46a61.22,61.22,0,0,0,.9,9.27,1.35,1.35,0,0,0,.16.44,4.21,4.21,0,0,0,.48.75,11.53,11.53,0,0,0,1.75,1.75,12.3,12.3,0,0,0,3.42,2.11,31.59,31.59,0,0,0,4.68.55c1,.06,2,.08,2.81.07a9.33,9.33,0,0,0,1.62-.13,4.46,4.46,0,0,0,1.12-.64,15.88,15.88,0,0,0,1.89-1.56,15.24,15.24,0,0,0,1.67-1.85,6.23,6.23,0,0,0,.52-.79,2.07,2.07,0,0,0,.21-.45,31.68,31.68,0,0,0,1.3-9.5V253c.16-3.13-.23-5.46-1.2-7.11a9,9,0,0,0-2.18-2.4h0l-.51-.43h0l-.25-.21h0l-.15-.12h0a5.84,5.84,0,0,0-1.92-.84,18.9,18.9,0,0,0-3.56-.63C719.94,241.24,719.33,241.21,718.73,241.21Z"/><path class="cls-6" d="M799.26,484.85c0-2.6,3.86-4.38,6.43-4a9,9,0,0,0,1.58.13,9.14,9.14,0,0,0,1.59-.13c2.56-.42,6.42,1.36,6.42,4v2.3a2.36,2.36,0,0,1-.77,1.81A10.58,10.58,0,0,1,800,489a2.33,2.33,0,0,1-.78-1.81Z"/><path class="cls-6" d="M812.08,484.85c0-2.6,3.86-4.38,6.42-4a9.79,9.79,0,0,0,3.18,0c2.56-.42,6.42,1.36,6.42,4v2.3a2.33,2.33,0,0,1-.78,1.81,10.57,10.57,0,0,1-14.46,0,2.33,2.33,0,0,1-.78-1.81Z"/><path class="cls-4" d="M802.67,484s-7.37-45.25-4.85-57.4,11-4.63,11.2-.64c.59,10.38,2,57.57,2,57.57Z"/><path class="cls-6" d="M802.67,486.58a2.6,2.6,0,0,1-2.45-1.71h-.05l-.16-1h0l-.24-1.49c-.19-1.27-.47-3.09-.8-5.31-.6-4.06-1.47-10.3-2.27-17-.89-7.51-1.5-14-1.8-19.32-.39-6.91-.27-11.74.36-14.78.72-3.46,1.92-5.84,3.69-7.28a6.21,6.21,0,0,1,6.2-1,10.2,10.2,0,0,1,4.42,3.28,8.9,8.9,0,0,1,2.06,4.79c.31,5.39.83,20.78,1.21,32.74.21,6.54.41,12.77.54,17.35l.23,7.54h0v.49h0a2.59,2.59,0,0,1-2.44,2.19l-8.32.47Zm.21-64a.92.92,0,0,0-.62.24c-.35.3-1.25,1.3-1.87,4.3-.52,2.51-.61,7.15-.26,13.41.3,5.21.89,11.61,1.77,19,.63,5.25,1.39,10.9,2.25,16.81.3,2,.55,3.66.74,4.89l3.41-.19-.15-5c-.14-4.58-.33-10.8-.54-17.35-.38-11.93-.9-27.27-1.2-32.61a4.06,4.06,0,0,0-.92-1.8,5.15,5.15,0,0,0-2.08-1.62A1.63,1.63,0,0,0,802.88,422.56Z"/><path class="cls-4" d="M823.6,483.87s6.65-45.35,3.93-57.47-11-4.45-11.2-.45c-.42,10.39-1.06,57.59-1.06,57.59Z"/><path class="cls-6" d="M823.6,486.49h-.11l-8.32-.34a2.6,2.6,0,0,1-2.48-2.15h0l.11-8c.06-4.59.16-10.81.26-17.36.2-12,.47-27.36.69-32.76a9,9,0,0,1,2-4.81h0a10.08,10.08,0,0,1,4.37-3.35,6.21,6.21,0,0,1,6.22.93c1.78,1.41,3,3.77,3.8,7.22.68,3,.87,7.86.59,14.77-.22,5.32-.72,11.83-1.49,19.35-.69,6.73-1.47,12.95-2,17-.29,2.23-.54,4.05-.72,5.32l-.28,2s0,0,0,0l-.07.46h0A2.61,2.61,0,0,1,823.6,486.49ZM817.92,481l3.42.14c.16-1.21.39-2.89.66-4.9.52-4,1.29-10.17,2-16.84.76-7.41,1.26-13.81,1.47-19,.26-6.36.1-10.88-.47-13.41-.67-3-1.58-4-1.94-4.27a1,1,0,0,0-1.16-.12,5,5,0,0,0-2,1.65,3.82,3.82,0,0,0-.89,1.82c-.22,5.36-.5,20.7-.69,32.62-.11,6.55-.2,12.77-.26,17.36Z"/><path class="cls-4" d="M785.42,370.11c-5.91,6.38-3.21,14.22,0,12.76,3.53-1.61,3.15-4.52,4.83-7.9,1.46-3,4.1-3.94,3.54-5.81s-1.52-4.82-2.24-6.54l-4.86.61C786.41,364.57,787.76,368,785.42,370.11Z"/><path class="cls-6" d="M784.66,386.37a4.92,4.92,0,0,1-1.14-.13,5.45,5.45,0,0,1-2.65-1.52,8.56,8.56,0,0,1-2.17-4.85,15.25,15.25,0,0,1,4.27-12h0l.2-.2c.16-.15.34-.38.33-1.27,0-.4,0-.77-.07-1.22l0-.31a8,8,0,0,1,.07-2.35,3.36,3.36,0,0,1,2.83-2.57l4.87-.61a3.35,3.35,0,0,1,3.49,2c.75,1.82,1.75,4.83,2.35,6.87a5.78,5.78,0,0,1-1.71,5.64l-.38.42a9.07,9.07,0,0,0-1.66,2.16,14.14,14.14,0,0,0-.79,2l-.14.42c-.2.62-.42,1.32-.69,2a9,9,0,0,1-4.82,5A5.18,5.18,0,0,1,784.66,386.37Zm2.51-22.69a9.42,9.42,0,0,0,.07,1.11c.14,1.59.36,4-1.49,5.68-4,4.36-3.82,9.3-2.41,11.25a1.49,1.49,0,0,0,1.9.69c2.26-1,2.77-2.62,3.43-4.65a21.48,21.48,0,0,1,1.16-3,12.76,12.76,0,0,1,2.26-3c1-1.05,1.48-1.63,1.25-2.4-.52-1.77-1.4-4.43-2.08-6.13Z"/><path class="cls-4" d="M837.34,368.89c6.17,6.68,3.36,14.87,0,13.33-3.69-1.67-3.29-4.71-5-8.25-1.52-3.08-4.28-4.11-3.7-6.06s1.6-5,2.34-6.84l5.08.64C836.3,363.11,834.9,366.65,837.34,368.89Z"/><path class="cls-6" d="M838.13,385.74a5.37,5.37,0,0,1-2.2-.49,9.22,9.22,0,0,1-4.95-5.19c-.29-.7-.54-1.48-.72-2.05l-.15-.45a14.83,14.83,0,0,0-.83-2.11,9.21,9.21,0,0,0-1.69-2.22l-.43-.47c-.81-.89-2.64-2.91-1.79-5.79.62-2.12,1.67-5.25,2.46-7.16a3.31,3.31,0,0,1,3.49-2l5.08.64a3.32,3.32,0,0,1,2.83,2.56,7.73,7.73,0,0,1,.07,2.36l0,.37c0,.48-.08.87-.08,1.29,0,1,.21,1.26.4,1.44s.14.13.2.2a15.79,15.79,0,0,1,4.42,12.43,8.77,8.77,0,0,1-2.22,5,5.54,5.54,0,0,1-2.7,1.55A5,5,0,0,1,838.13,385.74Zm-6.91-24.12c-.72,1.8-1.64,4.59-2.18,6.43-.24.81.28,1.42,1.31,2.52a12.81,12.81,0,0,1,2.36,3.18,22.56,22.56,0,0,1,1.21,3.13c.69,2.14,1.23,3.82,3.59,4.89a1.63,1.63,0,0,0,2-.73c1.48-2.05,1.69-7.22-2.56-11.81-1.88-1.73-1.67-4.13-1.51-5.89a10.69,10.69,0,0,0,.07-1.18Z"/><path class="cls-28" d="M833.71,432.64l1.6-59.18H788.05l1.6,59.18Z"/><path class="cls-6" d="M833.71,435.51H789.65a2.85,2.85,0,0,1-2.87-2.79l-1.6-59.19a2.85,2.85,0,0,1,.81-2.07h0a2.87,2.87,0,0,1,2.06-.87h47.26a2.87,2.87,0,0,1,2.87,2.94l-1.6,59.19A2.86,2.86,0,0,1,833.71,435.51Zm-41.27-5.74h38.48l1.44-53.44H791Z"/><path class="cls-29" d="M784,300.68l11.22-.8,9.61,2.4h8.81l8-2.4,14.42,4,14.42,11.19,15.22,20-13.62,18.39-16,12v8.8H786.44v-14.4l-2.4,5.6-14.42-8.8-6.41-10.4-5.6-13.59,8.81-13.6Z"/><path class="cls-6" d="M786.63,369.16l-.67-.33h0l-.67-.33h0a70.55,70.55,0,0,1-21.87-17.08,45.56,45.56,0,0,1-5.77-8.48,18.13,18.13,0,0,1-2.08-6.31h0l0-1.5a17.74,17.74,0,0,1,2-6,62.18,62.18,0,0,1,4.67-7.58,121.54,121.54,0,0,1,12-14.33h0l.53-.53h0l.12-.11c.93-.93,1.74-1.77,2.48-2.55l.14-.15c.72-.74,1.38-1.44,2-2.07a18.28,18.28,0,0,1,4.46-3.43c3.47-1.79,7.85-2.12,15.24-2.12H800V302h-.75c-7.28,0-10.46.37-12.6,1.48a12.46,12.46,0,0,0-3.07,2.41c-.57.57-1.19,1.21-1.9,2l-.15.15c-.65.69-1.36,1.42-2.15,2.22h0l-.43.42-.1.11h0A114.53,114.53,0,0,0,767,324.83a55.84,55.84,0,0,0-4.24,6.84c-1.3,2.59-1.44,3.8-1.44,4.2a10.71,10.71,0,0,0,1.49,4.46,39.78,39.78,0,0,0,5,7.38,63.71,63.71,0,0,0,16.57,13.74v-7.67l-8.57-9.33.07-.06a2.87,2.87,0,0,1,2.68-4.19,2.82,2.82,0,0,1,1.41.44l.07-.07,8.81,9.6h0l1,1.1-.08.07a2.32,2.32,0,0,1,.22.57h.1V367H790a2.88,2.88,0,0,1-1.26,1.69,2.81,2.81,0,0,1-2.07.37Z"/><path class="cls-6" d="M835.31,369.13a2.89,2.89,0,0,1-2.87-2.87v-11.2a2.91,2.91,0,0,1,.63-1.79l9.61-12a2.87,2.87,0,0,1,4.48,3.59l-9,11.21v5.37a58.75,58.75,0,0,0,15.2-13.84,52.17,52.17,0,0,0,5.39-8.38,14.09,14.09,0,0,0,1.71-5c0-.36-.15-1.43-1.48-3.65a48.86,48.86,0,0,0-4.55-6.09c-3.83-4.51-8.78-9.46-13.16-13.82l-1.58-1.59c-1.55-1.56-2.55-2.56-3.48-3.41a11.59,11.59,0,0,0-2.91-2.12,9.22,9.22,0,0,0-3.29-.71c-1.63-.13-3.77-.13-6.74-.13h-.75V297h.75c3,0,5.32,0,7.19.15a14.7,14.7,0,0,1,5.22,1.21,16.65,16.65,0,0,1,4.4,3.1c1.09,1,2.32,2.23,3.74,3.66l1.51,1.51c4.46,4.46,9.48,9.46,13.48,14.17a54.83,54.83,0,0,1,5.09,6.85,13.39,13.39,0,0,1,2.3,6.61c0,1.9-.78,4.43-2.32,7.51a56.86,56.86,0,0,1-6,9.35,61.59,61.59,0,0,1-21.36,17.72A2.8,2.8,0,0,1,835.31,369.13Z"/><path class="cls-29" d="M835.31,346.26H786.44v28.8h48.87Z"/><path class="cls-6" d="M836.11,377.92H787.25a2.86,2.86,0,0,1-2.87-2.86v-28a2.87,2.87,0,1,1,5.73,0v25.13h43.13V347.06a2.87,2.87,0,0,1,5.74,0v28A2.87,2.87,0,0,1,836.11,377.92Z"/><path class="cls-4" d="M804.75,255.71c-6.17,3.08-6.26,7-7.09,13.78s-3.2,35.41-3.2,52H829.7c-.8-14.39-2.4-45-3.2-52.78-.61-6-2.41-9.92-7.21-12.8S808.71,253.73,804.75,255.71Z"/><path class="cls-6" d="M830.2,324.09,794,324a2.63,2.63,0,0,1-2.08-2.07h0v-1c0-16.44,2.31-44,3.16-51.3h0l.06-.48v0h0l.14-1.19a30.68,30.68,0,0,1,1.57-7.74,12.84,12.84,0,0,1,6.36-6.65h0l.43-.22h0l.45-.23h0c4.26-2,10.57-2.88,16.17.24h0l.42.25h0l.43.26h0a15.79,15.79,0,0,1,5.71,6,21.81,21.81,0,0,1,2.28,8h0l.05.5h0l0,.49h0c.69,7.24,1.92,29.61,2.73,44.53l.47,8.38h-.05a2.61,2.61,0,0,1-.7,1.44,2.53,2.53,0,0,1-1.4.77Zm-33.11-5.24h29.85l-.29-5.12c-.83-15.23-2.09-38.26-2.76-44.78h0a17.48,17.48,0,0,0-1.73-6.56,10.85,10.85,0,0,0-4.2-4.23h0c-4.09-2.45-9-1.58-12-.09h0c-2.32,1.16-3.56,2.36-4.29,4.15a26.1,26.1,0,0,0-1.23,6.42l-.14,1.19C799.51,275.94,797.31,302,797.09,318.85Z"/><path class="cls-6" d="M811.28,321.37a1.5,1.5,0,0,1-1.37-.89c-1.93-4.32-1.48-9.07-1-14.1a50,50,0,0,0,.09-12.67,1.49,1.49,0,0,1,1.25-1.71,1.51,1.51,0,0,1,1.71,1.25,53,53,0,0,1-.06,13.42c-.46,4.82-.86,9,.75,12.59a1.5,1.5,0,0,1-1.37,2.11Zm-7.21,0a1.5,1.5,0,0,1-1.37-.89c-1.93-4.32-1.48-9.07-1-14.1a50,50,0,0,0,.09-12.67A1.49,1.49,0,0,1,803,292a1.51,1.51,0,0,1,1.71,1.25,53,53,0,0,1-.06,13.42c-.46,4.82-.86,9,.75,12.59a1.5,1.5,0,0,1-1.37,2.11Z"/></g></g></g></g></svg>