<svg xmlns="http://www.w3.org/2000/svg" viewBox="0 0 880 810"><defs><style>.cls-1{fill:none}.cls-4{fill:#f3ca3e;fill-rule:evenodd}.cls-8{fill:#111}</style><clipPath id="clip-path"><circle class="cls-1" cx="63" cy="102" r="59"/></clipPath></defs><g id="レイヤー_2" data-name="レイヤー 2"><g id="img_log"><g id="img_log-2" data-name="img_log"><circle cx="63" cy="102" r="59" fill="#fdd94a"/><g clip-path="url(#clip-path)"><g id="pelican"><path class="cls-4" d="M50 94.4a30 30 0 0 0 7.2 3.1c12.7 4 32.1 8.3 38.8 9.2-5.9 6.9-3.3 29.7-16 28.3-6.4-.7-12.3-8.2-19.6-18.8a94 94 0 0 1-8.9-17.8c-1.1-2.7-.6-1.9-1.4-4z"/><path d="M50 94.4a30 30 0 0 0 7.2 3.1c12.7 4 32.1 8.3 38.8 9.2-5.7 6.7-3.4 28.3-15 28.3a10.4 10.4 0 0 1-1 0c-6.4-.7-12.3-8.2-19.6-18.8-4-5.8-6.8-12.6-8.9-17.8-1-2.7-.5-1.9-1.4-4m0-6a5.8 5.8 0 0 0-4 1.5c-1.8 1.7-.4 7.6-.4 7.8l1 2.8c2.6 6.3 4.8 13.1 8.9 19a97.8 97.8 0 0 0 10.7 14 31.2 31.2 0 0 0 5.9 4.8 17.4 17.4 0 0 0 7.2 2.6 16.9 16.9 0 0 0 1.7 0 12.9 12.9 0 0 0 8-2.6 16.3 16.3 0 0 0 4.7-5.8c1.9-3.8 2.9-8.3 3.8-12.6l1.5-6.4a9.4 9.4 0 0 1 1.4-3 6 6 0 0 0 1-6 6 6 0 0 0-4.8-3.8c-6.4-.8-25.5-5.1-37.8-9a24.6 24.6 0 0 1-5.7-2.4 5.8 5.8 0 0 0-3-.8z"/><path class="cls-4" d="M46.3 84.5C63 83.2 93 84.5 98 88.8c-8-1-36.8 2.4-51.3 4.4-.2 0 1.1-6.3-.4-8.7z"/><path d="M60.2 84c15.9 0 34 1.5 37.7 4.8a33.2 33.2 0 0 0-3.8-.1c-10.3 0-31.5 2.4-44.7 4.1-1 .2-1-8.5 0-8.5 3.3-.2 7-.3 10.8-.3m0-5.7c-5.3 0-10.2.2-14.4.5-1 0 2 5.5 2.3 10.7.3 4.8-2.3 9.4-1.5 9.4a4.8 4.8 0 0 0 .8 0c15.8-2.1 37.2-4.5 46.7-4.5a28.2 28.2 0 0 1 3.2.1 5.2 5.2 0 0 0 .6 0 5.6 5.6 0 0 0 5.2-3.3 5.7 5.7 0 0 0-1.5-6.7c-1.8-1.6-5.5-3.6-17.4-5a219.5 219.5 0 0 0-24-1.2z"/><path d="M45.2 85.8c2-7.5-11-10.1-15.7-5-4.7 5.2-6.3 17.4.6 26.2 3.8 4.8 16.8 17.3 17.3 23.5s-19-3.3-35.8 6.7a53.8 53.8 0 0 0-7.3 5.2v24h44.3c14.4-11.2 21-28 13.2-38.1-5.1-6.6-20.6-27-16.6-42.6z" fill="#fff" fill-rule="evenodd"/><path d="M36.5 78.1c5 0 10 2.8 8.7 7.7-4 15.6 11.5 36 16.6 42.5 7.8 10 1.2 26.9-13.2 38h9a50.1 50.1 0 0 0 10-13.7 32.5 32.5 0 0 0 3.4-14.3 22.4 22.4 0 0 0-4.6-13.7 111 111 0 0 1-11-17 48.6 48.6 0 0 1-4.3-11 20 20 0 0 1-.2-9.4 11 11 0 0 0-1.9-9.6 13.6 13.6 0 0 0-5.9-4.2 18.4 18.4 0 0 0-6.6-1.3 17.5 17.5 0 0 0-5.9 1 13.4 13.4 0 0 0-5.5 3.6 24.5 24.5 0 0 0-5.6 15.7 28.5 28.5 0 0 0 6 18.4c1 1.3 2.7 3 4.5 5 2.6 3 5.5 6 7.8 9.2l1.3 1.7a113 113 0 0 0-7.4-.3 53.2 53.2 0 0 0-11 1A39.3 39.3 0 0 0 8.6 132q-2.2 1.3-4.3 2.8v7.5a55 55 0 0 1 7.3-5.2c6.7-4 14-4.8 20-4.8 4.8 0 8.8.5 11.7.5s4.3-.5 4.2-2.3c-.6-6.2-13.6-18.7-17.4-23.5-6.9-8.8-5.3-21-.6-26.3a9.4 9.4 0 0 1 7-2.6"/><path d="M38.5 86.8a3 3 0 1 1-3 3 3 3 0 0 1 3-3z" fill-rule="evenodd"/></g></g><path d="M854.8 94H195.4a15 15 0 0 0-15 15v7.3h-23.8l23.9 22.3v602.9a15 15 0 0 0 14.9 14.9h659.4a15 15 0 0 0 15-15V109a15 15 0 0 0-15-14.9z" fill="#eee" fill-rule="evenodd"/><path d="M854.8 94a15 15 0 0 1 15 15v632.5a15 15 0 0 1-15 14.9H195.4a15 15 0 0 1-15-15V138.6l-23.8-22.2h23.9V109A15 15 0 0 1 195.4 94h659.4m0-5H195.4a20 20 0 0 0-20 20v2.3h-18.8a5 5 0 0 0-3.4 8.7l22.3 20.7v600.8a20 20 0 0 0 19.9 19.9h659.4a20 20 0 0 0 20-20V109a20 20 0 0 0-20-19.9z"/><path class="cls-8" d="M238 140.3a4.6 4.6 0 0 0-1.7-.4c-1.6 0-2.4 1.1-2.4 3.2v2.6h3.5v2.2h-3.5V162h-2.7v-14H229v-2.1l2.2-.2v-2.6c0-3.3 1.5-5.4 4.8-5.4a7.1 7.1 0 0 1 2.7.6zM238.7 153.9c0-5.5 3.6-8.6 7.5-8.6s7.6 3.1 7.6 8.6-3.6 8.5-7.6 8.5-7.5-3.1-7.5-8.5zm12.3 0c0-3.8-2-6.3-4.8-6.3s-4.7 2.5-4.7 6.3 2 6.2 4.7 6.2 4.8-2.5 4.8-6.2zM257.5 145.7h2.2l.3 2.4c1.6-1.6 3.3-2.8 5.5-2.8 3.4 0 5 2.2 5 6.4V162h-2.7v-10c0-3-1-4.3-3-4.3-1.8 0-3 .8-4.6 2.4V162h-2.7zM274 153.9c0-5.3 3.4-8.6 7.1-8.6a6.6 6.6 0 0 1 4.6 2l-.2-3v-6.2h2.8V162H286l-.3-2a7.3 7.3 0 0 1-5 2.4c-4.1 0-6.8-3.1-6.8-8.5zm11.5 4v-8.6a5.7 5.7 0 0 0-4-1.7c-2.6 0-4.7 2.5-4.7 6.2 0 4 1.7 6.3 4.5 6.3a5.6 5.6 0 0 0 4.2-2.2zM292 153.9c0-5.3 3.6-8.6 7.3-8.6 4.2 0 6.5 3 6.5 7.6a10.7 10.7 0 0 1 0 1.6h-11c0 3.5 2.2 5.7 5.3 5.7a7 7 0 0 0 4-1.3l1 1.8a9.7 9.7 0 0 1-5.3 1.7c-4.3 0-7.8-3.2-7.8-8.5zm11.4-1.4c0-3.2-1.5-5-4-5-2.3 0-4.4 1.8-4.7 5zM307.4 160.1l1.4-1.8a7.4 7.4 0 0 0 4.8 2c2.2 0 3.2-1.2 3.2-2.6 0-1.6-2-2.4-3.7-3-2.3-1-4.9-2-4.9-4.8 0-2.6 2-4.6 5.6-4.6a8.4 8.4 0 0 1 5.1 1.8l-1.3 1.8a6.1 6.1 0 0 0-3.8-1.5c-2 0-3 1.1-3 2.4 0 1.5 1.8 2.1 3.6 2.8 2.4 1 5 1.9 5 5 0 2.6-2 4.8-6 4.8a9.8 9.8 0 0 1-6-2.3zM322.7 138.1h2.7v16.2l7-8.6h3l-5.4 6.6 6.2 9.7h-3l-4.8-7.9-3 3.6v4.3h-2.7zM367.8 144a21.2 21.2 0 0 0 2.5-.2v2.5H363.1l.2 14.1c0 1.6-1 2.4-2.7 2.4a63 63 0 0 1-4.8-.1l-.2-2.5a28.4 28.4 0 0 0 4.2.4c.9 0 1.1-.4 1.1-1.2v-11a41.7 41.7 0 0 1-13.2 11.3l-1.7-2c6-3 11.4-8 13.8-11.5h-10l-2.7.1v-2.5a20.6 20.6 0 0 0 2.7.1h11l-.1-2.9a20.7 20.7 0 0 0-.3-2.5h2.8a17.8 17.8 0 0 0-.2 2.5v3zM376.5 152.1c1.4-1.4 4-4.8 6-7 1.5-1.9 2.8-2 5-.3a75.7 75.7 0 0 1 6.1 6.2l7.3 8-2 2.2c-2-2.7-4.8-5.8-6.7-8a80.8 80.8 0 0 0-5.8-6.1c-1.3-1-1.7-1-2.7.2l-5.4 6.7-1.7 2.3-2.2-2.2 2.1-2zm19.6-11.8a3.6 3.6 0 1 1-3.6 3.7 3.6 3.6 0 0 1 3.6-3.7zm0 5.9a2.2 2.2 0 1 0-2.2-2.2 2.2 2.2 0 0 0 2.2 2.2zM408.8 161a3.3 3.3 0 0 0 .3-1.5v-17a23.1 23.1 0 0 0-.2-2.8h3a19.4 19.4 0 0 0-.3 2.7v17a32.4 32.4 0 0 0 16.4-10.2l1.4 2a35 35 0 0 1-17.6 10.8 4.3 4.3 0 0 0-1.2.5zM434.6 149l4.2.1h16.4l3.3-.1v3l-3.2-.1h-16.5l-4.2.1zM487.1 142.8a13.1 13.1 0 0 0-.7 1.6 30.5 30.5 0 0 1-4.3 8.9 60 60 0 0 1 2.9 2l-1.7 2.1-2.8-2a28.4 28.4 0 0 1-11.8 8l-2.1-2a26.3 26.3 0 0 0 11.8-7.4l-6.6-4 1.6-1.8 6.6 3.8a25 25 0 0 0 3.8-8h-10.2a32.5 32.5 0 0 1-8 7.9l-2-1.6a26.8 26.8 0 0 0 9.7-10.4 12.9 12.9 0 0 0 1-2.4l2.7.9-1.3 2.3-.6 1.1h8.2a5.3 5.3 0 0 0 2-.3zM493.4 149l4.2.1H514l3.3-.1v3l-3.2-.1h-16.5l-4.2.1zM525 142.1l13-1.2c3.1-.3 6-.4 8-.5v2.4a24.6 24.6 0 0 0-6 .5 10.4 10.4 0 0 0-6.7 9.4c0 5.8 5.4 7.6 10.2 7.8l-.8 2.5c-5.5-.2-11.8-3.2-11.8-9.8a12 12 0 0 1 5.6-10c-2.6.3-10.7 1-14 1.7l-.2-2.6 2.6-.2zm19.2 8.5l-1.5.7a27.9 27.9 0 0 0-2.5-4.2l1.5-.7a35.6 35.6 0 0 1 2.5 4.2zm3.4-1.3l-1.5.7a26.7 26.7 0 0 0-2.6-4.1l1.5-.7a45.3 45.3 0 0 1 2.6 4.1zM567.8 144.2v4.9a7.3 7.3 0 0 1 1 3.8c0 4-2 8.5-8.8 10.6l-2-2c3.8-1 6.6-2.5 7.8-5.2a4.3 4.3 0 0 1-2.5.8 4.8 4.8 0 0 1-5-5 5.2 5.2 0 0 1 5.3-5.2 6 6 0 0 1 2 .3v-3c-4.5 0-9.6.3-13.3.6v-2.4l13.3-.3-.1-2-.2-1.8h2.7l-.1 1.9v1.9h9.1v2.3l-8.7-.2zm-1.6 6.6a2.6 2.6 0 0 0-2.7-1.9 3 3 0 0 0-3 3.1 2.9 2.9 0 0 0 3 3c1.8 0 3-1.4 2.7-4.3zM589 159.2a4.6 4.6 0 1 1-4.6-4.5 4.6 4.6 0 0 1 4.6 4.5zm-1.6 0a3 3 0 0 0-3-3 3 3 0 0 0 0 6.1 3 3 0 0 0 3-3zM242 210.7c-4.1 2-8.7 3.9-12 5.3l-.8-2.3 4.1-1.6-.5-18.6h2.3l.5 17.6 5.9-2.5zm13.2 8.5a73.7 73.7 0 0 0-6.7-8 21.7 21.7 0 0 1-10.3 8.2 12.9 12.9 0 0 0-1.8-2c10.3-3.7 13.5-11 14.8-24l2.4.3a43.5 43.5 0 0 1-4 15.5 76.8 76.8 0 0 1 7.4 8.3zm-11.6-15.3a29.5 29.5 0 0 0-4.6-7.3l2-1a28.4 28.4 0 0 1 4.7 7.2zM273 196.3v5.4l.4-.5a74.1 74.1 0 0 1 10.6 6.2l-1.6 2a68.4 68.4 0 0 0-9.4-6v15.8h-2.4v-22.9h-11.4v-2.2h26.5v2.2zM313.8 216.3c0 1.5-.3 2.2-1.4 2.6s-2.9.4-5.5.4a8.3 8.3 0 0 0-.8-2.3h4.8c.6 0 .7-.1.7-.7v-17H303a20.6 20.6 0 0 1-.5 3.8 89.7 89.7 0 0 1 8.4 8.4l-1.8 1.4a74.4 74.4 0 0 0-7.3-7.7 16 16 0 0 1-7.3 8 9.3 9.3 0 0 0-1.6-1.6c6.6-3.6 7.7-8.5 7.9-12.4H292v20.1h-2.2V197h10.8v-5.1h2.2v5.1h10.9zM332.2 201.4a34.9 34.9 0 0 0 12.9 9.2 12.8 12.8 0 0 0-1.4 2 47.4 47.4 0 0 1-4.2-2.3v8.9h-2.3v-1h-12v1H323v-8.6a45.8 45.8 0 0 1-4 2.3 8.8 8.8 0 0 0-1.3-1.9c5-2.2 10-6.2 12.3-9.6zM321 200h-2.1v-5.3H330v-2.8h2.3v2.8h11.3v5.4h-2.2v-3.4h-20.5zm7.4-1.2a27.9 27.9 0 0 1-7.7 6.7 12.1 12.1 0 0 0-1.6-1.8 21.8 21.8 0 0 0 7.2-5.6zm9.7 10.5a33.8 33.8 0 0 1-6.8-5.8 30.7 30.7 0 0 1-6.2 5.8zm-.8 7v-5h-12v5zm-1.9-18.2a46.5 46.5 0 0 1 7.8 5.7l-1.6 1.5a44.1 44.1 0 0 0-7.7-5.9zM360.2 215.5a18.6 18.6 0 0 0 2.5-.3c3.8-.9 7.6-3.7 7.6-8.8a8.2 8.2 0 0 0-8-8.6 62.8 62.8 0 0 1-1.7 8.5c-1.8 6.1-4.2 9.3-7 9.3s-5.3-3.1-5.3-8c0-6.4 5.8-12 13-12 7 0 11.4 4.8 11.4 10.8 0 6.3-4.1 10.4-11.2 11.4zm-2-9.7a48 48 0 0 0 1.7-8c-5.7.7-9.2 5.6-9.2 9.6 0 3.8 1.7 5.4 3 5.4s3-2 4.5-7zM387 205.6a22 22 0 0 1 6.4-1.1c4.4 0 7.5 2.4 7.5 5.9s-2.3 5.9-6.3 6.9a19 19 0 0 1-3.7.4l-.8-2.4a17 17 0 0 0 3.4-.2c2.7-.5 5-2 5-4.7 0-2.5-2.2-3.8-5-3.8a19.1 19.1 0 0 0-6.5 1.1l.1 6.4c0 2.8-1 3.7-2.6 3.7-2.4 0-6.2-2.3-6.2-5 0-2.4 3-5 6.5-6.4v-1.7-3.9h-2.2a37.2 37.2 0 0 1-3.8 0v-2.3a27 27 0 0 0 3.7.2h2.3v-3.5a11.7 11.7 0 0 0-.1-2h2.6a35.1 35.1 0 0 0-.2 5.1 39 39 0 0 0 6-1.2v2.4a60.3 60.3 0 0 1-6.1 1l-.1 4zm-2.1 8.2l-.1-5.2c-2.4 1.1-4.2 2.8-4.2 4.2s2 2.5 3.2 2.5c.7 0 1-.5 1-1.5zm11.7-17.4a50 50 0 0 1 6.7 4.3l-1.2 2a38.4 38.4 0 0 0-6.6-4.5zM418.2 198.4h-9.4v4.2h-2v-5.9h11.4V195h-9.7v-1.7h21.8v1.7h-9.9v1.8H432v5.9h-2v-4.2h-9.6v6.8h-2.1zm11 18.9c1.6 0 1.9-.6 2-3.6a6.1 6.1 0 0 0 2 .8c-.4 3.6-1 4.5-4 4.5h-6.8c-3.4 0-4.3-.6-4.3-3v-1h-6.7v1.6h-2v-10.4h20.1v8.9h-9.3v1c0 1 .4 1.2 2.3 1.2zM409.8 203h6.9v1.4h-6.9zm6.9-1.6h-6.3V200h6.3zm-5.2 6.4v2.1h6.6v-2zm6.6 5.6v-2h-6.6v2zm9.3-5.6h-7.1v2.1h7.1zm0 5.6v-2h-7.1v2zm1-13.4v1.3H422V200zm-6.4 3h7.1v1.4H422zM435 197h11.2v1.8H435zm10.3 21h-7v1.3h-1.9v-10h8.9zm-.1-15.1h-8.7V201h8.7zm-8.7 2.3h8.7v1.8h-8.7zm8.6-10.4h-8.5V193h8.5zm-6.7 16.3v5h5v-5zm17.2-8.3v5h5.6V219H459v-1.3h-8.8v1.5H448v-11.6h5.2v-5h-7v-2.1h7v-4.8l-5.6.6a7.2 7.2 0 0 0-.6-1.9 78.2 78.2 0 0 0 12.8-2l1.6 1.7a48.2 48.2 0 0 1-6 1.3v5.1h7v2.1zm3.4 7h-8.8v6h8.8zM476 193.8l-.4 1.7-.7 4.3 3.3-.3c2.7 0 4.8 1 4.8 5.1 0 3.5-.5 8.2-1.7 10.7-1 2-2.4 2.5-4.3 2.5a18.1 18.1 0 0 1-3.6-.4l-.3-2.6a13.5 13.5 0 0 0 3.6.7 2.5 2.5 0 0 0 2.6-1.6c1-2 1.4-5.8 1.4-9 0-2.7-1.2-3.2-3.1-3.2-.8 0-2 0-3.2.2a59 59 0 0 1-6.3 16l-2.4-1c3-4 5.2-10.8 6.3-14.8l-3.8.4-2.7.4-.2-2.6h2.6l4.5-.4a32.5 32.5 0 0 0 .8-6.4zm10.2 3.4a50.3 50.3 0 0 1 5.4 10.5l-2.3 1.2a36 36 0 0 0-5.3-10.7zm1.2.4a36.7 36.7 0 0 0-2.4-4.1l1.6-.7a42.7 42.7 0 0 1 2.5 4.1zm3.4-1.2a33.6 33.6 0 0 0-2.5-4.1l1.6-.7a39.5 39.5 0 0 1 2.5 4.1zM513.7 202.3c3.7 1 6 3.7 6 7 0 4.2-2.9 8-9.8 9l-1.2-2c5.3-.5 8.6-3.3 8.6-7.1a5.2 5.2 0 0 0-4.3-5 24.1 24.1 0 0 1-6.5 9.6l.7 2.4-2.2.6-.5-1.6a10 10 0 0 1-5 1.6c-2 0-3.5-1.2-3.5-3.8 0-3.8 3.3-7.7 7.4-9.6 0-1.5.2-3 .3-4.3H502l-4.8-.2v-2.3a47.9 47.9 0 0 0 4.9.4h2l.2-2.3a12.7 12.7 0 0 0 .1-1.4h2.5a10.8 10.8 0 0 0-.3 1.4l-.4 2.2a62.2 62.2 0 0 0 10.4-1.2v2.2a101.7 101.7 0 0 1-10.7 1.1l-.3 3.7a17.7 17.7 0 0 1 5-.8h1l.2-.3a10.7 10.7 0 0 0 .3-1.7l2.4.6-.6 1.6zm-10.4 3.4c-2.9 1.6-5 4.6-5 7 0 1.2.5 1.8 1.6 1.8a7.5 7.5 0 0 0 4.1-1.6 35.7 35.7 0 0 1-.7-6.7zm7.1-1.9a14.8 14.8 0 0 0-5 1v1.1a31.1 31.1 0 0 0 .6 5.4 20.3 20.3 0 0 0 5-7.5zM532.2 193.4a55 55 0 0 0-1.4 8.3c1.2-3 4.3-6.8 8-6.8 4 0 6.9 4 6.9 10.2 0 8.3-5.2 11.9-12.6 13.2l-1.4-2.1c6.4-1 11.5-3.6 11.5-11 0-4.7-1.6-8-4.7-8-3.7 0-7.2 5.4-7.5 9.3a12.4 12.4 0 0 0 0 3.6l-2.3.2a36.4 36.4 0 0 1-.3-4.7 78 78 0 0 1 1-9.6l.1-2.6zM576 216.6a22 22 0 0 0-7.3-4.4l.1 1.8c0 2-1.4 4.2-5.3 4.2-4.2 0-6.6-1.5-6.6-4.4 0-2.7 2.6-4.5 7-4.5a16.8 16.8 0 0 1 2.4.1l-.1-4h-1.7c-2 0-5.3-.1-7.5-.4v-2.3a52.9 52.9 0 0 0 7.5.6h1.6V199h-1.5c-2 0-5.2-.2-7-.4v-2.2a47.4 47.4 0 0 0 7 .6h1.6v-2a16.6 16.6 0 0 0-.1-1.8h2.5a15.3 15.3 0 0 0-.1 2v1.6a66 66 0 0 0 7.6-.7v2.2c-2.4.2-4.9.5-7.7.6v4.3a80.2 80.2 0 0 0 8.3-.8v2.3l-8.3.7.2 4.4a24.4 24.4 0 0 1 8.7 4.7zm-9.6-5a15.1 15.1 0 0 0-2.9-.4c-2.8 0-4.3 1.1-4.3 2.5s1.1 2.4 4 2.4c1.8 0 3.2-.5 3.2-2.6v-2zM591 193.7l-.2 3c-.2 3.4-.4 10.4-.4 14.8 0 3.3 2.1 4.4 4.9 4.4 5.4 0 8.5-3 10.6-6.1l1.7 2a14.8 14.8 0 0 1-12.4 6.6c-4.3 0-7.2-1.8-7.2-6.6l.3-15a15.3 15.3 0 0 0-.3-3zM628.2 199.3a57.1 57.1 0 0 1-6.1 1l-1 4a88 88 0 0 1-4.6 13.6l-2.6-.9a67.2 67.2 0 0 0 5.7-16.4h-6.1l-.1-2.4a26.5 26.5 0 0 0 3.5.2l3.2-.1.5-2.6a14.2 14.2 0 0 0 0-2.5l3 .3-.6 2.3-.4 2.2a43 43 0 0 0 5.7-1zm-1.1 10.4a10.6 10.6 0 0 0-.5 2.7c0 1.4.7 2.8 5 2.8a33.2 33.2 0 0 0 5.7-.6v2.4a44.1 44.1 0 0 1-5.8.4c-4.7 0-7.1-1.4-7.1-4.4a16.6 16.6 0 0 1 .4-3.5zm-.8-7.2l5.4-.2a47.4 47.4 0 0 1 5.2.2v2.3a42.7 42.7 0 0 0-5-.4 47.7 47.7 0 0 0-5.6.4zM650 214.2a4.6 4.6 0 1 1-4.6-4.5 4.6 4.6 0 0 1 4.6 4.5zm-1.6 0a3 3 0 0 0-3-3 3 3 0 0 0 0 6.1 3 3 0 0 0 3-3zM235.8 263.3a11.3 11.3 0 0 0-.6 3.4c0 2.2 2.3 3.8 7 3.8a38.6 38.6 0 0 0 10.2-1.2v2.6a41.8 41.8 0 0 1-10.2 1c-6 0-9.5-2-9.5-5.7a16.7 16.7 0 0 1 .6-4.1zm-1.2-12a66.3 66.3 0 0 0 7.8.4 86 86 0 0 0 8-.4v2.4a116 116 0 0 1-15.8 0zm19.2.8l-1.6.7a31.3 31.3 0 0 0-2.4-4.2l1.6-.7a42.5 42.5 0 0 1 2.4 4.2zm3.4-1.3l-1.6.7a27.6 27.6 0 0 0-2.5-4.1l1.6-.7a43.7 43.7 0 0 1 2.5 4.1zM286 273h-12.2v1.3h-2V260c-.6.5-1 1-1.7 1.4a14.3 14.3 0 0 0-1.3-1.4v10.5H263v2.4h-1.8v-9.7a19.4 19.4 0 0 1-1.7 3 13.6 13.6 0 0 0-1.3-2.2c2.2-3.1 3.5-8 4.3-13.1H259v-2h10.5v2h-5a55.6 55.6 0 0 1-1.4 6.6h5.6v2a20.6 20.6 0 0 0 6-7.8h-3.2v3.2h-1.9v-5h6a26 26 0 0 0 1-3l2.1.4-.8 2.6h8v5.1h-2v-3.2h-6.8a26.6 26.6 0 0 1-2.4 4.5h3.7a31.2 31.2 0 0 0 1.3-3.5l2.1.5-1.4 3h4.7v1.9H280v3h4.7v1.7H280v3.2h4.7v1.8H280v3.1h6.1zM267 259.6H263v9h3.9zm11-1.4h-4v3.1h4zm0 4.8h-4v3.2h4zm-4 8h4v-3h-4zM298.7 253.7H288v-1.8h10.6zm-.8 18.9h-6.7v1.4h-1.8v-10.1h8.5zm0-15h-8.5V256h8.5zm-8.5 2.3h8.5v1.8h-8.5zm8.4-10.2h-8.2V248h8.2zm-6.5 16v5h4.7v-5zm6.8 6c1.4-1.6 2-4.2 2.4-6.6l1.8.4c-.3 2.6-1 5.5-2.6 7.2zm10.6-14a30.2 30.2 0 0 0-3-2 11.8 11.8 0 0 1-5.5 5.5 7.2 7.2 0 0 0-1.3-1.6 10.2 10.2 0 0 0 5-4.7 37.3 37.3 0 0 0-4-1.6l1.2-1.6 3.5 1.4a20.3 20.3 0 0 0 .7-3h-5v-2h14.3v1c-.3 7-.6 9.6-1.3 10.5a2.1 2.1 0 0 1-1.8.9 28 28 0 0 1-3.5 0 4.8 4.8 0 0 0-.6-2l3.1.1c.5 0 .8 0 1-.3.5-.5.8-2.6 1-8.2h-5a24.2 24.2 0 0 1-1 3.9 32.6 32.6 0 0 1 3.5 2zm.5 14.4c.7 0 .9-.4 1-3.4a5.3 5.3 0 0 0 1.8.8c-.2 3.6-.7 4.5-2.6 4.5H306c-2.2 0-2.8-.6-2.8-2.8V264h2.1v7.2c0 .8.1.9 1 .9zm-4-12a21.2 21.2 0 0 1 5.3 3.8l-1.4 1.5a23.2 23.2 0 0 0-5.2-4zm7.4 4.4a20.5 20.5 0 0 1 3.4 7.1l-2 .9a22 22 0 0 0-3.2-7.3zM337.3 250l-2 1.7c-2 1.8-6.3 5.2-8.5 7-1.8 1.5-1.8 2 0 3.6 2.8 2.1 8.3 6.7 11.2 9.6l-2.2 2-2-2.2c-1.6-1.8-6.5-6-9.3-8.3s-2.5-3.7.2-6c2.2-1.8 6.7-5.3 8.7-7.4a13.8 13.8 0 0 0 1.7-2zM362.7 254.8a57.2 57.2 0 0 1-6.1 1 100 100 0 0 1-1 4 87.7 87.7 0 0 1-4.6 13.5l-2.6-.9A67.2 67.2 0 0 0 354 256l-2.7.1-3.4-.1-.1-2.4a26.5 26.5 0 0 0 3.5.2h3.2l.5-2.7a14 14 0 0 0 0-2.4l3 .2-.6 2.4-.4 2.2a43 43 0 0 0 5.7-1.1zm-1.1 10.4a10.6 10.6 0 0 0-.5 2.7c0 1.3.7 2.7 5 2.7a30.6 30.6 0 0 0 5.7-.6v2.5a43.6 43.6 0 0 1-5.8.4c-4.7 0-7.1-1.5-7.1-4.4a16.8 16.8 0 0 1 .4-3.5zm-.8-7.3l5.4-.2a47.4 47.4 0 0 1 5.2.2v2.3a43 43 0 0 0-5-.3 47.7 47.7 0 0 0-5.6.3zm8.3-3.3a34.3 34.3 0 0 0-2.4-4.2l1.5-.7a33.5 33.5 0 0 1 2.5 4.2zm2.4-6a38.6 38.6 0 0 1 2.6 4l-1.6.8a31.9 31.9 0 0 0-2.5-4.2zM400.4 254l-5.6 1.2 4 8.3-1.4 1.4c-1.3-.3-4.2-.7-6.2-.9l.3-1.9c1.1 0 3.2.3 4.2.4l-3.3-7a63.1 63.1 0 0 1-12.6 0v-2.3a50.6 50.6 0 0 0 11.7.2l-1-2.2a23.8 23.8 0 0 0-1.2-2.5l2.6-.5c.7 2 1.3 3.3 2 4.9a45 45 0 0 0 6-1.5zm-16.8 8.8a11.9 11.9 0 0 0-.8 3.8c0 2.6 1.7 4.2 6.2 4.2a31.4 31.4 0 0 0 7.8-.8v2.5a38.6 38.6 0 0 1-7.8.6c-5.5 0-8.6-2.2-8.6-5.9a17.2 17.2 0 0 1 .8-4.6zM411 254l.1 7c.5 5 2 8.3 4 8.3 1.6 0 3-3.1 3.7-6.1l2 2.2c-1.8 5-3.7 6.7-5.7 6.7-2.8 0-5.5-2.8-6.3-10.5a78.6 78.6 0 0 1-.3-8 15.8 15.8 0 0 0-.2-2.6l2.9.1-.3 2.9zm20.9 12.5l-2.4 1a29.4 29.4 0 0 0-5.2-14.7l2.4-.8c2.6 3.4 4.8 9.5 5.2 14.5zM444.2 269.2a4.6 4.6 0 1 1-4.6-4.5 4.6 4.6 0 0 1 4.6 4.5zm-1.6 0a3 3 0 0 0-3-3 3 3 0 0 0 0 6.1 3 3 0 0 0 3-3zM231 314l4.2.1h16.5l3.2-.1v3l-3.2-.1h-16.5l-4.1.1zM260.5 314l4.1.1h16.5l3.2-.1v3l-3.2-.1h-16.5l-4.1.1zM289.9 314l4.1.1h16.5l3.2-.1v3l-3.2-.1H294l-4.2.1zM319.3 314l4.1.1H340l3.2-.1v3l-3.2-.1h-16.5l-4.1.1zM348.7 314l4.1.1h16.5l3.2-.1v3l-3.2-.1h-16.5l-4.1.1zM378 314l4.2.1h16.5l3.2-.1v3l-3.2-.1h-16.5l-4.1.1zM245.3 358.3c0 5.6.8 16.6 11.9 23.1a19.2 19.2 0 0 0-3 3.1 25.4 25.4 0 0 1-11-14.8 26 26 0 0 1-11 14.8 28.5 28.5 0 0 0-3.3-2.9c6.3-3.1 9.9-8.9 11.5-16.8l1.8.3-.4-3.2H235v-3.6zM262.4 367.5h-3.1v-6h11.3v-1.2h-9.3v-2.7h22.1v2.7h-9.3v1.1h11.5v6.1h-3.3v-3.7H274v6.2h-3.4v-6.2h-8.2zm19.2 14.3c1.5 0 1.8-.5 2-3a9.1 9.1 0 0 0 3 1.1c-.4 3.6-1.3 4.6-4.6 4.6h-6.3c-4.1 0-5.3-.9-5.3-4h-5v1.2H262v-10.9h20.8v9.6h-9v.1c0 1.1.3 1.3 2.1 1.3zm-18.6-14h6.5v2H263zm6.5-1h-6v-2h6zm-4 6.5v1.3h5v-1.3zm5 4.8v-1.3h-5v1.2zm8.8-4.8h-5.5v1.3h5.5zm0 4.8v-1.3h-5.5v1.2zm1.8-13.2v1.9h-5.9v-2zm-5.9 3h6.6v2h-6.6zM298.1 378.8h-6v2.7h-3.4v-23h9.4zm-6-17.2v5.3h2.7v-5.3zm2.7 14V370H292v5.6zm17.9-7v2.6h2.9v3h-3v6.6c0 1.7-.2 2.6-1.4 3.2a13.3 13.3 0 0 1-5 .6 12 12 0 0 0-1.1-3.4h3.5c.5 0 .6 0 .6-.5v-6.4h-10.5v-3.1h10.5v-2.6h-10.6v-3.1h6.8v-2.6h-5.7v-3.2h5.7v-3.1h3.5v3.1h6v3.2h-6v2.6h6.9v3.1zm-10 6a20.7 20.7 0 0 1 3.7 5l-3 1.7a21.1 21.1 0 0 0-3.5-5zM322.2 368.6v16h-3.6v-26.9h11.5v10.9zm0-8.3v1.6h4.6v-1.6zm4.6 5.7v-1.7h-4.6v1.7zm17.2 14.4c0 1.9-.4 3-1.6 3.5s-2.9.7-5.5.7a13.2 13.2 0 0 0-.8-2.8h-7.4v1.5h-3.2v-13H337V381h2.7c.5 0 .7-.2.7-.7v-11.7h-8.2v-10.9H344zm-15.4-7.4v1.8h5V373zm5 6.2v-1.9h-5v2zm2-18.9v1.6h4.8v-1.6zm4.8 5.8v-1.8h-4.8v1.8zM357.8 363.7a2.9 2.9 0 1 1 2.8 2.8 2.8 2.8 0 0 1-2.9-2.8zm0 14.3a2.9 2.9 0 1 1 2.8 2.8 2.8 2.8 0 0 1-2.9-2.8zM376.3 380.4c7-6 10.1-10.4 10.1-14.2 0-2.5-1.3-4.4-4-4.4a6.2 6.2 0 0 0-4.6 2.6l-1.6-1.6c1.9-2 3.7-3.2 6.5-3.2 4 0 6.4 2.6 6.4 6.5 0 4.4-3.4 8.8-8.6 13.7l3.6-.2h6.1v2.4h-13.9zM392.5 371c0-7.7 2.7-11.4 6.9-11.4s6.8 3.7 6.8 11.3-2.6 11.5-6.8 11.5-6.9-3.8-6.9-11.5zm11 0c0-6.5-1.7-9.2-4.2-9.2s-4.2 2.7-4.2 9.1 1.7 9.3 4.2 9.3 4.3-2.8 4.3-9.3zM409.7 379.7h5v-16.4h-4v-1.7a14 14 0 0 0 4.6-1.6h2v19.7h4.5v2.3h-12zM424.5 376.5a7 7 0 0 1 4-6v-.2a6.1 6.1 0 0 1-3-5c0-3.4 2.6-5.6 6-5.6 3.8 0 6 2.4 6 5.8a7.2 7.2 0 0 1-2.9 5.3v.1c2 1.1 3.7 2.8 3.7 5.8 0 3.2-2.7 5.7-6.9 5.7s-6.9-2.5-6.9-5.9zm11.3.1c0-3-2.7-4-5.8-5.3a6 6 0 0 0-3 5c0 2.4 2 4 4.6 4s4.2-1.5 4.2-3.7zm-.5-11a3.7 3.7 0 0 0-3.8-3.9 3.4 3.4 0 0 0-3.4 3.6c0 2.6 2.3 3.7 5 4.8a5.9 5.9 0 0 0 2.2-4.5zM440.6 372.6h7.7v2h-7.7zM451.6 379.7h5v-16.4h-4v-1.7a14 14 0 0 0 4.6-1.6h2.1v19.7h4.4v2.3h-12zM466.5 371c0-7.7 2.7-11.4 6.9-11.4s6.8 3.7 6.8 11.3-2.6 11.5-6.8 11.5-6.9-3.8-6.9-11.5zm11 0c0-6.5-1.7-9.2-4.1-9.2s-4.2 2.7-4.2 9.1 1.6 9.3 4.2 9.3 4.2-2.8 4.2-9.3zM482.5 372.6h7.7v2h-7.7zM492.2 380.4c7-6 10.1-10.4 10.1-14.2 0-2.5-1.3-4.4-4-4.4a6.1 6.1 0 0 0-4.6 2.6l-1.6-1.6c1.8-2 3.7-3.2 6.5-3.2 4 0 6.4 2.6 6.4 6.5 0 4.4-3.5 8.8-8.6 13.7l3.6-.2h6v2.4h-13.8zM508.3 380.4c6.9-6 10-10.4 10-14.2 0-2.5-1.3-4.4-4-4.4a6.2 6.2 0 0 0-4.5 2.6l-1.6-1.6c1.8-2 3.7-3.2 6.4-3.2 4 0 6.4 2.6 6.4 6.5 0 4.4-3.4 8.8-8.6 13.7l3.6-.2h6.1v2.4h-13.8zM531.8 379.7h4.9v-16.4h-4v-1.7a14 14 0 0 0 4.6-1.6h2.1v19.7h4.4v2.3h-12zM546 379.5l1.4-1.8a7.2 7.2 0 0 0 5.4 2.4c2.5 0 4.6-2 4.6-5.2s-1.8-5-4.5-5a6 6 0 0 0-3.7 1.3l-1.5-.9.7-10.3h10.7v2.4h-8.3l-.5 6.3a6.3 6.3 0 0 1 3.3-.8c3.6 0 6.6 2.1 6.6 7a7.1 7.1 0 0 1-7.2 7.5 9.3 9.3 0 0 1-7-3zM563.4 368.2a2 2 0 1 1 2 2.1 2 2 0 0 1-2-2zm0 12.1a2 2 0 1 1 4 0 2 2 0 1 1-4 0zM570.4 371c0-7.7 2.7-11.4 7-11.4s6.8 3.7 6.8 11.3-2.7 11.5-6.9 11.5-6.9-3.8-6.9-11.5zm11 0c0-6.5-1.6-9.2-4.1-9.2s-4.2 2.7-4.2 9.1 1.7 9.3 4.2 9.3 4.2-2.8 4.2-9.3zM585.9 379.5l1.3-1.8a7.2 7.2 0 0 0 5.4 2.4c2.6 0 4.7-2 4.7-5.2s-1.8-5-4.6-5a6 6 0 0 0-3.6 1.3l-1.5-.9.7-10.3H599v2.4h-8.3l-.5 6.3a6.3 6.3 0 0 1 3.2-.8c3.7 0 6.7 2.1 6.7 7a7.1 7.1 0 0 1-7.2 7.5 9.3 9.3 0 0 1-7-3zM603.3 368.2a2 2 0 1 1 2 2.1 2 2 0 0 1-2-2zm0 12.1a2 2 0 1 1 4 0 2 2 0 1 1-4 0zM610.1 380.4c7-6 10.1-10.4 10.1-14.2 0-2.5-1.3-4.4-4-4.4a6.2 6.2 0 0 0-4.6 2.6l-1.6-1.6c1.8-2 3.7-3.2 6.5-3.2 4 0 6.4 2.6 6.4 6.5 0 4.4-3.5 8.8-8.6 13.7l3.6-.2h6.1v2.4h-13.9zM637 362.4h-10.7V360h13.8v1.6c-5.2 6.7-6.1 11.8-6.5 20.4h-2.8c.4-8.3 1.9-13.6 6.2-19.6zM240.6 424.7a24.2 24.2 0 0 1 5.7-.8c4.6 0 8.2 2.5 8.2 6.5 0 3.5-1.9 6.2-6.6 7.4a24.2 24.2 0 0 1-3.9.4l-1.4-3.8a22.7 22.7 0 0 0 3.7-.2c2.4-.4 4.3-1.6 4.3-3.8 0-2-1.8-3.2-4.4-3.2a21 21 0 0 0-5.5.8l.1 5.7c0 3.7-1.3 4.7-3.3 4.7-2.9 0-7-2.5-7-5.7 0-2.6 3-5.3 6.7-6.9v-4.5h-1.6l-4.1-.1v-3.6a32.5 32.5 0 0 0 4 .2h1.7v-2.5a23.6 23.6 0 0 0-.2-2.6h4.1l-.2 2.6-.1 2.1a40.7 40.7 0 0 0 5.4-1l.1 3.7a57.4 57.4 0 0 1-5.7.9v2.7zm-3.3 8.3v-3.7c-1.9 1-3 2.2-3 3.2s1.3 1.8 2.1 1.8c.5 0 1-.2 1-1.3zm12.3-17.1a65.6 65.6 0 0 1 7.3 4.2l-1.8 3a45.1 45.1 0 0 0-7.2-4.3zM284.3 439.6h-3.7v-1.2h-10.2v1.2h-3.6V431a38.5 38.5 0 0 1-6.6 2.9 11.4 11.4 0 0 0-2-3.2 33.4 33.4 0 0 0 10.4-5.2 41.7 41.7 0 0 0-4.6-4.1 30.9 30.9 0 0 1-3.3 2.3 12.4 12.4 0 0 0-2.5-2.8 24 24 0 0 0 10-9.6l4 .8-1.5 2.3h6.8l.6-.2 2.5 1.3a27.8 27.8 0 0 1-7 10.5h10.7zm-16.1-22l-1.5 1.5a42.3 42.3 0 0 1 4.8 4 23.5 23.5 0 0 0 4.2-5.5zm12.4 17.6v-5.9h-10.2v5.9zM315.4 416v3.2h-27.2V416h6.4a20.1 20.1 0 0 0-2.3-3.3l3.4-1.2a16.6 16.6 0 0 1 2.8 4l-1.6.5h8.3a33.6 33.6 0 0 0 2.5-4.5l3.8 1.1-2.2 3.4zm-13.7 20c0 1.5-.3 2.4-1.3 2.9a9.4 9.4 0 0 1-4.2.6 12.3 12.3 0 0 0-1.1-3h2.7c.4 0 .5-.2.5-.5v-2.7h-5v6h-3.4v-18h11.8zm-8.4-11.8v1.9h5v-1.9zm5 6.5v-2h-5v2zm9.3 3h-3.3v-12h3.3zm2.7-13h3.5v15c0 1.7-.4 2.6-1.6 3.1a11.8 11.8 0 0 1-4.9.6 12.5 12.5 0 0 0-1.3-3.3h3.6c.5 0 .7-.2.7-.6zM328.4 418.7a2.9 2.9 0 1 1 2.8 2.8 2.8 2.8 0 0 1-2.8-2.8zm0 14.3a2.9 2.9 0 1 1 2.8 2.8 2.8 2.8 0 0 1-2.8-2.8zM367.2 436.6H339l14.1-24.4zm-26.3-1h24.4L353 414.3zM396.6 436.6h-28.2l14.1-24.4zm-26.3-1h24.4l-12.2-21.2zM409.4 430.7l-3.8-3.8v12.4h-2.2v-11.6a29.7 29.7 0 0 1-4.6 3.7 10 10 0 0 0-1.2-2 26 26 0 0 0 9.4-9.8h-8.3v-2h4.7V412h2.2v5.6h2.6l.4-.1 1.2.8a27.8 27.8 0 0 1-3.8 6.5l4.7 4.1zm16.5 5.6v2.1H409v-2.1h7.6v-12.5h-6.5v-2.2h6.5v-9.5h2.2v9.5h6.4v2.2h-6.4v12.4zM474.3 419.2v4.9a7.3 7.3 0 0 1 1 3.8c0 4-1.9 8.5-8.8 10.6l-2-2c3.8-1 6.6-2.5 7.8-5.2a4.3 4.3 0 0 1-2.5.8 4.8 4.8 0 0 1-5-5 5.2 5.2 0 0 1 5.3-5.2 6 6 0 0 1 2 .3v-3c-4.5 0-9.5.3-13.3.6v-2.4l13.3-.3v-2l-.3-1.8h2.8l-.2 1.9v1.9h9.2v2.3l-8.8-.2zm-1.6 6.6a2.6 2.6 0 0 0-2.6-1.9 3 3 0 0 0-3 3.1 2.9 2.9 0 0 0 3 3c1.7 0 2.9-1.4 2.6-4.3zM503.3 417.4h8.7v2.3l-8.7-.2h-.4v5a7.4 7.4 0 0 1 1 3.7c0 4-2 8.5-8.9 10.6l-2-2c3.9-1 6.6-2.5 7.9-5.2a4.2 4.2 0 0 1-2.6.8 4.8 4.8 0 0 1-4.9-5 5.2 5.2 0 0 1 5.3-5.2 6 6 0 0 1 2 .3v-3c-4.5 0-9.6.3-13.3.6v-2.3c3.3-.1 8.8-.3 13.3-.3v-2a13.4 13.4 0 0 0-.3-1.9h2.6l-.1 1.9v1.9zm-2 8.7a2.6 2.6 0 0 0-2.6-1.9 3 3 0 0 0-3 3.2 2.9 2.9 0 0 0 3 3c1.7 0 2.8-1.5 2.5-4.3zm6.5-8.8a34.2 34.2 0 0 0-2.2-3.6l1.6-.7a36.8 36.8 0 0 1 2.3 3.6zm3.6-.8a25.4 25.4 0 0 0-2.2-3.6l1.7-.7c.7 1 1.6 2.4 2.2 3.6zM540.2 423a39.6 39.6 0 0 1-5 1.3c.9 1.8 1.8 3.9 2.7 5.4l-1.2 1.5-5.8-.8.2-1.9 3.8.4-2-4.2a71.4 71.4 0 0 1-13.3.2v-2.2a59.3 59.3 0 0 0 12.4 0l-1-2.5-.6-1.5a61 61 0 0 1-10.5 0l-.1-2.2a54 54 0 0 0 9.7.2l-.4-.9a21.4 21.4 0 0 0-1.1-2.1l2.7-.6a30.5 30.5 0 0 0 1 3.3 33.4 33.4 0 0 0 6-1.4l.4 2.2a41 41 0 0 1-5.5 1.2l.5 1.2 1.2 2.7a31 31 0 0 0 5.5-1.5zm-17 6.2a10.2 10.2 0 0 0-.8 3c0 2.3 1.8 3.7 6 3.7a35.7 35.7 0 0 0 7.4-.7v2.4a46 46 0 0 1-7.3.6c-5.3 0-8.4-1.8-8.4-5.5a13.4 13.4 0 0 1 .7-3.8zM560.3 429.3c-.4-1-1.5-2.8-2.4-4.3v14.3h-2v-14a31.3 31.3 0 0 1-3.7 8.3 12.4 12.4 0 0 0-1-1.9c1.8-2.5 3.6-7.2 4.5-11.3h-4v-2h4.2v-6.5h2v6.5h3.4v2h-3.4v2l3.6 5.2zm7.9 4.3l-7 4-1-1.9c1.9-1 4.7-2.4 7.4-4zm5-2.4a13.2 13.2 0 0 0 6 5 9.5 9.5 0 0 0-1.5 1.8 15.8 15.8 0 0 1-6.7-7v5.8c0 1.2-.2 1.8-1 2.2a11.5 11.5 0 0 1-4 .4 7.3 7.3 0 0 0-.6-2h3c.4 0 .5-.2.5-.6v-11.2h-7.6v-2h7.6v-2.2h-6.1v-1.8h6v-2.1H562v-1.8h3.8a22.4 22.4 0 0 0-1.5-3.1l1.7-.6a16 16 0 0 1 1.8 3.5l-.5.2h5.2l-.3-.1a26.1 26.1 0 0 0 1.8-3.7l2.2.6-1.9 3.2h4v1.8H571v2.1h6.5v1.8H571v2.3h7.6v1.9H571v1.2a18.5 18.5 0 0 0 1.8 3.9 30.8 30.8 0 0 0 3.7-4l1.7 1.2a40.2 40.2 0 0 1-4 4zm-9.4-4.4a21 21 0 0 1 3.1 3.8l-1.6 1.2a21.8 21.8 0 0 0-3-4zM233 477.5h-3.1v-6h11.3v-1.2h-9.3v-2.7H254v2.7h-9.4v1.1h11.6v6.1h-3.3v-3.7h-8.3v6.2h-3.4v-6.2H233zm19.2 14.3c1.5 0 1.8-.5 2-3a9.1 9.1 0 0 0 3 1.1c-.4 3.6-1.3 4.6-4.6 4.6h-6.3c-4.1 0-5.3-.9-5.3-4h-5v1.2h-3.4v-10.9h20.8v9.6h-9v.1c0 1.1.3 1.3 2.2 1.3zm-18.6-14h6.5v2h-6.5zm6.5-1h-6v-2h6zm-4.1 6.4v1.4h5v-1.4zm5 4.8v-1.3h-5v1.3zm8.8-4.8h-5.4v1.4h5.4zm0 4.8v-1.3h-5.4v1.3zm1.8-13.2v2h-5.8v-2zm-5.8 3h6.5v2h-6.5zM258.4 471.7h11.4v2.8h-11.4zm10.6 21.7h-6.2v1.2h-3v-10.3h9.2zm-.1-14.8h-9V476h9zm-9 1.5h9v2.7h-9zm9-9.9H260v-2.7h8.8zm-6.2 17v3.4h3.2v-3.4zm17.4-8.6v4h5.3v12h-3.6v-1.4H275v1.5h-3.4v-12.1h4.9v-4H270v-3.4h6.5v-3.6l-5 .5a11.7 11.7 0 0 0-1-3 65.6 65.6 0 0 0 12.7-2.2l2.5 3a45.6 45.6 0 0 1-5.7 1.2v4.2h6.5v3.3zm1.7 7.2H275v4.2h6.8zM306.8 477.6a28 28 0 0 0 9.4 4 15.3 15.3 0 0 0-2.4 3c-.7-.1-1.4-.4-2-.7v10.6h-3.6v-.8h-12.6v1h-3.4v-10.9l-2.3 1a15.6 15.6 0 0 0-2.2-2.8 28.2 28.2 0 0 0 8.9-4.4h-8.2v-2.9h5.8a16 16 0 0 0-1.7-3l1.4-.5h-3a10.6 10.6 0 0 0-.7-2.6 139.8 139.8 0 0 0 20.5-1.8l2.2 2.5a89 89 0 0 1-5 .8l3.7 1-2.4 3.6h6v3zm2.5 5.2a25.8 25.8 0 0 1-5.9-4.2v3.7H300v-3.6a28.6 28.6 0 0 1-5.7 4.1zm-9.2 2.7h-4.5v1.6h4.5zm-4.5 5.5h4.5v-1.6h-4.5zm4.3-20.1l-4 .2a12.8 12.8 0 0 1 1.8 3l-1.3.6h3.6zm8.3 14.6h-4.8v1.6h4.8zm0 5.5v-1.6h-4.8v1.6zm-2.5-16.6a25.3 25.3 0 0 0 2-4.2l-4.2.4v4.1h3.3zM327.4 481.9l-.6 1.7h14.4a11.3 11.3 0 0 1-.2 1.5c-.6 5-1.3 7.3-2.4 8.3a4.9 4.9 0 0 1-3.3 1.2 50.5 50.5 0 0 1-5.1 0 7.4 7.4 0 0 0-1.3-3.5l5.1.3a2.4 2.4 0 0 0 1.5-.3c.6-.5 1-1.8 1.5-4.2h-11.3l-.6 1.6-3.9-.6c.7-1.6 1.5-3.9 2.2-6h-5.7v-3.3h26.9v3.3zM341 477h-19.6v-9.5h19.6zm-3.7-6.4H325v3.3h12.4zM357.8 473.7a2.9 2.9 0 1 1 2.8 2.8 2.8 2.8 0 0 1-2.9-2.8zm0 14.3a2.9 2.9 0 1 1 2.8 2.8 2.8 2.8 0 0 1-2.9-2.8zM376.5 481c0-7.7 2.6-11.4 6.8-11.4s6.9 3.7 6.9 11.3-2.7 11.5-6.9 11.5-6.8-3.8-6.8-11.5zm11 0c0-6.5-1.7-9.2-4.2-9.2s-4.2 2.7-4.2 9.1 1.7 9.3 4.2 9.3 4.2-2.8 4.2-9.3zM394.3 488.4a5 5 0 0 0 3.7 1.7c2.8 0 5.3-2.3 5.5-9.2a6.8 6.8 0 0 1-5 2.8c-3.7 0-6.1-2.4-6.1-7 0-4.2 2.9-7.1 6.3-7.1 4.2 0 7.4 3.5 7.4 10.5 0 8.9-3.9 12.3-8 12.3a7 7 0 0 1-5.3-2.3zm9.2-9.7c-.3-4.5-2-7-4.8-7-2.1 0-3.7 2-3.7 5s1.3 5 3.9 5c1.5 0 3.1-1 4.6-3zM408.6 481c0-7.7 2.6-11.4 6.8-11.4s6.9 3.7 6.9 11.3-2.7 11.5-6.9 11.5-6.8-3.8-6.8-11.5zm11 0c0-6.5-1.7-9.2-4.2-9.2s-4.2 2.7-4.2 9.1 1.7 9.3 4.2 9.3 4.2-2.8 4.2-9.3zM424.5 482.6h7.7v2h-7.7zM438.8 483.5l-5-7.8h3l2.2 3.6 1.6 2.7h.1l1.5-2.7 2-3.6h2.8l-5 8 5.4 8.3h-3l-2.4-3.8-1.7-3h-.2l-1.6 3-2.2 3.8h-2.9zM453.1 483.5l-5-7.8h3l2.2 3.6 1.6 2.7h.1l1.5-2.7 2-3.6h2.8l-5 8 5.4 8.3h-3l-2.4-3.8-1.7-3h-.1l-1.7 3-2.2 3.8h-2.9zM467.5 483.5l-5-7.8h3l2.1 3.6c.5 1 1.1 1.8 1.7 2.7l1.5-2.7 2-3.6h2.9l-5 8 5.4 8.3h-3l-2.4-3.8-1.7-3h-.2l-1.6 3-2.2 3.8h-2.9zM481.8 483.5l-5-7.8h3l2.2 3.6 1.6 2.7h.1l1.5-2.7 2-3.6h2.8l-5 8 5.4 8.3h-3l-2.4-3.8-1.7-3h-.2l-1.6 3-2.2 3.8h-2.9zM491.7 482.6h7.7v2h-7.7zM506 483.5l-5-7.8h3l2.1 3.6 1.6 2.7h.2l1.4-2.7 2-3.6h2.9l-5 8 5.4 8.3h-3l-2.4-3.8-1.8-3h-.1l-1.7 3-2.2 3.8h-2.8zM520.3 483.5l-5-7.8h3l2.2 3.6 1.6 2.7h.1l1.5-2.7 2-3.6h2.8l-5 8 5.5 8.3h-3l-2.4-3.8-1.7-3h-.2l-1.7 3-2.2 3.8h-2.9zM534.6 483.5l-5-7.8h3l2.2 3.6 1.6 2.7 1.6-2.7 2-3.6h2.8l-5 8 5.4 8.3h-3l-2.4-3.8-1.8-3-1.7 3-2.2 3.8h-2.9zM549 483.5l-5-7.8h3l2.2 3.6 1.6 2.7h.1l1.5-2.7 2-3.6h2.9l-5 8 5.3 8.3h-3l-2.4-3.8-1.7-3h-.2l-1.6 3-2.2 3.8h-3zM236.5 538.1a12.2 12.2 0 0 0-.5 3c0 2 1.8 3.3 6 3.3a42.1 42.1 0 0 0 10.5-1.2v4.2a47.4 47.4 0 0 1-10.3 1c-6.8 0-10.2-2.2-10.2-6.3a19.8 19.8 0 0 1 .5-4.3zm15-15.7c.8 1.1 1.9 3 2.4 4.1l-2.4 1-.8-1.6v3.5a135 135 0 0 1-16.7 0v-4a76.8 76.8 0 0 0 8 .4c2.9 0 6.2-.2 8.4-.4a22.8 22.8 0 0 0-1.3-2.1zm3.6-1.4a33.1 33.1 0 0 1 2.4 4.1l-2.4 1a31.8 31.8 0 0 0-2.4-4.1zM284.4 545.4c0 1.9-.4 2.9-1.6 3.4s-3.1.7-5.8.6a13.5 13.5 0 0 0-1.1-3.4h4.2c.5 0 .7-.1.7-.7v-4.5h-6.3v8.4h-3.6v-8.4h-6.1c-.6 3.3-1.6 6.6-3.8 9a13.2 13.2 0 0 0-2.8-2.4c3.3-3.6 3.5-8.9 3.5-13v-10.8h22.7zm-13.5-8v-3.6h-5.6v.5l-.1 3.2zm-5.6-10.4v3.5h5.6V527zm15.5 0h-6.3v3.5h6.3zm0 10.5v-3.7h-6.3v3.7zM297.5 522.8a50.8 50.8 0 0 1-3 6.4v20.4h-3.3v-15.1l-1.8 2.2a24.4 24.4 0 0 0-2-3.8 31.8 31.8 0 0 0 6.7-11.2zm18.2 16.7H308v10.1h-3.6v-10h-8.1V536h8.1V531h-3.7a21.2 21.2 0 0 1-1.8 3.9 23 23 0 0 0-3.1-1.7c1.6-2.4 2.8-6.2 3.5-9.9l3.5.8-.9 3.4h2.5V522h3.6v5.4h6.3v3.5H308v5.2h7.7zM328.4 528.7a2.9 2.9 0 1 1 2.8 2.8 2.8 2.8 0 0 1-2.8-2.8zm0 14.3a2.9 2.9 0 1 1 2.8 2.8 2.8 2.8 0 0 1-2.8-2.8zM356.5 531.4h7.2v2h-7.2v3h6.1v8.2c0 1-.1 1.6-.9 2a9.3 9.3 0 0 1-3.4.4 6.8 6.8 0 0 0-.7-2h2.6c.3 0 .4-.1.4-.4v-6.2h-4.1v10.8h-2.2v-10.7h-3.8v8.4h-2v-10.5h5.9v-3H347v-2h7.3v-3.1h-4a23 23 0 0 1-1.4 3 13 13 0 0 0-2-.8 23.6 23.6 0 0 0 3-7.8l2 .4-.8 3.2h3.2V522h2.1v4.2h6v2h-6zm11.5 9.7h-2.1v-16.5h2.1zm5.4-18.9v24c0 1.5-.4 2.1-1.3 2.5a14.8 14.8 0 0 1-4.8.5 13 13 0 0 0-.7-2.3h4c.5 0 .6-.1.6-.7v-24zM385.7 522.7a46.4 46.4 0 0 1-3 6.4v20.1h-2.2v-16.6a29.8 29.8 0 0 1-3 3.5 11.2 11.2 0 0 0-1.3-2.2 33.4 33.4 0 0 0 7.4-11.9zm8.8 6.3v4.3h8.6v2h-8.6v4.6h9v2.1h-9v7.3h-2.3V529h-2a32.9 32.9 0 0 1-4.3 6.2 14.6 14.6 0 0 0-1.7-1.5 31.8 31.8 0 0 0 6.6-11.5l2.1.6c-.5 1.4-1 2.8-1.6 4h12.4v2.2zM405.8 533.4h15.4v2h-15.4zm15-6.2h-14.3v-2h6V522h2.2v3.2h6zm-13 10.9h11.7v11h-2.2v-1.6h-7.5v1.8h-2zm1.9-5a20.7 20.7 0 0 0-1.3-4.9l1.8-.4a17.8 17.8 0 0 1 1.4 4.8zm.1 7v5.5h7.5v-5.5zm5.4-7.4a40.6 40.6 0 0 0 1.7-5l2.1.4c-.6 1.8-1.3 3.8-2 5zm18-8a163 163 0 0 1-4.2 9c3 2.7 3.7 5 3.8 7.2 0 1.8-.5 3.2-1.5 3.9a4.3 4.3 0 0 1-2 .7 18.5 18.5 0 0 1-2.6 0 5.2 5.2 0 0 0-.6-2.2 16.5 16.5 0 0 0 2.4 0 3 3 0 0 0 1.3-.3c.6-.4.8-1.3.8-2.3 0-2-.9-4.2-3.9-6.8 1.2-2.5 2.6-5.7 3.5-8.1h-5.7v23.5h-2.1v-25.6h8.8l.3-.1zM448.4 545.5a18.6 18.6 0 0 0 2.5-.3c3.8-.9 7.6-3.7 7.6-8.8a8.2 8.2 0 0 0-8-8.6 62.8 62.8 0 0 1-1.7 8.5c-1.8 6.1-4.2 9.3-7 9.3s-5.3-3.1-5.3-8c0-6.4 5.8-12 13-12 7 0 11.4 4.8 11.4 10.8 0 6.3-4.1 10.4-11.2 11.4zm-2-9.7a48 48 0 0 0 1.7-8c-5.7.7-9.2 5.6-9.2 9.6 0 3.8 1.7 5.4 3 5.4s3-2 4.5-7zM488.6 529l-5.6 1.2 4 8.3-1.4 1.4c-1.3-.2-4.2-.7-6.2-.8l.3-2c1.1 0 3.2.3 4.2.4l-3.3-7a63.1 63.1 0 0 1-12.6 0v-2.3a50.6 50.6 0 0 0 11.7.2l-1-2.2a23.8 23.8 0 0 0-1.2-2.5l2.6-.5c.7 2 1.3 3.3 2 4.9a45 45 0 0 0 6-1.5zm-16.8 8.9a11.9 11.9 0 0 0-.8 3.7c0 2.6 1.7 4.2 6.2 4.2a31.4 31.4 0 0 0 7.8-.8v2.5a38.6 38.6 0 0 1-7.8.7c-5.5 0-8.6-2.2-8.6-6a17.2 17.2 0 0 1 .8-4.5zM516.3 529.1c-.6.5-1.4.9-2.2 1.3a100 100 0 0 0-9 4.9c-2.8 1.8-4.5 3.8-4.5 6 0 2.5 2.4 4 7 4a43.8 43.8 0 0 0 9.6-1v2.7a58.3 58.3 0 0 1-9.4.7c-5.6 0-9.7-1.7-9.7-6.1 0-3 2-5.5 5.2-7.7a98.5 98.5 0 0 1-4.4-9.2l2.4-1a68.3 68.3 0 0 0 4 8.8c2.8-1.7 6-3.2 7.6-4.1a12 12 0 0 0 2.1-1.4zM538.4 532.7a27.7 27.7 0 0 0-8 1.5l-2.5.9-.8-2.8c.8 0 1.8-.2 2.7-.4a39.4 39.4 0 0 1 8.9-1.5c4.2 0 7.4 2.4 7.4 6.6 0 6.5-5.8 10.1-13.5 11.3l-1.4-2.3c7.2-.9 12.3-3.7 12.3-9 0-2.5-2-4.3-5-4.3zm5.3-7.7l-.4 2.3a142 142 0 0 1-12.6-1.4l.4-2.3a79.6 79.6 0 0 0 12.6 1.4zM561.7 539.3l-2.4-4.3v14.2h-2v-14a31.3 31.3 0 0 1-3.7 8.4 12.4 12.4 0 0 0-1.1-1.9c1.9-2.5 3.7-7.2 4.6-11.3h-4v-2h4.1v-6.5h2v6.5h3.5v2h-3.5v2c.9 1 3.1 4.4 3.6 5.2zm7.8 4.3l-7 4-1-1.9c2-1 4.8-2.4 7.5-4zm5-2.4a13.2 13.2 0 0 0 6 5 9.5 9.5 0 0 0-1.4 1.8 15.8 15.8 0 0 1-6.7-7v5.8c0 1.2-.2 1.8-1 2.2a11.5 11.5 0 0 1-4 .3 7.3 7.3 0 0 0-.6-2h3c.4 0 .4 0 .4-.5v-11.2h-7.5v-2h7.5v-2.2h-6v-1.8h6v-2.1h-6.9v-1.8h3.8a22.4 22.4 0 0 0-1.5-3.1l1.7-.6a16 16 0 0 1 1.8 3.5l-.5.2h5.2l-.3-.1a26.1 26.1 0 0 0 1.8-3.7l2.1.6-1.8 3.2h4v1.8h-7.2v2.1h6.5v1.8h-6.5v2.3h7.6v1.9h-7.6v1.2a18.5 18.5 0 0 0 1.8 3.9 30.8 30.8 0 0 0 3.7-4l1.7 1.2a40.2 40.2 0 0 1-4 4zm-9.3-4.4a21 21 0 0 1 3 3.8l-1.5 1.2a21.8 21.8 0 0 0-3-4zM588.9 524.5l-.6 2a68.4 68.4 0 0 0-1.4 11.4 31 31 0 0 0 .2 4l1.6-4.2 1.3 1a64.5 64.5 0 0 0-2 6.7 7.4 7.4 0 0 0-.2 1.3v1l-2 .2a37.2 37.2 0 0 1-1.2-9.6 82.5 82.5 0 0 1 1.4-12 17.8 17.8 0 0 0 .2-2zm6.8 14.4a11 11 0 0 0-.4 2.7c0 1.4.9 2.7 5 2.7a32.3 32.3 0 0 0 7.3-.8v2.5a39.5 39.5 0 0 1-7.4.6c-5 0-7.2-1.6-7.2-4.4a17.2 17.2 0 0 1 .5-3.5zm-1.2-12.1a52 52 0 0 0 12.2 0v2.4a75 75 0 0 1-12.2 0zM626.6 523.7c0 5.3.7 16.6 12.5 23.6a10.6 10.6 0 0 0-1.8 1.9 25.9 25.9 0 0 1-12-16.7c-2.1 7.8-6 13.2-12 16.7a14.6 14.6 0 0 0-2-1.8c6.7-3.4 10.4-9.4 12.3-17.8l1.3.2c-.2-1.4-.4-2.7-.4-3.9H617v-2.2zM653.4 528.4H644v4.2h-2v-5.8h11.4v-1.9h-9.7v-1.7h21.8v1.7h-10v1.8h11.7v5.9h-2v-4.2h-9.6v6.8h-2.2zm11 18.9c1.6 0 2-.6 2-3.6a6.1 6.1 0 0 0 2 .8c-.3 3.6-1 4.5-3.8 4.5h-7c-3.3 0-4.2-.6-4.2-3v-1h-6.7v1.6h-2v-10.4h20.1v8.9h-9.3v1c0 1 .4 1.2 2.3 1.2zM645 533h6.9v1.4H645zm6.9-1.6h-6.3V530h6.3zm-5.2 6.4v2.1h6.6v-2zm6.6 5.6v-2h-6.6v2zm9.3-5.6h-7.1v2.1h7.1zm0 5.6v-2h-7.1v2zm1-13.4v1.4h-6.4V530zm-6.4 3h7.1v1.4h-7.1zM679.4 544.2a4.6 4.6 0 1 1-4.6-4.5 4.6 4.6 0 0 1 4.6 4.5zm-1.6 0a3 3 0 0 0-3-3 3 3 0 0 0 0 6.1 3 3 0 0 0 3-3zM232.7 594.3a26.4 26.4 0 0 1-2 7.6 7.8 7.8 0 0 0-1.8-.9 21.6 21.6 0 0 0 2-7.1zm5-7.7a23.8 23.8 0 0 1 2.9 6.1l-1.7.8a14 14 0 0 0-.6-1.8l-2.3.2v12.4h-2V592c-1.7 0-3.4.2-4.7.3l-.2-2 2-.1 2-2.8a26.7 26.7 0 0 0-3.9-4.2l1.1-1.5 1 .8a38 38 0 0 0 2.6-5.6l2 .8a59 59 0 0 1-3.4 6 24 24 0 0 1 1.7 2 61.1 61.1 0 0 0 3-5.4l2 .8a103 103 0 0 1-6 9l4.3-.2a22.9 22.9 0 0 0-1.4-2.7zm.9 7a27.8 27.8 0 0 1 1.9 5.6l-1.7.5a29.4 29.4 0 0 0-1.8-5.5zm17.3 8.2c0 1.1-.2 1.8-1 2.1a11 11 0 0 1-4 .4 7.6 7.6 0 0 0-.6-2h3c.5 0 .6-.2.6-.6v-17.1h-4.6c0 1-.2 1.9-.4 2.8a69.8 69.8 0 0 1 5 8.3l-1.7 1.4a65.5 65.5 0 0 0-3.9-7 14 14 0 0 1-4.3 7.3 5.8 5.8 0 0 0-1.2-1.3v8.2h-2v-21.8h6.6l.1-5.6h2.1c0 2 0 3.8-.2 5.6h6.5zm-13.2-6c3-2.5 4-6.5 4.5-11.2h-4.5zM260 591.3h10.6V604h-2.2v-1.4h-6.3v1.7H260zm2.1 2.1v7.1h6.3v-7zm18.6-5.3h-16.4v-10h16.3zm-2.3-7.8h-12v5.7h12zm6.6 11v12.8h-2.2v-1.4H276v1.6h-2.2v-13zm-2.2 9.3v-7.1H276v7zM311.6 587.8a21.5 21.5 0 0 0 2.3-.2v2.5h-10.5a18.2 18.2 0 0 1-1.8 8.1 14.6 14.6 0 0 1-5.9 5.5l-2.2-1.6a12.4 12.4 0 0 0 5.7-4.6c1.3-2.1 1.6-4.6 1.7-7.5h-11.6v-2.4l2.6.1zm-16-5.3H293v-2.4a26 26 0 0 0 2.7.2H306a22.1 22.1 0 0 0 2.8-.2v2.5l-2.8-.1zm15.6 0a31.8 31.8 0 0 0-2.4-4.2l1.5-.7a42.5 42.5 0 0 1 2.5 4.1zm2.5-6a39.5 39.5 0 0 1 2.5 4l-1.7.8a28.6 28.6 0 0 0-2.4-4.2zM319.3 589l4.1.1H340l3.2-.1v3l-3.2-.1h-16.5l-4.1.1zM371.8 582.8a13.1 13.1 0 0 0-.7 1.6 30.5 30.5 0 0 1-4.4 8.9l2.9 2-1.6 2.1c-.7-.6-1.7-1.3-2.9-2a28.4 28.4 0 0 1-11.7 8l-2.2-2A26.3 26.3 0 0 0 363 594l-6.6-4 1.6-1.8 6.6 3.8a25 25 0 0 0 3.8-8h-10.2a32.5 32.5 0 0 1-8 7.9l-2-1.6A26.8 26.8 0 0 0 358 580a12.9 12.9 0 0 0 1-2.4l2.7.9-1.3 2.3-.6 1.2h8.2a5.3 5.3 0 0 0 2-.3zM389.6 600.5a18.6 18.6 0 0 0 2.5-.3c3.8-.9 7.6-3.7 7.6-8.8a8.2 8.2 0 0 0-8-8.6 62.8 62.8 0 0 1-1.7 8.5c-1.8 6.1-4.2 9.3-7 9.3s-5.3-3.1-5.3-8c0-6.4 5.8-12 13-12 7 0 11.4 4.8 11.4 10.8 0 6.3-4.1 10.4-11.2 11.4zm-2-9.7a48 48 0 0 0 1.7-8c-5.7.7-9.2 5.6-9.2 9.6 0 3.8 1.7 5.4 3 5.4s3-2 4.5-7zM414.6 577.7a52.5 52.5 0 0 1-3 6.4v20.1h-2.1v-16.6a34 34 0 0 1-2.8 3.5 12.5 12.5 0 0 0-1.2-2.2 34.6 34.6 0 0 0 7-11.9zm18.2 16.3h-8v10.3h-2.3V594h-8.6v-2.2h8.6v-6.6h-4.7a23 23 0 0 1-2.2 4.6 13 13 0 0 0-1.9-1.2c1.8-2.4 3-6.3 3.7-10.2l2 .4c-.2 1.5-.5 2.9-1 4.2h4v-5.7h2.3v5.7h6.8v2.2h-6.8v6.6h8.1zM439 582.1l13-1.2 8-.5v2.4a24.6 24.6 0 0 0-5.9.5 10.4 10.4 0 0 0-6.8 9.4c0 5.8 5.4 7.6 10.3 7.8l-1 2.5c-5.4-.3-11.7-3.2-11.7-9.8a12 12 0 0 1 5.6-10c-2.7.3-10.8 1-14 1.7l-.2-2.6 2.6-.2zm19.2 8.5l-1.5.7a27.9 27.9 0 0 0-2.5-4.2l1.6-.7a35.6 35.6 0 0 1 2.4 4.2zm3.4-1.3l-1.5.7a26.7 26.7 0 0 0-2.6-4.1l1.5-.7a45.3 45.3 0 0 1 2.6 4.1zM468.9 583a9.3 9.3 0 0 1-2.8 5.4 6.2 6.2 0 0 0-1.5-1.4 8 8 0 0 0 2.5-6.3v-3l1.8.5a51.9 51.9 0 0 0 6.9-1.2l1.5 1.4a48 48 0 0 1-8.2 1.3v1.5h9v1.8h-3.6v3.8h-2V583zm6.8 17.8a42.8 42.8 0 0 1-9.1 3.6 17.4 17.4 0 0 0-1.7-1.7 34.4 34.4 0 0 0 8.8-2.8zm-7-13.4H488v12.2h-19.5zm2 3.5H486v-2.1h-15.1zm0 3.6H486v-2.1h-15.1zm0 3.6H486v-2.2h-15.1zm20.8-16.8v1.7h-4.4v3.8h-2V583h-4.2a7.4 7.4 0 0 1-3.1 4.1 5 5 0 0 0-1.4-1.4 5.7 5.7 0 0 0 2.9-5.2v-2.7l1.7.5a49.5 49.5 0 0 0 7.5-1.2l1.5 1.4a54 54 0 0 1-8.7 1.3v.8a5.5 5.5 0 0 1 0 .7zm-9 18.7a99 99 0 0 1 9 3.3l-2.4 1a65.8 65.8 0 0 0-8.4-3.2zM497.6 588.7v15.6h-2.2v-26.1h10.8v10.5zm0-8.7v2.5h6.5V580zm6.5 6.9V584h-6.5v2.8zm-.2 13.2v1.8h-2v-10.5h11.2v8.7zm0-6.9v5h7.1v-5zm16 8c0 1.5-.3 2.3-1.3 2.6a19.6 19.6 0 0 1-5.4.4 10.8 10.8 0 0 0-.7-2.2h4.5c.6 0 .7-.2.7-.8v-12.6h-8.8v-10.5h11zM511 580v2.5h6.7V580zm6.7 7v-2.8H511v2.8zM534.8 578.8l-.4 1.8c-.2.8-.4 2.6-.8 4.1l3.4-.2c2.6 0 4.8 1 4.8 5.1 0 3.5-.5 8.2-1.7 10.7-1 2-2.4 2.5-4.4 2.5a18.1 18.1 0 0 1-3.5-.4l-.4-2.6a13.5 13.5 0 0 0 3.7.7 2.5 2.5 0 0 0 2.6-1.6c1-2 1.4-5.8 1.4-9 0-2.7-1.2-3.2-3.2-3.2-.7 0-1.8 0-3.1.2a59 59 0 0 1-6.3 16l-2.4-1c3-4.1 5.2-10.8 6.2-14.8l-3.7.4-2.7.4-.2-2.6h2.6l4.5-.3a32.5 32.5 0 0 0 .8-6.5zm10.2 3.4a50.3 50.3 0 0 1 5.4 10.5l-2.3 1.2a36 36 0 0 0-5.3-10.7zm1.2.4a36.7 36.7 0 0 0-2.4-4.1l1.6-.7a42.7 42.7 0 0 1 2.5 4.1zm3.4-1.2a33.6 33.6 0 0 0-2.5-4.1l1.6-.7a39.5 39.5 0 0 1 2.5 4.1zM572.5 587.3c3.7 1 6 3.7 6 7 0 4.2-2.9 8-9.8 9l-1.3-2c5.4-.5 8.7-3.3 8.7-7.1a5.2 5.2 0 0 0-4.3-5 24.1 24.1 0 0 1-6.5 9.6l.7 2.4-2.2.6-.5-1.6a10 10 0 0 1-5 1.6c-2 0-3.5-1.2-3.5-3.8 0-3.8 3.3-7.7 7.4-9.6 0-1.5.2-3 .3-4.3h-1.8l-4.8-.2v-2.3a47.9 47.9 0 0 0 4.8.4h2l.3-2.3a12.7 12.7 0 0 0 0-1.4h2.6a10.8 10.8 0 0 0-.4 1.4l-.3 2.2a62.2 62.2 0 0 0 10.4-1.2v2.2a101.7 101.7 0 0 1-10.7 1.1l-.3 3.7a17.7 17.7 0 0 1 5-.8h1l.2-.3a10.7 10.7 0 0 0 .3-1.7l2.4.6-.6 1.6zm-10.4 3.4c-2.9 1.6-5 4.5-5 7 0 1.2.5 1.8 1.6 1.8a7.5 7.5 0 0 0 4.1-1.6 35.7 35.7 0 0 1-.7-6.7zm7.1-1.9a14.8 14.8 0 0 0-5 1v1.1a31.1 31.1 0 0 0 .6 5.4 20.3 20.3 0 0 0 5-7.5zM603.3 581.2l-1.7 1.1c-1.5 1.1-5.4 4.6-7.7 6.6a12.6 12.6 0 0 1 4-.7c5 0 8.5 3 8.5 7 0 4.8-4 8-10.3 8-4 0-6.5-1.9-6.5-4.3 0-2 1.8-4 4.6-4a5.9 5.9 0 0 1 6.1 5.3 5.2 5.2 0 0 0 3.7-5c0-2.9-3-5-6.7-5-4.9 0-7.6 2.1-11.4 6l-1.7-1.8 8-6.7a375 375 0 0 0 6.8-5.8l-9 .4a14.3 14.3 0 0 0-2 .2V580a16.9 16.9 0 0 0 2.1 0c1.5 0 8.6-.1 10.1-.3a10.6 10.6 0 0 0 1.7-.2zm-5.2 19.6c-.2-2.3-1.6-4-3.9-4-1.3 0-2.4.8-2.4 1.9 0 1.4 1.8 2.3 4 2.3a14.6 14.6 0 0 0 2.3-.2zM634 584.1c-.7.5-1.5.9-2.4 1.3a100 100 0 0 0-9 4.9c-2.7 1.8-4.4 3.8-4.4 6 0 2.5 2.4 4 7 4a43.8 43.8 0 0 0 9.5-1v2.7a58.3 58.3 0 0 1-9.3.7c-5.6 0-9.7-1.7-9.7-6.1 0-3 2-5.5 5.2-7.7a98.5 98.5 0 0 1-4.4-9.2l2.4-1a68.3 68.3 0 0 0 4 8.8c2.8-1.7 6-3.2 7.6-4.1a12 12 0 0 0 2.2-1.4zM654.2 600.5a18.6 18.6 0 0 0 2.5-.3c3.8-.9 7.6-3.7 7.6-8.8a8.2 8.2 0 0 0-8-8.6 62.8 62.8 0 0 1-1.7 8.5c-1.8 6.1-4.2 9.3-7 9.3s-5.3-3.1-5.3-8c0-6.4 5.8-12 13-12 7 0 11.4 4.8 11.4 10.8 0 6.3-4.1 10.4-11.2 11.4zm-2-9.7a48 48 0 0 0 1.7-8c-5.7.7-9.2 5.6-9.2 9.6 0 3.8 1.7 5.4 3 5.4s3-2 4.5-7zM677.3 593a11.7 11.7 0 0 0-.6 3.4c0 2.2 2.3 3.8 7 3.8A38.6 38.6 0 0 0 694 599v2.6a43.7 43.7 0 0 1-10.1 1c-6 0-9.5-2-9.5-5.7a18.8 18.8 0 0 1 .6-4.2zm-1.2-12a66.3 66.3 0 0 0 7.9.4 86 86 0 0 0 8-.4v2.4a116.8 116.8 0 0 1-15.9 0zM722.1 584.1c-.6.5-1.4.9-2.3 1.3a100 100 0 0 0-9 4.9c-2.7 1.8-4.4 3.8-4.4 6 0 2.5 2.4 4 7 4a43.8 43.8 0 0 0 9.6-1v2.7a58.3 58.3 0 0 1-9.4.7c-5.6 0-9.7-1.7-9.7-6.1 0-3 2-5.5 5.2-7.7a98.5 98.5 0 0 1-4.4-9.2l2.4-1a68.3 68.3 0 0 0 4 8.8c2.8-1.7 6-3.2 7.6-4.1a12 12 0 0 0 2.2-1.4zM738.2 599.2a4.6 4.6 0 1 1-4.6-4.5 4.6 4.6 0 0 1 4.6 4.5zm-1.6 0a3 3 0 0 0-3-3 3 3 0 0 0 0 6.1 3 3 0 0 0 3-3zM240 647.5l-3.6 1v7.3c0 1.8-.3 2.6-1.3 3.2s-2.4.6-4.5.6a13.9 13.9 0 0 0-1-3.3h2.7c.3 0 .6 0 .6-.5v-6.4l-3.4.9-.9-3.5c1.2-.2 2.7-.5 4.3-1v-5.3h-3.7v-3.3h3.7v-5.6h3.5v5.6h3v3.3h-3v4.5l3-.8zm17-2.5h-4.2v14.6h-3.5V645H245c-.1 4.5-.9 10.6-4.7 14.5a8.8 8.8 0 0 0-2.7-2.5c3.5-3.7 3.8-9 3.8-13.3v-9.9l3.2.4a52.4 52.4 0 0 0 9-2.5l2.7 2.9a65.7 65.7 0 0 1-11.3 2.6v4.4h12zM268.3 633a48.5 48.5 0 0 0-1.2 6.2c1.4-2.3 4-4.9 7.3-4.9 4.2 0 7.4 4 7.4 10.6 0 8.4-5.2 12.5-13 13.9l-2.3-3.4c6.6-1 11.3-3.2 11.3-10.4 0-4.6-1.6-7.2-4-7.2-3.5 0-6.6 5.3-6.8 9.2a17.8 17.8 0 0 0 .2 3.2l-3.7.2a38.4 38.4 0 0 1-.4-5 72 72 0 0 1 .9-9.5l.2-3zM295 652.6c1.3 2 3.5 2.9 6.7 3 3.5.1 10.3 0 14.3-.2a15.3 15.3 0 0 0-1.1 3.6c-3.6.1-9.7.2-13.3 0s-6.2-1-8.1-3.3a79 79 0 0 1-4.2 3.6l-1.7-3.7a39.9 39.9 0 0 0 4-2.8v-6.3h-3.3v-3.3h6.7zm-2-13.4a22.8 22.8 0 0 0-4.8-4.8l2.7-2.1a24.1 24.1 0 0 1 4.9 4.6zm21 .3a22.4 22.4 0 0 1-4.2 9.4 16.8 16.8 0 0 0 6 3 12.3 12.3 0 0 0-2.2 3 17.9 17.9 0 0 1-6.3-3.4 20.6 20.6 0 0 1-5.6 3.3 12.8 12.8 0 0 0-2-3 15.7 15.7 0 0 0 5.2-2.9 22 22 0 0 1-3.4-6.4c-.2 4-1 8.5-3.4 11.7a12.5 12.5 0 0 0-3-2c2.8-3.5 3-8.7 3-12.5v-7h16.6v3.3h-13.1v2.8h10.1zm-9.2 2.6a16.2 16.2 0 0 0 2.5 4.3 16.6 16.6 0 0 0 2.4-4.3zM327.4 633.3a30.5 30.5 0 0 0-.4 4c-.1 3.2-.4 9.8-.4 13.5 0 3 1.8 4 4.1 4 5 0 8-2.8 10.2-6l2.7 3.3a15.5 15.5 0 0 1-13 6.8c-4.8 0-8-2.1-8-7.2 0-4 .4-11.8.4-14.4a18.6 18.6 0 0 0-.4-4zM357.8 638.7a2.9 2.9 0 1 1 2.8 2.8 2.8 2.8 0 0 1-2.9-2.8zm0 14.3a2.9 2.9 0 1 1 2.8 2.8 2.8 2.8 0 0 1-2.9-2.8zM381.6 641.5a33 33 0 0 1-3.5 10.2l-2-.9a29.4 29.4 0 0 0 3.4-9.8zm12.8 15.4c1.7 0 2-1 2.2-5.7a7 7 0 0 0 2.2 1c-.3 5.3-1 6.9-4.3 6.9h-6c-3.3 0-4.2-.8-4.2-4v-1.4a53 53 0 0 1-6.7 3.9 11.4 11.4 0 0 0-1.5-1.8 43.8 43.8 0 0 0 8.2-4.8v-11.8h2.3v9.9a49.3 49.3 0 0 0 12.1-15.4l2.2 1a53.8 53.8 0 0 1-14.3 17.2v3.3c0 1.4.3 1.6 2 1.6zm-2.6-17.6a89.6 89.6 0 0 0-7.5-5.7l1.5-1.6c2.5 1.7 5.8 4.1 7.5 5.5zm7.3 2.7a38.8 38.8 0 0 1 4.9 9.5l-2.1 1a41.5 41.5 0 0 0-4.8-9.6zM427 650a12.3 12.3 0 0 1-3.8 4.8c3.4.9 6.5 1.8 8.8 2.7l-1.3 1.8a81 81 0 0 0-9.7-3.1c-3.4 1.7-8 2.6-13.9 3a6.6 6.6 0 0 0-.8-2 41.2 41.2 0 0 0 11.5-1.8 131 131 0 0 0-5.4-1.2l-.6.8-2.1-.7 3.1-4.3h-7V648h8.3l1.8-2.8H408v-7.7h6.7v-2.5h-8.1v-2h25.6v2h-8.4v2.5h7.2v7.7h-13.4l.8.3-1.7 2.5H433v1.9zm-16.9-6.5h4.6v-4H410zm5.3 6.5l-1.8 2.6 7 1.5a10.7 10.7 0 0 0 4-4.1zm1.4-12.3h4.8V635h-4.8zm4.8 5.8v-4h-4.8v4zm2.2-4v4h5v-4zM231 699l4.2.1h16.5l3.2-.1v3l-3.2-.1h-16.5l-4.1.1zM260.5 699l4.1.1h16.5l3.2-.1v3l-3.2-.1h-16.5l-4.1.1zM289.9 699l4.1.1h16.5l3.2-.1v3l-3.2-.1H294l-4.2.1zM319.3 699l4.1.1H340l3.2-.1v3l-3.2-.1h-16.5l-4.1.1zM348.7 699l4.1.1h16.5l3.2-.1v3l-3.2-.1h-16.5l-4.1.1zM378 699l4.2.1h16.5l3.2-.1v3l-3.2-.1h-16.5l-4.1.1zM180.3 49.5a5.5 5.5 0 0 0-1.7-.4c-1.4 0-2 .8-2 2.7v1.4h3.1v3.5h-3.1V70h-4.4V56.7h-2.3v-3.3l2.3-.2v-1.4c0-3.5 1.6-6.2 5.8-6.2a8.8 8.8 0 0 1 3.2.6zM181.1 61.6c0-5.6 3.9-8.8 8-8.8s8.2 3.2 8.2 8.8-4 8.8-8.1 8.8-8-3.2-8-8.8zm11.7 0c0-3.1-1.3-5.2-3.6-5.2s-3.6 2-3.6 5.2 1.3 5.2 3.6 5.2 3.6-2 3.6-5.2zM201 53.2h3.6l.3 2.2h.1a7.7 7.7 0 0 1 5.5-2.6c3.6 0 5.2 2.5 5.2 6.7V70h-4.5V60c0-2.5-.7-3.4-2.3-3.4-1.4 0-2.3.6-3.5 1.9V70H201zM219.2 61.6c0-5.5 3.4-8.8 7-8.8a5.8 5.8 0 0 1 4.3 1.8l-.2-2.6v-6h4.5v24h-3.6l-.4-1.7a7 7 0 0 1-4.7 2.1c-4.2 0-6.9-3.3-6.9-8.8zm11.2 3.5v-7.4a4.5 4.5 0 0 0-3.2-1.3c-1.9 0-3.4 1.8-3.4 5.2s1.2 5.2 3.4 5.2a3.7 3.7 0 0 0 3.2-1.8zM238.4 61.6c0-5.4 3.9-8.8 7.9-8.8 4.6 0 7 3.4 7 8a8.2 8.2 0 0 1-.2 2h-10.4a4.4 4.4 0 0 0 4.7 4.2 7 7 0 0 0 3.8-1.2l1.5 2.7a10.6 10.6 0 0 1-6 1.9c-4.6 0-8.3-3.3-8.3-8.8zm11.1-1.7c0-2.3-1-3.7-3.2-3.7-1.7 0-3.3 1.3-3.6 3.7zM255.3 68l2-2.7a7.3 7.3 0 0 0 4.5 1.8c1.7 0 2.5-.7 2.5-1.8 0-1.2-1.8-1.8-3.5-2.5-2.2-.8-4.6-2-4.6-4.9 0-3 2.4-5.1 6.2-5.1a9.4 9.4 0 0 1 5.7 2l-2 2.7a6.5 6.5 0 0 0-3.6-1.4c-1.5 0-2.2.6-2.2 1.6 0 1.2 1.6 1.7 3.4 2.3 2.2.9 4.7 2 4.7 5.1 0 3-2.3 5.3-6.7 5.3a10.6 10.6 0 0 1-6.4-2.4zM271.8 46h4.3v14.5l5.9-7.3h4.8l-5.8 6.9 6.4 9.9h-4.8l-4.1-7-2.4 2.8V70h-4.3zM307.4 58.6a19.8 19.8 0 0 1 6-14.4l2.8 1.3a18.8 18.8 0 0 0 0 26.2l-2.8 1.3a19.8 19.8 0 0 1-6-14.4zM344.2 50a12.2 12.2 0 0 0-.6 2.1c-.7 3-2 7.6-4.5 11a24 24 0 0 1-12.1 8.2l-3.3-3.6c6-1.4 9.4-4 11.8-7a19 19 0 0 0 3.5-8.5h-14a53 53 0 0 0-3.6.2V48l3.6.3H339a10 10 0 0 0 2.4-.3zM371.2 55.7l2.4-.2V59h-5.8l.2 10.7a2.6 2.6 0 0 1-3 2.6c-1.4 0-3.3 0-4.6-.2l-.2-3.4a27.4 27.4 0 0 0 3.4.3c.6 0 .8-.3.8-1v-5.9a34.1 34.1 0 0 1-9.8 8l-2.6-3a30 30 0 0 0 10.5-8.2h-6.4l-2.8.2v-3.7a26.6 26.6 0 0 0 2.7.2h8.2v-1.9l-.3-2.5h3.8a22 22 0 0 0 0 2.5v1.9zM392.5 63.3a28.4 28.4 0 0 0 11-11.7l2.3 4.2A31.9 31.9 0 0 1 394.7 67a32.5 32.5 0 0 1-11.1 4.2l-2.6-4a31 31 0 0 0 11.5-3.8zm0-9.8l-3 3.2a62.4 62.4 0 0 0-7.5-6.5l2.8-3a63 63 0 0 1 7.7 6.3zM432.3 55.2a22.7 22.7 0 0 0 2.7-.2v3.9h-10a19 19 0 0 1-2 7.6 14.4 14.4 0 0 1-6 5.8l-3.4-2.6a12.3 12.3 0 0 0 5.4-4.2 12.9 12.9 0 0 0 1.9-6.7h-8.3l-2.9.2v-4a22.8 22.8 0 0 0 2.9.2zm-15.9-4h-3.2v-3.9a22.4 22.4 0 0 0 3.2.3h9.8a23.6 23.6 0 0 0 3.3-.2v3.8h-3.3zm14.8-.8a41.2 41.2 0 0 0-2.3-4.1l2.4-1c.7 1 1.8 3 2.3 4zm3.6-1.3a35.4 35.4 0 0 0-2.4-4.2l2.4-1a40 40 0 0 1 2.4 4.1zM462.6 49.7a14.2 14.2 0 0 0-1 1.8 44.1 44.1 0 0 1-4.8 8.3 84.3 84.3 0 0 1 8.4 8.5l-3.4 3a68.4 68.4 0 0 0-7.6-8.4 39.5 39.5 0 0 1-11.3 8.4l-3-3.3a34 34 0 0 0 12.2-8.6 23.2 23.2 0 0 0 4.5-7.4h-10.2l-3.5.2V48a33.5 33.5 0 0 0 3.5.2H457a10.8 10.8 0 0 0 3.1-.4zM494.5 51.3a12 12 0 0 0-1 2.2 31.3 31.3 0 0 1-5.2 10 28.2 28.2 0 0 1-12.1 8.5l-3.5-3.2a24 24 0 0 0 12-7.4 21.3 21.3 0 0 0 4.3-8.2h-8.4a34.2 34.2 0 0 1-7.6 7.3l-3.3-2.5a26.4 26.4 0 0 0 9.3-9.7 14.4 14.4 0 0 0 1.4-3.1l4.3 1.4-1.8 3v.2h6a9.6 9.6 0 0 0 2.5-.3zM507.7 58.6a19.8 19.8 0 0 1-6 14.4l-2.8-1.3a18.8 18.8 0 0 0 0-26.2l2.9-1.3a19.8 19.8 0 0 1 5.9 14.4z"/><path class="cls-1" d="M0 0h880v810H0z"/></g></g></g></svg>