<svg xmlns="http://www.w3.org/2000/svg" viewBox="0 0 862.5 546.7"><defs><style>.cls-3{fill:#eee}.cls-4{fill:#222}.cls-6{fill:#fff}.cls-8{fill:#111}</style><clipPath id="clip-path" transform="translate(-8.9 -9)"><path d="M880 563H0V0h880z" fill="none"/></clipPath></defs><g id="レイヤー_2" data-name="レイヤー 2"><g id="img_chat"><g clip-path="url(#clip-path)" id="img_chat-2" data-name="img_chat"><circle class="cls-3" cx="739.1" cy="129" r="118.4"/><path class="cls-4" d="M748 19.6A118.4 118.4 0 1 1 629.6 138 118.4 118.4 0 0 1 748 19.6m0-5a123.4 123.4 0 0 0-87.3 210.7A123.4 123.4 0 0 0 835.3 50.7 122.7 122.7 0 0 0 748 14.6z" transform="translate(-8.9 -9)"/><path d="M776 157.1c7.1 4 24 8 28.8 14.1s5.7 52 5.7 52H688.6s-.8-39.3 0-42.4 6.8-15.3 15.6-16.1c2.8-.3 1.3 25 4 24.8l15.3-1.2s1.8-24.8 4.1-24.8c2 37.4 16.4 42.7 22.6 42.7s23.5-31.6 25.8-49z" transform="translate(-8.9 -9)" fill="#fa8c3d"/><path class="cls-6" d="M746.1 58c6 .1 33.7 1.1 41.4 27.3s5.9 79 5.9 79l-13.8-5.8-9.8 21.6s-10.3 26-19.5 26c-7.7-4-19.7-17.5-19.7-17.5l-27.2 1s3.6-78.3 4.8-94.6 15-37.8 38-37z" transform="translate(-8.9 -9)"/><path class="cls-4" d="M688.6 223.7a4 4 0 0 1-4-4v-35.5a23.7 23.7 0 0 1 14.8-21.8 4 4 0 0 1 5.3 2 3.9 3.9 0 0 1 0 3 4 4 0 0 1-2.2 2.3 15.8 15.8 0 0 0-9.9 14.5v35.5a4 4 0 0 1-4 4zM810.5 223.7a4 4 0 0 1-4-4v-35.5a15.7 15.7 0 0 0-9.9-14.5l-21.5-9a4 4 0 0 1-2.2-2.1 3.8 3.8 0 0 1 0-3 4 4 0 0 1 5.3-2.1l21.5 8.9a23.7 23.7 0 0 1 14.9 21.8v35.5a4 4 0 0 1-4 4zM749.6 151.3a19.1 19.1 0 0 1-7.9-1.6l-15-6.7a18.6 18.6 0 0 1-11.2-17v-24.7a4 4 0 0 1 8.1 0V126a10.7 10.7 0 0 0 6.4 9.7l15 6.7a11.2 11.2 0 0 0 9 0l15-6.7a10.7 10.7 0 0 0 6.5-9.7V96.2a4 4 0 0 1 8 0v29.9a18.6 18.6 0 0 1-11.1 17l-15 6.6a19.2 19.2 0 0 1-7.8 1.6z" transform="translate(-8.9 -9)"/><path class="cls-4" d="M791.1 102.4a4 4 0 0 1-4-4c0-20.2-16.9-36.7-37.5-36.7S712 78.2 712 98.4a4 4 0 0 1-8.1 0c0-24.6 20.4-44.6 45.6-44.6s45.6 20 45.6 44.6a4 4 0 0 1-4.1 4z" transform="translate(-8.9 -9)"/><path class="cls-4" d="M704.6 193.4h-.2a4 4 0 0 1-2.8-1.3 3.9 3.9 0 0 1-1-2.9l3.4-91a4.1 4.1 0 0 1 1.3-2.8 3.8 3.8 0 0 1 2.9-1 4 4 0 0 1 3.9 4.2l-3.5 91a4 4 0 0 1-4 3.8zM793.6 168.1a4 4 0 0 1-4-3.8L787 98.6a3.9 3.9 0 0 1 1-2.8 4 4 0 0 1 2.9-1.3 4 4 0 0 1 2.9 1 4 4 0 0 1 1.3 2.8l2.4 65.7a3.9 3.9 0 0 1-1 2.8 4 4 0 0 1-2.8 1.3zM779.6 100.2a4.1 4.1 0 0 1-1-.2l-1.2-.2h-.3c-2.8-.7-7-1.7-10.7-4.5a32.2 32.2 0 0 1-11-16.5l-.2-.7a4 4 0 0 1 .2-3 4 4 0 0 1 7.5.5l.2.8c1 2.8 3 8.8 8.1 12.6 2.4 1.8 5.4 2.4 7.8 3l1.6.4a4 4 0 0 1 2.5 1.9 3.9 3.9 0 0 1 .4 3 4 4 0 0 1-4 2.9z" transform="translate(-8.9 -9)"/><path class="cls-4" d="M719.5 105.2a4 4 0 0 1-4-4c0-12.9 10.8-18.7 14-20.2a27.7 27.7 0 0 1 6-1.8l6.4-1.6a72.2 72.2 0 0 0 9.3-3.8l1.2-.6a4 4 0 0 1 5.4 1.9 3.9 3.9 0 0 1 .2 3 4 4 0 0 1-2.1 2.3l-1.2.6a78.7 78.7 0 0 1-10.5 4.3c-3 1-5.3 1.4-7 1.7a20.5 20.5 0 0 0-4.3 1.3c-2.8 1.2-9.3 5-9.3 13a4 4 0 0 1-4 4z" transform="translate(-8.9 -9)"/><path class="cls-4" d="M735.5 102.6a3.6 3.6 0 0 1-1-.2 3.5 3.5 0 0 1-2.4-4.3 38.4 38.4 0 0 1 4.4-9.5c4-6.2 12.9-12.8 15.7-14.7a3.6 3.6 0 0 1 5 1 3.4 3.4 0 0 1-1 4.8c-3 2-10.7 8-13.7 12.6a31.2 31.2 0 0 0-3.6 7.8 3.5 3.5 0 0 1-3.4 2.5M727 192a3.5 3.5 0 0 1-3.5-3.6l1.3-49a3.5 3.5 0 0 1 3.6-3.5 3.5 3.5 0 0 1 3.5 3.6l-1.3 49a3.5 3.5 0 0 1-3.5 3.4" transform="translate(-8.9 -9)"/><path class="cls-4" d="M704.6 193.4a4 4 0 0 1-4-3.8 3.9 3.9 0 0 1 1-2.9 4 4 0 0 1 2.8-1.3l22.5-1a4 4 0 0 1 3 1 4 4 0 0 1 1.2 2.9 3.9 3.9 0 0 1-1 2.8 4 4 0 0 1-2.8 1.3z" transform="translate(-8.9 -9)"/><path class="cls-4" d="M749.5 210.7a4 4 0 0 1-2-.5 52.9 52.9 0 0 1-15.8-15.2 42.7 42.7 0 0 1-6.8-20.3 4 4 0 0 1 1-2.9 4 4 0 0 1 7.1 2.3 35 35 0 0 0 5.6 16.6 44.5 44.5 0 0 0 13 12.6 4 4 0 0 1 2 2.5 3.9 3.9 0 0 1-.5 3 4.1 4.1 0 0 1-3.6 2z" transform="translate(-8.9 -9)"/><path class="cls-4" d="M749.6 210.7a4.1 4.1 0 0 1-3.5-2 4 4 0 0 1-.5-3 4 4 0 0 1 1.9-2.4 44.5 44.5 0 0 0 13-12.6 34.8 34.8 0 0 0 5.6-16.6 4 4 0 0 1 4.4-3.7 4 4 0 0 1 2.8 1.4 4 4 0 0 1 1 2.9 42.7 42.7 0 0 1-7 20.3 53 53 0 0 1-15.7 15.2 4 4 0 0 1-2 .5z" transform="translate(-8.9 -9)"/><path d="M669.4 169.3l-15.8-28.1V43.5A29 29 0 0 0 625.1 14h-573a29 29 0 0 0-28.5 29.5v96.2a29 29 0 0 0 28.6 29.5h573a29 29 0 0 0 3-.1l-.1.1z" transform="translate(-8.9 -9)" fill-rule="evenodd" fill="#fdd1b1"/><path class="cls-4" d="M625.1 14a29 29 0 0 1 28.6 29.5v97.7l15.7 28H628v-.1a29 29 0 0 1-3 .1H52.3a29 29 0 0 1-28.6-29.5V43.5A29 29 0 0 1 52.2 14h573m0-5h-573a34 34 0 0 0-33.6 34.5v96.2a34 34 0 0 0 33.6 34.5h575a5.5 5.5 0 0 0 .9 0h41.3a5 5 0 0 0 4.4-7.4L658.7 140V43.5A34 34 0 0 0 625 9z" transform="translate(-8.9 -9)"/><path class="cls-8" d="M79.1 64.5a32.1 32.1 0 0 1 8.7-1.3c6.1 0 10.8 3.3 10.8 8.6 0 5-2.9 8.4-9 9.9a27.7 27.7 0 0 1-5.3.6L82.8 78a28 28 0 0 0 5-.3c3.5-.7 6.6-2.5 6.6-6 0-3.2-3-5-6.7-5a28 28 0 0 0-8.5 1.4l.2 8.5c0 4.4-1.7 5.7-4.1 5.7-3.6 0-9.2-3.3-9.2-7.3 0-3.5 4.3-7.2 9.2-9.3v-2.6-4.6a35.5 35.5 0 0 1-8.2-.1l-.1-4a40.4 40.4 0 0 0 5.5.3h2.8v-4.2a27.9 27.9 0 0 0-.2-3.3h4.5l-.3 3.2-.1 3.8a51.2 51.2 0 0 0 8.2-1.6V57a82.4 82.4 0 0 1-8.3 1.3V63zM75.5 76l-.1-6.4c-3 1.5-5.2 3.6-5.2 5.3s2.5 3 3.9 3c.9 0 1.4-.5 1.4-2zm16.7-24.2a77 77 0 0 1 9.8 6l-2 3.3c-2-1.8-7-4.7-9.6-6.1zM124.5 55.2H112v5.5h-3.5v-8.2h15.9v-2.1h-13.3v-3h30.5v3h-13.5v2.1h16.2v8.3h-3.6v-5.6h-12.6v9.2h-3.7zM139.8 81c2.1 0 2.6-.7 2.8-4.6a8.2 8.2 0 0 0 3.3 1.2c-.5 5.1-1.6 6.4-5.8 6.4h-9.2c-5.2 0-6.6-1-6.6-4.7v-.8H116v2h-3.7V65.7h28.4v12.8H128v.8c0 1.5.5 1.7 3.1 1.7zm-26.6-19.7h9.4v2.3h-9.4zm9.4-4.2v2.3H114V57zM116 68.4v2.5h8.2v-2.5zm8.2 7.3v-2.4H116v2.4zm12.7-7.3h-9v2.5h9zm0 7.3v-2.4h-9v2.4zm1.9-18.6v2.3H130V57zm-8.7 4.2h9.7v2.3h-9.7zM150.8 52.8h15.7V56h-15.7zm14.5 29.7H156v1.8h-3.4V70.2h12.6zm-.2-20.8h-12.3v-3H165zm-12.3 2.7H165v3h-12.3zM165 50.2h-12v-3h12zm-9 23.1v6h5.9v-6zm24.2-11.8V68h7.5V84H184v-1.8h-11v2H169V68h7v-6.4h-9.3v-3.7h9.4v-6l-7.5.9a11.8 11.8 0 0 0-1-3.4c6.2-.5 13.5-1.6 17.8-3l2.7 3.2a75.3 75.3 0 0 1-8 1.8v6.5h9.4v3.7zm3.7 10h-11v7.2h11zM222 58c-.3.5-.6 1.5-.8 2.2 5 1.6 8.2 5.3 8.2 10 0 6-3.8 11.4-13.7 13l-2.2-3.5c7.7-.9 11.8-4.8 11.8-9.7 0-2.8-1.8-5.4-5.3-6.5a33.5 33.5 0 0 1-9 13.1l1 3.3-3.8 1.1a25 25 0 0 1-.6-2 14.6 14.6 0 0 1-6.8 2c-2.9 0-5.2-1.8-5.2-5.6 0-5.4 4.6-11 10.3-13.6l.4-5.7h-2c-2 0-5.2-.1-7-.3V52a65.9 65.9 0 0 0 7.1.6h2.3l.3-2.9a18.7 18.7 0 0 0 0-2.2l4.5.2a19 19 0 0 0-.5 2l-.5 2.7a78.6 78.6 0 0 0 14.3-1.7v3.8A135 135 0 0 1 210 56l-.4 4.5a26.7 26.7 0 0 1 6.7-1 11 11 0 0 1 1.1 0 15.6 15.6 0 0 0 .5-2.6zM206.7 75a51.8 51.8 0 0 1-1-9.3c-3.6 2.2-6.2 6-6.2 8.8 0 1.6.7 2.3 2.2 2.3a10 10 0 0 0 5-1.8zm2.8-10a43.3 43.3 0 0 0 .6 7.3 27.3 27.3 0 0 0 6.2-9.4h-.2a21.6 21.6 0 0 0-6.6 1zM245.4 47.7a71.5 71.5 0 0 0-1.8 10.3c1.8-3.8 5.8-8.3 10.8-8.3 5.7 0 9.9 5.6 9.9 14.6 0 11.6-7.3 16.9-17.9 18.8l-2.5-3.8c9.1-1.4 16-4.7 16-15 0-6.5-2.2-10.7-6.2-10.7-5 0-9.6 7.4-10 12.9a18.8 18.8 0 0 0 .1 4.8l-4 .3a49.9 49.9 0 0 1-.5-6.7 110 110 0 0 1 1.2-13.4l.4-4zM289.2 48.4a57.4 57.4 0 0 0-1.6 8 61 61 0 0 1 4.2-.2c4 0 7 1.7 7 7.5 0 5-.6 11.5-2.3 15-1.4 2.9-3.6 3.7-6.5 3.7a23.7 23.7 0 0 1-5-.6l-.7-4.4a22.8 22.8 0 0 0 5.2.9 3.3 3.3 0 0 0 3.4-2c1.2-2.6 1.8-7.8 1.8-12.2 0-3.5-1.6-4.1-4.2-4.1-.9 0-2.3 0-3.8.2a84.6 84.6 0 0 1-8.6 22.3l-4.3-1.7a62.8 62.8 0 0 0 8.7-20.1l-4.6.5c-1 .2-3 .3-4 .6l-.5-4.6a38.9 38.9 0 0 0 4 0l5.9-.4a49.1 49.1 0 0 0 1-8.9zm15 5.4a78.4 78.4 0 0 1 6.8 14l-4.2 2a48.3 48.3 0 0 0-7.2-15.2l3.9-1.7.7.9a46 46 0 0 0-3.4-5.8l2.7-1.1a61 61 0 0 1 3.4 5.8zm4.9-1.8a38 38 0 0 0-3.5-5.8l2.7-1.1a59 59 0 0 1 3.5 5.7zM345.5 56.3a51 51 0 0 1-3.6 1.9 129.2 129.2 0 0 0-12.2 6.6c-3.7 2.4-6 5-6 8 0 3.2 3 5.1 9.3 5.1a68.3 68.3 0 0 0 13.5-1.4v4.7a77.8 77.8 0 0 1-13.3 1c-8 0-14-2.3-14-9 0-4.4 2.9-7.8 7-10.8-1.8-3.5-4-8.2-5.8-12.6l4.1-1.7a97 97 0 0 0 5.4 12c3.7-2.2 7.8-4.3 10-5.5a23.6 23.6 0 0 0 3.3-2.2zM371.4 61.5a37.8 37.8 0 0 0-11 2.1 37.1 37.1 0 0 0-3.8 1.3l-1.3-4.8a34.3 34.3 0 0 0 4-.6c3-.7 7.8-2 12.6-2 6.2 0 10.7 3.5 10.7 9.7 0 9-8.1 14.2-19.2 15.9l-2.5-4.1c10.2-1.3 17.1-5 17.1-12 0-3.1-2.5-5.5-6.6-5.5zm7.8-11.8l-.7 4a216 216 0 0 1-18-2l.6-4a121.8 121.8 0 0 0 18.1 2zM398.3 68.7a16 16 0 0 0-.8 4.5c0 3 2.9 5 9.3 5a54.6 54.6 0 0 0 14.3-1.6v4.6a61.3 61.3 0 0 1-14.2 1.4c-9 0-13.8-3-13.8-8.4a25.3 25.3 0 0 1 .9-5.9zm-2.5-17.1a93.7 93.7 0 0 0 11.1.5c4 0 8.5-.3 11.6-.6V56a175.4 175.4 0 0 1-22.7 0zm27.4 1.1l-2.8 1.3a43.2 43.2 0 0 0-3.4-5.9l2.8-1.1a61.7 61.7 0 0 1 3.4 5.7zM428 51l-2.7 1.2a40.5 40.5 0 0 0-3.5-5.8l2.7-1a63.3 63.3 0 0 1 3.5 5.6zM460.7 46.3a61.7 61.7 0 0 1 3.4 5.8l-1.3.6.6 3.6-7.5 1.7c1.5 3.3 3.7 7.8 5.5 11.2l-2.4 2.5c-2-.5-6.1-1-9-1.4l.4-3.4 5.5.6c-1.1-2.4-3-6-4.2-8.9a90.6 90.6 0 0 1-17.6 0l-.1-4.1a70.1 70.1 0 0 0 16 .3 75 75 0 0 1-1-2.6 23.4 23.4 0 0 0-2-3.7l4.7-1c.8 2.6 1.6 4.5 2.6 6.7 2.2-.4 4.5-1 6.6-1.6a39.5 39.5 0 0 0-3-5.1zm-20.4 22a17.5 17.5 0 0 0-1.2 5.2c0 3.3 2 5.5 8.1 5.5a45.3 45.3 0 0 0 11.1-1.2v4.4a58.4 58.4 0 0 1-11 1c-8 0-12.4-3.1-12.4-8.6A25.8 25.8 0 0 1 436 68zm25.2-23.7a57.3 57.3 0 0 1 3.4 5.8l-2.7 1.1a42.5 42.5 0 0 0-3.4-5.8zM479.4 56a91.4 91.4 0 0 0 .4 9.4c.6 6.5 2.3 10.9 5 10.9 2.1 0 4-4.5 4.9-8.4l3.3 3.9c-2.6 7.1-5.2 9.6-8.3 9.6-4.2 0-8-4-9.2-15a110.6 110.6 0 0 1-.4-11.1 21.1 21.1 0 0 0-.3-4l5 .2a33.8 33.8 0 0 0-.4 4.5zm29.2 17.3l-4.3 1.7c-.7-7.1-3-16-7.3-21l4.2-1.4a43.3 43.3 0 0 1 7.4 20.7zM544 80.8a31.1 31.1 0 0 0-9.3-6v2c0 3.2-2.3 6.1-7.7 6.1-6.3 0-9.7-2.3-9.7-6.5 0-4 3.8-6.7 10-6.7 1 0 2 0 3.1.2l-.2-4.8H528c-2.6 0-7.4-.2-10.3-.5v-4a71.6 71.6 0 0 0 10.3.8h2.1v-5.2h-2a82.8 82.8 0 0 1-9.5-.7v-3.8a63.4 63.4 0 0 0 9.4.8h2.2v-2.3a24.6 24.6 0 0 0-.2-2.7h4.5l-.3 2.8v2a97.9 97.9 0 0 0 10.4-1v4c-3 .2-6.5.6-10.5.8v5.2c4.1-.2 7.8-.6 11.4-1V64c-3.9.5-7.3.8-11.3 1 0 1.8.1 3.8.3 5.6a33 33 0 0 1 11.9 6.4zm-13.5-7.3a21.8 21.8 0 0 0-3.7-.4c-3.5 0-5.4 1.4-5.4 3.1s1.5 3 5 3c2.4 0 4.2-.7 4.2-3.4v-2.3zM589 56.6l-12.4-.2V63a10.2 10.2 0 0 1 1.4 5.6c0 5.5-3 12-12.8 14.9l-3.6-3.5c5-1.1 8.7-3 10.8-6a7 7 0 0 1-10-6.7 7.5 7.5 0 0 1 7.8-7.5 8 8 0 0 1 2.3.3v-3.5c-6.3 0-13 .3-18.2.6l-.2-4 18.4-.3-.1-2.1-.3-3h4.8l-.3 3v2h12.5zm-18.7 14.2c2.1 0 3.7-1.7 3.2-5.7a3.4 3.4 0 0 0-3.2-2 3.7 3.7 0 0 0-3.8 4 3.6 3.6 0 0 0 3.8 3.7zM608.9 77.3a6.6 6.6 0 1 1-6.6-6.6 6.5 6.5 0 0 1 6.6 6.6zm-2.5 0a4 4 0 1 0-4 4 4 4 0 0 0 4-4zM102.7 119A19.7 19.7 0 1 1 83 99.4a19.7 19.7 0 0 1 19.7 19.6zM83 100.8a18.3 18.3 0 1 0 18.3 18.2A18.3 18.3 0 0 0 83 100.8zM147.4 119a19.7 19.7 0 1 1-19.7-19.7 19.7 19.7 0 0 1 19.7 19.7zm-19.7-18.3A18.3 18.3 0 1 0 146 119a18.3 18.3 0 0 0-18.3-18.2zM165.4 123.2c-.5-1.4-1.7-3.7-2.7-5.8v21h-3.9v-18.6a42 42 0 0 1-4.7 10.5 21.4 21.4 0 0 0-1.9-4c2.6-3.3 5.1-9.6 6.3-15h-5.4v-3.6h5.7v-7.9h3.9v7.9h5v3.6h-5v1.3l5 7.8zm18.1-2.1c2 4.7 5.2 9.2 8.4 11.8a15.2 15.2 0 0 0-2.8 3.1 39.1 39.1 0 0 1-7.6-12v14.3h-3.8v-14c-2.5 5-5.9 9.4-9.6 12a15.1 15.1 0 0 0-2.6-3c4-2.5 7.8-7.2 10.1-12.2H168v-3.5h9.6v-6.7H173a24.4 24.4 0 0 1-2.6 5.7 23.2 23.2 0 0 0-3.1-2c2.1-3 3.4-8 4.1-12.8l3.6.6c-.2 1.7-.6 3.4-1 5h3.6v-7.6h3.9v7.5h8v3.6h-8v6.6h9.2v3.6zM223 111c1 13.3 3.9 23.3 7.5 23.3 1 0 1.5-2.3 1.8-7.7a10 10 0 0 0 3.4 2.2c-.6 7.5-2 9.6-5.5 9.6-7 0-10.3-12.2-11.3-27.3h-21.3v-3.9h21l-.2-7.2h4.2l.1 7.2h12v3.9zM210 131l8.4-1.7.3 3.5-19.8 4.4-1.2-4 8.4-1.4v-11.3h-7v-3.8h18.2v3.8H210zm17.5-30.9a31.7 31.7 0 0 1 5.9 4.8l-2.8 2.5a33 33 0 0 0-5.6-5.2zM249.3 113a51.7 51.7 0 0 1-7.4 4.4 14.3 14.3 0 0 0-2.3-3.2c7.2-3.2 14-9.3 17.2-14.4h4a42.3 42.3 0 0 0 18 13.9 19.6 19.6 0 0 0-2.5 3.5 53.9 53.9 0 0 1-7.4-4.4v3.3h-19.6zm-7.3 7.5h34.5v3.6h-19.2l-4.5 8.7 15-.6a61 61 0 0 0-4.9-5l3.4-1.8a53 53 0 0 1 9.8 10.8l-3.6 2.2a27.6 27.6 0 0 0-1.9-2.7c-10 .5-20.6 1-27.8 1.2l-.5-3.8 6.2-.2a73.5 73.5 0 0 0 4-8.8H242zm26.5-8a41.6 41.6 0 0 1-9.5-9 40.8 40.8 0 0 1-9 9zM299 126.6c-1-1.3-2.8-3.3-4.5-5v16.7h-3.9v-15.5a37 37 0 0 1-5.8 4.7 18.5 18.5 0 0 0-2-3.6 34.6 34.6 0 0 0 12.5-12.9h-11v-3.5h6.3v-7.7h4v7.7h2.8l.7-.1 2.2 1.4a38.8 38.8 0 0 1-5.2 9l6.4 5.5zm23.5 6.7v3.8H299v-3.8h10.2v-16.5h-8.5V113h8.5v-13h4v13h8.5v3.8h-8.5v16.5zM331.5 106.7a1324 1324 0 0 1 29.5-2.4v4.3a39.6 39.6 0 0 0-8.1.6 13.8 13.8 0 0 0-9.2 12.4c0 7.7 7 10.1 14 10.5l-1.6 4.4c-8.1-.4-16.7-4.8-16.7-14a16.4 16.4 0 0 1 7-13.4c-3.6.4-13.8 1.4-18.4 2.4l-.5-4.6 4-.2zm27 12.3l-2.5 1.2a39.7 39.7 0 0 0-3.4-5.9l2.5-1a58.2 58.2 0 0 1 3.5 5.7zm4.9-2l-2.6 1.3a39.1 39.1 0 0 0-3.5-5.8l2.5-1.1a64.9 64.9 0 0 1 3.6 5.6zM374.4 122.7a16 16 0 0 0-.8 4.5c0 3 2.8 5 9.2 5a54.6 54.6 0 0 0 14.4-1.6v4.6a61.3 61.3 0 0 1-14.2 1.4c-9 0-13.8-3-13.8-8.4a25.3 25.3 0 0 1 .9-5.9zm-2.6-17.1a93.7 93.7 0 0 0 11.2.5c4 0 8.5-.3 11.6-.6v4.4a175.4 175.4 0 0 1-22.8 0zm27.4 1.1l-2.8 1.3a43.2 43.2 0 0 0-3.3-5.8l2.7-1.2a61.7 61.7 0 0 1 3.4 5.7zm4.9-1.8l-2.7 1.2a40.5 40.5 0 0 0-3.5-5.8l2.7-1a65.7 65.7 0 0 1 3.5 5.6zM436.7 100.3a61.7 61.7 0 0 1 3.4 5.8l-1.3.6.6 3.6-7.4 1.7c1.5 3.3 3.6 7.8 5.5 11.2l-2.4 2.5c-2-.5-6.2-1-9-1.4l.4-3.4 5.5.6c-1.2-2.4-3-6-4.2-8.9a90.6 90.6 0 0 1-17.6 0l-.2-4.1a70.1 70.1 0 0 0 16.1.3 75 75 0 0 1-1.2-2.6 22.6 22.6 0 0 0-1.8-3.7l4.7-1c.8 2.6 1.6 4.5 2.5 6.7 2.3-.4 4.5-1 6.7-1.6a39.5 39.5 0 0 0-3-5.1zm-20.4 22a17.5 17.5 0 0 0-1.2 5.2c0 3.3 2.1 5.5 8.2 5.5a45.3 45.3 0 0 0 11.1-1.2v4.4a58.4 58.4 0 0 1-11.1 1c-8 0-12.4-3.1-12.4-8.6a25.8 25.8 0 0 1 1.2-6.6zm25.2-23.7a57.3 57.3 0 0 1 3.5 5.8l-2.7 1.1a42.5 42.5 0 0 0-3.5-5.8zM455.5 110a91.4 91.4 0 0 0 .3 9.4c.6 6.5 2.3 10.9 5 10.9 2.2 0 4-4.5 5-8.4l3.3 4c-2.7 7-5.2 9.6-8.3 9.6-4.2 0-8-4-9.2-15a110.6 110.6 0 0 1-.5-11.2 21.1 21.1 0 0 0-.3-3.9l5.1.1a33.8 33.8 0 0 0-.4 4.5zm29.2 17.3l-4.4 1.7c-.6-7.1-3-16-7.2-21l4.1-1.4a43.4 43.4 0 0 1 7.5 20.7zM520 134.8a31.1 31.1 0 0 0-9.2-6v2.1c0 3.2-2.3 6-7.7 6-6.3 0-9.7-2.2-9.7-6.4 0-4 3.8-6.8 10-6.8l3 .2v-4.7H504c-2.6 0-7.3-.2-10.3-.6v-4a71.6 71.6 0 0 0 10.3.8h2.1v-5.2h-2a82.8 82.8 0 0 1-9.5-.7v-3.8a63.4 63.4 0 0 0 9.4.8h2.2v-2.3a24.6 24.6 0 0 0-.2-2.7h4.5l-.3 2.8v2a97.9 97.9 0 0 0 10.4-1v4c-3 .2-6.5.6-10.5.8v5.3c4.2-.3 7.8-.6 11.4-1.1v3.9c-3.9.5-7.3.7-11.3.9 0 1.9.1 3.9.3 5.7a33.1 33.1 0 0 1 11.9 6.4zm-13.4-7.3a21.8 21.8 0 0 0-3.7-.4c-3.6 0-5.4 1.4-5.4 3.1s1.5 3 5 3c2.4 0 4.1-.7 4.1-3.4v-2.3zM565 110.6l-12.3-.2v6.5a10.2 10.2 0 0 1 1.5 5.6c0 5.5-3 12-12.9 14.9l-3.5-3.5c4.9-1.1 8.7-3 10.7-6a7 7 0 0 1-10-6.7 7.5 7.5 0 0 1 7.8-7.5 8 8 0 0 1 2.4.3v-3.5c-6.3 0-13.2.3-18.3.6l-.1-4 18.3-.3v-2.1l-.4-3h4.8l-.2 3v2h12.4zm-18.6 14.2c2 0 3.7-1.7 3.1-5.7a3.4 3.4 0 0 0-3.2-2 3.7 3.7 0 0 0-3.7 4 3.6 3.6 0 0 0 3.8 3.7zM585 131.3a6.6 6.6 0 1 1-6.5-6.6 6.5 6.5 0 0 1 6.5 6.6zm-2.5 0a4 4 0 1 0-4 4 4 4 0 0 0 4-4z" transform="translate(-8.9 -9)"/><circle class="cls-3" cx="123.4" cy="423.3" r="118.4"/><path class="cls-4" d="M132.3 313.9A118.4 118.4 0 1 1 14 432.3a118.4 118.4 0 0 1 118.4-118.4m0-5a123.4 123.4 0 1 0 87.3 36.1 122.6 122.6 0 0 0-87.3-36.1z" transform="translate(-8.9 -9)"/><path d="M213.7 457.3l15.7-28.1v-97.7a29 29 0 0 1 28.5-29.5h573a29 29 0 0 1 28.6 29.5v96.2a29 29 0 0 1-28.6 29.5H258a28.9 28.9 0 0 1-3-.1v.1z" transform="translate(-8.9 -9)" fill="#d2f2ef" fill-rule="evenodd"/><path d="M830.8 302a29 29 0 0 1 28.6 29.5v96.2a29 29 0 0 1-28.6 29.5h-573a28.9 28.9 0 0 1-3-.1l.2.1h-41.3l15.7-28v-97.7a29 29 0 0 1 28.5-29.5h573m0-5H258a34 34 0 0 0-33.5 34.5V428l-15.1 26.8-4.2 7.5h625.7a34 34 0 0 0 33.6-34.6v-96.2a34 34 0 0 0-33.6-34.5z" transform="translate(-8.9 -9)" fill="#022222"/><path class="cls-8" d="M288.5 347h9.7v3.6h-9.7v3.7h8.4v11c0 1.6-.2 2.6-1.3 3.2s-2.7.6-4.9.6a10 10 0 0 0-1-3.3h3.2c.4 0 .5-.2.5-.6v-7.5h-4.9v14.6H285v-14.6h-4.6V369h-3.5v-14.7h8v-3.7H275V347h2.9a24.6 24.6 0 0 0-3.3-1.4 32.5 32.5 0 0 0 4-10.9l3.7.8-1.1 4.1h3.7V334h3.6v5.6h8v3.5h-8zm-3.6 0v-3.8h-5a22 22 0 0 1-1.8 3.8zm19.5 13.7h-3.6v-23.3h3.6zm7.5-26.3v33c0 2.3-.5 3.4-1.8 4.1s-3.8.8-6.9.8a17 17 0 0 0-1.3-4h5.4c.7 0 .9-.2.9-1v-33zM331.9 335.1a66.2 66.2 0 0 1-4.2 8.8v28.3h-4v-22.1a36.8 36.8 0 0 1-3.4 4 24 24 0 0 0-2.2-4 46.7 46.7 0 0 0 10-16.2zm12.7 9.3v5.3H356v3.6h-11.4v5.6h12v3.6h-12v9.8h-4v-28h-2.4a43.6 43.6 0 0 1-5.7 8.5 23.2 23.2 0 0 0-3-2.6c3.7-3.9 7-10 9-16l3.8 1-2.2 5.4H357v3.7zM362.1 349.6h21.5v3.6h-21.5zm21-8h-20V338h8V334h3.9v4.2h8.1zm-18.3 14.8h16.8v15.8h-3.9V370h-9.3v2.3h-3.6zm2.5-7a27.5 27.5 0 0 0-1.6-6.5l3.2-.7a25.5 25.5 0 0 1 1.9 6.4zm1.1 10.5v6.8h9.3v-6.8zm6.8-11.2a49.5 49.5 0 0 0 2-6.7l3.8.8c-1 2.3-1.9 5-2.7 6.7zm25.5-10.9c-1.6 4-3.6 8.9-5.4 12.5 3.8 3.8 4.8 7.1 4.8 10s-.7 4.8-2.2 5.8a6.6 6.6 0 0 1-2.8 1 31.8 31.8 0 0 1-3.4 0 9.3 9.3 0 0 0-1-3.8 24.5 24.5 0 0 0 2.8 0 3.5 3.5 0 0 0 1.7-.4c.8-.5 1-1.6 1-3.1 0-2.4-1-5.5-5-9 1.6-3.3 3.3-7.7 4.4-11H389v32.5h-3.8v-36.1h12l.7-.2zM423.3 366.4a24.4 24.4 0 0 0 3.7-.5c5.4-1.3 10.1-5.1 10.1-11.9 0-6-3.6-10.7-10-11.5a92.8 92.8 0 0 1-2.5 11.6c-2.5 8.5-6 13.3-10 13.3s-8-4.7-8-11.6c0-9.3 8.2-17.3 18.6-17.3 10 0 16.4 7 16.4 15.7s-5.6 14.8-15.8 16.2zm-2.9-13.1a57.8 57.8 0 0 0 2.3-10.8 14 14 0 0 0-11.9 12.9c0 4.8 2.2 7 3.8 7s3.9-2.7 5.8-9.1zM470.7 345.8q-.9 3.7-2 7.1h17.4v3.7h-8v10.7h8.9v3.7h-22.6v-3.7h9.9v-10.7h-6.4v-1.3a41.4 41.4 0 0 1-7.5 13 35.3 35.3 0 0 0-2.8-2.8v6.7h-3.7V349a48 48 0 0 1-4.2 4.9 35.3 35.3 0 0 0-2.1-4 45.2 45.2 0 0 0 10.4-16l3.6 1.1a67.4 67.4 0 0 1-4 8.4V365a42.1 42.1 0 0 0 9-19.3h-7V342h7.9c.5-2.6 1-5.2 1.3-8l4 .5-1.3 7.5h15.6v3.7zM526.5 355.4a13.2 13.2 0 0 0 5.3 3.4 13.2 13.2 0 0 0-2 2.7 14.2 14.2 0 0 1-2.7-1.4 37.5 37.5 0 0 1-3.3 3.4l-2.2-1.2a29.1 29.1 0 0 0 3-4.1l.4.2a18.4 18.4 0 0 1-2.5-3h-7.2a20.2 20.2 0 0 1-2.8 3.2 13 13 0 0 1 2.7 3.7l-2.5 1.5a16.7 16.7 0 0 0-2.3-3.4 21.1 21.1 0 0 1-2.4 1.6 13.1 13.1 0 0 0-1.9-2.3v8.9c0 1.6-.3 2.5-1.3 3a11.5 11.5 0 0 1-4.8.6 10.2 10.2 0 0 0-1-3h3.1c.4 0 .6-.2.6-.6V361h-4.4c-.4 4-1.3 8.3-3.1 11.5a11.8 11.8 0 0 0-2.8-1.8 34.4 34.4 0 0 0 3-16.2v-11.3H506v16a17.7 17.7 0 0 0 5-3.8H507v-2.8h6.1a16 16 0 0 0 1.4-2.8h-6.4v-2.7h2.6a16.6 16.6 0 0 0-1.6-3.6l2.8-.8a13 13 0 0 1 1.9 4l-1 .4h2.7a37.6 37.6 0 0 0 .9-4.7l3.3.3c-.3 1.6-.5 3-.9 4.4h3.6-.1a30.2 30.2 0 0 0 2-4.5l3.3.9-2.2 3.6h4.2v2.7H523a28.4 28.4 0 0 0 1.4 2.9h6.4v2.7zm-23.4-15.7h-9.6v-3.2h9.6v-2.8h3.8v2.8H517v-2.8h3.9v2.8h9.7v3.2h-9.7v2.7H517v-2.7h-10.1v2.8h-3.8zm-.4 18.2v-4.4h-4.1v1l-.1 3.4zm-4.1-11.5v4.1h4.1v-4.1zm17.7 20l-8 4-1.5-2.9c2.3-.8 5.5-2.2 8.8-3.7zm5.3-2.9a67 67 0 0 1 8.6 5L528 371a55.2 55.2 0 0 0-7.9-5v3.1c0 1.5-.2 2.3-1.2 2.7a12.5 12.5 0 0 1-4.6.5 10 10 0 0 0-1-2.8h3c.4 0 .5-.1.5-.5v-12.2h3.3v8.2zm-.5-11a27 27 0 0 1-1.1-2.7h-2a18.7 18.7 0 0 1-1.2 2.8zM568.2 344l-7.5 1.7a193 193 0 0 0 5.5 11.2l-2.4 2.5-9-1.4.5-3.4 5.4.6c-1-2.4-2.8-6-4.1-8.8a92.5 92.5 0 0 1-17.6 0l-.2-4.2a72.8 72.8 0 0 0 16 .3l-1.1-2.6a26 26 0 0 0-1.9-3.7l4.7-1c.9 2.6 1.7 4.5 2.6 6.7a55.2 55.2 0 0 0 8.3-2.1zm-23.1 12a16.3 16.3 0 0 0-1.2 5.1c0 3.4 2 5.5 8.2 5.5a47 47 0 0 0 11-1.1v4.3a53.7 53.7 0 0 1-11 1c-8 0-12.4-3.1-12.4-8.6a26 26 0 0 1 1.2-6.6zM593.4 339.4c-2 3-5.6 9.6-7.7 13.4a9 9 0 0 1 5.5-2c3 0 4.8 2 5 5.3l.1 7.4a2.7 2.7 0 0 0 3 2.6c4.2 0 6.8-5.2 7.9-10l3.5 2.9c-2.2 6.9-5.8 11.6-12 11.6-4.5 0-6.2-2.8-6.4-5.5l-.2-7.7a2.5 2.5 0 0 0-2.8-2.6c-3.1 0-5.9 3.2-7.4 6.5a73.2 73.2 0 0 0-3.4 9.3l-4.7-1.5c3.1-8.4 12.2-26 14.5-30l1.7-3.6 4.7 2c-.4.4-.8 1.2-1.3 1.9zM625 337.2a97.7 97.7 0 0 0-3 18.9 31 31 0 0 0 .4 4.4l2-5.2 2.2 1.6a79.8 79.8 0 0 0-3 9.8 7.1 7.1 0 0 0-.2 1.8l.1 1.6-3.8.2a51.9 51.9 0 0 1-1.6-13.4c0-6.2 1.4-13.3 1.8-16.6a32.2 32.2 0 0 0 .4-3.4zm9.6 20.4a15.7 15.7 0 0 0-.5 3.7c0 1.9 1.4 3.3 6.4 3.3a47.2 47.2 0 0 0 10.4-1l.1 4.4a55.8 55.8 0 0 1-10.5.8c-7.1 0-10.4-2.4-10.4-6.4a25.2 25.2 0 0 1 .7-5.2zm15-17.4v4.3a105.8 105.8 0 0 1-17.4 0v-4.2a78.1 78.1 0 0 0 17.5 0zM668.3 371.6a77.4 77.4 0 0 0-9.2-9.3l3.5-3a77.5 77.5 0 0 1 9.2 9.3zM695.4 358.4a39 39 0 0 1-2.8 10.7 17 17 0 0 0-3-1.5 31.7 31.7 0 0 0 2.5-9.8zm7.1-11.2a32.7 32.7 0 0 1 3.9 8.7l-2.9 1.3a17.2 17.2 0 0 0-.7-2.3l-2.7.2v17.3h-3.5v-17c-2.3 0-4.4.2-6.3.3l-.4-3.5h3l2.4-3.4a40.5 40.5 0 0 0-5.2-5.8l1.8-2.6 1.2 1a49.4 49.4 0 0 0 3.4-7.6l3.5 1.3a116 116 0 0 1-4.8 8.4 27 27 0 0 1 2 2.3c1.6-2.5 3-5 4-7.2l3.3 1.5c-2.4 3.8-5.4 8.4-8.1 11.9l5.2-.3-1.7-3.4zm1.2 10.3a49.2 49.2 0 0 1 2.7 7.5l-3 1a45 45 0 0 0-2.5-7.6zm24 10.6c0 1.9-.4 3-1.6 3.6s-3 .6-5.8.6a13.1 13.1 0 0 0-1.1-3.6h4.2c.5 0 .8 0 .8-.7v-7.7l-2.3 2a92 92 0 0 0-4.7-8.9 19.5 19.5 0 0 1-5.5 9.5 9.2 9.2 0 0 0-1.9-2v11.3h-3.5v-31h9l.2-7.5h3.7c0 2.6-.1 5-.3 7.5h8.8zm-17.9-8.3c3.4-3.5 4.7-8.7 5.3-14.9h-5.3zm8.8-14.9c0 1.3-.2 2.5-.4 3.6a101 101 0 0 1 6 10.3V345zM735.5 354h15.2v18h-3.9v-1.9h-7.6v2.2h-3.7zm3.7 3.7v8.7h7.6v-8.7zm25.7-7.9h-23.5v-14.3h23.5zm-4-10.5H745v6.8H761zm9.9 14.6v18.2h-4v-2h-8.3v2.2h-3.7v-18.4zm-4 12.5v-8.7h-8.3v8.7zM809 348.7a25.9 25.9 0 0 0 3.5-.2v4.3h-14.3a26 26 0 0 1-2.6 11.1 20.8 20.8 0 0 1-8.3 7.9l-4-2.9a17.4 17.4 0 0 0 7.8-6.2 19 19 0 0 0 2.6-10h-12.2c-1.3 0-2.6 0-3.8.2v-4.4a36.4 36.4 0 0 0 3.8.2zm-22.3-6.7c-1.4 0-3 0-4 .2v-4.4a31.8 31.8 0 0 0 4 .3H801a34.8 34.8 0 0 0 4.2-.3v4.4l-4.2-.2zm21.3-.4a49.7 49.7 0 0 0-3.3-5.8l2.7-1.2a62.7 62.7 0 0 1 3.4 5.8zm4.2-8.7a46.6 46.6 0 0 1 3.5 5.7l-2.8 1.2a38.9 38.9 0 0 0-3.4-5.8zM277.1 404.3l6.2.2h22.8l4.7-.2v5.1l-4.6-.1h-22.9l-6.2.1zM352.3 396.1a21.5 21.5 0 0 0-1.2 2.6 45.2 45.2 0 0 1-6 12l4 2.8-3 3.8a51 51 0 0 0-4-3 39.9 39.9 0 0 1-16 11l-3.8-3.4a35.8 35.8 0 0 0 16.2-10c-3-2-6.3-4-8.6-5.2l2.8-3.2c2.3 1.2 5.6 3 8.6 5a34.9 34.9 0 0 0 5-10.3H333a46.3 46.3 0 0 1-11 11l-3.6-2.7a37.8 37.8 0 0 0 13.4-14.4 14.9 14.9 0 0 0 1.6-3.8l4.8 1.6c-.8 1.2-1.7 2.8-2.1 3.7l-.5.9h10.2a9.6 9.6 0 0 0 3.1-.5zM375.1 420.4a24.4 24.4 0 0 0 3.7-.5c5.4-1.3 10.1-5.1 10.1-11.9 0-6-3.6-10.7-10-11.5a94.5 94.5 0 0 1-2.5 11.6c-2.5 8.5-6 13.3-10 13.3s-8-4.7-8-11.6c0-9.3 8.2-17.3 18.6-17.3 10 0 16.4 7 16.4 15.7s-5.6 14.8-15.8 16.2zm-2.9-13.1a57.8 57.8 0 0 0 2.3-10.8 14 14 0 0 0-11.9 12.9c0 4.8 2.2 7 3.8 7s3.9-2.7 5.8-9.1zM412.8 389a64.5 64.5 0 0 1-4.1 9v28.2H405V404a41.5 41.5 0 0 1-3.3 4 26.3 26.3 0 0 0-2.1-4A47.2 47.2 0 0 0 409 388zm25.5 23h-11.1v14.2h-4V412h-11.6v-3.8h11.6v-8.3h-6a30.3 30.3 0 0 1-2.8 6 24.6 24.6 0 0 0-3.3-2c2.3-3.3 4-8.7 5-14l3.7.8a81 81 0 0 1-1.3 5.4h4.7v-7.9h4v7.9h9.2v3.8H427v8.3h11.1zM447.6 394.7a1324 1324 0 0 1 29.6-2.4v4.3a39.6 39.6 0 0 0-8.1.6 13.8 13.8 0 0 0-9.2 12.4c0 7.6 7 10.1 14 10.5l-1.6 4.4c-8.1-.4-16.7-4.8-16.7-14a16.5 16.5 0 0 1 7-13.4c-3.6.4-13.8 1.4-18.5 2.4l-.4-4.6 4-.2zm27.2 12.3l-2.6 1.2a39.7 39.7 0 0 0-3.4-5.9l2.5-1a58.2 58.2 0 0 1 3.5 5.7zm4.8-2l-2.6 1.3a40 40 0 0 0-3.5-5.8l2.5-1.2a64.9 64.9 0 0 1 3.6 5.7zM490.4 410.7a15.7 15.7 0 0 0-.8 4.5c0 3 3 5 9.3 5a54.6 54.6 0 0 0 14.4-1.6v4.6a61.2 61.2 0 0 1-14.3 1.4c-9 0-13.8-3-13.8-8.4a25.3 25.3 0 0 1 .9-5.9zm-2.5-17.1a93.8 93.8 0 0 0 11.1.5c4.1 0 8.6-.3 11.6-.6v4.4a175.4 175.4 0 0 1-22.7 0zm27.4 1.1l-2.8 1.3a42.1 42.1 0 0 0-3.4-5.8l2.8-1.2a61.7 61.7 0 0 1 3.4 5.7zm4.9-1.8l-2.8 1.2a40.5 40.5 0 0 0-3.5-5.8l2.8-1a65.9 65.9 0 0 1 3.5 5.6zM533.8 417.5c1.8 2.9 5 4.2 9.8 4.4s14.4 0 19.8-.3a17.2 17.2 0 0 0-1.3 3.8c-4.8.3-13.7.3-18.6.2-5.2-.3-8.8-1.6-11.4-4.9-1.7 1.8-3.6 3.4-5.6 5.2l-2-3.8a58.8 58.8 0 0 0 5.5-4.3v-10.1h-5V404h8.8zm-2-19.5a30 30 0 0 0-6.5-7l3-2.2a31.1 31.1 0 0 1 6.6 6.7zm15 18.2h-11.5V413h11.5v-2.5h-9v-13.7h9v-2.4H536v-3.2h11v-3.4h3.7v3.4H562v3.2h-11.4v2.4h9.4v13.8h-9.4v2.4h12v3.2h-12v4.4h-3.8zm-5.4-14h5.5v-2.6h-5.5zm5.5 5.6V405h-5.5v2.8zm3.7-8.2v2.7h5.7v-2.7zm5.7 5.4h-5.7v2.8h5.7zM574.5 412.4a39 39 0 0 1-2.8 10.7 16.9 16.9 0 0 0-3-1.5 31.7 31.7 0 0 0 2.4-9.8zm31.2-19.6a31.8 31.8 0 0 1-6.6 10.4 34.5 34.5 0 0 0 9.6 5 20.4 20.4 0 0 0-2.6 3.1l-.8-.3v15.2h-3.8v-1.8h-10.6v1.9h-3.6v-14.7l-1.2.5a11.9 11.9 0 0 0-1.3-2l-2.2 1a19.8 19.8 0 0 0-.6-2.2l-2.8.2v17.3h-3.5v-17c-2.3 0-4.5.2-6.3.3l-.4-3.5h3l2.4-3.4a39.3 39.3 0 0 0-5.2-5.8l1.8-2.6 1.2 1a49.3 49.3 0 0 0 3.4-7.6l3.5 1.3c-1.5 2.8-3.3 6-4.8 8.4a29 29 0 0 1 2 2.3c1.5-2.5 3-5 4-7.2l3.3 1.5c-2.4 3.8-5.4 8.4-8.2 12l5.3-.3a49 49 0 0 0-1.7-3.4l2.6-1.1a35.4 35.4 0 0 1 3.4 7.2 34.7 34.7 0 0 0 8.8-5.2 34.7 34.7 0 0 1-4.2-4.8 37.7 37.7 0 0 1-4.1 4 9.8 9.8 0 0 0-2.6-2.6 29.6 29.6 0 0 0 9.3-12.1l3.7.7-1.6 3.2h8.3l.6-.2zm-22.9 18.6a48.1 48.1 0 0 1 2.6 7.7l-3 1a45 45 0 0 0-2.4-7.7zm21.8-.7a36.5 36.5 0 0 1-8-5 36.7 36.7 0 0 1-7.4 5zm-3.1 10.3v-7h-10.6v7zm-9.6-25.4a26.1 26.1 0 0 0 4.5 5.3 25.1 25.1 0 0 0 4.3-5.9h-8.4zM622.9 390.1a46 46 0 0 0-.5 4.8c-.2 4.6-.5 14.2-.5 20 0 4.4 2.8 5.9 6.4 5.9 7.3 0 11.6-4.1 14.6-8.6l3 3.7a21.2 21.2 0 0 1-17.7 9.3c-6.4 0-10.6-2.7-10.6-9.6 0-6 .4-16.7.4-20.7a24.1 24.1 0 0 0-.4-4.8zM681.8 422.8a31.2 31.2 0 0 0-9.3-6v2c0 3.2-2.3 6.1-7.7 6.1-6.3 0-9.7-2.3-9.7-6.5 0-4 3.7-6.7 10-6.7 1 0 2 0 3 .2V407h-2.4c-2.6 0-7.3-.2-10.2-.5v-4a71.8 71.8 0 0 0 10.2.8h2.2v-5.2h-2a82.5 82.5 0 0 1-9.5-.7v-3.8a63.4 63.4 0 0 0 9.4.8h2.2v-2.3c0-.8 0-2-.2-2.7h4.5l-.3 2.8v2a100.4 100.4 0 0 0 10.4-1v3.9c-3 .3-6.5.6-10.5.8v5.3c4.2-.2 7.8-.6 11.4-1v3.9c-3.9.4-7.3.7-11.3.8 0 2 .2 3.9.3 5.7a33.1 33.1 0 0 1 11.9 6.4zm-13.5-7.3a21.7 21.7 0 0 0-3.7-.4c-3.6 0-5.5 1.4-5.5 3.1s1.6 3 5.2 3c2.3 0 4-.7 4-3.3v-2.4zM700.5 390.1a46 46 0 0 0-.4 4.8c-.2 4.6-.5 14.2-.5 20 0 4.4 2.7 5.9 6.3 5.9 7.3 0 11.6-4.1 14.6-8.6l3 3.7a21.2 21.2 0 0 1-17.7 9.3c-6.3 0-10.6-2.7-10.6-9.6 0-6 .5-16.7.5-20.7a24.1 24.1 0 0 0-.5-4.8zM750.9 398.6a82.8 82.8 0 0 1-8.4 1.4 107 107 0 0 1-1.3 5.4 124.1 124.1 0 0 1-6.5 19.1L730 423a90 90 0 0 0 8-22.6h-3.3l-5-.1V396a38.9 38.9 0 0 0 5 .4c1.3 0 2.7 0 4.2-.2l.5-3a19.3 19.3 0 0 0 .1-3.8l5.1.3-.8 3.6-.5 2.4a71.5 71.5 0 0 0 7.5-1.4zm-1.3 14.1a15.4 15.4 0 0 0-.6 3.7c0 1.9 1 3.5 6.3 3.5a46 46 0 0 0 8.3-.8l-.1 4.2a58.5 58.5 0 0 1-8.2.6c-6.8 0-10.3-2.2-10.3-6.3a28 28 0 0 1 .6-5.2zm-1.6-10.2a73.6 73.6 0 0 1 7.8-.4 70 70 0 0 1 7.2.4v4a60.6 60.6 0 0 0-7.1-.5 67 67 0 0 0-7.9.4zM784.1 419.3a6.5 6.5 0 1 1-6.5-6.6 6.5 6.5 0 0 1 6.5 6.6zm-2.5 0a4 4 0 1 0-4 4 4 4 0 0 0 4-4z" transform="translate(-8.9 -9)"/><path class="cls-6" d="M133.4 357.7c9.6-.2 26 9.7 28.7 18s3.1 45.8 0 49-12.8 9.3-12.8 9.3l11.6 16-17.9 6.3-9.6 11.4 9.2 38-9.2 6.6-8.7-7.2 7.9-36.6-9.8-12.4-16-7.8 9.2-14.6s-12-1.3-12.7-18.4 0-33.7 0-33.7-1.2-23.4 30-24z" transform="translate(-8.9 -9)"/><path d="M105 449.5c5.8-2.7 21.3 8.8 21.3 8.8l7 9.4-4.7 14.7-3.9 22.8 8.7 7.2 9.2-6.7-9.2-38 6.7-9.4L161 450s20.2 6.6 26.3 12.6c11 11.1 6.4 53.4 6.4 53.4H73.2s-.4-33.9 0-45.2c.4-10.7 17.3-14.5 31.9-21.4z" transform="translate(-8.9 -9)" fill="#8edfd8"/><path class="cls-4" d="M73.2 516.5a4 4 0 0 1-4-4v-35.8a24 24 0 0 1 14.6-22.1l21.3-9a4 4 0 0 1 3 7.4L87 462a15.9 15.9 0 0 0-9.7 14.7v35.8a4 4 0 0 1-4 4zM193.6 516.5a4 4 0 0 1-4-4v-35.8a15.9 15.9 0 0 0-9.8-14.7l-21.2-9a4 4 0 0 1 3.1-7.4l21.2 9a24 24 0 0 1 14.7 22v36a4 4 0 0 1-4 4zM133.4 443.4a18.8 18.8 0 0 1-7.8-1.6l-14.8-6.8a18.8 18.8 0 0 1-11-17.1V383a4 4 0 1 1 8 0v35a10.8 10.8 0 0 0 6.3 9.8l14.9 6.7a10.8 10.8 0 0 0 8.8 0l15-6.7a10.8 10.8 0 0 0 6.2-9.8v-35a4 4 0 1 1 8 0v35a18.8 18.8 0 0 1-11 17l-14.9 6.7a18.7 18.7 0 0 1-7.7 1.7z" transform="translate(-8.9 -9)"/><path class="cls-4" d="M115.5 391a23 23 0 0 1-11.4-2.6 10.7 10.7 0 0 1-5.7-9.4c0-11.4 15.6-25.2 35-25.2 25.4 0 34.3 22.8 34.7 23.8a4 4 0 0 1-.8 4.1 4 4 0 0 1-4 1.1c-.2 0-15-4.3-26.2 2.1a44.9 44.9 0 0 1-21.6 6.1zm17.9-29.2c-15 0-27 10.4-27 17.2 0 .7.2 1.6 1.7 2.4 4.7 2.7 15.3 2.2 25-3.4 8-4.6 17-5 23.5-4.4a28.3 28.3 0 0 0-23.2-11.8z" transform="translate(-8.9 -9)"/><path class="cls-4" d="M159.7 397.2a3.8 3.8 0 0 1-.8 0 15.8 15.8 0 0 1-12.4-15.7 3.5 3.5 0 0 1 7 .1 8.8 8.8 0 0 0 7 8.7 3.5 3.5 0 0 1-.8 7M123.2 460.5a4.1 4.1 0 0 1-1.5-.3L105 453a4 4 0 0 1-1.7-6l11-15.6a4 4 0 0 1 7.2 1.6 4 4 0 0 1-.7 3l-8.1 11.6 8.9 3.8 8.3-14a4 4 0 1 1 6.9 4l-10.2 17a4 4 0 0 1-3.4 2z" transform="translate(-8.9 -9)"/><path class="cls-4" d="M143.2 460a3.5 3.5 0 0 1-3-1.7l-10.2-17a3.5 3.5 0 0 1 6-3.6l8.6 14.3 9.8-4.2-8.5-12a3.5 3.5 0 0 1 5.8-4.1l11 15.6a3.5 3.5 0 0 1 .5 3 3.5 3.5 0 0 1-2 2.2l-16.7 7.2a3.5 3.5 0 0 1-1.3.3M133 472.2a3.5 3.5 0 0 1-2.7-1.3l-9.8-12.2a3.5 3.5 0 0 1 5.5-4.4l9.7 12.2a3.5 3.5 0 0 1-2.7 5.7" transform="translate(-8.9 -9)"/><path class="cls-4" d="M124.8 509a4.1 4.1 0 0 1-.8 0 3.5 3.5 0 0 1-2.7-4.2l8.3-36.9a3.5 3.5 0 0 1 6.8 1.6l-8.2 36.8a3.5 3.5 0 0 1-3.4 2.8" transform="translate(-8.9 -9)"/><path class="cls-4" d="M133 472.2a3.5 3.5 0 0 1-2.7-5.7l9.7-12.2a3.5 3.5 0 1 1 5.5 4.4l-9.8 12.2a3.5 3.5 0 0 1-2.7 1.3" transform="translate(-8.9 -9)"/><path class="cls-4" d="M142 509a3.5 3.5 0 0 1-3.4-2.7l-9-36.8a3.5 3.5 0 0 1 6.8-1.7l9 36.9a3.5 3.5 0 0 1-2.6 4.2 3.4 3.4 0 0 1-.8.1M133.4 516a3.6 3.6 0 0 1-2.2-.8l-8.6-7a3.5 3.5 0 0 1 4.4-5.4l8.6 7a3.5 3.5 0 0 1-2.2 6.2" transform="translate(-8.9 -9)"/><path class="cls-4" d="M133.4 516a3.5 3.5 0 0 1-2.2-6.2l8.6-7a3.5 3.5 0 0 1 4.4 5.4l-8.6 7a3.5 3.5 0 0 1-2.2.8" transform="translate(-8.9 -9)"/></g></g></g></svg>