<svg xmlns="http://www.w3.org/2000/svg" viewBox="0 0 50 50"><defs><style>.a{fill:#f3ca3e;}.b{fill:none;}.c{fill:#fff;}</style></defs><title>pelikan</title><circle class="a" cx="25" cy="25" r="25"/><path d="M31.12,18a1.72,1.72,0,0,1,.07-3.16,1.59,1.59,0,0,1,1.3,0,1.7,1.7,0,0,1,.91.95A1.72,1.72,0,0,1,31.12,18Zm4.53-9.26A2.23,2.23,0,0,0,34,8.61a1.27,1.27,0,0,1,.11,1.15,1.56,1.56,0,0,1-1,.89,1.89,1.89,0,0,1-1.4-.07,1.83,1.83,0,0,1-1-1A2,2,0,0,1,30.86,8a3,3,0,0,1,2.33-1.79,6,6,0,0,1,3.73.51,5.22,5.22,0,0,1,2.72,2.33,3.35,3.35,0,0,1,.09,3,3.53,3.53,0,0,1-.88,1.23,2.57,2.57,0,0,1-1.2.66,5.6,5.6,0,0,1-2.31-.08,1.12,1.12,0,0,0-.6,0,.62.62,0,0,0-.31.34c-.15.3-.29.47-.44.52a1.51,1.51,0,0,1-.8-.16l-.48-.17-.17-.07a1.35,1.35,0,0,1-.78-.64,1.46,1.46,0,0,1,.15-1,1.87,1.87,0,0,1,.94-1.08,3.16,3.16,0,0,1,1.71,0c1.19.23,1.93,0,2.24-.71a1.26,1.26,0,0,0-.06-1.18A2.11,2.11,0,0,0,35.65,8.78Z"/><path class="b" d="M12.51,19.79h-.1a1.92,1.92,0,0,1,.24,0Z"/><path class="b" d="M10.68,40.17h0Z"/><path class="b" d="M13,40.25l1.16.07Z"/><path class="b" d="M21.52,22h0Z"/><path class="b" d="M29,41.15a2.88,2.88,0,0,0,.41,0l.22,0A3.31,3.31,0,0,1,29,41.15Z"/><path class="b" d="M25,0A25,25,0,0,0,4.26,39a15.94,15.94,0,0,1,2.23-.64,20.14,20.14,0,0,1,4.19-.4c1,0,2,.06,2.81.11L13,37.41c-.9-1.16-2-2.37-3-3.43-.7-.77-1.3-1.42-1.7-1.94a10.58,10.58,0,0,1-2.27-6.88,9.15,9.15,0,0,1,2.14-5.9,4.9,4.9,0,0,1,2.08-1.34,6.51,6.51,0,0,1,2.22-.37A7.1,7.1,0,0,1,15,18a5.15,5.15,0,0,1,2.23,1.6,3.39,3.39,0,0,1,.23.34c1.24-.06,2.6-.09,4-.09a86.14,86.14,0,0,1,9.13.45c4.52.51,5.91,1.28,6.61,1.89A2.14,2.14,0,0,1,35.86,26l-.26,0a11.45,11.45,0,0,0-1.2-.05c-1.79,0-4.69.22-7.89.54,3.63.9,7.27,1.66,8.87,1.86A2.22,2.22,0,0,1,37.2,29.7,2.26,2.26,0,0,1,36.82,32a3.11,3.11,0,0,0-.52,1.15c-.22.69-.4,1.51-.59,2.38a19.81,19.81,0,0,1-1.46,4.74,6.12,6.12,0,0,1-1.77,2.19,4.92,4.92,0,0,1-3,1,4.82,4.82,0,0,1-.65,0,6.6,6.6,0,0,1-2.72-1l-.46-.31c0,.1,0,.2,0,.31a12.08,12.08,0,0,1-1.33,5.38A17,17,0,0,1,23,49.92c.65,0,1.3.08,2,.08A25,25,0,0,0,25,0Z"/><path class="a" d="M29,41.15a3.31,3.31,0,0,0,.63,0,2.2,2.2,0,0,0,.37,0,2.24,2.24,0,0,0,.37-.1,1.75,1.75,0,0,0,.32-.12l.31-.19c.09-.07.19-.13.27-.2a2.23,2.23,0,0,0,.26-.27,2.85,2.85,0,0,0,.23-.26,3.78,3.78,0,0,0,.22-.33,2.46,2.46,0,0,0,.19-.32c.07-.12.13-.25.19-.38s.11-.23.16-.36l.15-.42c0-.13.09-.26.14-.4s.09-.3.13-.45l.12-.42c0-.16.08-.32.11-.48s.08-.3.11-.44.07-.34.11-.5l.18-.81c0-.15.07-.3.1-.45s.08-.32.11-.48.07-.28.11-.41l.12-.46c0-.13.07-.26.11-.37s.1-.3.16-.45.07-.21.11-.31.13-.29.2-.43.07-.16.11-.23a3.81,3.81,0,0,1,.38-.55L34,30.34l-.73-.13c-.77-.14-1.66-.32-2.62-.53l-2-.45L27.54,29l-2.13-.53-1.07-.27-2-.54-1.87-.55-2.22.28c0,.08,0,.17.07.25a35.38,35.38,0,0,0,3.3,6.47c.86,1.24,1.67,2.37,2.45,3.35C25.77,39.59,27.36,41,29,41.15Z"/><path class="a" d="M18.91,25.13l.83-.1.42-.05.84-.1.45-.06,1-.12.28,0,1.31-.14.37,0,1-.1.47-.05.88-.09.47-.05.94-.08.37,0L29.77,24h.17l1-.08.37,0,.76-.05h.38l.69,0h.32l.77,0h1a6,6,0,0,1,.66.05h0a1.74,1.74,0,0,0-.3-.2l-.08-.05c-.12-.06-.25-.13-.4-.19h0a4.24,4.24,0,0,0-.47-.17l-.13,0L33.87,23h-.06l-.61-.13-.17,0-.73-.13h-.09l-.73-.11-.19,0-.85-.1-.13,0-.79-.08-.22,0-.93-.08H28.2l-.84-.06h-.23l-1-.06H26l-.87,0h-.23l-1,0h-2.4l-2,0h-.06l-1.25,0A3.88,3.88,0,0,1,18,23.23a6.69,6.69,0,0,0-.14,2l.71-.09Z"/><path d="M25.62,42.42c0-.11,0-.21,0-.31l.46.31a6.6,6.6,0,0,0,2.72,1,4.82,4.82,0,0,0,.65,0,4.92,4.92,0,0,0,3-1,6.12,6.12,0,0,0,1.77-2.19,19.81,19.81,0,0,0,1.46-4.74c.19-.87.37-1.69.59-2.38A3.11,3.11,0,0,1,36.82,32a2.26,2.26,0,0,0,.38-2.27,2.22,2.22,0,0,0-1.82-1.41c-1.6-.2-5.24-1-8.87-1.86,3.2-.32,6.1-.54,7.89-.54a11.45,11.45,0,0,1,1.2.05l.26,0a2.14,2.14,0,0,0,1.4-3.76c-.7-.61-2.09-1.38-6.61-1.89a86.14,86.14,0,0,0-9.13-.45c-1.42,0-2.78,0-4,.09a3.39,3.39,0,0,0-.23-.34A5.15,5.15,0,0,0,15,18a7.1,7.1,0,0,0-2.53-.46,6.51,6.51,0,0,0-2.22.37,4.9,4.9,0,0,0-2.08,1.34,9.15,9.15,0,0,0-2.14,5.9A10.58,10.58,0,0,0,8.34,32c.4.52,1,1.17,1.7,1.94,1,1.06,2.08,2.27,3,3.43l.47.62c-.83-.05-1.77-.11-2.81-.11a20.14,20.14,0,0,0-4.19.4A15.94,15.94,0,0,0,4.26,39q.66,1,1.41,1.89h0l.78-.22.34-.08c.36-.08.72-.15,1.08-.2h0L9,40.23l.34,0,.73,0H11l.79,0,.41,0,.84,0,1.16.07h.13l.69,0h.6a2.47,2.47,0,0,0,.43-.06h0a1.19,1.19,0,0,0,.32-.13l.06,0a.63.63,0,0,0,.18-.22s0,0,0-.05a.74.74,0,0,0,0-.34,2.91,2.91,0,0,0-.21-.79,3,3,0,0,0-.17-.37A9.44,9.44,0,0,0,15.51,37q-.51-.73-1.14-1.5c-1.56-1.91-3.47-3.84-4.28-4.86-2.62-3.3-2-7.9-.23-9.87a2.68,2.68,0,0,1,.48-.4l.14-.09a4,4,0,0,1,.47-.22l.12-.05a4.61,4.61,0,0,1,.64-.16l.16,0a4.56,4.56,0,0,1,.54,0h.35l.47,0h0a3.15,3.15,0,0,1,.42.09l.11,0,.43.14.07,0,.35.17a.2.2,0,0,0,.08,0,2.93,2.93,0,0,1,.34.24l.07.05.25.25,0,.05a2.2,2.2,0,0,1,.21.32.2.2,0,0,1,0,.08,1.33,1.33,0,0,1,.13.33s0,0,0,.05a1.7,1.7,0,0,1,0,.4v.1a2.46,2.46,0,0,1-.07.45,10.58,10.58,0,0,0,.4,5.81,20.06,20.06,0,0,0,.91,2.33c.17.38.36.76.55,1.13.38.73.79,1.45,1.2,2.12a49.93,49.93,0,0,0,3.24,4.58,5.57,5.57,0,0,1,.49.74c.08.13.13.28.2.41s.12.25.17.38.08.26.12.39a3.81,3.81,0,0,1,.13.45c0,.1,0,.21.05.31s.07.38.09.57v.32a5.76,5.76,0,0,1,0,.59,1.49,1.49,0,0,1,0,.21,8.93,8.93,0,0,1-.27,1.67s0,.1,0,.14c-.08.28-.16.55-.26.82a.14.14,0,0,0,0,.06,15.51,15.51,0,0,1-.89,1.91,16.46,16.46,0,0,1-1.25,1.87l0,0-.09.1c.83.15,1.68.26,2.53.33a17,17,0,0,0,1.25-2.12A12.08,12.08,0,0,0,25.62,42.42ZM18,23.23a3.88,3.88,0,0,0,.14-1.16l1.25,0h.06l2,0h2.4l1,0h.23l.87,0h.18l1,.06h.23l.84.06h.17l.93.08.22,0,.79.08.13,0,.85.1.19,0,.73.11h.09l.73.13.17,0,.61.13h.06l.58.16.13,0a4.24,4.24,0,0,1,.47.17h0c.15.06.28.13.4.19l.08.05a1.74,1.74,0,0,1,.3.2h0a6,6,0,0,0-.66-.05h-1l-.77,0h-.32l-.69,0h-.38l-.76.05-.37,0-1,.08h-.17l-1.25.11-.37,0-.94.08-.47.05-.88.09-.47.05-1,.1-.37,0-1.31.14-.28,0-1,.12-.45.06-.84.1-.42.05-.83.1-.36.05-.71.09A6.69,6.69,0,0,1,18,23.23ZM21.6,34.1a35.38,35.38,0,0,1-3.3-6.47c0-.08,0-.17-.07-.25l2.22-.28,1.87.55,2,.54,1.07.27,2.13.53,1.05.24,2,.45c1,.21,1.85.39,2.62.53l.73.13,1.16.17a3.81,3.81,0,0,0-.38.55c0,.07-.07.16-.11.23s-.14.28-.2.43-.08.21-.11.31-.11.29-.16.45-.07.24-.11.37l-.12.46c0,.13-.07.27-.11.41s-.07.32-.11.48-.07.3-.1.45l-.18.81c0,.16-.07.33-.11.5s-.07.29-.11.44-.07.32-.11.48L33,37.3c0,.15-.09.3-.13.45s-.09.27-.14.4l-.15.42c0,.13-.11.24-.16.36s-.12.26-.19.38a2.46,2.46,0,0,1-.19.32,3.78,3.78,0,0,1-.22.33,2.85,2.85,0,0,1-.23.26,2.23,2.23,0,0,1-.26.27c-.08.07-.18.13-.27.2l-.31.19a1.75,1.75,0,0,1-.32.12,2.24,2.24,0,0,1-.37.1,2.2,2.2,0,0,1-.37,0l-.22,0a2.88,2.88,0,0,1-.41,0c-1.67-.18-3.26-1.56-5-3.7C23.27,36.47,22.46,35.34,21.6,34.1Z"/><path class="c" d="M20.62,49.47a16.46,16.46,0,0,0,1.25-1.87,15.51,15.51,0,0,0,.89-1.91.14.14,0,0,1,0-.06c.1-.27.18-.54.26-.82,0,0,0-.09,0-.14A8.93,8.93,0,0,0,23.35,43a1.49,1.49,0,0,0,0-.21,5.76,5.76,0,0,0,0-.59v-.32c0-.19-.06-.38-.09-.57s0-.21-.05-.31a3.81,3.81,0,0,0-.13-.45c0-.13-.07-.26-.12-.39s-.11-.25-.17-.38-.12-.28-.2-.41a5.57,5.57,0,0,0-.49-.74,49.93,49.93,0,0,1-3.24-4.58c-.41-.67-.82-1.39-1.2-2.12-.19-.37-.38-.75-.55-1.13a20.06,20.06,0,0,1-.91-2.33,10.58,10.58,0,0,1-.4-5.81,2.46,2.46,0,0,0,.07-.45v-.1a1.7,1.7,0,0,0,0-.4s0,0,0-.05a1.33,1.33,0,0,0-.13-.33.2.2,0,0,0,0-.08,2.2,2.2,0,0,0-.21-.32l0-.05-.25-.25-.07-.05a2.93,2.93,0,0,0-.34-.24.2.2,0,0,1-.08,0l-.35-.17-.07,0L13.81,20l-.11,0a3.15,3.15,0,0,0-.42-.09h0l-.47,0h-.11a1.92,1.92,0,0,0-.24,0,4.56,4.56,0,0,0-.54,0l-.16,0a4.61,4.61,0,0,0-.64.16l-.12.05a4,4,0,0,0-.47.22l-.14.09a2.68,2.68,0,0,0-.48.4c-1.81,2-2.39,6.57.23,9.87.81,1,2.72,3,4.28,4.86q.63.77,1.14,1.5a9.44,9.44,0,0,1,.78,1.32,3,3,0,0,1,.17.37,2.91,2.91,0,0,1,.21.79.74.74,0,0,1,0,.34s0,0,0,.05a.63.63,0,0,1-.18.22l-.06,0a1.19,1.19,0,0,1-.32.13h0a2.47,2.47,0,0,1-.43.06H15l-.69,0h-.13L13,40.25l-.84,0-.41,0-.79,0h-.9l-.73,0-.34,0-1.09.12h0c-.36,0-.72.12-1.08.2l-.34.08-.78.22h0a25,25,0,0,0,14.84,8.74l.09-.1Zm-7.36-24.1a1.16,1.16,0,1,1,1.16-1.15A1.15,1.15,0,0,1,13.26,25.37Z"/><path d="M13.26,23.06a1.16,1.16,0,1,0,1.16,1.16A1.16,1.16,0,0,0,13.26,23.06Z"/></svg>
