<svg xmlns="http://www.w3.org/2000/svg" viewBox="0 0 1181 975"><defs><style>.cls-3,.cls-4{fill-rule:evenodd}.cls-4{fill:#f3ca3e}</style><clipPath id="clip-path"><path d="M845.9 351.2c-9.5 51.4-49.7 155-125.7 92.6-17-12.7-29.2-27.8-47.2-51.2-24.8 50.7-171.2 96-201.8 73.7-15.7-11.5-21.4-22.9-8.3-31A181.2 181.2 0 1 1 759 226c68 0 114.7-24.8 87 125.2z" clip-rule="evenodd" fill="none"/></clipPath></defs><g id="レイヤー_2" data-name="レイヤー 2"><g id="logotypeA"><g id="logotypeA-2" data-name="logotypeA"><g id="fondesk"><path d="M145.4 850.7c-6.1 0-10.5-2.8-12.5-8a46.7 46.7 0 0 1-2.7-17.4 115.6 115.6 0 0 1 2-20.5c1.3-6.9 2.6-13 3.7-18.1l1.2-5.3c1.5-7 2.7-13.8 3.5-20.2s2-13.1 3.5-19.8l3.8-16.1 3.8-16.2 1-4.4-1.5.2-4 .2c-7.7 0-13.2-1.8-16.4-5.2s-4.4-8.1-3.2-13.6a9.8 9.8 0 0 1 5.4-6.7 39.4 39.4 0 0 1 8.8-3.2c3-.7 6.3-1.4 9.7-1.9a61.3 61.3 0 0 0 7.2-1.5c5.2-21 10.6-41.3 16-60.2a938 938 0 0 0 12.6-49.3 354.1 354.1 0 0 1 12.8-43.6 197.2 197.2 0 0 1 8.6-20.4c3.1-6.2 6.4-11 9.8-14.2l2-1.9c3-2.9 6.1-5.6 9.5-8.3a20.2 20.2 0 0 1 12.8-4.4 11.8 11.8 0 0 1 5.3 1.5 49.6 49.6 0 0 1 5.3 3.2 17.5 17.5 0 0 1 4.4 4.3 6.6 6.6 0 0 1 1.4 5.2 22.5 22.5 0 0 1-2.3 6.5 20.9 20.9 0 0 1-3 4 29 29 0 0 1-3.6 3 33.2 33.2 0 0 0-3.5 3 38.5 38.5 0 0 0-5.4 7.4 81.3 81.3 0 0 0-4.7 9.3c-1.3 3-2.5 6-3.5 8.8a54.7 54.7 0 0 0-1.9 6.2v.2l-10.1 32.3c-3.1 9.6-5.8 18.8-8.3 27.5-2.3 8.4-4.7 17-7 25.9-2.3 8.4-4.5 17.3-6.5 26.3l-1.7 6.8a130 130 0 0 0-1.6 6.1 19.3 19.3 0 0 0-.6 4.2 18 18 0 0 0 4 .3 51.6 51.6 0 0 0 8.8-1c3.5-.6 7-1.3 10.7-2.2l10-2.3a38.7 38.7 0 0 1 7.3-1c2 0 8.2 0 9.8 4.1a20.7 20.7 0 0 1 .9 8.7v.3l-.1.2c-2 5.4-6.4 9.5-13 12.2a178.1 178.1 0 0 1-19 6.7 183.7 183.7 0 0 0-17.9 6.2c-5 2-7.8 4.8-8.6 8.5-3 13.4-5.8 27.3-8.2 41.2a6288 6288 0 0 0-16.2 93.5c-1.3 6-4 9.7-8 11.1a32.2 32.2 0 0 1-10.6 1.8z"/><path d="M232 473.7a53.3 53.3 0 0 1 41.8-10.1l2.6.2c5.7.6 11.3 4.1 18.7 11.8l.1.2a87.3 87.3 0 0 1 7.2 12 19.4 19.4 0 0 1 1.7 6.3v.4c.4 2.6.3 5.3-5.5 10a48.7 48.7 0 0 1-6.9 4 13.1 13.1 0 0 1-6.4 1.5 14.2 14.2 0 0 1-3.8-.5 5.7 5.7 0 0 1-4.4-3.9c-3.9-5.8-6.6-9.6-8.7-10.4a23.2 23.2 0 0 0-20 4.5zM297 757.6c-1.3 0-2.7 0-4.1-.2s-2.7-.2-4.2-.2h-2.3a18.3 18.3 0 0 1-12-4c-2.9-2.5-6-4.8-9.2-7a39.6 39.6 0 0 1-15.8-20c-3-8.2-3.1-18.3-.5-30a102.4 102.4 0 0 1 7.5-20.4l9.9-21.4a76.3 76.3 0 0 1 8.1-12 118.6 118.6 0 0 1 14-14.7 105.9 105.9 0 0 1 17.3-12.7 37.2 37.2 0 0 1 18.6-5.5 12 12 0 0 1 7.5 2.7 46.5 46.5 0 0 0 9.4 5.4l10.5 4.6c3.5 1.6 7.2 3.2 10.6 5a37.4 37.4 0 0 1 9.7 7.2 19.3 19.3 0 0 1 5 9.3l2.5 9.4a22 22 0 0 1 .6 8.6l-1.5 8.4-1.6 7.2a74.3 74.3 0 0 1-10 22.5 190.3 190.3 0 0 1-15 19.8 201 201 0 0 1-10.5 11.5 141.6 141.6 0 0 1-14 12.4 105.4 105.4 0 0 1-15.2 9.8 33 33 0 0 1-15.3 4.3zm26.2-112.2a19 19 0 0 0-13 5.4 72.6 72.6 0 0 0-12 14 97.3 97.3 0 0 0-9.3 18 112.3 112.3 0 0 0-5.4 16.5c-.1.7-.4 2.2-.8 5.9a49.9 49.9 0 0 0 0 9.1 20.6 20.6 0 0 0 2.2 8 4.9 4.9 0 0 0 4.8 2.8 21.2 21.2 0 0 0 7.3-1.2l8.1-3.2a49.5 49.5 0 0 0 12.3-9.8 82 82 0 0 0 10.4-13.8 131.1 131.1 0 0 0 8-15.7 188 188 0 0 0 5.9-15.7l.4-1.8c1.5-6.6.3-11.1-3.6-14a25.5 25.5 0 0 0-15.3-4.5zM500.8 747.1c-6.7 0-9.8-3.4-11.3-6.2a33.2 33.2 0 0 1-3.3-13.3 96 96 0 0 1 .4-15.8 81.5 81.5 0 0 0 .5-13 97.5 97.5 0 0 1 .3-14.9c.4-5.3.8-10.8 1-16.5a144.5 144.5 0 0 0-.2-15.3 28.2 28.2 0 0 0-1.7-8.3 199 199 0 0 0-12.6 16.7c-4 6-7.7 11.7-11 17l-9.8 16a164.3 164.3 0 0 1-11.3 16 166 166 0 0 1-15 17.3 65.3 65.3 0 0 1-11.5 9.2 26.6 26.6 0 0 1-9.5 3.7 53.9 53.9 0 0 1-7.7.6 16 16 0 0 1-9.7-4.3c-3.7-3-5.1-6.8-4.1-11 3.6-16.6 7-31.2 10-44.6a4995 4995 0 0 0 10-43.3l2.5-13c.8-4.4 1.6-8.9 2.6-13.3a31.3 31.3 0 0 1 4-9.5 17.3 17.3 0 0 1 8.2-7l.4-.2h.4c1.5 0 3 0 4.4-.2 1.6-.2 3-.2 4.4-.2 4 0 6.9 1.2 8.7 3.6a15.3 15.3 0 0 1 3 8 39.9 39.9 0 0 1-.2 9.3l-1.4 7.8a30.8 30.8 0 0 0-.8 7.4 34.9 34.9 0 0 1-.8 8.5c-2.1 9.3-4 17.4-5.8 24l-3.6 14.4a56.4 56.4 0 0 0 6.5-8.7l9.9-16 1.2-2.2c2.5-4.2 6-9.3 10.3-15.2a168 168 0 0 1 14.7-17.4 104.8 104.8 0 0 1 16.7-14.1c6-4 11.8-6 17.2-6h.6c4.5 1.5 7.7 3.9 9.5 7a27 27 0 0 1 3.1 10.2c.4 3.4.6 7 .7 10.8a46.7 46.7 0 0 0 1.2 10 98.8 98.8 0 0 1 2.2 24.1c-.2 8.4-.7 17-1.5 25.6s-1.4 17.1-1.7 25.4a94.3 94.3 0 0 0 1.6 22.7l.1.5-.2.6a17 17 0 0 1-9.7 10 30 30 0 0 1-11.9 3.1zM570 735.5c-13.5 0-22.5-4.7-26.8-13.9-4-8.8-4.7-20-1.8-33a122.5 122.5 0 0 1 8.8-24.7 192.3 192.3 0 0 1 35-51.1 110.5 110.5 0 0 1 22.8-18.6l.2-.2a45.3 45.3 0 0 0 5.9-3.6c3.3-2.2 7.7-3.4 13.2-3.4a35.5 35.5 0 0 1 10.7 1.6l7.3 2.4c1.8-8 3.2-16.1 4.2-24 1.2-8.5 2.7-17 4.5-25.2l2-9.6 4.3-20 1.8-7.8 1.4-8v-.3l.1-.3a19.5 19.5 0 0 0 1.7-6 11.3 11.3 0 0 1 4.3-7.6 25.3 25.3 0 0 1 9.8-5.9 32.9 32.9 0 0 1 10.3-1.8c5.3 0 9.1 2.1 11.3 6.2a18.1 18.1 0 0 1 1.4 12.6A341 341 0 0 1 696 518c-2.4 7.6-4.6 16.2-6.7 25.5-1.3 5.7-2.4 12.6-3.4 20.5l-2.6 21.9-2.4 17.5a482.8 482.8 0 0 0-4 37.9 109.8 109.8 0 0 0 .2 16v.3l-.4 1.8a38.5 38.5 0 0 0-.2 6.8c0 3.7.2 7.8.6 12l1.2 12.6a50.6 50.6 0 0 0 1.1 8 33 33 0 0 1 1.6 9.2 54.4 54.4 0 0 0 1 8.8v.8c-1.3 5.6-3.6 9.6-7 11.9s-6.5 3.4-9.4 3.4h-4.8c-4 0-5-.3-5.5-.6a49.6 49.6 0 0 1-6.7-3.6c-2.5-1.6-4.3-5.3-5.7-11.7-1-2-1.5-5.4-1.7-10.2-.2-4.6-.3-9.7-.3-15.1v-15l-.1-2.8a140.3 140.3 0 0 1-12.6 21.8A127 127 0 0 1 609 717a86.8 86.8 0 0 1-20.2 13.6c-6.7 3.2-13.1 4.8-19 4.8zm49.6-115.2l-2.6 3a107.9 107.9 0 0 1-10.4 10.8 65.5 65.5 0 0 0-13.6 17.1l-6.7 12a104.9 104.9 0 0 0-4.7 9.5c-1.3 3-2.5 6-3.6 9.2a97.3 97.3 0 0 0-2.8 10.3 12.7 12.7 0 0 0 0 5.5 37.7 37.7 0 0 1 .8 4.9 22 22 0 0 0 11.9-5.2 76.8 76.8 0 0 0 12.5-13.4 163.2 163.2 0 0 0 10.8-16.5 212 212 0 0 1 9.5-15.3c1.9-3.7 3.9-7.6 6-11.3a43.5 43.5 0 0 0 4.4-11.7l.3-1.4.7-3.7a9.1 9.1 0 0 0-.5-2.4 15.4 15.4 0 0 1-.3-1.6 4.6 4.6 0 0 0-1.4-.2 18.8 18.8 0 0 1-2.2-.2 24.6 24.6 0 0 0-4-.4 4.4 4.4 0 0 1-1.2.1 4.1 4.1 0 0 0-3 1zm2.9-4.9zm.2 0zM742.1 729a50.9 50.9 0 0 1-15-2.7 76.7 76.7 0 0 1-14.1-5.9l-.4-.2a52.9 52.9 0 0 1-11.6-14.3 47.6 47.6 0 0 1-5-15 63.7 63.7 0 0 1-.3-16.4 243 243 0 0 1 2.6-17.4v-.1a136.5 136.5 0 0 1 10-28.8 118.7 118.7 0 0 1 17-26 86.7 86.7 0 0 1 22.4-19A54 54 0 0 1 775 576c6.8 0 12.7 1 17.4 3.2a29.5 29.5 0 0 1 11.4 8.6 27 27 0 0 1 5.3 12.1 36 36 0 0 1-.5 13.9 57 57 0 0 1-7.3 17.5 64.3 64.3 0 0 1-30.9 26 64 64 0 0 1-22 4.5 33.3 33.3 0 0 1-9.1-.5c-2-.4-4.2-1-6.6-1.7a11.2 11.2 0 0 0-.4 1.2l-.4 2c-1.8 9-2 16.1-.4 21s3.5 8.8 5.9 11.2a17 17 0 0 0 7.5 4.6 25.4 25.4 0 0 0 5.3 1 38.1 38.1 0 0 0 19.8-5l20-11.7.8-.5 1 .4 3.8 1.7a9.3 9.3 0 0 1 4.3 4.5l.3.5v.5a28.2 28.2 0 0 0 0 3.4 17.6 17.6 0 0 1-.6 4.6v.1a24.6 24.6 0 0 1-5.3 9.7 48.7 48.7 0 0 1-7.2 6.6c-8 5.7-15.3 9.4-21.6 11.1s-14.1 2.5-23.4 2.5zm-1.6-93.7a48 48 0 0 0 7.1.4c8.2 0 15-2 20.2-6s8.6-9 9.8-14.5a13.4 13.4 0 0 0-.7-8.6c-1-2.3-2.8-3.4-5.5-3.4a36.6 36.6 0 0 0-7.2.7 9 9 0 0 0-5.2 3.1l-.2.2a69.6 69.6 0 0 1-4.4 4 26.2 26.2 0 0 0-4.4 4.8 67.5 67.5 0 0 0-5 8.4 76.7 76.7 0 0 0-4.5 11zM845.6 728.7A18.5 18.5 0 0 1 832 723a19.8 19.8 0 0 1-6-15.3v-.5l.2-.5a25.2 25.2 0 0 1 3.8-5c1.2-1.3 3.4-2.4 7-3.6l1.2-.4.9 1c2.2 2.3 4.4 3.4 6.8 3.2a17 17 0 0 0 10.8-6.2 25.2 25.2 0 0 0 6.4-14 13.7 13.7 0 0 0 .2-3V678.5a143.6 143.6 0 0 0-6.4-30.2c-3-9-6.1-17.5-9.2-25.2s-5.7-15.5-7.7-22.6a54.7 54.7 0 0 1-1.7-22.6 138.8 138.8 0 0 1 4-19.5 90.1 90.1 0 0 1 8-19.3 55.4 55.4 0 0 1 12.3-15.3 31 31 0 0 1 18-7.4 11.8 11.8 0 0 1 2.4 0 7.6 7.6 0 0 0 1.7 0c2.3-.1 5.5.5 7.8 4.6a30.9 30.9 0 0 1 3 7.3v.7a9.5 9.5 0 0 1-3.3 6.3 72.5 72.5 0 0 0-4.3 3.8 52.5 52.5 0 0 0-8 13.7 62.2 62.2 0 0 0-4 15l-1.3 9.3a19 19 0 0 0 .8 6.8 166.8 166.8 0 0 0 6.5 20 62.4 62.4 0 0 0 2.9 6.5l.1.3 1.1 3c3.7 9.3 7.2 18.8 10.2 28.4 3 9.7 3.7 21 2 33.7a60.9 60.9 0 0 1-5.7 19 69 69 0 0 1-11.3 16.3 59.6 59.6 0 0 1-15.5 12 47.1 47.1 0 0 1-18.4 5.6l-1.8.1zm17.8-50z"/><path d="M852.5 536a48 48 0 0 1 27.7-23.2l.5-.2c6.6-2.3 9.8-2.5 16.7-3l2.2-.2c2.9-.2 8.5-.2 11.4.4a15.2 15.2 0 0 1 8.3 5v.2l.8 1a37.2 37.2 0 0 1 2.9 4.2 14.8 14.8 0 0 1 1.7 8.1c-.3 4-7.4 8.7-7.5 8.7l-2.5 1.7c-2.7 2-4.2 3-7.3 1a16.2 16.2 0 0 0-11.5-1.5c-5.3 1-11.2 2-18.2 19.6zM871 717.5c-15.7 9.4-26.7 10.8-32.2 9.7-6.5-1.3-8.6-2.8-15.4-6.6-2-1.3-6.2-4.1-8-6.1a14.2 14.2 0 0 1-3-8.1 63.2 63.2 0 0 1-.1-6.7 17.7 17.7 0 0 1 2.4-7.6c1.2-2 6.5-3.4 8.6-3.6 5.6-.6 6.2-1.4 7.2 1.6 1.9 3.4 3.4 6.2 8.7 8.4s18.2 5.3 24.5-10"/><path d="M842.4 729.5a21 21 0 0 1-4-.4 39.2 39.2 0 0 1-14.3-5.8l-1.6-1a43.3 43.3 0 0 1-8.5-6.5 16.2 16.2 0 0 1-3.6-9.3v-.1-1.3a47.4 47.4 0 0 1 0-5.6 19.6 19.6 0 0 1 2.7-8.5c2-3.1 8.5-4.4 10.1-4.5l2.8-.4c3-.4 5-.7 6.5 3.1 1.7 3.2 3 5.5 7.6 7.4a19.7 19.7 0 0 0 10.7 1.5c5-1 8.7-4.4 11.1-10.3l3.7 1.5c-3.7 9-9.7 11.9-14 12.7a23.8 23.8 0 0 1-13-1.7c-6-2.4-7.8-5.8-9.7-9.3l-.2-.3a6.4 6.4 0 0 0-.3-.8 16 16 0 0 0-2 .2l-2.8.4c-2.4.2-6.5 1.6-7.1 2.6v.1a16 16 0 0 0-2.2 6.7 45.4 45.4 0 0 0 0 5v1.3a12.4 12.4 0 0 0 2.7 7 41 41 0 0 0 7.5 5.6l1.7 1c5.4 3 7.4 4.2 13 5.4 2.7.5 12.7 1.4 30.8-9.5l2 3.5a59.2 59.2 0 0 1-29.6 10.3zM929.5 723c-4.7 0-8.2-.6-10.5-2a10.7 10.7 0 0 1-5-5.6 15.5 15.5 0 0 1-.8-7.4 76.5 76.5 0 0 1 1.4-8c2-9.4 4.3-19.1 6.6-29 2.4-10.2 4.8-20.4 7-30.5l7-30.3 6.5-28c3.7-16.7 7-33.3 9.7-49.6s6.3-33.7 10.3-52a32.9 32.9 0 0 1 4.2-9.7l.2-.3.2-.2a36.3 36.3 0 0 1 10.5-6.6 65.2 65.2 0 0 1 11.2-3.4h.7c7 1.2 11.7 4 13.7 8.6 2 4.4 2 10.6.2 19a2740.8 2740.8 0 0 1-31.8 129.6c4.5-3.3 9-6.8 13.4-10.4a155.7 155.7 0 0 0 16.2-14.8 101.7 101.7 0 0 1 7.4-10.9 63.6 63.6 0 0 1 10-10.2 61.2 61.2 0 0 1 11.4-7.5 28.7 28.7 0 0 1 12.8-3h.5l.5.2a18.9 18.9 0 0 0 3.3 1.4 17.4 17.4 0 0 1 4.4 2.2 12.7 12.7 0 0 1 3.3 3.4c1 1.6 1.3 3.7.8 6.3-.7 3.1-3.6 7.6-8.7 13.8a634.3 634.3 0 0 1-36 38c-5.8 5.6-13.8 10.3-17.9 14 3.1 7.4 10.4 13.7 15.6 19a193.6 193.6 0 0 0 17 15.3c5.6 4.4 10.3 8.4 14.2 11.7 4.4 3.8 6.2 7.5 5.4 11a17.5 17.5 0 0 1-4.8 9 24 24 0 0 1-7.5 5 35.7 35.7 0 0 1-8.2 2.2 48.4 48.4 0 0 1-6.9.6c-4 0-8.6-2.2-14-7a179.2 179.2 0 0 1-15.2-15.3l-15.6-18a117.2 117.2 0 0 0-11.8-12l-.5 2a157.3 157.3 0 0 0-3.2 20.2 167 167 0 0 1-3.3 21 21.3 21.3 0 0 1-9.2 13.7 26.7 26.7 0 0 1-14.8 4.5z"/></g><g id="tagline"><path d="M334.3 814.8h-.1l-8 33.8-8.8.6-16.3-43.7 8.6-.6 11.6 33.7h.1l8-35 8-.5 12.7 33.6 6.8-34.9 8.4-.5-10 45.4-8.7.6zM402 829.5l-23 1.5c1.4 5.2 5.9 7.8 11.3 7.5a18.3 18.3 0 0 0 10.2-4.3l.5 7a21.4 21.4 0 0 1-11.2 4c-11.1.8-18.3-5.9-19-16-.6-10.5 6.3-17.8 15.3-18.4 8.2-.5 15.3 4.8 16 15.7a21 21 0 0 1-.1 3zm-8-4.7c-.5-5.1-3.8-7.6-7.6-7.3-4 .2-7.3 3.5-8 8.3zM436.8 804.2l-13.4.9-.5-7.7 35.1-2.3.5 7.7-13.3.9 2.4 36.9-8.4.5zM462.1 823.1c-.7-10.4 6.1-17.7 13.6-18.2a12.7 12.7 0 0 1 11.5 5.4l.5-5.4 7-.5 2.1 33-6.9.4-1.2-5.4a12.8 12.8 0 0 1-10.7 7c-7.5.5-15.2-5.9-15.9-16.3zm25.5-1.7c-.4-5.8-4.3-9.5-9.1-9.2s-8.5 4.6-8 10.3 4.3 9.5 9.3 9.2 8.2-4.6 7.8-10.3zM506.2 788.5l8.3-.6 3.2 48-8.3.6zM551.4 833.7l-14-15.4 1 16.3-8.2.5-3.2-48 8.2-.6 2 30.3 11.8-16 10-.7-12.6 16.6 15.2 16.3zM578.6 825.3l-.2-3.1 7.5-.5.1 2.5c.3 5-1.3 10.8-3 15.4l-6 .4a50.7 50.7 0 0 0 1.6-14.7zM615.8 811.2l-18.3-25.4 9.4-.6 12.6 18.2h.2l10-19.7 9-.6-14.7 27.5 1.2 18.2-8.3.6zM641.6 811.2c-.6-10.2 6.3-17.8 15.9-18.4s17.4 6 18 16.1-6 17.8-15.7 18.4-17.5-6-18.2-16.1zm25.7-1.8c-.4-6.2-4.9-9.4-9.3-9.1s-8.5 4-8 10.3 4.9 9.5 9.3 9.2 8.4-4.2 8-10.3zM686 811.6l-1.3-19.8 8.2-.6 1.4 19.8c.3 4.1 2.7 6.3 6.6 6s6.2-2.7 6-6.9l-1.4-19.7 8.3-.6 1.3 19.8c.5 8.2-4.7 14.3-13.7 15s-14.8-4.9-15.4-13zM768.6 786l-8 33.8-8.9.6-16.2-43.7 8.5-.6 11.6 33.7h.2l8-35 7.9-.5 12.7 33.6 6.9-34.9 8.4-.6-10.1 45.5-8.6.6zM806.4 800.2c-.7-10.1 6.3-17.7 15.9-18.4s17.4 6 18 16.2-6 17.7-15.7 18.4-17.5-6-18.2-16.2zm25.6-1.7c-.4-6.2-4.8-9.5-9.2-9.2s-8.5 4.1-8 10.4 4.9 9.4 9.3 9.1 8.4-4.1 7.9-10.3zM850 780.8l6.6-.5 1.2 5a10.3 10.3 0 0 1 8.8-6 10 10 0 0 1 2.4.1l.5 7.7a13 13 0 0 0-2.6 0c-4.1.3-8 2.9-7.6 9.1l1.1 17-8.2.5zM901.4 810.4l-14-15.3 1 16.2-8.2.5-3.2-48 8.3-.5 2 30.3 11.8-16 9.9-.7-12.6 16.6 15.2 16.3zM919.2 804.7a4.9 4.9 0 1 1 9.6-.6 4.9 4.9 0 1 1-9.6.6z"/></g><g clip-path="url(#clip-path)" id="mark_pelican"><g id="pelican"><path class="cls-3" d="M610.6 565.6c3.1 14.7 11.7 56.7 10.8 58-6 9.3-27.1 19.8-15.4 20.7s78.3-11.4 56.6-15.5a70.5 70.5 0 0 1-25.7-10.3l-10.3-56.9zM543.8 591.5c3 14.7 11.6 56.7 10.8 58-6 9.3-27.2 19.7-15.5 20.7s78.4-11.5 56.6-15.5a70.6 70.6 0 0 1-25.7-10.4l-10.3-56.8z"/><path class="cls-4" d="M642.8 286c2.4 1.5 10.6 6.5 26.3 11.3 47.1 14.3 119.4 30.6 144.1 33.5-21.7 25.5-12 109.1-59.4 104-23.7-2.5-45.8-30-72.6-68.9a350.2 350.2 0 0 1-33-65.2c-4.2-10.2-2.2-7.1-5.4-14.7z"/><path d="M642.8 286c2.4 1.5 10.6 6.5 26.3 11.3 47.1 14.3 119.4 30.6 144.1 33.5-21 24.7-12.6 104.2-55.3 104.2a38.1 38.1 0 0 1-4-.2c-23.8-2.6-45.9-30-72.7-69a350.2 350.2 0 0 1-33-65.2c-4.2-10-2.2-7-5.4-14.6m0-22a21.9 21.9 0 0 0-14.4 5.4c-7.2 6.3-1.8 33.7.6 39.5 9.5 23.1 19.2 47.6 34.2 69.4 21.1 30.7 32 43 39.9 51a114 114 0 0 0 21.8 17.8 64.7 64.7 0 0 0 26.6 9.5 58.4 58.4 0 0 0 6.4.3 48.5 48.5 0 0 0 29.7-9.6c7-5.2 12.6-12.2 17.3-21.4 7-14 10.7-30.4 14.2-46.3 1.8-8.5 3.6-16.6 5.7-23.3A34.4 34.4 0 0 1 830 345a22 22 0 0 0-14-36c-24-2.9-94.9-18.9-140.4-32.8a89.2 89.2 0 0 1-21.3-9h-.1a21.9 21.9 0 0 0-11.3-3.2z"/><path class="cls-4" d="M628.7 249.3c62-4.6 173.4.1 191.8 16-29.9-3.6-136.6 8.8-190.5 16.2-.4 0 4.5-23.3-1.3-32.2z"/><path d="M680.5 247.6c58.8 0 126 5.7 140 17.8a125.9 125.9 0 0 0-14.3-.6c-38.8 0-119.5 9.2-168.2 15.6-2.8.4-2.3-31.5 1.5-31.7a769 769 0 0 1 41-1m0-21c-19.6 0-38 .6-53.4 1.8-2.5.2 8 11.2 7.9 22.5-.4 22-3.1 51.4-2.2 51.3 58.8-8 138.1-16.6 173.5-16.6a104.5 104.5 0 0 1 11.7.5 19.5 19.5 0 0 0 2.5.2 21 21 0 0 0 13.7-36.8c-6.8-6-20.4-13.4-64.5-18.4a829.6 829.6 0 0 0-89.2-4.5z"/><path d="M592.4 226c18.3 0 37 10.3 32.3 28-15 57.4 42.7 132.1 61.5 156.1 46.5 59.3-43.8 181.6-172 181.6-30.2 0-62.6-6.8-95.8-22.9-2.8-43 26.1-93.5 81.5-125.9 25-14.6 51.7-17.8 74.6-17.8 17.3 0 32.5 1.8 43 1.8 10.3 0 16.2-1.7 15.6-8.4-2.2-22.9-50.2-68.7-64.3-86.4-25.7-32.1-20-77.1-2.3-96.4 6-6.6 16-9.6 26-9.6m0-22a65.1 65.1 0 0 0-21.8 3.6 49.6 49.6 0 0 0-20.3 13.2 89.2 89.2 0 0 0-21 57.6 103.9 103.9 0 0 0 22.2 67.3c4 5 9.9 11.4 16.7 18.9a589.2 589.2 0 0 1 33.7 39.6c-8.2-.5-17.3-1-27.5-1a201 201 0 0 0-41 3.8 147.4 147.4 0 0 0-44.7 16.9 203 203 0 0 0-70 66.3 152.2 152.2 0 0 0-17.7 39.3 120.6 120.6 0 0 0-4.6 40.7 22 22 0 0 0 12.4 18.3 240.3 240.3 0 0 0 105.4 25A224 224 0 0 0 634 578.9a200.4 200.4 0 0 0 73.4-79.1 119 119 0 0 0 13-52.6c0-19-6-36.4-17-50.5-7.4-9.3-26.8-34-41.2-62-7.5-14.5-12.7-28-15.6-40.3a73 73 0 0 1-.8-34.7 40 40 0 0 0-7-35.3 50.4 50.4 0 0 0-21.8-15.7 69 69 0 0 0-24.7-4.5z"/><path class="cls-3" d="M599.7 258a11.3 11.3 0 1 1-11.3 11.3 11.3 11.3 0 0 1 11.3-11.3z"/></g></g><path d="M464 466.3a11.2 11.2 0 0 1-8.5-4 203.6 203.6 0 1 1 312.7-260.9 11.2 11.2 0 1 1-17.3 14.2 180.8 180.8 0 0 0-138.5-66.4h-1.8a181.2 181.2 0 0 0-138 298.6 11.2 11.2 0 0 1-8.5 18.5z"/><path fill="none" d="M1181 975H0V0l1181 2v973z"/></g></g></g></svg>