<svg version="1.1" id="レイヤー_1" xmlns="http://www.w3.org/2000/svg" x="0" y="0" viewBox="0 0 749.7 726.2" xml:space="preserve"><style>.st2{fill:#f03748}.st3{fill:#7b83eb}.st4,.st5{opacity:.1;enable-background:new}.st5{opacity:.2}.st6{fill:#5059c9}.st8{fill:#fff}.st9{fill:none}.st10{fill:#e01e5a}.st11{fill:#36c5f0}.st12{fill:#2eb67d}.st13{fill:#ecb22e}.st15{fill-rule:evenodd;clip-rule:evenodd;fill:#f3ca3e}.st19{opacity:.2}.st20,.st22{fill-rule:evenodd;clip-rule:evenodd;fill:#263238}.st22{fill:#fff}</style><path d="M97.3 344c0-21.8-21.8-39.5-48.6-39.5S0 322.2 0 344c0 19.5 17.3 35.9 40.7 39 1.6.3 3.7 1 4.3 2.4.4 1.4.4 2.9.2 4.4l-.7 4.2c-.2 1.2-1 4.8 4.2 2.6s28-16.5 38.2-28.2c7-7.8 10.4-15.7 10.4-24.4m-77-10.5c.6 0 1 .4 1 1v16.8h9.3c.5 0 .9.4.9.9v3.4c0 .5-.4.9-.9 1H16.9c-.2 0-.5-.1-.6-.3-.2-.2-.3-.4-.3-.6v-21.2c0-.5.4-1 .9-1h3.4zm60.8 0c.5 0 .9.5.9 1v3.4c0 .5-.4.9-.9 1h-9.3v3.6h9.3c.5 0 .9.4.9 1v3.4c0 .5-.4 1-.9 1h-9.3v3.6h9.3c.5 0 .9.4.9.9v3.4c0 .5-.4.9-.9 1H67.5c-.2 0-.5-.1-.7-.3-.2-.2-.3-.4-.3-.6v-21.2c0-.2.1-.5.3-.6.2-.2.4-.3.7-.3l13.6-.3zm-42.4 0c.5 0 .9.4 1 .9v21.3c0 .5-.5.9-1 .9h-3.4c-.5 0-1-.4-1-.9v-21.2c0-.5.5-.9 1-.9h3.4zm8.7 0h.5l.1.1 10 13.5v-12.6c0-.5.5-.9 1-.9h3.4c.5 0 1 .4 1 .9v21.2c0 .5-.5.9-1 .9h-3.9l-.2-.2-9.7-13.1v12.6c0 .5-.5.9-1 .9H44c-.5 0-.9-.4-1-.9v-21.2c0-.5.4-.9.9-.9l3.5-.3z" fill-rule="evenodd" clip-rule="evenodd" fill="#32c21e"/><path d="M544.8 12.2c-7.2-7.2-18.9-7.2-26.1 0-3.3 3.3-5.2 7.7-5.4 12.4V42c0 .9.7 1.7 1.7 1.7h16c5.6 0 10.1-1.6 13.9-5.4 7.1-7.2 7.1-18.9-.1-26.1" fill="#13202f"/><path class="st2" d="M478.3 26.3c-7.2 7.2-7.2 18.9.1 26.1 3.3 3.3 7.7 5.2 12.3 5.4h17.5c.9 0 1.6-.7 1.6-1.7v-16c0-5.6-1.6-10.1-5.4-13.9-7.1-7.2-18.8-7.2-26.1.1M492.4 92.6c7.2 7.2 18.9 7.3 26.1.1 3.3-3.3 5.3-7.8 5.4-12.5V62.8c0-.9-.7-1.7-1.7-1.7h-16c-5.6 0-10.1 1.6-13.9 5.4-7 7.2-7 18.9.1 26.1M558.8 78.5c7.2-7.2 7.2-18.9 0-26.1-3.3-3.3-7.7-5.2-12.4-5.4h-17.5c-.9 0-1.7.7-1.7 1.6v16c0 5.6 1.6 10.1 5.4 13.9 7.3 7.2 19 7.2 26.2 0"/><circle class="st3" cx="676.8" cy="324.2" r="13.6"/><path class="st4" d="M675.8 327.1h-12.3c0 .1 0 .2.1.3l.1.2c1.9 7 8.9 11.3 16 9.8v-6.5c0-2.1-1.7-3.8-3.9-3.8z"/><path class="st5" d="M672.9 330h-8.4c2.2 4.7 7 7.8 12.2 7.8v-3.9c.1-2.2-1.6-3.9-3.8-3.9z"/><circle class="st6" cx="707.3" cy="328.5" r="10.2"/><path class="st6" d="M716 341.6h-22.9c-1 0-1.8.8-1.9 1.9V367c-.1 7 4.7 13.2 11.5 14.8 7.9 1.7 15.6-3.4 17.2-11.2.2-1 .3-2 .3-3V346c.2-2.4-1.7-4.4-4.2-4.4z"/><path class="st3" d="M700.1 346v27.6c0 12.8-10.4 23.2-23.2 23.2-8.3 0-16-4.4-20.1-11.6-.6-.9-1-1.9-1.5-2.9-.4-.9-.7-1.9-1-2.9-.5-1.9-.7-3.9-.7-5.8V346c0-2.4 2-4.3 4.3-4.4h37.8c2.4.1 4.3 2 4.4 4.4z"/><path class="st5" d="M672.9 330h-8.4c2.2 4.7 7 7.8 12.2 7.8v-3.9c.1-2.2-1.6-3.9-3.8-3.9z"/><path class="st4" d="M679.7 341.6v36.8c0 1.8-1.2 3.4-3 3.8-.3.1-.6.1-.8.1h-20.6c-.4-.9-.7-1.9-1-2.9-.5-1.9-.7-3.9-.7-5.8V346c0-2.4 2-4.3 4.3-4.4h21.8z"/><path class="st5" d="M676.8 341.6v39.7c0 .3 0 .6-.1.9-.4 1.8-2 3-3.8 3h-16.2c-.6-.9-1-1.9-1.5-2.9-.4-.9-.7-1.9-1-2.9-.5-1.9-.7-3.9-.7-5.8V346c0-2.4 2-4.3 4.3-4.4h19z"/><path class="st5" d="M676.8 341.6v33.9c0 2.1-1.7 3.8-3.8 3.9h-18.7c-.5-1.9-.7-3.9-.7-5.8V346c0-2.4 2-4.3 4.3-4.4h18.9z"/><path class="st5" d="M657.9 341.6c-2.4 0-4.3 1.9-4.4 4.4v27.6c0 2 .3 3.9.7 5.8H670c2.1 0 3.9-1.7 3.9-3.9v-33.9h-16z"/><path d="M631.3 330H670c2.1 0 3.9 1.7 3.9 3.9v38.8c0 2.1-1.7 3.9-3.9 3.9h-38.7c-2.1 0-3.9-1.7-3.9-3.9v-38.8c0-2.2 1.7-3.9 3.9-3.9z" fill="#4b53bc"/><path class="st8" d="M662.2 344.5h-8.7v23.3h-5.7v-23.3h-8.7v-5.7h23.1v5.7z"/><path class="st9" d="M627.4 306.7h93v93h-93z"/><path class="st10" d="M171.7 60.7c0 5.5-4.5 10-10 10s-10-4.5-10-10 4.4-10 9.9-10h10.1v10zM176.7 60.7c0-5.5 4.5-10 10-10s10 4.5 10 10v25.1c.2 5.5-4.2 10.2-9.7 10.4-5.5.2-10.2-4.2-10.4-9.7V60.7z"/><path class="st11" d="M186.8 20.4c-5.5 0-10-4.5-10-10s4.5-10 10-10 10 4.5 10 10v10h-10zM186.8 25.5c5.5 0 10 4.5 10 10s-4.5 10-10 10h-25.1c-5.5.2-10.2-4.2-10.4-9.7s4.2-10.2 9.7-10.4h25.8v.1z"/><path class="st12" d="M227.1 35.5c0-5.5 4.5-10 10-10s10 4.5 10 10-4.4 10-9.9 10h-10.1v-10zM222 35.5c0 5.5-4.5 10-10 10s-10-4.5-10-10V10.4c-.2-5.5 4.2-10.2 9.7-10.4s10.2 4.2 10.4 9.7v25.8z"/><path class="st13" d="M212 75.8c5.6 0 10.1 4.4 10.1 10s-4.4 10.1-10 10.1-10.1-4.4-10.1-10V75.8h10zM212 70.8c-5.5 0-10-4.5-10-10s4.5-10 10-10h25.1c5.5-.2 10.2 4.2 10.4 9.7s-4.2 10.2-9.7 10.4H212z"/><path d="M352 348.7c2.5 0 4.4 2 4.4 4.4 0 2.5-2 4.4-4.4 4.4s-4.4-2-4.4-4.4c0-2.4 1.9-4.4 4.4-4.4" fill-rule="evenodd" clip-rule="evenodd" fill="#0a0000"/><path class="st15" d="M370.9 365.3v.1c3 7.5 7.2 17.2 13 25.6 10.5 15.3 19.2 26 28.5 27 18.6 2 14.8-30.8 23.3-40.8-9.6-1.2-37.7-7.5-56.2-13.1-2.9.4-5.8.8-8.6 1.2M370.6 344.9c0 1.5-.2 3-.5 4.4-.6 2.6-.8 5.2-.5 7.8 22.2-2.9 58.3-6.9 69-5.6-6.6-5.6-43-7.6-68-6.6"/><path d="M437.6 359.8l1 .1c4.5 0 8.2-3.7 8.2-8.2 0-2.4-1-4.7-2.8-6.2-2.7-2.3-8-5.3-25.3-7.2-11.6-1.2-23.3-1.8-35-1.8-5.5 0-10.7.1-15.4.4-.3-.4-.6-.9-.9-1.3-2.2-2.8-5.2-4.9-8.6-6.2-3.1-1.2-6.4-1.8-9.7-1.8-2.9 0-5.8.5-8.5 1.4-3.1 1-5.8 2.8-8 5.1-5 5.4-8 13.7-8.2 22.6-.3 9.5 2.8 18.9 8.7 26.4 1.6 2 3.9 4.5 6.5 7.4 3.7 4.1 8 8.7 11.4 13.2.7.9 1.3 1.7 1.8 2.4-3.2-.2-6.8-.4-10.8-.4-5.4 0-10.8.5-16 1.5-6.2 1.2-12.1 3.5-17.5 6.6-3.1 1.8-6.1 3.8-9 6-23.6-31.3-17.4-75.8 13.9-99.4 12.4-9.3 27.4-14.4 42.9-14.3h.8c21.1.2 40.9 9.7 54.3 26 1.4 2 4.2 2.4 6.2.9 2-1.4 2.4-4.2.9-6.2l-.3-.3c-28.3-33.9-78.6-38.4-112.5-10.1-33.9 28.3-38.4 78.6-10.1 112.5.8 1 2.1 1.5 3.4 1.5 1 0 2.1-.4 2.8-1l.6-.7c3.3-2.8 6.8-5.2 10.6-7.4 9.8-5.7 20.3-7 29.2-7 6.8 0 12.8.7 16.9.7s6.3-.7 6.1-3.3c-.8-9-19.7-26.9-25.2-33.9-10-12.6-7.8-30.2-.9-37.8 2.4-2.6 6.2-3.8 10.2-3.8 7.2 0 14.5 4 12.6 11-4.8 18.4 9.5 41.5 18.9 54.3 7.1 9.2 11.8 15.1 18.5 20l1 .8.8.5c3.2 2 6.7 3.2 10.4 3.7.9.1 1.7.1 2.5.1 4.2.1 8.3-1.3 11.6-3.8 2.9-2.2 5.2-5.1 6.8-8.4 2.8-5.5 4.2-11.9 5.6-18.2.7-3.3 1.4-6.5 2.3-9.1.4-1.6 1.1-3.1 2-4.4 3.1-3.6 2.7-9-.9-12.1-1.3-1.1-2.9-1.8-4.6-2-6.1-.7-20.1-3.7-34-7.1 12.2-1.2 23.4-2 30.2-2 1.4 0 3 .1 4.6.3m-2 17.4c-8.2 9.7-4.9 40.9-21.7 40.9-.5 0-1.1 0-1.6-.1-9.3-1-18-11.8-28.5-27-5.6-8.1-9.6-17.4-12.6-24.8l-.3-1c2.8-.4 5.6-.7 8.5-1.1 18.6 5.7 46.6 11.9 56.2 13.1m-4.6-25.8h-.6l-2.3.1h-.3l-2.2.1h-.6l-2.4.1h-.2l-2.8.2-.6.1-2.5.2h-.5l-3.1.2h-.1l-3.1.3h-.4c-9.1.8-19 1.9-28 3-4.1.5-8.1 1-11.7 1.5-.2-2.6-.1-5.3.5-7.8.2-.7.3-1.5.4-2.2v-.5c0-.6.1-1.1.1-1.7 2-.1 4.2-.1 6.3-.2 2.1 0 4.3-.1 6.5-.1h4.6l3.9.1h.8c1.3 0 2.5.1 3.8.1h.7l3.7.2h.3c1.3.1 2.5.1 3.8.2h.8l3.6.2h.7c1.2.1 2.3.2 3.5.3h.3c1.2.1 2.3.2 3.4.4l.7.1 3.2.4.6.1c1 .1 2 .3 3 .4h.1l2.8.5.5.1 2.5.5.5.1c.8.2 1.5.4 2.2.6.7.2 1.3.4 1.9.7l.3.1c.5.2 1 .4 1.5.7l.2.1c.4.2.8.5 1.1.8-.4 0-.7-.1-1.1-.1H433.2l-2.2.1" fill="#130000"/><path class="st9" d="M158.8 580.2h86V689h-86z"/><path d="M244.8 627.8c.7-23.7-18.1-43.5-41.8-44.2s-43.5 18.1-44.2 41.8v2.4c0 22.4 20.7 40.8 43.2 40.8v16c26.1-13.3 42.8-34.7 42.8-56.8z" fill-rule="evenodd" clip-rule="evenodd" fill="#00897b"/><path d="M201.9 585.3c23.6-.1 42.7 18.9 42.8 42.5v.4-.3c.7-23.7-18.1-43.5-41.8-44.2s-43.5 18.1-44.2 41.8v2.7c.2-23.8 19.5-42.9 43.2-42.9z" opacity=".2" fill-rule="evenodd" clip-rule="evenodd" fill="#fff"/><g class="st19"><path class="st20" d="M201.9 683.9v.7c26.2-13.3 43.2-34.7 43.2-56.8v-.3c-.3 21.7-17.3 43.1-43.2 56.4zM201.9 667.9c-22.4 0-42.8-18-43.2-40.4v.3c0 22.4 20.7 40.8 43.2 40.8v-.7z"/></g><path d="M201.9 602.3c6.7-.1 13.2 2.4 18 7.1 4.5 4.5 7.1 10.6 7.1 17-.1 1.7-.3 3.4-.7 5.1-.4 1.5-1.1 2.9-2 4.1-1.6 2.5-4.5 3.9-7.5 3.7-1.6 0-3.1-.5-4.4-1.4-1.3-.9-2.3-2-3.1-3.4-.9 1.5-2.2 2.6-3.7 3.4-1.6.8-3.3 1.2-5.1 1.4-1.6 0-3.3-.3-4.8-1-3-1.3-5.4-3.7-6.4-6.8-1.4-3.3-1.4-6.9 0-10.2.7-1.4 1.4-3.1 2.7-4.1 1.1-1.1 2.4-2 3.7-2.7 1.5-.7 3.1-1 4.8-1 2.9-.1 5.7 1.2 7.5 3.4h.3v-2h5.4v16c0 .9.3 1.9.7 2.7 1.2 1.4 3.2 1.7 4.8.7.6-.6 1-1.3 1.4-2 .4-.9.6-1.8.7-2.7v-3.1c.1-5.1-1.8-10-5.4-13.6-3.7-3.7-8.7-5.7-13.9-5.4-5.2 0-10.2 2-14 5.6-5.5 5.7-7.1 14.1-4.1 21.4 1 2.4 2.5 4.5 4.4 6.1 3.7 3.5 8.5 5.4 13.6 5.4 2.8 0 5.6-.7 8.2-2l2 5.1c-3.2 1.3-6.7 2-10.2 2-3.4 0-6.7-.7-9.9-2-2.9-1.2-5.5-2.9-7.8-5.1-9.5-9.4-9.5-24.7-.1-34.2l.1-.1c2.2-2.2 4.9-4 7.8-5.1 3.1-1.5 6.5-2.3 9.9-2.3zm-.7 32c1.8.1 3.5-.7 4.8-2 .8-.6 1.3-1.5 1.7-2.4.4-1 .6-2 .7-3.1.1-2-.7-4-2-5.4-.7-.7-1.5-1.1-2.4-1.4-1.7-.7-3.7-.7-5.4 0-.9.3-1.7.8-2.4 1.4-.8.6-1.3 1.4-1.4 2.4-.9 1.9-.9 4.2 0 6.1.7 1.7 2 3.1 3.7 3.7.9.4 1.8.6 2.7.7z" fill-rule="evenodd" clip-rule="evenodd" fill="#f5f5f5"/><g class="st19"><path class="st22" d="M210.1 643.8c-2.5 1.3-5.3 2-8.2 2-2.5-.1-5.1-.5-7.5-1.4-2.3-1-4.4-2.3-6.1-4.1-1.8-1.7-3.3-3.8-4.4-6.1-1-2.4-1.4-4.9-1.4-7.5v.3c-.1 2.7.5 5.4 1.7 7.8 1.9 4.6 5.6 8.3 10.2 10.2 2.4 1 4.9 1.4 7.5 1.4 2.8 0 5.6-.7 8.2-2l2 4.4-2-5z"/><path class="st22" d="M225 617.3c-2.4-5.8-7.1-10.5-12.9-12.9-3.2-1.3-6.7-2-10.2-2-3.5 0-7 .7-10.2 2-9 4-14.9 12.9-15 22.8v.3c0-3.2.7-6.3 2-9.2 2.4-5.8 7.1-10.5 12.9-12.9 3.2-1.3 6.7-2 10.2-2 3.4 0 6.7.7 9.9 2 5.9 2.4 10.6 7.1 13 12.9 1.2 2.9 1.8 6 1.7 9.2v-1c.4-3.2-.1-6.3-1.4-9.2z"/><path class="st8" d="M208.4 614.9h5.4v1.7h-5.4z"/><path class="st22" d="M192.1 618.3c1.1-1.1 2.4-2 3.7-2.7 1.5-.7 3.1-1 4.8-1 1.5 0 3 .3 4.4 1 1.2.5 2.3 1.3 3.1 2.4h.3v-.7h-.3c-1.8-2.2-4.6-3.5-7.5-3.4-1.6 0-3.3.3-4.8 1-1.4.6-2.7 1.5-3.7 2.7-1 1.3-1.9 2.6-2.7 4.1-.7 1.6-1 3.4-1 5.1v.3c0-1.6.3-3.3 1-4.8.6-1.5 1.5-2.8 2.7-4zM206 632.2c-.7.6-1.5 1.1-2.4 1.4-1.7.7-3.7.7-5.4 0-.9-.3-1.7-.8-2.4-1.4-.8-.6-1.3-1.4-1.4-2.4-.4-.9-.6-1.8-.7-2.7v.3c.1 1 .3 2.1.7 3.1.7 1.7 2 3.1 3.7 3.7 1.8.7 3.7.7 5.4 0 .9-.3 1.7-.8 2.4-1.4.8-.6 1.3-1.5 1.7-2.4.4-1 .6-2 .7-3.1v-.3c0 .9-.3 1.9-.7 2.7-.3 1.1-.8 1.9-1.6 2.5zM220.6 632.2c-.3.7-.8 1.4-1.4 2-1.5 1-3.5.7-4.8-.7-.6-.8-.8-1.8-.7-2.7v.7c0 .9.3 1.9.7 2.7 1.2 1.4 3.2 1.7 4.8.7.6-.6 1-1.3 1.4-2 .4-.9.6-1.8.7-2.7v-.7c0 1-.3 1.9-.7 2.7z"/><path class="st20" d="M226.1 631.6c-.4 1.4-.9 2.8-1.7 4.1-.9 1.1-1.9 2-3.1 2.7-1.4.7-2.9 1-4.4 1-3.2-.1-6.1-1.9-7.5-4.8-.9 1.5-2.2 2.6-3.7 3.4-1.6.8-3.3 1.2-5.1 1.4-1.6 0-3.3-.3-4.8-1-1.4-.6-2.7-1.5-3.7-2.7-1.1-1.2-2-2.6-2.7-4.1-.6-1.5-1-3.1-1-4.8v.3c0 1.7.3 3.5 1 5.1 1.9 4.7 6.5 7.8 11.6 7.8 1.8 0 3.6-.4 5.1-1.4 1.5-.8 2.8-2 3.7-3.4.6 1.4 1.7 2.6 3.1 3.4 1.3.8 2.9 1.3 4.4 1.4 1.5 0 3-.3 4.4-1 1.2-.6 2.3-1.6 3.1-2.7.9-1.2 1.4-2.6 1.7-4.1.4-1.7.6-3.4.7-5.1v-.3c-.5 1.7-.5 3.4-1.1 4.8z"/><path class="st20" d="M188 613.5c3.8-3.5 8.8-5.4 13.9-5.4 5.2 0 10.2 2.1 13.9 5.8 3.4 3.4 5.4 8.1 5.4 12.9v-.3c.1-2.5-.4-4.9-1.4-7.1-1-2.3-2.3-4.4-4.1-6.1-3.7-3.7-8.7-5.8-13.9-5.8-2.6-.1-5.1.4-7.5 1.4-4.6 1.9-8.3 5.6-10.2 10.2-1 2.4-1.6 4.9-1.7 7.5v.3c0-2.5.6-4.9 1.7-7.1.9-2.5 2.1-4.6 3.9-6.3z"/><path class="st20" d="M207.7 623.7c-.4-.9-.9-1.7-1.7-2.4-1.3-1.3-3-2-4.8-2-1 0-1.7.3-2.7.3-.9.3-1.7.8-2.4 1.4-.8.6-1.3 1.4-1.4 2.4-.4 1-.6 2-.7 3.1v.3c0-.9.3-1.9.7-2.7.3-.9.8-1.7 1.4-2.4.7-.6 1.5-1.1 2.4-1.4 1.7-.7 3.7-.7 5.4 0 .9.3 1.7.8 2.4 1.4.8.6 1.3 1.4 1.4 2.4.4.9.6 1.8.7 2.7v-.3c-.1-.9-.3-1.9-.7-2.8zM201.9 651.6c3.5 0 7-.7 10.2-2v-.3c-3.2 1.3-6.7 2-10.2 2-3.4 0-6.7-.7-9.9-2-3-1-5.4-3.1-7.8-5.1l3.1 3.1c1.4 1 3.1 1.7 4.8 2.7 3.1 1 6.5 1.6 9.8 1.6z"/></g><radialGradient id="SVGID_1_" cx="-268.4013" cy="420.7061" r="3.47" gradientTransform="matrix(25.33 0 0 -29.33 6972.1099 12938.8701)" gradientUnits="userSpaceOnUse"><stop offset="0" stop-color="#fff" stop-opacity=".1"/><stop offset="1" stop-color="#fff" stop-opacity="0"/></radialGradient><path d="M244.8 627.8c.7-23.7-18.1-43.5-41.8-44.2s-43.5 18.1-44.2 41.8v2.4c0 22.4 20.7 40.8 43.2 40.8v16c26.1-13.3 42.8-34.7 42.8-56.8z" fill-rule="evenodd" clip-rule="evenodd" fill="url(#SVGID_1_)"/><path d="M549.9 603.1h-73.3c-5 0-9.1 4.1-9.1 9.2v55c0 5.1 4.1 9.1 9.2 9.2H550c5.1 0 9.1-4.1 9.2-9.2v-55c-.2-5.1-4.3-9.2-9.3-9.2zm0 18.3l-36.6 22.9-36.6-22.9v-9.2l36.6 22.9 36.6-22.9v9.2z" fill="#60acf2"/><path d="M417.9 265.5c-.3 0-.7 0-1-.1l-.9-.3c-.3-.1-.6-.3-.9-.5-.3-.2-.5-.4-.8-.6-.2-.2-.4-.5-.6-.8-.2-.3-.3-.6-.5-.9l-.3-.9c-.1-.6-.1-1.3 0-2l.3-.9c.1-.3.3-.6.5-.9.4-.5.8-1 1.4-1.4.3-.2.6-.3.9-.5l.9-.3c.7-.1 1.3-.1 2 0l.9.3c.3.1.6.3.9.5.3.2.5.4.8.6.2.2.4.5.6.8.2.3.3.6.5.9l.3.9c.1.6.1 1.3 0 2l-.3.9c-.1.3-.3.6-.5.9-.2.3-.4.5-.6.8-.2.2-.5.4-.8.6-.3.2-.6.3-.9.5l-.9.3c-.3.1-.7.1-1 .1zM424.9 248.3c-2.4-1.4-3.2-4.4-1.8-6.8 1.4-2.4 4.4-3.2 6.8-1.8 2.4 1.4 3.2 4.4 1.8 6.8-.9 1.5-2.5 2.5-4.3 2.5-.8-.1-1.7-.3-2.5-.7zm9.6-16.6c-2.4-1.4-3.2-4.4-1.8-6.8 1.4-2.4 4.4-3.2 6.8-1.8 2.4 1.4 3.2 4.4 1.8 6.8-.9 1.5-2.5 2.5-4.3 2.5-.9 0-1.7-.2-2.5-.7zm9.5-16.5c-2.4-1.4-3.2-4.4-1.8-6.8 1.4-2.4 4.4-3.2 6.8-1.8 2.4 1.4 3.2 4.4 1.8 6.8-.9 1.5-2.5 2.5-4.3 2.5-.9 0-1.7-.3-2.5-.7zm9.5-16.6c-2.4-1.4-3.2-4.4-1.8-6.8 1.4-2.4 4.4-3.2 6.8-1.8 2.4 1.4 3.2 4.4 1.8 6.8-.9 1.5-2.5 2.5-4.3 2.5-.8 0-1.7-.2-2.5-.7zm9.6-16.5c-2.4-1.4-3.2-4.4-1.8-6.8 1.4-2.4 4.4-3.2 6.8-1.8 2.4 1.4 3.2 4.4 1.8 6.8-.9 1.5-2.5 2.5-4.3 2.5-.9 0-1.7-.3-2.5-.7zM475.2 166.2c-.3 0-.7 0-1-.1l-.9-.3c-.3-.1-.6-.3-.9-.5-.6-.4-1-.8-1.4-1.4-.2-.3-.3-.6-.5-.9l-.3-.9c-.1-.6-.1-1.3 0-1.9l.3-.9c.1-.3.3-.6.5-.9.4-.5.8-1 1.4-1.4.3-.2.6-.3.9-.5l.9-.3c.6-.1 1.3-.1 2 0l.9.3c.3.1.6.3.9.5.3.2.5.4.8.6.2.2.4.5.6.8.2.3.3.6.5.9l.3.9c.1.6.1 1.3 0 1.9l-.3.9c-.1.3-.3.6-.5.9-.2.3-.4.5-.6.8-.2.2-.5.4-.8.6-.3.2-.6.3-.9.5l-.9.3c-.4.1-.7.1-1 .1zM478.4 370.2c-.3 0-.7 0-1-.1l-.9-.3c-.3-.1-.6-.3-.9-.5-.3-.2-.5-.4-.8-.6-.2-.2-.4-.5-.6-.8-.2-.3-.3-.6-.5-.9l-.3-.9c-.1-.3-.1-.7-.1-1 0-.3 0-.7.1-1l.3-.9c.1-.3.3-.6.5-.9.2-.3.4-.5.6-.8.2-.2.5-.4.8-.6.3-.2.6-.3.9-.5l.9-.3c.7-.1 1.3-.1 2 0l.9.3c.3.1.6.3.9.5.5.4 1 .8 1.4 1.4.2.3.3.6.5.9l.3.9c.1.3.1.7.1 1 0 .3 0 .7-.1 1l-.3.9c-.1.3-.3.6-.5.9-.2.3-.4.5-.6.8-1 1-2.3 1.6-3.6 1.5zM568.9 365.2c0-2.8 2.2-5 5-5s5 2.2 5 5-2.2 5-5 5-5-2.2-5-5zm-19.1 0c0-2.8 2.2-5 5-5s5 2.2 5 5-2.2 5-5 5c-2.8.1-5-2.2-5-5 0 .1 0 .1 0 0zm-19.1 0c0-2.8 2.2-5 5-5s5 2.2 5 5-2.2 5-5 5c-2.8.1-5-2.2-5-5 0 .1 0 .1 0 0zm-19.1 0c0-2.8 2.2-5 5-5s5 2.2 5 5-2.2 5-5 5c-2.8.1-5-2.2-5-5 0 .1 0 .1 0 0zm-19.1 0c0-2.8 2.2-5 5-5s5 2.2 5 5-2.2 5-5 5c-2.8.1-5-2.2-5-5zM593 370.2c-1.3 0-2.6-.5-3.5-1.5-.2-.2-.4-.5-.6-.8-.2-.3-.3-.6-.5-.9l-.3-.9c-.1-.3-.1-.7-.1-1 0-.3 0-.7.1-1l.3-.9c.1-.3.3-.6.5-.9.2-.3.4-.5.6-.8.2-.2.5-.4.8-.6.3-.2.6-.3.9-.5l.9-.3c.7-.1 1.3-.1 2 0l.9.3c.3.1.6.3.9.5.5.4 1 .8 1.4 1.4.2.3.3.6.5.9l.3.9c.1.3.1.7.1 1 0 .3 0 .7-.1 1l-.3.9c-.1.3-.3.6-.5.9-.2.3-.4.5-.6.8-1.1 1-2.4 1.6-3.7 1.5zM417.9 475c-.3 0-.7 0-1-.1l-.9-.3c-.3-.1-.6-.3-.9-.5-.5-.4-1-.8-1.4-1.4-.2-.3-.3-.6-.5-.9l-.3-.9c-.1-.3-.1-.7-.1-1 0-.3 0-.7.1-1l.3-.9c.1-.3.3-.6.5-.9.2-.3.4-.5.6-.8.2-.2.5-.4.8-.6.3-.2.6-.3.9-.5.9-.4 1.9-.5 2.9-.3l.9.3c.3.1.6.3.9.5.3.2.5.4.8.6.2.2.4.5.6.8.2.3.3.6.5.9l.3.9c.1.3.1.7.1 1 0 .3 0 .7-.1 1l-.3.9c-.1.3-.3.6-.5.9-.2.3-.4.5-.6.8-1 1-2.3 1.5-3.6 1.5zM462.5 557c-1.4-2.4-.6-5.4 1.8-6.8 2.4-1.4 5.4-.6 6.8 1.8 1.4 2.4.6 5.4-1.8 6.8-.8.4-1.6.7-2.5.7-1.8 0-3.4-1-4.3-2.5zm-9.8-16.9c-1.4-2.4-.6-5.4 1.8-6.8 2.4-1.4 5.4-.6 6.8 1.8 1.4 2.4.6 5.4-1.8 6.8-.8.4-1.6.7-2.5.7-1.8 0-3.4-.9-4.3-2.5zm-9.8-16.9c-1.4-2.4-.6-5.4 1.8-6.8 2.4-1.4 5.4-.6 6.8 1.8 1.4 2.4.6 5.4-1.8 6.8-.8.4-1.6.7-2.5.7-1.7 0-3.4-.9-4.3-2.5zm-9.8-16.9c-1.4-2.4-.6-5.4 1.8-6.8 2.4-1.4 5.4-.6 6.8 1.8 1.4 2.4.6 5.4-1.8 6.8-.8.4-1.6.7-2.5.7-1.7 0-3.4-.9-4.3-2.5zm-9.8-16.9c-1.4-2.4-.6-5.4 1.8-6.8 2.4-1.4 5.4-.6 6.8 1.8 1.4 2.4.6 5.4-1.8 6.8-.8.4-1.6.7-2.5.7-1.7 0-3.4-.9-4.3-2.5zM476.6 576.4c-.3 0-.7 0-1-.1l-.9-.3c-.3-.1-.6-.3-.9-.5-.3-.2-.5-.4-.8-.6-.2-.2-.4-.5-.6-.8-.2-.3-.3-.6-.5-.9l-.3-.9c-.1-.3-.1-.7-.1-1 0-.3 0-.7.1-1l.3-.9c.1-.3.3-.6.5-.9.2-.3.4-.5.6-.8 2-2 5.1-2 7.1 0 .2.2.4.5.6.8.2.3.3.6.5.9l.3.9c.1.3.1.7.1 1 0 .3 0 .7-.1 1l-.3.9c-.1.3-.3.6-.5.9-.2.3-.4.5-.6.8-.2.2-.5.4-.8.6-.3.2-.6.3-.9.5l-.9.3c-.3.1-.6.1-.9.1zM296.9 475c-1.3 0-2.6-.5-3.5-1.5-.2-.2-.4-.5-.6-.8-.2-.3-.3-.6-.5-.9l-.3-.9c-.1-.3-.1-.7-.1-1 0-.3 0-.7.1-1l.3-.9c.1-.3.3-.6.5-.9.2-.3.4-.5.6-.8 1.4-1.4 3.6-1.9 5.4-1.1.3.1.6.3.9.5.3.2.5.4.8.6.2.2.4.5.6.8.2.3.3.6.5.9l.3.9c.1.3.1.7.1 1 0 .3 0 .7-.1 1l-.3.9c-.1.3-.3.6-.5.9-1 1.5-2.5 2.3-4.2 2.3zM246.7 557.1c-2.4-1.4-3.2-4.4-1.8-6.8 1.4-2.4 4.4-3.2 6.8-1.8 2.4 1.4 3.2 4.4 1.8 6.8-.9 1.5-2.5 2.5-4.3 2.5-.9-.1-1.8-.3-2.5-.7zm9.5-16.6c-2.4-1.4-3.2-4.4-1.8-6.8 1.4-2.4 4.4-3.2 6.8-1.8 2.4 1.4 3.2 4.4 1.8 6.8-.9 1.5-2.5 2.5-4.3 2.5-.9 0-1.7-.2-2.5-.7zm9.6-16.5c-2.4-1.4-3.2-4.4-1.8-6.8 1.4-2.4 4.4-3.2 6.8-1.8 2.4 1.4 3.2 4.4 1.8 6.8-.9 1.6-2.6 2.5-4.3 2.5-.9 0-1.8-.3-2.5-.7zm9.5-16.5c-2.4-1.4-3.2-4.4-1.8-6.8 1.4-2.4 4.4-3.2 6.8-1.8 2.4 1.4 3.2 4.4 1.8 6.8-.9 1.6-2.6 2.5-4.3 2.5-.9-.1-1.7-.3-2.5-.7zm9.6-16.6c-2.4-1.4-3.2-4.4-1.8-6.8 1.4-2.4 4.4-3.2 6.8-1.8 2.4 1.4 3.2 4.4 1.8 6.8-.9 1.6-2.5 2.5-4.3 2.5-.9 0-1.8-.3-2.5-.7zM239.6 574.3c-.3 0-.7 0-1-.1l-.9-.3c-.3-.1-.6-.3-.9-.5-.3-.2-.5-.4-.8-.6-2-2-2-5.1 0-7.1.2-.2.5-.4.8-.6.3-.2.6-.3.9-.5 1.2-.5 2.6-.5 3.8 0 .3.1.6.3.9.5 2.3 1.5 2.9 4.6 1.4 6.9-.4.5-.8 1-1.4 1.4-.3.2-.6.3-.9.5l-.9.3c-.3 0-.7.1-1 .1zM236.4 370.2c-.3 0-.7 0-1-.1l-.9-.3c-.3-.1-.6-.3-.9-.5-.3-.2-.5-.4-.8-.6-.2-.2-.4-.5-.6-.8-.2-.3-.3-.6-.5-.9l-.3-.9c-.1-.3-.1-.7-.1-1 0-.3 0-.7.1-1l.3-.9c.1-.3.3-.6.5-.9.4-.5.8-1 1.4-1.4.3-.2.6-.3.9-.5l.9-.3c2-.4 4 .4 5.1 2.1.2.3.3.6.5.9l.3.9c.1.3.1.7.1 1 0 .3 0 .7-.1 1l-.3.9c-.1.3-.3.6-.5.9-.2.3-.4.5-.6.8-.2.2-.5.4-.8.6-.3.2-.6.3-.9.5l-.9.3c-.2.2-.5.2-.9.2zM212.3 365.2c0-2.8 2.2-5 5-5s5 2.2 5 5-2.2 5-5 5c-2.7 0-5-2.2-5-5zm-19.1 0c0-2.8 2.2-5 5-5s5 2.2 5 5-2.2 5-5 5c-2.7 0-5-2.2-5-5zm-19.1 0c0-2.8 2.2-5 5-5s5 2.2 5 5-2.2 5-5 5c-2.7 0-5-2.2-5-5zm-19.1 0c0-2.8 2.2-5 5-5s5 2.2 5 5-2.2 5-5 5c-2.7.1-5-2.2-5-5 0 .1 0 .1 0 0zm-19.1 0c0-2.8 2.2-5 5-5s5 2.2 5 5-2.2 5-5 5c-2.7 0-5-2.2-5-5zM121.8 370.2c-.3 0-.7 0-1-.1l-.9-.3c-.3-.1-.6-.3-.9-.5-.3-.2-.5-.4-.8-.6-.2-.2-.4-.5-.6-.8-.2-.3-.3-.6-.5-.9l-.3-.9c-.1-.3-.1-.7-.1-1 0-.3 0-.7.1-1l.3-.9c.1-.3.3-.6.5-.9.4-.5.8-1 1.4-1.4.3-.2.6-.3.9-.5l.9-.3c2-.4 4 .4 5.1 2.1.2.3.3.6.5.9l.3.9c.1.3.1.7.1 1 0 .3 0 .7-.1 1l-.3.9c-.1.3-.3.6-.5.9-.2.3-.4.5-.6.8-.2.2-.5.4-.8.6-.3.2-.6.3-.9.5l-.9.3c-.2.2-.6.2-.9.2zM296.9 265.5c-.3 0-.7 0-1-.1l-.9-.3c-.3-.1-.6-.3-.9-.5-.3-.2-.5-.4-.8-.6-.2-.2-.4-.5-.6-.8-.2-.3-.3-.6-.5-.9l-.3-.9c-.1-.3-.1-.7-.1-1 0-1.3.5-2.6 1.5-3.5.2-.2.5-.4.8-.6.3-.2.6-.3.9-.5l.9-.3c.7-.1 1.3-.1 2 0l.9.3c.3.1.6.3.9.5.5.4 1 .8 1.4 1.4.2.3.3.6.5.9l.3.9c.1.6.1 1.3 0 2l-.3.9c-.1.3-.3.6-.5.9-.2.3-.4.5-.6.8-.2.2-.5.4-.8.6-.3.2-.6.3-.9.5l-.9.3c-.3-.1-.6 0-1 0zM283 246.4c-1.4-2.4-.6-5.4 1.8-6.8 2.4-1.4 5.4-.6 6.8 1.8 1.4 2.4.6 5.4-1.8 6.8-.8.4-1.6.7-2.5.7-1.8 0-3.4-.9-4.3-2.5zm-9.5-16.5c-1.4-2.4-.6-5.4 1.8-6.8 2.4-1.4 5.4-.6 6.8 1.8 1.4 2.4.6 5.4-1.8 6.8-.8.4-1.6.7-2.5.7-1.8 0-3.4-1-4.3-2.5zm-9.6-16.5c-1.4-2.4-.6-5.4 1.8-6.8 2.4-1.4 5.4-.6 6.8 1.8 1.4 2.4.6 5.4-1.8 6.8-.8.4-1.6.7-2.5.7-1.7-.1-3.4-1-4.3-2.5zm-9.6-16.6c-1.4-2.4-.6-5.4 1.8-6.8 2.4-1.4 5.4-.6 6.8 1.8 1.4 2.4.6 5.4-1.8 6.8-.8.4-1.6.7-2.5.7-1.7 0-3.3-1-4.3-2.5zm-9.5-16.5c-1.4-2.4-.6-5.4 1.8-6.8 2.4-1.4 5.4-.6 6.8 1.8 1.4 2.4.6 5.4-1.8 6.8-.8.4-1.6.7-2.5.7-1.7 0-3.4-1-4.3-2.5zM239.6 166.2c-2.8 0-5-2.2-5-5s2.2-5 5-5 5 2.2 5 5c0 1.7-.8 3.2-2.2 4.2-.3.2-.6.3-.9.5l-.9.3h-1zM168.5 122.4c-2-.5-3.9-1.6-5.5-3-1.1-1.2-1.7-2.7-1.7-4.4-.1-1.7.7-3.4 2-4.4 1.6-1.2 3.6-1.8 5.6-1.6 1.7 0 3.4.2 5 .6.5.1.9.4 1.2.9.3.4.4.9.4 1.4v.9c0 .4-.2.7-.5.9-.3.2-.7.3-1.1.1-1.5-.6-3.1-.9-4.7-.9-1.8 0-2.8.7-2.8 2.2 0 1.2.8 2.1 2.4 2.6 2.8.8 4.7 1.8 5.8 3 1.1 1.2 1.7 2.8 1.6 4.4 0 4.3-2.7 6.4-8.1 6.4-1.6 0-3.2-.2-4.7-.8-.5-.2-.9-.5-1.1-.9-.3-.4-.4-1-.4-1.5v-1c0-.3.2-.7.5-.8.3-.2.7-.2 1 0 1.4.7 2.9 1.1 4.5 1.1.9.1 1.7-.2 2.4-.6.6-.4.9-1.1.8-1.8 0-.6-.2-1.2-.6-1.6-.6-.6-1.3-1-2-1.2zM181.1 131.2c-.5 0-.9-.2-1.2-.5-.3-.3-.5-.8-.5-1.2v-19.1c0-.9.8-1.7 1.7-1.7h1.7c.9 0 1.7.8 1.7 1.7v19.1c0 .5-.2.9-.5 1.2-.3.3-.7.5-1.2.5h-1.7zM192.2 131.5c-1.3 0-2.5-.4-3.4-1.3-.9-.9-1.4-2.2-1.3-3.5 0-3.6 2.7-5.5 8.1-5.5h1.1c.2 0 .3-.1.3-.2v-.1c.1-.6-.2-1.2-.6-1.7-.6-.4-1.3-.6-2-.5-1.5 0-2.9.2-4.4.6-.4.1-.8 0-1.1-.3-.3-.2-.5-.6-.5-1v-.1c0-.5.2-1 .5-1.4.3-.4.7-.7 1.2-.7 1.5-.3 3-.5 4.6-.5 2.6 0 4.5.5 5.6 1.4s1.6 2.5 1.6 4.7v8.1c0 .5-.2.9-.5 1.2-.3.3-.7.5-1.2.5H199c-.5 0-.9-.2-1.2-.5-.3-.3-.5-.8-.5-1.2v-.3h-.1c-1.2 1.5-3 2.3-5 2.3zm3.4-7.5c-2.4 0-3.7.8-3.7 2.2 0 .5.1.9.5 1.3.4.3.8.5 1.3.5.9 0 1.7-.3 2.3-.9.6-.7.9-1.5.9-2.4v-.4c0-.1-.1-.2-.2-.3h-1.1zM212.3 131.5c-2.2.2-4.3-.6-5.9-2-1.4-1.4-2.1-3.4-2.1-6-.1-2.2.6-4.3 2-6 1.5-1.5 3.6-2.2 5.7-2.1 1.1 0 2.2.1 3.3.3.5.1.9.3 1.2.7.3.4.5.8.5 1.3v.3c0 .4-.2.8-.5 1-.3.3-.7.4-1.1.3-.8-.1-1.7-.2-2.6-.2-1-.1-1.9.3-2.5 1.1-.6 1-.9 2.2-.8 3.4-.1 1.2.2 2.4.9 3.4.7.7 1.8 1.1 2.8 1 .8 0 1.7-.1 2.5-.2.4-.1.8 0 1.1.2.3.2.5.6.5 1v.3c0 .5-.2 1-.5 1.3-.3.4-.7.6-1.2.7-1.1.1-2.2.2-3.3.2zM221.6 131.2c-.4 0-.9-.2-1.2-.5-.3-.3-.5-.8-.5-1.2v-19.1c0-.4.2-.9.5-1.2.3-.3.7-.5 1.2-.5h1.5c.4 0 .9.2 1.2.5.3.3.5.7.5 1.2v11.1h.1l3.8-4.6c.7-.8 1.7-1.3 2.8-1.3h2.2c.4 0 .8.4.8.8 0 .2-.1.4-.2.5l-5.1 6c-.1.1-.1.3 0 .4l5.2 6.6c.2.2.2.6.1.9-.1.3-.4.5-.7.4h-2.2c-1.1 0-2.1-.5-2.7-1.3l-3.8-4.9h-.1v4.6c0 .5-.2.9-.5 1.2-.3.3-.7.5-1.2.5l-1.7-.1zM19.5 434.6c-.9 0-1.7-.8-1.7-1.7v-18.5c0-.9.8-1.7 1.7-1.7h1.9c.5 0 .9.2 1.2.5.3.3.5.7.5 1.2v15.7c0 .2.1.2.3.2h7.3c.9 0 1.7.8 1.7 1.7v.8c0 .9-.8 1.7-1.7 1.7l-11.2.1zM36.8 434.6c-.5 0-.9-.2-1.2-.5-.3-.3-.5-.8-.5-1.2v-18.5c0-.4.2-.9.5-1.2.3-.3.7-.5 1.2-.5H39c.5 0 .9.2 1.2.5.3.3.5.7.5 1.2v18.5c0 .4-.2.9-.5 1.2-.3.3-.7.5-1.2.5h-2.2zM46.6 434.6c-.9 0-1.7-.8-1.7-1.7v-18.5c0-.4.2-.9.5-1.2.3-.3.8-.5 1.2-.5h1.5c1.1 0 2 .5 2.5 1.5l6.3 11.9v-11.7c0-.5.2-.9.5-1.2.3-.3.7-.5 1.2-.5h1.5c.5 0 .9.2 1.2.5.3.3.5.7.5 1.2v18.5c0 .9-.8 1.7-1.7 1.7h-1.4c-1.1.1-2-.5-2.5-1.5l-6.3-11.9v11.7c0 .9-.8 1.7-1.7 1.7h-1.6zM67.5 434.6c-.5 0-.9-.2-1.2-.5-.3-.3-.5-.8-.5-1.2v-18.5c0-.4.2-.9.5-1.2.3-.3.7-.5 1.2-.5h10.6c.4 0 .9.2 1.2.5.3.3.5.7.5 1.2v.7c0 .5-.2.9-.5 1.2-.3.3-.7.5-1.2.5h-7c-.1 0-.2.1-.2.2v4.1c0 .2.1.3.2.3h6.4c.4 0 .9.2 1.2.5.3.3.5.7.5 1.2v.5c0 .5-.2.9-.5 1.2-.3.3-.7.5-1.2.5h-6.3c-.1 0-.2.1-.2.2v5c0 .1.1.2.2.2h7.1c.4 0 .9.2 1.2.5.3.3.5.7.5 1.2v.7c0 .5-.2.9-.5 1.2-.3.3-.7.5-1.2.5l-10.8-.2zM235.6 719.6c-2.9.2-5.7-.9-7.7-2.9-1.9-1.9-2.8-4.7-2.8-8.3 0-3.6.9-6.4 2.7-8.3 2-2.1 4.8-3.2 7.6-3 1.4 0 2.7.1 4.1.3.5.1.9.3 1.2.7.3.4.5.9.5 1.3v1c0 .4-.2.8-.5 1-.3.2-.7.3-1.1.2-1.1-.3-2.3-.5-3.5-.5-1.6-.1-3.2.6-4.2 1.8-1.1 1.5-1.6 3.4-1.5 5.3-.1 1.9.5 3.8 1.6 5.3 1.1 1.3 2.7 2 4.3 1.9 1.2 0 2.4-.1 3.5-.5.4-.1.8 0 1.1.2.3.2.5.6.5 1v.9c0 .5-.2 1-.5 1.3-.3.4-.7.6-1.2.7-1.4.6-2.7.7-4.1.6zM245.9 719.3c-.9 0-1.7-.8-1.7-1.7v-19.1c0-.9.8-1.7 1.7-1.7h1.4c.9 0 1.7.8 1.7 1.7v6.8h.1c1.2-1.2 2.8-1.9 4.5-1.9 1.5-.2 3 .4 4 1.6.8 1 1.2 2.9 1.2 5.6v7c0 .9-.8 1.7-1.7 1.7h-1.3c-.9 0-1.7-.8-1.7-1.7v-6.4c.1-1.1-.1-2.2-.5-3.2-.4-.6-1.1-.9-1.8-.8-.7 0-1.4.3-1.9.9-.5.5-.9 1.2-.9 1.9v7.6c0 .9-.8 1.7-1.7 1.7h-1.4zM266.1 719.6c-1.3 0-2.5-.4-3.4-1.3-.9-.9-1.4-2.2-1.3-3.5 0-3.6 2.7-5.5 8.1-5.5h1.1c.2 0 .3-.1.3-.2v-.1c.1-.6-.2-1.2-.6-1.7-.6-.4-1.3-.6-2-.5-1.5 0-2.9.2-4.4.6-.4.1-.8 0-1.1-.3-.3-.2-.5-.6-.5-1v-.1c0-.5.2-1 .5-1.4.3-.4.7-.7 1.2-.7 1.5-.3 3-.5 4.6-.5 2.6 0 4.5.5 5.6 1.4 1.1.9 1.6 2.5 1.6 4.7v8.1c0 .9-.8 1.7-1.7 1.7H273c-1 0-1.7-.8-1.8-1.7v-.3h-.2c-1.2 1.5-3 2.4-4.9 2.3zm3.4-7.4c-2.4 0-3.7.8-3.7 2.2 0 .5.1.9.5 1.3.3.3.8.5 1.3.5.9 0 1.7-.3 2.3-.9.6-.7.9-1.5.9-2.4v-.4c0-.1-.1-.3-.2-.3h-1.1zM279.5 707.7c-.5 0-.9-.2-1.2-.5-.3-.3-.5-.7-.5-1.2 0-.9.8-1.7 1.7-1.7h1.2c.2 0 .2-.1.2-.3v-3.7c0-.9.8-1.7 1.7-1.7h1.4c.9 0 1.7.8 1.7 1.7v3.7c0 .1.1.3.2.3h3c.4 0 .9.2 1.2.5.3.3.5.7.5 1.2 0 .9-.8 1.7-1.7 1.7H286c-.1 0-.3.1-.3.2V713.1c-.1.8 0 1.6.3 2.4.2.3.8.5 1.5.5.3 0 .7 0 1-.1.4-.1.8 0 1.2.3.3.2.5.6.5 1v.2c0 .5-.2 1-.5 1.3-.3.4-.7.6-1.2.7-.7.1-1.4.1-2.2.1-2 0-3.5-.4-4.3-1.3s-1.2-2.4-1.2-4.7V708c0-.2-.1-.3-.2-.3h-1.1zM468.6 719.1c-.4 0-.9-.2-1.2-.5-.3-.3-.5-.7-.5-1.2V699c0-.5.2-.9.5-1.2.3-.3.7-.5 1.2-.5h10.6c.5 0 .9.2 1.2.5.3.3.5.8.5 1.2v.7c0 .4-.2.9-.5 1.2-.3.3-.7.5-1.2.5h-7c-.1 0-.2.1-.2.2v4.1c0 .2.1.3.2.3h6.4c.5 0 .9.2 1.2.5.3.3.5.8.5 1.2v.4c0 .4-.2.9-.5 1.2-.3.3-.7.5-1.2.5h-6.4c-.1 0-.2.1-.2.2v5c0 .1.1.2.2.2h7.1c.5 0 .9.2 1.2.5.3.3.5.8.5 1.2v.7c0 .4-.2.9-.5 1.2-.3.3-.7.5-1.2.5l-10.7-.2zM485.4 719.4l-.9-1.3c-.3-.4-.3-.8-.2-1.2.1-.4.4-.8.8-1 3.2-1.9 6.2-4.2 8.7-6.9.1-.1.1-.2 0-.4-2.1-1.7-4.1-3.2-6.1-4.6-.4-.3-.6-.6-.7-1.1-.1-.4 0-.9.3-1.2l.9-1.1c.3-.4.7-.6 1.2-.7.5-.1.9.1 1.3.3 1.9 1.3 3.9 2.8 6 4.5.1.1.2.1.3 0 1.5-2.3 2.8-4.8 3.7-7.4.2-.4.5-.8.9-1 .4-.2.9-.3 1.3-.3l1.6.4c.4.1.8.4 1 .7.2.4.3.8.1 1.2-1.1 3.4-2.6 6.7-4.6 9.7-.1.1-.1.3.1.4 2.1 1.7 4.1 3.5 6.1 5.3.3.3.5.7.6 1.2 0 .5-.1.9-.4 1.2l-1 1.1c-.3.3-.7.5-1.2.6-.4 0-.9-.1-1.2-.4-1.7-1.6-3.7-3.3-5.9-5.2-.1-.1-.3-.1-.4 0-2.9 3.1-6.2 5.7-9.9 7.8-.4.2-.9.3-1.3.2-.4-.1-.8-.4-1.1-.8zM511.2 710.8c-.9 0-1.7-.8-1.7-1.7v-1.4c0-.9.8-1.7 1.7-1.7h21.6c.9 0 1.7.8 1.7 1.7v1.4c0 .9-.8 1.7-1.7 1.7h-21.6zM536.9 719.3l-.8-1.3c-.2-.4-.3-.8-.2-1.2.1-.4.4-.8.8-1 .8-.4 1.4-1 2-1.6.5-.7.9-1.5 1.1-2.4.3-1.2.5-2.4.5-3.6.1-1.3.1-3.2.1-5.7V698c0-.9.8-1.7 1.7-1.7h1.5c.9 0 1.7.8 1.7 1.7v4.5c.1 3-.1 6-.5 8.9-.2 1.8-.9 3.6-1.8 5.2-.9 1.4-2.1 2.5-3.6 3.3-.4.2-.9.3-1.3.2-.5-.1-.9-.4-1.2-.8zm13.2 1c-.4 0-.9-.2-1.2-.5-.3-.3-.5-.7-.5-1.2V698c0-.5.2-.9.5-1.2.3-.3.7-.5 1.2-.5h1.6c.5 0 .9.2 1.2.5.3.3.5.8.5 1.2v17c0 .1.1.2.3.2 1.3-.4 2.4-1.3 3.1-2.5.9-1.5 1.4-3.2 1.6-5 .1-.4.3-.8.7-1.1.3-.3.8-.4 1.2-.3l1.2.2c.5.1.9.3 1.1.7.3.4.4.8.4 1.3-.6 4-1.9 7-4 8.9-2 1.8-5 2.8-8.9 2.9zM460.7 131.9c-2.8.2-5.6-.9-7.7-2.9-1.9-1.9-2.8-4.7-2.8-8.3 0-3.6.9-6.3 2.7-8.3 2-2.1 4.8-3.1 7.6-3 1.4 0 2.7.1 4.1.3.5.1.9.3 1.2.7.3.4.5.9.5 1.3v1c0 .4-.2.8-.5 1-.3.2-.7.3-1.1.2-1.1-.3-2.3-.5-3.5-.4-1.6-.1-3.2.6-4.2 1.8-1.1 1.5-1.6 3.4-1.5 5.3-.1 1.9.5 3.8 1.6 5.3 1.1 1.3 2.7 2 4.3 1.9 1.2 0 2.4-.1 3.5-.4.4-.1.8 0 1.1.2.3.2.5.6.5 1v.9c0 .5-.2 1-.5 1.4-.3.4-.7.6-1.2.7-1.3.2-2.7.3-4.1.3zM471 131.6c-.9 0-1.7-.8-1.7-1.7v-19.1c0-.9.8-1.7 1.7-1.7h1.4c.9 0 1.7.8 1.7 1.7v6.8h.1c1.2-1.2 2.8-1.9 4.5-1.9 1.5-.2 3 .4 4 1.6.8 1.1 1.2 2.9 1.2 5.6v7c0 .9-.8 1.7-1.7 1.7h-1.3c-.9 0-1.7-.8-1.7-1.7v-6.4c.1-1.1-.1-2.2-.5-3.2-.4-.6-1.1-.9-1.8-.8-.7 0-1.4.3-1.9.9-.5.5-.9 1.2-.9 1.9v7.6c0 .9-.8 1.7-1.7 1.7H471zM491.2 131.9c-1.3 0-2.5-.4-3.4-1.3-.9-.9-1.4-2.2-1.3-3.5 0-3.6 2.7-5.5 8.1-5.5h1.1c.2 0 .3-.1.3-.2v-.2c.1-.6-.2-1.2-.6-1.7-.6-.4-1.3-.6-2-.5-1.5 0-2.9.2-4.4.6-.4.1-.8 0-1.1-.3-.3-.2-.5-.6-.5-1v-.1c0-.5.2-1 .5-1.4.3-.4.7-.6 1.2-.7 1.5-.3 3-.5 4.6-.5 2.6 0 4.5.5 5.6 1.4s1.6 2.5 1.6 4.7v8.1c0 .9-.8 1.7-1.7 1.7h-1c-1 0-1.7-.8-1.8-1.7v-.3h-.1c-1.3 1.6-3.2 2.4-5.1 2.4zm3.4-7.5c-2.4 0-3.7.8-3.7 2.2 0 .5.1.9.5 1.3.3.3.8.5 1.3.5.9 0 1.7-.3 2.3-.9.6-.7.9-1.5.9-2.4v-.4c0-.1-.1-.3-.2-.3h-1.1zM504.6 120c-.5 0-.9-.2-1.2-.5-.3-.3-.5-.7-.5-1.2 0-.9.8-1.7 1.7-1.7h1.2c.2 0 .2-.1.2-.3v-3.7c0-.9.8-1.7 1.7-1.7h1.4c.9 0 1.7.8 1.7 1.7v3.7c0 .1.1.3.2.3h3c.4 0 .9.2 1.2.5.3.3.5.7.5 1.2 0 .4-.2.9-.5 1.2-.3.3-.7.5-1.2.5h-2.9c-.1 0-.3.1-.3.2V125.4c-.1.8 0 1.6.3 2.4.2.3.8.5 1.5.5.3 0 .7 0 1-.1.4-.1.8 0 1.2.3.3.2.5.6.5 1v.2c0 .5-.2 1-.5 1.3-.3.4-.7.6-1.2.7-.7.1-1.4.1-2.2.1-2 0-3.5-.4-4.3-1.3s-1.2-2.4-1.2-4.7v-5.6c0-.2-.1-.3-.2-.3l-1.1.1zM521 129.9l-2.8-12.3c-.1-.4 0-.8.3-1.1.2-.3.6-.5 1-.5h1.5c.5 0 .9.2 1.3.5s.6.7.7 1.2l1.5 10m0-.1l1.7-10c.1-.5.3-.9.7-1.2.4-.3.8-.5 1.3-.5h2.2c1 0 1.8.7 2 1.7l1.6 10m0 0l1.5-10c.1-.5.3-.9.7-1.2.4-.3.8-.5 1.3-.5h1.4c.4 0 .8.2 1.1.5.3.3.4.7.2 1.1l-2.8 12.3c-.1.5-.4.9-.8 1.2-.4.3-.9.5-1.3.5h-2.4c-.5 0-.9-.2-1.3-.5s-.6-.7-.7-1.2l-1.7-9.7m-.1.1l-1.7 9.7c-.1.5-.3.9-.7 1.2-.4.3-.8.5-1.3.5h-2.3c-.5 0-1-.2-1.3-.5-.4-.3-.6-.7-.7-1.2l8-9.7zM555.1 129.7c-3.3 2.8-8.2 2.8-11.6 0-2.8-3.5-2.8-8.4 0-11.9 3.3-2.8 8.2-2.8 11.6 0 2.8 3.5 2.8 8.4 0 11.9zm-3.5-9.5c-.9-1.2-2.7-1.5-3.9-.5-.2.2-.4.3-.5.5-1 2.3-1 4.9 0 7.2.9 1.2 2.7 1.5 3.9.5.2-.2.4-.3.5-.5.9-2.3.9-4.9 0-7.2zM561.4 131.6c-.4 0-.9-.2-1.2-.5-.3-.3-.5-.7-.5-1.2v-12.2c0-.5.2-.9.5-1.2.3-.3.7-.5 1.2-.5h1.5c.5 0 .9.2 1.2.5.3.3.5.8.5 1.2v1.3h.1c1.2-1.7 3.1-2.7 5.2-2.9.4-.1.9.1 1.2.4.3.3.5.8.5 1.2v.2c0 .4-.2.9-.5 1.2-.3.3-.8.5-1.2.6-1.4.1-2.7.7-3.8 1.7-.9 1-1.4 2.3-1.3 3.6v4.9c0 .4-.2.9-.5 1.2-.3.3-.7.5-1.2.5h-1.7zM575.7 131.6c-.4 0-.9-.2-1.2-.5-.3-.3-.5-.7-.5-1.2v-19.1c0-.5.2-.9.5-1.2.3-.3.7-.5 1.2-.5h1.5c.4 0 .9.2 1.2.5.3.3.5.7.5 1.2v11.1h.1l3.8-4.6c.7-.9 1.7-1.3 2.8-1.3h2.2c.3 0 .6.2.7.4.2.3.1.6-.1.8l-5.1 6c-.1.1-.1.3 0 .4l5.2 6.6c.2.2.2.6.1.9-.1.3-.4.5-.7.4h-2.2c-1.1 0-2.1-.5-2.7-1.4l-3.7-4.9h-.1v4.6c0 .5-.2.9-.5 1.2-.3.3-.7.5-1.2.5h-1.8zM611.8 431.6c-.9 0-1.7-.8-1.7-1.7v-18.5c0-.9.8-1.7 1.7-1.7h1.7c1 0 2 .6 2.3 1.6l4.7 11.3m.1-.1l4.7-11.3c.4-1 1.3-1.6 2.3-1.6h1.8c.9 0 1.7.8 1.7 1.7v18.5c0 .9-.8 1.7-1.7 1.7H628c-.5 0-.9-.2-1.2-.5-.3-.3-.5-.8-.5-1.2v-11.7h-.1l-2.9 6.8c-.2.5-.5.9-1 1.1-.4.3-.9.4-1.4.4h-.8c-.5 0-1-.1-1.4-.4-.4-.3-.8-.7-.9-1.1l-2.9-6.8h-.1v11.7c0 .5-.2.9-.5 1.2-.3.3-.7.5-1.2.5l7.5-9zM636.9 413c-.9 0-1.7-.8-1.7-1.7v-.5c0-.9.8-1.7 1.7-1.7h1.7c.9 0 1.7.8 1.7 1.7v.5c0 .9-.8 1.7-1.7 1.7h-1.7zm0 18.6c-.9 0-1.7-.8-1.7-1.7v-12.2c0-.9.8-1.7 1.7-1.7h1.7c.9 0 1.7.8 1.7 1.7v12.2c0 .9-.8 1.7-1.7 1.7h-1.7zM651.2 431.9c-2.2.2-4.3-.6-5.9-2-1.4-1.3-2.1-3.4-2.1-6.1-.1-2.2.6-4.3 2-6 1.5-1.5 3.6-2.2 5.7-2.1 1.1 0 2.2.1 3.3.3.5.1.9.3 1.2.7.3.4.5.8.5 1.3v.3c0 .4-.2.8-.5 1-.3.3-.7.4-1.1.3-.8-.1-1.7-.2-2.5-.2-1-.1-1.9.3-2.5 1.1-.6 1-.9 2.2-.8 3.4-.1 1.2.2 2.4.9 3.4.7.7 1.8 1.1 2.8 1 .8 0 1.7-.1 2.5-.2.7-.2 1.4.3 1.6 1v.6c0 .5-.2 1-.5 1.3-.3.4-.7.6-1.2.7-1.2.1-2.3.2-3.4.2zM660.5 431.6c-.4 0-.9-.2-1.2-.5-.3-.3-.5-.8-.5-1.2v-12.2c0-.4.2-.9.5-1.2.3-.3.7-.5 1.2-.5h1.5c.5 0 .9.2 1.2.5.3.3.5.8.5 1.2v1.3h.1c1.2-1.7 3.1-2.8 5.2-2.9.4-.1.9.1 1.2.4.3.3.5.8.5 1.2v.2c0 .4-.2.9-.5 1.2-.3.3-.8.5-1.2.6-1.4.1-2.7.7-3.8 1.7-.9 1-1.4 2.3-1.3 3.6v4.9c0 .4-.2.9-.5 1.2-.3.3-.7.5-1.2.5h-1.7zM685.6 429.7c-3.3 2.8-8.2 2.8-11.6 0-2.8-3.5-2.8-8.4 0-11.9 3.3-2.8 8.2-2.8 11.6 0 2.7 3.5 2.7 8.4 0 11.9zm-3.6-9.5c-.9-1.2-2.7-1.5-3.9-.5-.2.2-.4.3-.5.5-1 2.3-1 4.9 0 7.2.9 1.2 2.7 1.5 3.9.5.2-.2.4-.3.5-.5 1-2.3 1-4.9 0-7.2zM695.6 425.6c-1.7-.2-3.3-.8-4.6-1.9-.9-.8-1.4-2.1-1.4-3.3-.1-1.4.6-2.7 1.7-3.5 1.5-.9 3.2-1.4 5-1.2 1.3 0 2.7.1 4 .3.5.1.9.3 1.2.7.3.4.5.8.5 1.3v.1c0 .4-.2.8-.5 1-.3.3-.7.4-1.1.3-1.2-.2-2.4-.4-3.6-.4-.6 0-1.2.1-1.7.3-.3.2-.5.5-.5.9 0 .8.6 1.3 1.8 1.5 1.7.2 3.4.8 4.8 1.8 1 .9 1.5 2.2 1.4 3.6.1 1.4-.6 2.7-1.7 3.5-1.5.9-3.2 1.4-4.9 1.2-1.5 0-3-.1-4.4-.5-.5-.1-.9-.4-1.2-.8-.3-.4-.5-.9-.5-1.4v-.1c0-.4.2-.8.5-1 .3-.2.7-.3 1.1-.2 1.3.3 2.5.5 3.8.5 1.5 0 2.2-.4 2.2-1.3 0-.4-.1-.7-.4-.9-.5-.3-1-.5-1.5-.5zM718 429.7c-3.3 2.8-8.2 2.8-11.6 0-2.8-3.5-2.8-8.4 0-11.9 3.3-2.8 8.2-2.8 11.6 0 2.8 3.5 2.8 8.4 0 11.9zm-3.5-9.5c-.9-1.2-2.7-1.5-3.9-.5-.2.2-.4.3-.5.5-1 2.3-1 4.9 0 7.2.9 1.2 2.7 1.5 3.9.5.2-.2.4-.3.5-.5.9-2.3.9-4.9 0-7.2zM723.2 420c-.4 0-.9-.2-1.2-.5-.3-.3-.5-.7-.5-1.2 0-.9.8-1.7 1.7-1.7h1.3c.2 0 .2-.1.2-.3v-.5c0-2.2.5-3.8 1.5-4.9 1.3-1.1 3-1.7 4.8-1.5.6 0 1.2 0 1.9.1.5.1.9.3 1.2.7.3.4.5.9.5 1.4v.1c0 .4-.2.8-.5 1-.3.2-.7.3-1.1.3h-.7c-.7-.1-1.4.1-2 .6-.4.7-.6 1.5-.5 2.3v.6c0 .1.1.3.2.3h2.6c.9 0 1.7.8 1.7 1.7 0 .5-.2.9-.5 1.2-.3.3-.8.5-1.2.5h-2.5c-.1 0-.3.1-.3.2v9.7c0 .9-.8 1.7-1.7 1.7h-1.6c-.9 0-1.7-.8-1.7-1.7v-9.6c0-.2-.1-.3-.2-.3l-1.4-.2zM738.5 420c-.4 0-.9-.2-1.2-.5-.3-.3-.5-.7-.5-1.2 0-.9.8-1.7 1.7-1.7h1.2c.2 0 .2-.1.2-.3v-3.7c0-.9.8-1.7 1.7-1.7h1.4c.9 0 1.7.8 1.7 1.7v3.7c0 .1.1.3.2.3h3c.4 0 .9.2 1.2.5.3.3.5.7.5 1.2 0 .4-.2.9-.5 1.2-.3.3-.7.5-1.2.5H745c-.1 0-.3.1-.3.2V425.4c-.1.8 0 1.6.3 2.4.2.3.8.5 1.5.5.3 0 .7 0 1-.1.4-.1.8 0 1.2.3.3.2.5.6.5 1v.2c0 .5-.2 1-.5 1.3-.3.4-.7.6-1.2.7-.7.1-1.4.1-2.2.1-2 0-3.5-.4-4.3-1.3s-1.2-2.4-1.2-4.7v-5.6c0-.2-.1-.3-.2-.3l-1.1.1zM637.6 443.9c-.9 0-1.7-.8-1.7-1.7v-.8c0-.9.8-1.7 1.7-1.7H651c.9 0 1.7.8 1.7 1.7v.8c0 .9-.8 1.7-1.7 1.7h-3.8c-.1 0-.2.1-.2.2V459.9c0 .9-.8 1.7-1.7 1.7h-1.8c-.9 0-1.7-.8-1.7-1.7v-15.7c0-.1-.1-.2-.2-.2h-.1l-3.9-.1zM660.5 461.9c-2.3.1-4.5-.6-6.3-2.1-1.5-1.6-2.3-3.8-2.2-6-.1-2.2.6-4.3 2-6 1.5-1.5 3.6-2.2 5.7-2.1 4.8 0 7.2 2.6 7.3 7.8 0 .5-.2.9-.6 1.2-.3.3-.8.5-1.3.5h-8c-.2 0-.3.1-.2.3.1.9.5 1.8 1.3 2.4.9.5 2 .8 3.1.7 1 0 2-.1 2.9-.4.7-.2 1.4.3 1.6 1v.4c0 .5-.2 1-.5 1.4-.3.4-.7.7-1.2.7-1.2.1-2.4.2-3.6.2zm-.8-13c-.7 0-1.5.2-2 .7-.5.7-.9 1.5-.9 2.4 0 .2.1.2.2.2h5.1c.1 0 .3-.1.3-.2v-.1c-.1-1.9-1-3-2.7-3zM673.2 461.9c-1.3 0-2.5-.4-3.4-1.3-.9-.9-1.4-2.2-1.3-3.5 0-3.6 2.7-5.5 8.1-5.5h1.1c.2 0 .3-.1.3-.2v-.1c.1-.6-.2-1.2-.6-1.6-.6-.4-1.3-.6-2-.5-1.5 0-2.9.2-4.4.6-.4.1-.8 0-1.1-.3-.3-.2-.5-.6-.5-1v-.1c0-.5.2-1 .5-1.4.3-.4.7-.7 1.2-.7 1.5-.3 3-.5 4.6-.5 2.6 0 4.5.5 5.6 1.4s1.6 2.5 1.6 4.7v8.1c0 .9-.8 1.7-1.7 1.7H680c-.5 0-.9-.2-1.2-.5-.3-.3-.5-.8-.5-1.2v-.3h-.1c-1.2 1.4-3 2.2-5 2.2zm3.4-7.5c-2.4 0-3.7.8-3.7 2.2 0 .5.1.9.5 1.3.4.3.8.5 1.3.5.9 0 1.7-.3 2.3-.9.6-.7.9-1.5.9-2.5v-.4c0-.1-.1-.3-.2-.3h-1.1zM687.9 461.6c-.9 0-1.7-.8-1.7-1.7v-12.2c0-.9.8-1.7 1.7-1.7h1.1c.5 0 .9.2 1.2.5.3.3.5.8.6 1.2v.3h.1c.9-1.4 2.4-2.2 4-2.3.8 0 1.5.1 2.2.5.6.4 1.2 1 1.5 1.8v.1l.1-.1c1.1-1.3 2.6-2.2 4.3-2.2 1.4-.1 2.7.4 3.7 1.4.8.9 1.1 2.5 1.1 4.6v8.2c0 .9-.8 1.7-1.7 1.7h-1.3c-.9 0-1.7-.8-1.7-1.7v-8c.1-.7-.1-1.5-.4-2.1-.3-.4-.8-.6-1.3-.5-.5 0-1 .2-1.3.6-.4.3-.6.7-.6 1.1v8.9c0 .9-.8 1.7-1.7 1.7h-1.3c-.9 0-1.7-.8-1.7-1.7v-8c.1-.7-.1-1.5-.3-2.1-.3-.4-.8-.6-1.3-.5-.5 0-1 .2-1.3.6-.3.3-.6.7-.6 1.1v8.9c0 .9-.8 1.7-1.7 1.7l-1.7-.1zM716.7 455.6c-1.7-.2-3.3-.8-4.6-1.9-.9-.8-1.4-2.1-1.4-3.3-.1-1.4.6-2.7 1.7-3.5 1.5-.9 3.2-1.4 5-1.2 1.3 0 2.7.1 4 .3.5.1.9.3 1.2.7.3.4.5.8.5 1.3v.1c0 .4-.2.8-.5 1-.3.3-.7.4-1.1.3-1.2-.2-2.4-.4-3.6-.4-.6 0-1.2.1-1.7.3-.3.2-.5.5-.5.9 0 .8.6 1.3 1.8 1.5 1.7.2 3.4.8 4.8 1.8 1 .9 1.5 2.2 1.4 3.6.1 1.4-.6 2.7-1.7 3.5-1.5.9-3.2 1.4-4.9 1.2-1.5 0-3-.1-4.4-.5-.5-.1-.9-.4-1.2-.8-.3-.4-.5-.9-.5-1.4v-.1c0-.4.2-.8.5-1 .3-.2.7-.3 1.1-.2 1.3.3 2.5.5 3.8.5 1.5 0 2.2-.4 2.2-1.3 0-.4-.1-.7-.4-.9-.5-.3-1-.5-1.5-.5zM130.9 719.5c-3.4 0-6-1-8.1-3-2-2-3-4.7-3-8.3 0-3.5 1-6.3 3-8.3 2-2 4.8-3 8.3-3 1.5 0 2.9.1 4.3.4.5.1.9.3 1.2.7.3.4.5.8.5 1.3v.8c0 .4-.2.8-.5 1-.3.3-.7.3-1.1.2-1.2-.3-2.5-.4-3.7-.4-4.5 0-6.7 2.4-6.7 7.2 0 2.4.5 4.2 1.6 5.4 1.1 1.2 2.6 1.8 4.6 1.8.6 0 1.2-.1 1.9-.2.2 0 .3-.1.3-.3V710c0-.2-.1-.2-.3-.2h-2.8c-.5 0-.9-.2-1.2-.5-.3-.3-.5-.7-.5-1.2v-.5c0-.5.2-.9.5-1.2.3-.3.7-.5 1.2-.5h6.2c.5 0 .9.2 1.2.5.3.3.5.7.5 1.2v9c0 .5-.1 1-.4 1.4-.3.4-.7.7-1.2.8-1.9.4-3.8.7-5.8.7zM154.6 717.3c-1.4 1.4-3.3 2.1-5.8 2.1s-4.4-.7-5.8-2.1-2.1-3.4-2.1-6 .7-4.5 2.1-6 3.3-2.1 5.8-2.1 4.4.7 5.8 2.1 2.1 3.4 2.1 6-.7 4.6-2.1 6zm-3.6-9.5c-.5-.7-1.2-1.1-2.2-1.1-1 0-1.7.4-2.2 1.1-.5.7-.7 1.9-.7 3.6s.2 2.9.7 3.6c.5.7 1.2 1.1 2.2 1.1 1 0 1.7-.4 2.2-1.1.5-.7.7-1.9.7-3.6s-.2-2.9-.7-3.6zM172 717.3c-1.4 1.4-3.3 2.1-5.8 2.1s-4.4-.7-5.8-2.1-2.1-3.4-2.1-6 .7-4.5 2.1-6 3.3-2.1 5.8-2.1 4.4.7 5.8 2.1 2.1 3.4 2.1 6-.7 4.6-2.1 6zm-3.5-9.5c-.5-.7-1.2-1.1-2.2-1.1-1 0-1.7.4-2.2 1.1-.5.7-.7 1.9-.7 3.6s.2 2.9.7 3.6c.5.7 1.2 1.1 2.2 1.1 1 0 1.7-.4 2.2-1.1.5-.7.7-1.9.7-3.6s-.2-2.9-.7-3.6zM181.9 718.9c-1.7 0-3.2-.7-4.3-2.1s-1.7-3.3-1.7-5.7c0-2.5.5-4.4 1.6-5.8 1.1-1.4 2.5-2 4.4-2 1.8 0 3.3.7 4.5 2.2l.1.1v-.2c0-.5.2-.9.5-1.2.3-.3.8-.5 1.2-.5h1.1c.5 0 .9.2 1.2.5.3.3.5.7.5 1.2v12.5c0 2.7-.7 4.7-2.2 6.1-1.5 1.4-3.6 2.1-6.5 2.1-1.2 0-2.3-.1-3.2-.2-.5-.1-.9-.3-1.2-.7-.3-.4-.5-.9-.5-1.4v-.6c0-.4.2-.7.5-1 .3-.2.7-.3 1.1-.2 1.1.3 2.1.4 3.1.4 1.4 0 2.5-.3 3.1-1 .7-.7 1-1.8 1-3.5v-.9h-.1c-1 1.3-2.4 1.9-4.2 1.9zm1.6-12c-1.9 0-2.9 1.4-2.9 4.2 0 1.4.3 2.5.8 3.1.5.7 1.2 1 2.1 1 .8 0 1.4-.3 2-.8.6-.5.8-1.1.8-1.8v-2.9c0-.8-.3-1.5-.8-2-.5-.6-1.2-.8-2-.8zM196.7 719.2c-.5 0-.9-.2-1.2-.5-.3-.3-.5-.7-.5-1.2v-19.1c0-.5.2-.9.5-1.2.3-.3.7-.5 1.2-.5h1.7c.5 0 .9.2 1.2.5.3.3.5.7.5 1.2v19.1c0 .5-.2.9-.5 1.2-.3.3-.7.5-1.2.5h-1.7zM211.6 719.5c-2.7 0-4.8-.7-6.3-2.1-1.5-1.4-2.2-3.4-2.2-6s.7-4.6 2-6c1.3-1.4 3.2-2.1 5.7-2.1 4.8 0 7.2 2.6 7.3 7.8 0 .5-.2.9-.6 1.2-.4.3-.8.5-1.3.5h-8c-.2 0-.3.1-.2.3.2 1.1.6 1.9 1.3 2.4s1.7.7 3.1.7c.9 0 1.9-.1 2.9-.4.4-.1.8 0 1.1.2.3.3.5.6.5 1v.1c0 .5-.2 1-.5 1.4-.3.4-.7.7-1.2.7-1.2.2-2.4.3-3.6.3zm-.8-13c-.9 0-1.6.2-2 .7s-.8 1.3-.9 2.4c0 .2.1.2.2.2h5.1c.2 0 .3-.1.3-.3-.1-1.9-1-3-2.7-3z"/></svg>